<svg xmlns="http://www.w3.org/2000/svg" version="1.1" x="1" y="1" width="2" height="2"> 
<path d="M 2.0,0.77379l -0.07384,0.15237" stroke="black" stroke-width="0.01" /> 
<path d="M 1.92111,1.0l 0.00505,-0.07384" stroke="black" stroke-width="0.01" /> 
<path d="M 1.92111,1.0l -0.05189,0.13079" stroke="black" stroke-width="0.01" /> 
<path d="M 1.72335,1.72335l 0.14587,-0.59256" stroke="black" stroke-width="0.01" /> 
<path d="M 1.54052,2.0l 0.18283,-0.27665" stroke="black" stroke-width="0.01" /> 
<path d="M 0.29084,0.0l -0.05963,0.23121" stroke="black" stroke-width="0.01" /> 
<path d="M 0.10338,1.0l 0.02899,-0.13237" stroke="black" stroke-width="0.01" /> 
<path d="M 0.13237,0.86763l 0.09883,-0.63642" stroke="black" stroke-width="0.01" /> 
<path d="M 0.10338,1.0l -0.02974,0.07364" stroke="black" stroke-width="0.01" /> 
<path d="M 0.0,1.06316l 0.07364,0.01048" stroke="black" stroke-width="0.01" /> 
<path d="M 1.98631,0.0l -0.00253,0.01622" stroke="black" stroke-width="0.01" /> 
<path d="M 1.66795,0.66795l 0.31583,-0.65173" stroke="black" stroke-width="0.01" /> 
<path d="M 1.64523,1.0l 0.02272,-0.33205" stroke="black" stroke-width="0.01" /> 
<path d="M 1.64523,1.0l -0.18329,0.46194" stroke="black" stroke-width="0.01" /> 
<path d="M 1.08103,2.0l 0.1579,-0.23893" stroke="black" stroke-width="0.01" /> 
<path d="M 1.23893,1.76107l 0.22301,-0.29913" stroke="black" stroke-width="0.01" /> 
<path d="M 0.74231,0.0l -0.08956,0.34726" stroke="black" stroke-width="0.01" /> 
<path d="M 0.57896,0.57896l 0.07379,-0.2317" stroke="black" stroke-width="0.01" /> 
<path d="M 0.48675,1.0l 0.09221,-0.42104" stroke="black" stroke-width="0.01" /> 
<path d="M 0.48675,1.0l -0.14004,0.34671" stroke="black" stroke-width="0.01" /> 
<path d="M 1.0,1.61912l -0.29734,0.08354" stroke="black" stroke-width="0.01" /> 
<path d="M 0.78459,2.0l -0.08193,-0.29734" stroke="black" stroke-width="0.01" /> 
<path d="M 0.0,1.29737l 0.34671,0.04934" stroke="black" stroke-width="0.01" /> 
<path d="M 1.3584,0.0l -0.0483,0.3101" stroke="black" stroke-width="0.01" /> 
<path d="M 1.36935,1.0l 0.02713,-0.39649" stroke="black" stroke-width="0.01" /> 
<path d="M 1.39649,0.60351l -0.08638,-0.29341" stroke="black" stroke-width="0.01" /> 
<path d="M 1.36935,1.0l -0.10492,0.26443" stroke="black" stroke-width="0.01" /> 
<path d="M 1.0,1.61912l 0.26443,-0.35469" stroke="black" stroke-width="0.01" /> 
<path d="M 1.0,0.55884l -0.10656,0.33461" stroke="black" stroke-width="0.01" /> 
<path d="M 0.87011,1.0l 0.02334,-0.10656" stroke="black" stroke-width="0.01" /> 
<path d="M 0.87011,1.0l -0.08802,0.21791" stroke="black" stroke-width="0.01" /> 
<path d="M 1.0,1.15669l -0.21791,0.06122" stroke="black" stroke-width="0.01" /> 
<path d="M 0.52306,2.0l -0.11299,-0.41007" stroke="black" stroke-width="0.01" /> 
<path d="M 0.0,1.53158l 0.41007,0.05835" stroke="black" stroke-width="0.01" /> 
<path d="M 1.09347,1.0l 0.00687,-0.10034" stroke="black" stroke-width="0.01" /> 
<path d="M 1.0,0.55884l 0.10034,0.34082" stroke="black" stroke-width="0.01" /> 
<path d="M 1.09347,1.0l -0.02655,0.06692" stroke="black" stroke-width="0.01" /> 
<path d="M 1.0,1.15669l 0.06692,-0.08976" stroke="black" stroke-width="0.01" /> 
<path d="M 0.26153,2.0l -0.0565,-0.20503" stroke="black" stroke-width="0.01" /> 
<path d="M 0.0,1.76579l 0.20503,0.02918" stroke="black" stroke-width="0.01" /> 
</svg>