<svg xmlns="http://www.w3.org/2000/svg" version="1.1" x="1" y="1" width="49.0" height="49.0"> 
<path d="M 3.0,19.38090987 L 3.06618509,19.06618509 L 3.08230421,19.0 L 3.11342892,18.88657108 L 3.26704926,18.26704926 L 3.34586766,18.0 L 3.50294138,17.50294138 L 3.50656842,17.49343158 L 3.67880278,17.0 L 3.76286918,16.76286918 L 4.0,16.23338764 L 4.06136605,16.06136605 L 4.08689304,16.0 L 4.15086084,15.84913916 L 4.34714449,15.34714449 L 4.51223827,15.0 L 4.66610492,14.66610492 L 5.0,14.08906565 L 5.0286536,14.0286536 L 5.04449452,14.0 L 5.09653372,13.90346628 L 5.36779268,13.36779268 L 5.59633141,13.0 L 5.74298658,12.74298658 L 6.0,12.39242235 L 6.14710149,12.14710149 L 6.25186444,12.0 L 6.54868985,11.54868985 L 6.982685,11.017315 L 6.99649011,11.0 L 6.99790464,10.99790464 M 3.0,19.38090987 L 2.86791132,19.86791132 L 2.83938752,20.0 L 2.8025191,20.1974809 L 2.69631668,20.69631668 L 2.64316062,21.0 L 2.58574299,21.41425701 L 2.56239154,21.56239154 L 2.5043598,22.0 L 2.46201882,22.46201882 L 2.45572369,22.54427631 L 2.41510033,23.0 L 2.39703714,23.39703714 L 2.38878782,23.61121218 L 2.37133465,24.0 L 2.3713346,24.3713346 L 2.3713346,24.6286654 L 2.37133465,25.0 L 2.38878782,25.38878782 L 2.39703714,25.60296286 L 2.41510033,26.0 L 2.45572369,26.45572369 L 2.46201882,26.53798118 L 2.5043598,27.0 L 2.56239154,27.43760846 L 2.58574299,27.58574299 L 2.64316062,28.0 L 2.69631668,28.30368332 L 2.8025191,28.8025191 L 2.83938752,29.0 L 2.86791132,29.13208868 L 3.0,29.61909013 L 3.06618509,29.93381491 L 3.08230421,30.0 L 3.11342892,30.11342892 L 3.26704926,30.73295074 L 3.34586766,31.0 L 3.50294138,31.49705862 L 3.50656842,31.50656842 L 3.67880278,32.0 L 3.76286918,32.23713082 L 4.0,32.76661236 L 4.06136605,32.93863395 L 4.08689304,33.0 L 4.15086084,33.15086084 L 4.34714449,33.65285551 L 4.51223827,34.0 L 4.66610492,34.33389508 L 5.0,34.91093435 L 5.0286536,34.9713464 L 5.04449452,35.0 L 5.09653372,35.09653372 L 5.36779268,35.63220732 L 5.59633141,36.0 L 5.74298658,36.25701342 L 6.0,36.60757765 L 6.14710149,36.85289851 L 6.25186444,37.0 L 6.54868985,37.45131015 L 6.982685,37.982685 L 6.99649011,38.0 L 6.99790464,38.00209536 " stroke="rgb(255,0,0)" stroke-width="0.245" fill="none" /> 
<path d="M 7.0,10.99564162 L 6.99790464,10.99790464 M 7.0,10.99564162 L 7.41977617,10.41977617 L 7.8007714,10.0 L 7.88735407,9.88735407 L 8.0,9.77781206 L 8.35542714,9.35542714 L 8.72376212,9.0 L 8.85210921,8.85210921 L 9.0,8.72376212 L 9.35542714,8.35542714 L 9.77781206,8.0 L 9.88735407,7.88735407 L 10.0,7.8007714 L 10.41977617,7.41977617 L 10.99564162,7.0 L 10.99790464,6.99790464 " stroke="rgb(255,0,0)" stroke-width="0.245" fill="none" /> 
<path d="M 7.0,38.00435838 L 7.41977617,38.58022383 L 7.8007714,39.0 L 7.88735407,39.11264593 L 8.0,39.22218794 L 8.35542714,39.64457286 L 8.72376212,40.0 L 8.85210921,40.14789079 M 7.0,38.00435838 L 6.99790464,38.00209536 " stroke="rgb(255,0,0)" stroke-width="0.245" fill="none" /> 
<path d="M 9.0,40.27623788 L 8.85210921,40.14789079 M 9.0,40.27623788 L 9.35542714,40.64457286 L 9.77781206,41.0 L 9.88735407,41.11264593 L 10.0,41.1992286 L 10.41977617,41.58022383 L 10.99564162,42.0 L 10.99790464,42.00209536 L 11.0,42.00350989 L 11.017315,42.017315 L 11.54868985,42.45131015 L 12.0,42.74813556 L 12.14710149,42.85289851 L 12.39242235,43.0 L 12.74298658,43.25701342 L 13.0,43.40366859 L 13.36779268,43.63220732 L 13.90346628,43.90346628 L 14.0,43.95550548 L 14.0286536,43.9713464 L 14.08906565,44.0 L 14.66610492,44.33389508 L 15.0,44.48776173 L 15.34714449,44.65285551 L 15.84913916,44.84913916 L 16.0,44.91310696 L 16.06136605,44.93863395 L 16.23338764,45.0 L 16.76286918,45.23713082 L 17.0,45.32119722 L 17.49343158,45.49343158 L 17.50294138,45.49705862 L 18.0,45.65413234 L 18.26704926,45.73295074 L 18.88657108,45.88657108 L 19.0,45.91769579 L 19.06618509,45.93381491 L 19.38090987,46.0 L 19.86791132,46.13208868 L 20.0,46.16061248 L 20.1974809,46.1974809 L 20.69631668,46.30368332 L 21.0,46.35683938 L 21.41425701,46.41425701 L 21.56239154,46.43760846 L 22.0,46.4956402 L 22.46201882,46.53798118 L 22.54427631,46.54427631 L 23.0,46.58489967 L 23.39703714,46.60296286 L 23.61121218,46.61121218 L 24.0,46.62866535 L 24.3713346,46.6286654 L 24.6286654,46.6286654 L 25.0,46.62866535 L 25.38878782,46.61121218 L 25.60296286,46.60296286 L 26.0,46.58489967 L 26.45572369,46.54427631 L 26.53798118,46.53798118 L 27.0,46.4956402 L 27.43760846,46.43760846 L 27.58574299,46.41425701 L 28.0,46.35683938 L 28.30368332,46.30368332 L 28.8025191,46.1974809 L 29.0,46.16061248 L 29.13208868,46.13208868 L 29.61909013,46.0 L 29.93381491,45.93381491 L 30.0,45.91769579 L 30.11342892,45.88657108 L 30.73295074,45.73295074 L 31.0,45.65413234 L 31.49705862,45.49705862 L 31.50656842,45.49343158 L 32.0,45.32119722 L 32.23713082,45.23713082 L 32.76661236,45.0 L 32.93863395,44.93863395 L 33.0,44.91310696 L 33.15086084,44.84913916 L 33.65285551,44.65285551 L 34.0,44.48776173 L 34.33389508,44.33389508 L 34.91093435,44.0 L 34.9713464,43.9713464 L 35.0,43.95550548 L 35.09653372,43.90346628 L 35.63220732,43.63220732 L 36.0,43.40366859 L 36.25701342,43.25701342 L 36.60757765,43.0 L 36.85289851,42.85289851 L 37.0,42.74813556 L 37.45131015,42.45131015 L 37.982685,42.017315 L 38.0,42.00350989 L 38.00209536,42.00209536 L 38.00435838,42.0 L 38.58022383,41.58022383 L 39.0,41.1992286 L 39.11264593,41.11264593 L 39.22218794,41.0 L 39.64457286,40.64457286 L 40.0,40.27623788 L 40.14789079,40.14789079 L 40.27623788,40.0 L 40.64457286,39.64457286 L 41.0,39.22218794 L 41.11264593,39.11264593 L 41.1992286,39.0 L 41.58022383,38.58022383 L 42.0,38.00435838 L 42.00209536,38.00209536 L 42.00350989,38.0 L 42.017315,37.982685 L 42.45131015,37.45131015 L 42.74813556,37.0 L 42.85289851,36.85289851 L 43.0,36.60757765 L 43.25701342,36.25701342 L 43.40366859,36.0 L 43.63220732,35.63220732 L 43.90346628,35.09653372 L 43.95550548,35.0 L 43.9713464,34.9713464 L 44.0,34.91093435 L 44.33389508,34.33389508 L 44.48776173,34.0 L 44.65285551,33.65285551 L 44.84913916,33.15086084 L 44.91310696,33.0 L 44.93863395,32.93863395 L 45.0,32.76661236 L 45.23713082,32.23713082 L 45.32119722,32.0 L 45.49343158,31.50656842 L 45.49705862,31.49705862 L 45.65413234,31.0 L 45.73295074,30.73295074 L 45.88657108,30.11342892 L 45.91769579,30.0 L 45.93381491,29.93381491 L 46.0,29.61909013 L 46.13208868,29.13208868 L 46.16061248,29.0 " stroke="rgb(255,0,0)" stroke-width="0.245" fill="none" /> 
<path d="M 11.0,6.99649011 L 11.017315,6.982685 L 11.54868985,6.54868985 L 12.0,6.25186444 L 12.14710149,6.14710149 L 12.39242235,6.0 L 12.74298658,5.74298658 L 13.0,5.59633141 L 13.36779268,5.36779268 L 13.90346628,5.09653372 L 14.0,5.04449452 L 14.0286536,5.0286536 L 14.08906565,5.0 L 14.66610492,4.66610492 L 15.0,4.51223827 L 15.34714449,4.34714449 L 15.84913916,4.15086084 L 16.0,4.08689304 L 16.06136605,4.06136605 L 16.23338764,4.0 L 16.76286918,3.76286918 L 17.0,3.67880278 L 17.49343158,3.50656842 L 17.50294138,3.50294138 L 18.0,3.34586766 L 18.26704926,3.26704926 L 18.88657108,3.11342892 L 19.0,3.08230421 L 19.06618509,3.06618509 L 19.38090987,3.0 L 19.86791132,2.86791132 L 20.0,2.83938752 L 20.1974809,2.8025191 L 20.69631668,2.69631668 L 21.0,2.64316062 L 21.41425701,2.58574299 L 21.56239154,2.56239154 L 22.0,2.5043598 L 22.46201882,2.46201882 L 22.54427631,2.45572369 L 23.0,2.41510033 L 23.39703714,2.39703714 L 23.61121218,2.38878782 L 24.0,2.37133465 L 24.3713346,2.3713346 L 24.6286654,2.3713346 L 25.0,2.37133465 L 25.38878782,2.38878782 L 25.60296286,2.39703714 L 26.0,2.41510033 L 26.45572369,2.45572369 L 26.53798118,2.46201882 L 27.0,2.5043598 L 27.43760846,2.56239154 L 27.58574299,2.58574299 L 28.0,2.64316062 L 28.30368332,2.69631668 L 28.8025191,2.8025191 L 29.0,2.83938752 L 29.13208868,2.86791132 L 29.61909013,3.0 L 29.93381491,3.06618509 L 30.0,3.08230421 L 30.11342892,3.11342892 L 30.73295074,3.26704926 L 31.0,3.34586766 L 31.49705862,3.50294138 L 31.50656842,3.50656842 L 32.0,3.67880278 L 32.23713082,3.76286918 L 32.76661236,4.0 L 32.93863395,4.06136605 L 33.0,4.08689304 L 33.15086084,4.15086084 L 33.65285551,4.34714449 L 34.0,4.51223827 L 34.33389508,4.66610492 L 34.91093435,5.0 L 34.9713464,5.0286536 L 35.0,5.04449452 L 35.09653372,5.09653372 L 35.63220732,5.36779268 L 36.0,5.59633141 L 36.25701342,5.74298658 L 36.60757765,6.0 L 36.85289851,6.14710149 L 37.0,6.25186444 L 37.45131015,6.54868985 L 37.982685,6.982685 L 38.0,6.99649011 L 38.00209536,6.99790464 L 38.00435838,7.0 L 38.58022383,7.41977617 L 39.0,7.8007714 L 39.11264593,7.88735407 L 39.22218794,8.0 L 39.64457286,8.35542714 L 40.0,8.72376212 L 40.14789079,8.85210921 L 40.27623788,9.0 L 40.64457286,9.35542714 L 41.0,9.77781206 L 41.11264593,9.88735407 L 41.1992286,10.0 L 41.58022383,10.41977617 L 42.0,10.99564162 L 42.00209536,10.99790464 L 42.00350989,11.0 L 42.017315,11.017315 L 42.45131015,11.54868985 L 42.74813556,12.0 L 42.85289851,12.14710149 L 43.0,12.39242235 L 43.25701342,12.74298658 L 43.40366859,13.0 L 43.63220732,13.36779268 L 43.90346628,13.90346628 L 43.95550548,14.0 L 43.9713464,14.0286536 L 44.0,14.08906565 L 44.33389508,14.66610492 L 44.48776173,15.0 L 44.65285551,15.34714449 L 44.84913916,15.84913916 L 44.91310696,16.0 L 44.93863395,16.06136605 L 45.0,16.23338764 L 45.23713082,16.76286918 L 45.32119722,17.0 L 45.49343158,17.49343158 L 45.49705862,17.50294138 L 45.65413234,18.0 L 45.73295074,18.26704926 L 45.88657108,18.88657108 L 45.91769579,19.0 L 45.93381491,19.06618509 L 46.0,19.38090987 L 46.13208868,19.86791132 L 46.16061248,20.0 M 11.0,6.99649011 L 10.99790464,6.99790464 " stroke="rgb(255,0,0)" stroke-width="0.245" fill="none" /> 
<path d="M 46.16061248,20.0 L 46.1974809,20.1974809 L 46.30368332,20.69631668 L 46.35683938,21.0 L 46.41425701,21.41425701 L 46.43760846,21.56239154 L 46.4956402,22.0 L 46.53798118,22.46201882 L 46.54427631,22.54427631 L 46.58489967,23.0 L 46.60296286,23.39703714 L 46.61121218,23.61121218 L 46.62866535,24.0 L 46.6286654,24.3713346 L 46.6286654,24.6286654 L 46.62866535,25.0 L 46.61121218,25.38878782 L 46.60296286,25.60296286 L 46.58489967,26.0 L 46.54427631,26.45572369 L 46.53798118,26.53798118 L 46.4956402,27.0 L 46.43760846,27.43760846 L 46.41425701,27.58574299 L 46.35683938,28.0 L 46.30368332,28.30368332 L 46.1974809,28.8025191 L 46.16061248,29.0 " stroke="rgb(255,0,0)" stroke-width="0.245" fill="none" /> 
<path d="M 4.0,20.44311465 L 4.0698526,20.0698526 L 4.08394811,20.0 L 4.11119213,19.88880787 L 4.2577596,19.2577596 L 4.32308627,19.0 L 4.45651161,18.54348839 L 4.47532633,18.47532633 L 4.620777,18.0 L 4.71664227,17.71664227 L 4.98190297,17.01809703 L 4.98841656,17.0 L 4.9916218,16.9916218 L 5.0,16.97259834 L 5.27433566,16.27433566 L 5.39273933,16.0 L 5.58282151,15.58282151 M 4.0,20.44311465 L 3.90374116,20.90374116 L 3.88583201,21.0 L 3.86659834,21.13340166 L 3.76784639,21.76784639 L 3.73526031,22.0 L 3.70726185,22.29273815 L 3.66845482,22.66845482 L 3.63727642,23.0 L 3.61914255,23.38085745 L 3.60747049,23.60747049 L 3.58893311,24.0 L 3.58893316,24.41106684 " stroke="rgb(255,51,0)" stroke-width="0.245" fill="none" /> 
<path d="M 3.58893316,24.58893316 L 3.58893316,24.41106684 " stroke="rgb(255,51,0)" stroke-width="0.245" fill="none" /> 
<path d="M 3.58893311,25.0 L 3.60747049,25.39252951 L 3.61914255,25.61914255 L 3.63727642,26.0 L 3.66845482,26.33154518 L 3.70726185,26.70726185 L 3.73526031,27.0 L 3.76784639,27.23215361 L 3.86659834,27.86659834 L 3.88583201,28.0 L 3.90374116,28.09625884 L 4.0,28.55688535 L 4.0698526,28.9301474 L 4.08394811,29.0 L 4.11119213,29.11119213 L 4.2577596,29.7422404 L 4.32308627,30.0 L 4.45651161,30.45651161 L 4.47532633,30.52467367 L 4.620777,31.0 L 4.71664227,31.28335773 L 4.98190297,31.98190297 L 4.98841656,32.0 L 4.9916218,32.0083782 L 5.0,32.02740166 L 5.27433566,32.72566434 L 5.39273933,33.0 L 5.58282151,33.41717849 L 5.75469748,33.75469748 L 5.87501174,34.0 L 5.91665289,34.08334711 L 6.0,34.22818316 L 6.2643782,34.7356218 L 6.41603064,35.0 L 6.63104868,35.36895132 L 7.0,35.93098876 L 7.02627623,35.97372377 L 7.04380186,36.0 L 7.1347531,36.1347531 L 7.42532426,36.57467574 L 7.73909099,37.0 L 7.84813907,37.15186093 L 8.0,37.33540577 L 8.28866566,37.71133434 L 8.53380679,38.0 L 8.74410419,38.25589581 L 9.0,38.52854322 L 9.22172109,38.77827891 L 9.43841726,39.0 L 9.71008477,39.28991523 L 10.0,39.56158274 L 10.22172109,39.77827891 L 10.47145678,40.0 L 10.74410419,40.25589581 L 11.0,40.46619321 L 11.28866566,40.71133434 L 11.66459423,41.0 M 3.58893311,25.0 L 3.58893316,24.58893316 " stroke="rgb(255,51,0)" stroke-width="0.245" fill="none" /> 
<path d="M 6.0,14.77181684 L 5.91665289,14.91665289 L 5.87501174,15.0 L 5.75469748,15.24530252 L 5.58282151,15.58282151 M 6.0,14.77181684 L 6.2643782,14.2643782 L 6.41603064,14.0 L 6.63104868,13.63104868 L 7.0,13.06901124 L 7.02627623,13.02627623 L 7.04380186,13.0 L 7.1347531,12.8652469 L 7.42532426,12.42532426 L 7.73909099,12.0 L 7.84813907,11.84813907 L 8.0,11.66459423 L 8.28866566,11.28866566 L 8.53380679,11.0 L 8.74410419,10.74410419 L 9.0,10.47145678 L 9.22172109,10.22172109 L 9.43841726,10.0 L 9.71008477,9.71008477 L 10.0,9.43841726 L 10.22172109,9.22172109 L 10.47145678,9.0 L 10.74410419,8.74410419 L 11.0,8.53380679 L 11.28866566,8.28866566 L 11.66459423,8.0 " stroke="rgb(255,51,0)" stroke-width="0.245" fill="none" /> 
<path d="M 12.0,7.73909099 L 12.42532426,7.42532426 L 12.8652469,7.1347531 L 13.0,7.04380186 L 13.02627623,7.02627623 L 13.06901124,7.0 L 13.63104868,6.63104868 L 14.0,6.41603064 L 14.2643782,6.2643782 L 14.77181684,6.0 L 14.91665289,5.91665289 L 15.0,5.87501174 L 15.24530252,5.75469748 L 15.58282151,5.58282151 M 12.0,7.73909099 L 11.84813907,7.84813907 L 11.66459423,8.0 " stroke="rgb(255,51,0)" stroke-width="0.245" fill="none" /> 
<path d="M 11.66459423,41.0 L 11.84813907,41.15186093 L 12.0,41.26090901 L 12.42532426,41.57467574 L 12.8652469,41.8652469 L 13.0,41.95619814 L 13.02627623,41.97372377 L 13.06901124,42.0 L 13.63104868,42.36895132 L 14.0,42.58396936 L 14.2643782,42.7356218 L 14.77181684,43.0 L 14.91665289,43.08334711 L 15.0,43.12498826 L 15.24530252,43.24530252 L 15.58282151,43.41717849 " stroke="rgb(255,51,0)" stroke-width="0.245" fill="none" /> 
<path d="M 16.0,5.39273933 L 16.27433566,5.27433566 L 16.97259834,5.0 L 16.9916218,4.9916218 L 17.0,4.98841656 L 17.01809703,4.98190297 L 17.71664227,4.71664227 L 18.0,4.620777 L 18.47532633,4.47532633 L 18.54348839,4.45651161 L 19.0,4.32308627 L 19.2577596,4.2577596 L 19.88880787,4.11119213 L 20.0,4.08394811 L 20.0698526,4.0698526 L 20.44311465,4.0 L 20.90374116,3.90374116 L 21.0,3.88583201 L 21.13340166,3.86659834 L 21.76784639,3.76784639 L 22.0,3.73526031 L 22.29273815,3.70726185 L 22.66845482,3.66845482 L 23.0,3.63727642 L 23.38085745,3.61914255 L 23.60747049,3.60747049 L 24.0,3.58893311 L 24.41106684,3.58893316 L 24.58893316,3.58893316 M 16.0,5.39273933 L 15.58282151,5.58282151 " stroke="rgb(255,51,0)" stroke-width="0.245" fill="none" /> 
<path d="M 16.0,43.60726067 L 15.58282151,43.41717849 M 16.0,43.60726067 L 16.27433566,43.72566434 L 16.97259834,44.0 L 16.9916218,44.0083782 L 17.0,44.01158344 L 17.01809703,44.01809703 L 17.71664227,44.28335773 " stroke="rgb(255,51,0)" stroke-width="0.245" fill="none" /> 
<path d="M 18.0,44.379223 L 18.47532633,44.52467367 L 18.54348839,44.54348839 L 19.0,44.67691373 L 19.2577596,44.7422404 L 19.88880787,44.88880787 L 20.0,44.91605189 L 20.0698526,44.9301474 L 20.44311465,45.0 L 20.90374116,45.09625884 L 21.0,45.11416799 L 21.13340166,45.13340166 L 21.76784639,45.23215361 L 22.0,45.26473969 L 22.29273815,45.29273815 L 22.66845482,45.33154518 L 23.0,45.36272358 L 23.38085745,45.38085745 L 23.60747049,45.39252951 L 24.0,45.41106689 L 24.41106684,45.41106684 L 24.58893316,45.41106684 L 25.0,45.41106689 L 25.39252951,45.39252951 L 25.61914255,45.38085745 L 26.0,45.36272358 L 26.33154518,45.33154518 L 26.70726185,45.29273815 L 27.0,45.26473969 L 27.23215361,45.23215361 L 27.86659834,45.13340166 L 28.0,45.11416799 L 28.09625884,45.09625884 L 28.55688535,45.0 L 28.9301474,44.9301474 L 29.0,44.91605189 L 29.11119213,44.88880787 L 29.7422404,44.7422404 L 30.0,44.67691373 L 30.45651161,44.54348839 L 30.52467367,44.52467367 L 31.0,44.379223 L 31.28335773,44.28335773 L 31.98190297,44.01809703 L 32.0,44.01158344 L 32.0083782,44.0083782 L 32.02740166,44.0 L 32.72566434,43.72566434 L 33.0,43.60726067 L 33.41717849,43.41717849 L 33.75469748,43.24530252 L 34.0,43.12498826 L 34.08334711,43.08334711 L 34.22818316,43.0 L 34.7356218,42.7356218 L 35.0,42.58396936 L 35.36895132,42.36895132 L 35.93098876,42.0 L 35.97372377,41.97372377 L 36.0,41.95619814 L 36.1347531,41.8652469 L 36.57467574,41.57467574 L 37.0,41.26090901 L 37.15186093,41.15186093 L 37.33540577,41.0 L 37.71133434,40.71133434 L 38.0,40.46619321 L 38.25589581,40.25589581 L 38.52854322,40.0 L 38.77827891,39.77827891 L 39.0,39.56158274 L 39.28991523,39.28991523 L 39.56158274,39.0 L 39.77827891,38.77827891 L 40.0,38.52854322 L 40.25589581,38.25589581 L 40.46619321,38.0 L 40.71133434,37.71133434 L 41.0,37.33540577 L 41.15186093,37.15186093 L 41.26090901,37.0 L 41.57467574,36.57467574 L 41.8652469,36.1347531 L 41.95619814,36.0 L 41.97372377,35.97372377 L 42.0,35.93098876 L 42.36895132,35.36895132 L 42.58396936,35.0 L 42.7356218,34.7356218 L 43.0,34.22818316 L 43.08334711,34.08334711 L 43.12498826,34.0 L 43.24530252,33.75469748 L 43.41717849,33.41717849 L 43.60726067,33.0 L 43.72566434,32.72566434 L 44.0,32.02740166 L 44.0083782,32.0083782 L 44.01158344,32.0 L 44.01809703,31.98190297 L 44.28335773,31.28335773 L 44.379223,31.0 L 44.52467367,30.52467367 L 44.54348839,30.45651161 L 44.67691373,30.0 L 44.7422404,29.7422404 L 44.88880787,29.11119213 L 44.91605189,29.0 L 44.9301474,28.9301474 L 45.0,28.55688535 L 45.09625884,28.09625884 L 45.11416799,28.0 L 45.13340166,27.86659834 L 45.23215361,27.23215361 L 45.26473969,27.0 L 45.29273815,26.70726185 L 45.33154518,26.33154518 L 45.36272358,26.0 L 45.38085745,25.61914255 L 45.39252951,25.39252951 L 45.41106689,25.0 L 45.41106684,24.58893316 L 45.41106684,24.41106684 L 45.41106689,24.0 L 45.39252951,23.60747049 L 45.38085745,23.38085745 L 45.36272358,23.0 L 45.33154518,22.66845482 L 45.29273815,22.29273815 L 45.26473969,22.0 L 45.23215361,21.76784639 L 45.13340166,21.13340166 L 45.11416799,21.0 L 45.09625884,20.90374116 L 45.0,20.44311465 L 44.9301474,20.0698526 L 44.91605189,20.0 L 44.88880787,19.88880787 L 44.7422404,19.2577596 L 44.67691373,19.0 L 44.54348839,18.54348839 L 44.52467367,18.47532633 L 44.379223,18.0 L 44.28335773,17.71664227 L 44.01809703,17.01809703 L 44.01158344,17.0 L 44.0083782,16.9916218 L 44.0,16.97259834 L 43.72566434,16.27433566 L 43.60726067,16.0 L 43.41717849,15.58282151 L 43.24530252,15.24530252 L 43.12498826,15.0 L 43.08334711,14.91665289 L 43.0,14.77181684 L 42.7356218,14.2643782 L 42.58396936,14.0 L 42.36895132,13.63104868 L 42.0,13.06901124 L 41.97372377,13.02627623 L 41.95619814,13.0 L 41.8652469,12.8652469 L 41.57467574,12.42532426 L 41.26090901,12.0 L 41.15186093,11.84813907 L 41.0,11.66459423 L 40.71133434,11.28866566 L 40.46619321,11.0 L 40.25589581,10.74410419 L 40.0,10.47145678 L 39.77827891,10.22172109 L 39.56158274,10.0 L 39.28991523,9.71008477 L 39.0,9.43841726 L 38.77827891,9.22172109 L 38.52854322,9.0 L 38.25589581,8.74410419 L 38.0,8.53380679 L 37.71133434,8.28866566 L 37.33540577,8.0 L 37.15186093,7.84813907 L 37.0,7.73909099 L 36.57467574,7.42532426 L 36.1347531,7.1347531 L 36.0,7.04380186 L 35.97372377,7.02627623 L 35.93098876,7.0 L 35.36895132,6.63104868 L 35.0,6.41603064 L 34.7356218,6.2643782 L 34.22818316,6.0 L 34.08334711,5.91665289 L 34.0,5.87501174 L 33.75469748,5.75469748 L 33.41717849,5.58282151 L 33.0,5.39273933 L 32.72566434,5.27433566 L 32.02740166,5.0 L 32.0083782,4.9916218 L 32.0,4.98841656 L 31.98190297,4.98190297 L 31.28335773,4.71664227 L 31.0,4.620777 L 30.52467367,4.47532633 L 30.45651161,4.45651161 L 30.0,4.32308627 L 29.7422404,4.2577596 L 29.11119213,4.11119213 L 29.0,4.08394811 L 28.9301474,4.0698526 L 28.55688535,4.0 L 28.09625884,3.90374116 L 28.0,3.88583201 L 27.86659834,3.86659834 L 27.23215361,3.76784639 L 27.0,3.73526031 L 26.70726185,3.70726185 L 26.33154518,3.66845482 L 26.0,3.63727642 L 25.61914255,3.61914255 L 25.39252951,3.60747049 L 25.0,3.58893311 L 24.58893316,3.58893316 M 18.0,44.379223 L 17.71664227,44.28335773 " stroke="rgb(255,51,0)" stroke-width="0.245" fill="none" /> 
<path d="M 5.0,20.79243357 L 5.13348694,20.13348694 L 5.16172062,20.0 L 5.21845962,19.78154038 L 5.33178444,19.33178444 L 5.41978057,19.0 L 5.55722947,18.55722947 L 5.61346867,18.38653133 L 5.73699691,18.0 L 5.80665409,17.80665409 L 6.0,17.30746059 L 6.08399813,17.08399813 L 6.11699417,17.0 L 6.20743512,16.79256488 L 6.38231649,16.38231649 L 6.5548479,16.0 L 6.700686,15.700686 L 7.0,15.12843617 L 7.04358337,15.04358337 L 7.06696797,15.0 L 7.15749164,14.84250836 L 7.40493845,14.40493845 L 7.64807821,14.0 L 7.78363769,13.78363769 L 8.0,13.46423067 L 8.18565923,13.18565923 L 8.31580405,13.0 L 8.60390043,12.60390043 L 9.0,12.09575287 L 9.04195652,12.04195652 L 9.07617027,12.0 L 9.47837605,11.52162395 L 9.49806775,11.49806775 L 9.94301891,11.0 L 9.96989399,10.96989399 L 10.0,10.93912215 L 10.46196916,10.46196916 L 10.93912215,10.0 L 10.96989399,9.96989399 L 11.0,9.94301891 L 11.49806775,9.49806775 L 11.52162395,9.47837605 L 12.0,9.07617027 L 12.04195652,9.04195652 L 12.09575287,9.0 L 12.60390043,8.60390043 L 13.0,8.31580405 L 13.18565923,8.18565923 L 13.46423067,8.0 L 13.78363769,7.78363769 L 14.0,7.64807821 L 14.40493845,7.40493845 L 14.84250836,7.15749164 L 15.0,7.06696797 L 15.04358337,7.04358337 L 15.12843617,7.0 L 15.700686,6.700686 L 16.0,6.5548479 L 16.38231649,6.38231649 L 16.79256488,6.20743512 L 17.0,6.11699417 L 17.08399813,6.08399813 L 17.30746059,6.0 L 17.80665409,5.80665409 L 18.0,5.73699691 L 18.38653133,5.61346867 L 18.55722947,5.55722947 L 19.0,5.41978057 L 19.33178444,5.33178444 L 19.78154038,5.21845962 L 20.0,5.16172062 L 20.13348694,5.13348694 L 20.79243357,5.0 L 20.96376109,4.96376109 L 21.0,4.95662459 L 21.05107601,4.94892399 L 21.82647645,4.82647645 L 22.0,4.80075146 L 22.22143533,4.77856467 L 22.72564854,4.72564854 L 23.0,4.69844873 L 23.31740909,4.68259091 L 23.66441539,4.66441539 L 24.0,4.64773464 L 24.35226536,4.64773464 L 24.64773464,4.64773464 L 25.0,4.64773464 L 25.33558461,4.66441539 L 25.68259091,4.68259091 L 26.0,4.69844873 L 26.27435146,4.72564854 L 26.77856467,4.77856467 L 27.0,4.80075146 L 27.17352355,4.82647645 L 27.94892399,4.94892399 L 28.0,4.95662459 L 28.03623891,4.96376109 L 28.20756643,5.0 L 28.86651306,5.13348694 L 29.0,5.16172062 L 29.21845962,5.21845962 L 29.66821556,5.33178444 L 30.0,5.41978057 L 30.44277053,5.55722947 L 30.61346867,5.61346867 L 31.0,5.73699691 L 31.19334591,5.80665409 L 31.69253941,6.0 L 31.91600187,6.08399813 L 32.0,6.11699417 L 32.20743512,6.20743512 L 32.61768351,6.38231649 L 33.0,6.5548479 L 33.299314,6.700686 L 33.87156383,7.0 L 33.95641663,7.04358337 M 5.0,20.79243357 L 4.96376109,20.96376109 L 4.95662459,21.0 L 4.94892399,21.05107601 L 4.82647645,21.82647645 L 4.80075146,22.0 L 4.77856467,22.22143533 L 4.72564854,22.72564854 L 4.69844873,23.0 L 4.68259091,23.31740909 L 4.66441539,23.66441539 L 4.64773464,24.0 L 4.64773464,24.35226536 L 4.64773464,24.64773464 L 4.64773464,25.0 L 4.66441539,25.33558461 L 4.68259091,25.68259091 L 4.69844873,26.0 L 4.72564854,26.27435146 L 4.77856467,26.77856467 L 4.80075146,27.0 L 4.82647645,27.17352355 L 4.94892399,27.94892399 L 4.95662459,28.0 L 4.96376109,28.03623891 L 5.0,28.20756643 L 5.13348694,28.86651306 L 5.16172062,29.0 L 5.21845962,29.21845962 L 5.33178444,29.66821556 L 5.41978057,30.0 L 5.55722947,30.44277053 L 5.61346867,30.61346867 L 5.73699691,31.0 L 5.80665409,31.19334591 L 6.0,31.69253941 L 6.08399813,31.91600187 L 6.11699417,32.0 L 6.20743512,32.20743512 L 6.38231649,32.61768351 L 6.5548479,33.0 L 6.700686,33.299314 L 7.0,33.87156383 L 7.04358337,33.95641663 L 7.06696797,34.0 L 7.15749164,34.15749164 L 7.40493845,34.59506155 L 7.64807821,35.0 L 7.78363769,35.21636231 L 8.0,35.53576933 L 8.18565923,35.81434077 L 8.31580405,36.0 L 8.60390043,36.39609957 L 9.0,36.90424713 L 9.04195652,36.95804348 L 9.07617027,37.0 L 9.47837605,37.47837605 L 9.49806775,37.50193225 L 9.94301891,38.0 L 9.96989399,38.03010601 L 10.0,38.06087785 L 10.46196916,38.53803084 L 10.93912215,39.0 L 10.96989399,39.03010601 L 11.0,39.05698109 L 11.49806775,39.50193225 L 11.52162395,39.52162395 L 12.0,39.92382973 L 12.04195652,39.95804348 L 12.09575287,40.0 L 12.60390043,40.39609957 L 13.0,40.68419595 L 13.18565923,40.81434077 L 13.46423067,41.0 L 13.78363769,41.21636231 L 14.0,41.35192179 L 14.40493845,41.59506155 L 14.84250836,41.84250836 L 15.0,41.93303203 L 15.04358337,41.95641663 L 15.12843617,42.0 L 15.700686,42.299314 L 16.0,42.4451521 L 16.38231649,42.61768351 L 16.79256488,42.79256488 L 17.0,42.88300583 L 17.08399813,42.91600187 L 17.30746059,43.0 L 17.80665409,43.19334591 L 18.0,43.26300309 L 18.38653133,43.38653133 L 18.55722947,43.44277053 L 19.0,43.58021943 L 19.33178444,43.66821556 L 19.78154038,43.78154038 L 20.0,43.83827938 L 20.13348694,43.86651306 L 20.79243357,44.0 L 20.96376109,44.03623891 L 21.0,44.04337541 L 21.05107601,44.05107601 L 21.82647645,44.17352355 L 22.0,44.19924854 L 22.22143533,44.22143533 L 22.72564854,44.27435146 L 23.0,44.30155127 L 23.31740909,44.31740909 L 23.66441539,44.33558461 L 24.0,44.35226536 L 24.35226536,44.35226536 L 24.64773464,44.35226536 L 25.0,44.35226536 L 25.33558461,44.33558461 L 25.68259091,44.31740909 L 26.0,44.30155127 L 26.27435146,44.27435146 L 26.77856467,44.22143533 L 27.0,44.19924854 L 27.17352355,44.17352355 L 27.94892399,44.05107601 L 28.0,44.04337541 L 28.03623891,44.03623891 L 28.20756643,44.0 L 28.86651306,43.86651306 L 29.0,43.83827938 L 29.21845962,43.78154038 L 29.66821556,43.66821556 L 30.0,43.58021943 L 30.44277053,43.44277053 L 30.61346867,43.38653133 L 31.0,43.26300309 L 31.19334591,43.19334591 L 31.69253941,43.0 L 31.91600187,42.91600187 L 32.0,42.88300583 L 32.20743512,42.79256488 L 32.61768351,42.61768351 L 33.0,42.4451521 L 33.299314,42.299314 L 33.87156383,42.0 L 33.95641663,41.95641663 L 34.0,41.93303203 L 34.15749164,41.84250836 L 34.59506155,41.59506155 L 35.0,41.35192179 L 35.21636231,41.21636231 L 35.53576933,41.0 L 35.81434077,40.81434077 L 36.0,40.68419595 L 36.39609957,40.39609957 L 36.90424713,40.0 L 36.95804348,39.95804348 L 37.0,39.92382973 L 37.47837605,39.52162395 L 37.50193225,39.50193225 L 38.0,39.05698109 L 38.03010601,39.03010601 L 38.06087785,39.0 L 38.53803084,38.53803084 L 39.0,38.06087785 L 39.03010601,38.03010601 L 39.05698109,38.0 L 39.50193225,37.50193225 L 39.52162395,37.47837605 L 39.92382973,37.0 L 39.95804348,36.95804348 L 40.0,36.90424713 L 40.39609957,36.39609957 L 40.68419595,36.0 L 40.81434077,35.81434077 L 41.0,35.53576933 L 41.21636231,35.21636231 L 41.35192179,35.0 L 41.59506155,34.59506155 L 41.84250836,34.15749164 L 41.93303203,34.0 L 41.95641663,33.95641663 L 42.0,33.87156383 L 42.299314,33.299314 L 42.4451521,33.0 L 42.61768351,32.61768351 L 42.79256488,32.20743512 L 42.88300583,32.0 L 42.91600187,31.91600187 L 43.0,31.69253941 L 43.19334591,31.19334591 L 43.26300309,31.0 L 43.38653133,30.61346867 L 43.44277053,30.44277053 L 43.58021943,30.0 L 43.66821556,29.66821556 L 43.78154038,29.21845962 L 43.83827938,29.0 L 43.86651306,28.86651306 L 44.0,28.20756643 L 44.03623891,28.03623891 L 44.04337541,28.0 L 44.05107601,27.94892399 L 44.17352355,27.17352355 L 44.19924854,27.0 L 44.22143533,26.77856467 L 44.27435146,26.27435146 L 44.30155127,26.0 L 44.31740909,25.68259091 L 44.33558461,25.33558461 L 44.35226536,25.0 L 44.35226536,24.64773464 L 44.35226536,24.35226536 L 44.35226536,24.0 L 44.33558461,23.66441539 L 44.31740909,23.31740909 L 44.30155127,23.0 L 44.27435146,22.72564854 L 44.22143533,22.22143533 L 44.19924854,22.0 L 44.17352355,21.82647645 L 44.05107601,21.05107601 L 44.04337541,21.0 L 44.03623891,20.96376109 L 44.0,20.79243357 L 43.86651306,20.13348694 L 43.83827938,20.0 L 43.78154038,19.78154038 L 43.66821556,19.33178444 L 43.58021943,19.0 L 43.44277053,18.55722947 L 43.38653133,18.38653133 L 43.26300309,18.0 L 43.19334591,17.80665409 L 43.0,17.30746059 L 42.91600187,17.08399813 L 42.88300583,17.0 L 42.79256488,16.79256488 L 42.61768351,16.38231649 L 42.4451521,16.0 L 42.299314,15.700686 L 42.0,15.12843617 L 41.95641663,15.04358337 L 41.93303203,15.0 L 41.84250836,14.84250836 L 41.59506155,14.40493845 L 41.35192179,14.0 L 41.21636231,13.78363769 L 41.0,13.46423067 L 40.81434077,13.18565923 L 40.68419595,13.0 L 40.39609957,12.60390043 L 40.0,12.09575287 L 39.95804348,12.04195652 L 39.92382973,12.0 L 39.52162395,11.52162395 L 39.50193225,11.49806775 L 39.05698109,11.0 L 39.03010601,10.96989399 L 39.0,10.93912215 L 38.53803084,10.46196916 L 38.06087785,10.0 L 38.03010601,9.96989399 L 38.0,9.94301891 L 37.50193225,9.49806775 L 37.47837605,9.47837605 L 37.0,9.07617027 L 36.95804348,9.04195652 L 36.90424713,9.0 L 36.39609957,8.60390043 L 36.0,8.31580405 L 35.81434077,8.18565923 L 35.53576933,8.0 L 35.21636231,7.78363769 L 35.0,7.64807821 L 34.59506155,7.40493845 L 34.15749164,7.15749164 L 34.0,7.06696797 L 33.95641663,7.04358337 " stroke="rgb(255,102,0)" stroke-width="0.245" fill="none" /> 
<path d="M 6.0,20.897566 L 6.16067736,20.16067736 L 6.1964312,20.0 L 6.27116024,19.72883976 L 6.36888802,19.36888802 L 6.47170363,19.0 L 6.60273161,18.60273161 L 6.70904306,18.29095694 L 6.80663229,18.0 L 6.86022151,17.86022151 L 7.0,17.51094756 L 7.14726992,17.14726992 L 7.20817067,17.0 L 7.38926016,16.61073984 L 7.4590382,16.4590382 L 7.67682015,16.0 L 7.78749093,15.78749093 L 8.0,15.39646107 L 8.14136402,15.14136402 L 8.22138467,15.0 L 8.5182544,14.5182544 L 8.58239105,14.41760895 L 8.84651802,14.0 L 8.90826507,13.90826507 L 9.0,13.77852291 L 9.32618896,13.32618896 L 9.56801751,13.0 L 9.75787636,12.75787636 L 10.0,12.46226848 L 10.21182831,12.21182831 L 10.39533942,12.0 L 10.6834724,11.6834724 L 11.0,11.34966729 L 11.17384113,11.17384113 L 11.34966729,11.0 L 11.6834724,10.6834724 L 12.0,10.39533942 L 12.21182831,10.21182831 L 12.46226848,10.0 L 12.75787636,9.75787636 L 13.0,9.56801751 L 13.32618896,9.32618896 L 13.77852291,9.0 L 13.90826507,8.90826507 L 14.0,8.84651802 L 14.41760895,8.58239105 L 14.5182544,8.5182544 L 15.0,8.22138467 L 15.14136402,8.14136402 L 15.39646107,8.0 L 15.78749093,7.78749093 L 16.0,7.67682015 L 16.4590382,7.4590382 L 16.61073984,7.38926016 L 17.0,7.20817067 L 17.14726992,7.14726992 L 17.51094756,7.0 L 17.86022151,6.86022151 L 18.0,6.80663229 L 18.29095694,6.70904306 L 18.60273161,6.60273161 L 19.0,6.47170363 L 19.36888802,6.36888802 L 19.72883976,6.27116024 L 20.0,6.1964312 L 20.16067736,6.16067736 L 20.897566,6.0 L 20.98171296,5.98171296 L 21.0,5.9779017 L 21.02625265,5.97374735 L 21.84135311,5.84135311 L 22.0,5.81649624 L 22.20509907,5.79490093 L 22.73740024,5.73740024 L 23.0,5.70991883 L 23.30617401,5.69382599 L 23.67398817,5.67398817 L 24.0,5.65690231 L 24.34309769,5.65690231 L 24.65690231,5.65690231 L 25.0,5.65690231 L 25.32601183,5.67398817 L 25.69382599,5.69382599 L 26.0,5.70991883 L 26.26259976,5.73740024 L 26.79490093,5.79490093 L 27.0,5.81649624 L 27.15864689,5.84135311 L 27.97374735,5.97374735 L 28.0,5.9779017 L 28.01828704,5.98171296 L 28.102434,6.0 L 28.83932264,6.16067736 L 29.0,6.1964312 L 29.27116024,6.27116024 L 29.63111198,6.36888802 L 30.0,6.47170363 L 30.39726839,6.60273161 L 30.70904306,6.70904306 L 31.0,6.80663229 L 31.13977849,6.86022151 L 31.48905244,7.0 L 31.85273008,7.14726992 L 32.0,7.20817067 L 32.38926016,7.38926016 L 32.5409618,7.4590382 L 33.0,7.67682015 L 33.21250907,7.78749093 L 33.60353893,8.0 L 33.85863598,8.14136402 L 34.0,8.22138467 L 34.4817456,8.5182544 L 34.58239105,8.58239105 L 35.0,8.84651802 L 35.09173493,8.90826507 L 35.22147709,9.0 L 35.67381104,9.32618896 L 36.0,9.56801751 L 36.24212364,9.75787636 L 36.53773152,10.0 L 36.78817169,10.21182831 L 37.0,10.39533942 L 37.3165276,10.6834724 L 37.65033271,11.0 L 37.82615887,11.17384113 L 38.0,11.34966729 L 38.3165276,11.6834724 L 38.60466058,12.0 L 38.78817169,12.21182831 L 39.0,12.46226848 L 39.24212364,12.75787636 L 39.43198249,13.0 L 39.67381104,13.32618896 L 40.0,13.77852291 L 40.09173493,13.90826507 L 40.15348198,14.0 L 40.41760895,14.41760895 L 40.4817456,14.5182544 L 40.77861533,15.0 L 40.85863598,15.14136402 L 41.0,15.39646107 L 41.21250907,15.78749093 L 41.32317985,16.0 L 41.5409618,16.4590382 L 41.61073984,16.61073984 L 41.79182933,17.0 L 41.85273008,17.14726992 L 42.0,17.51094756 L 42.13977849,17.86022151 L 42.19336771,18.0 L 42.29095694,18.29095694 L 42.39726839,18.60273161 L 42.52829637,19.0 L 42.63111198,19.36888802 L 42.72883976,19.72883976 L 42.8035688,20.0 L 42.83932264,20.16067736 L 43.0,20.897566 L 43.01828704,20.98171296 L 43.0220983,21.0 L 43.02625265,21.02625265 L 43.15864689,21.84135311 L 43.18350376,22.0 L 43.20509907,22.20509907 L 43.26259976,22.73740024 L 43.29008117,23.0 L 43.30617401,23.30617401 L 43.32601183,23.67398817 L 43.34309769,24.0 L 43.34309769,24.34309769 L 43.34309769,24.65690231 L 43.34309769,25.0 L 43.32601183,25.32601183 L 43.30617401,25.69382599 L 43.29008117,26.0 L 43.26259976,26.26259976 L 43.20509907,26.79490093 L 43.18350376,27.0 L 43.15864689,27.15864689 L 43.02625265,27.97374735 L 43.0220983,28.0 L 43.01828704,28.01828704 L 43.0,28.102434 L 42.83932264,28.83932264 L 42.8035688,29.0 L 42.72883976,29.27116024 L 42.63111198,29.63111198 L 42.52829637,30.0 L 42.39726839,30.39726839 L 42.29095694,30.70904306 L 42.19336771,31.0 L 42.13977849,31.13977849 L 42.0,31.48905244 L 41.85273008,31.85273008 L 41.79182933,32.0 L 41.61073984,32.38926016 L 41.5409618,32.5409618 L 41.32317985,33.0 L 41.21250907,33.21250907 L 41.0,33.60353893 L 40.85863598,33.85863598 L 40.77861533,34.0 L 40.4817456,34.4817456 L 40.41760895,34.58239105 L 40.15348198,35.0 L 40.09173493,35.09173493 L 40.0,35.22147709 L 39.67381104,35.67381104 L 39.43198249,36.0 L 39.24212364,36.24212364 L 39.0,36.53773152 L 38.78817169,36.78817169 L 38.60466058,37.0 L 38.3165276,37.3165276 L 38.0,37.65033271 L 37.82615887,37.82615887 L 37.65033271,38.0 L 37.3165276,38.3165276 L 37.0,38.60466058 L 36.78817169,38.78817169 L 36.53773152,39.0 L 36.24212364,39.24212364 L 36.0,39.43198249 L 35.67381104,39.67381104 L 35.22147709,40.0 L 35.09173493,40.09173493 L 35.0,40.15348198 L 34.58239105,40.41760895 L 34.4817456,40.4817456 L 34.0,40.77861533 L 33.85863598,40.85863598 L 33.60353893,41.0 L 33.21250907,41.21250907 L 33.0,41.32317985 L 32.5409618,41.5409618 L 32.38926016,41.61073984 L 32.0,41.79182933 L 31.85273008,41.85273008 L 31.48905244,42.0 L 31.13977849,42.13977849 L 31.0,42.19336771 L 30.70904306,42.29095694 L 30.39726839,42.39726839 L 30.0,42.52829637 L 29.63111198,42.63111198 L 29.27116024,42.72883976 L 29.0,42.8035688 L 28.83932264,42.83932264 L 28.102434,43.0 L 28.01828704,43.01828704 L 28.0,43.0220983 L 27.97374735,43.02625265 L 27.15864689,43.15864689 L 27.0,43.18350376 L 26.79490093,43.20509907 L 26.26259976,43.26259976 L 26.0,43.29008117 L 25.69382599,43.30617401 L 25.32601183,43.32601183 L 25.0,43.34309769 L 24.65690231,43.34309769 L 24.34309769,43.34309769 L 24.0,43.34309769 L 23.67398817,43.32601183 L 23.30617401,43.30617401 L 23.0,43.29008117 L 22.73740024,43.26259976 L 22.20509907,43.20509907 L 22.0,43.18350376 L 21.84135311,43.15864689 L 21.02625265,43.02625265 L 21.0,43.0220983 L 20.98171296,43.01828704 L 20.897566,43.0 L 20.16067736,42.83932264 L 20.0,42.8035688 L 19.72883976,42.72883976 L 19.36888802,42.63111198 L 19.0,42.52829637 L 18.60273161,42.39726839 L 18.29095694,42.29095694 L 18.0,42.19336771 L 17.86022151,42.13977849 L 17.51094756,42.0 L 17.14726992,41.85273008 L 17.0,41.79182933 L 16.61073984,41.61073984 L 16.4590382,41.5409618 L 16.0,41.32317985 L 15.78749093,41.21250907 L 15.39646107,41.0 L 15.14136402,40.85863598 L 15.0,40.77861533 L 14.5182544,40.4817456 L 14.41760895,40.41760895 L 14.0,40.15348198 L 13.90826507,40.09173493 L 13.77852291,40.0 L 13.32618896,39.67381104 L 13.0,39.43198249 L 12.75787636,39.24212364 L 12.46226848,39.0 L 12.21182831,38.78817169 L 12.0,38.60466058 L 11.6834724,38.3165276 L 11.34966729,38.0 L 11.17384113,37.82615887 L 11.0,37.65033271 L 10.6834724,37.3165276 L 10.39533942,37.0 L 10.21182831,36.78817169 L 10.0,36.53773152 L 9.75787636,36.24212364 L 9.56801751,36.0 L 9.32618896,35.67381104 L 9.0,35.22147709 L 8.90826507,35.09173493 L 8.84651802,35.0 L 8.58239105,34.58239105 L 8.5182544,34.4817456 L 8.22138467,34.0 L 8.14136402,33.85863598 L 8.0,33.60353893 L 7.78749093,33.21250907 L 7.67682015,33.0 L 7.4590382,32.5409618 L 7.38926016,32.38926016 L 7.20817067,32.0 L 7.14726992,31.85273008 L 7.0,31.48905244 L 6.86022151,31.13977849 L 6.80663229,31.0 L 6.70904306,30.70904306 L 6.60273161,30.39726839 L 6.47170363,30.0 L 6.36888802,29.63111198 L 6.27116024,29.27116024 L 6.1964312,29.0 L 6.16067736,28.83932264 L 6.0,28.102434 L 5.98171296,28.01828704 L 5.9779017,28.0 L 5.97374735,27.97374735 L 5.84135311,27.15864689 L 5.81649624,27.0 L 5.79490093,26.79490093 L 5.73740024,26.26259976 L 5.70991883,26.0 L 5.69382599,25.69382599 L 5.67398817,25.32601183 L 5.65690231,25.0 L 5.65690231,24.65690231 L 5.65690231,24.34309769 L 5.65690231,24.0 L 5.67398817,23.67398817 L 5.69382599,23.30617401 L 5.70991883,23.0 L 5.73740024,22.73740024 L 5.79490093,22.20509907 L 5.81649624,22.0 L 5.84135311,21.84135311 L 5.97374735,21.02625265 L 5.9779017,21.0 L 5.98171296,20.98171296 M 6.0,20.897566 L 5.98171296,20.98171296 " stroke="rgb(255,153,0)" stroke-width="0.245" fill="none" /> 
<path d="M 7.0,21.0271166 L 6.85968933,21.85968933 L 6.83641196,22.0 L 6.81598925,22.18401075 L 6.75227631,22.75227631 L 6.72485224,23.0 L 6.70869865,23.29130135 L 6.68656777,23.68656777 L 6.66920673,24.0 L 6.66920669,24.33079331 L 6.66920669,24.66920669 L 6.66920673,25.0 L 6.68656777,25.31343223 L 6.70869865,25.70869865 L 6.72485224,26.0 L 6.75227631,26.24772369 L 6.81598925,26.81598925 L 6.83641196,27.0 L 6.85968933,27.14031067 L 7.0,27.9728834 L 7.00406244,27.99593756 L 7.00477777,28.0 L 7.00624305,28.00624305 L 7.19372296,28.80627704 L 7.23923435,29.0 L 7.33841375,29.33841375 L 7.41144094,29.58855906 L 7.53240938,30.0 L 7.65391279,30.34608721 L 7.82384314,30.82384314 L 7.88611103,31.0 L 7.91914388,31.08085612 L 8.0,31.27471224 L 8.22020978,31.77979022 L 8.31648421,32.0 L 8.54355395,32.45644605 L 8.63168773,32.63168773 L 8.81625271,33.0 L 8.8820258,33.1179742 L 9.0,33.32517944 L 9.25255163,33.74744837 L 9.40411424,34.0 L 9.64152475,34.35847525 L 10.0,34.89213494 L 10.04495471,34.95504529 L 10.0770165,35.0 L 10.35318879,35.35318879 L 10.48194826,35.51805174 L 10.86203221,36.0 L 10.92532185,36.07467815 L 11.0,36.16073389 L 11.40199498,36.59800502 L 11.77433087,37.0 L 11.88653208,37.11346792 L 12.0,37.22566913 L 12.40199498,37.59800502 L 12.83926611,38.0 L 12.92532185,38.07467815 L 13.0,38.13796779 L 13.48194826,38.51805174 L 13.64681121,38.64681121 L 14.0,38.9229835 L 14.04495471,38.95504529 L 14.10786506,39.0 L 14.64152475,39.35847525 L 15.0,39.59588576 L 15.25255163,39.74744837 L 15.67482056,40.0 L 15.8820258,40.1179742 L 16.0,40.18374729 L 16.36831227,40.36831227 L 16.54355395,40.45644605 L 17.0,40.68351579 L 17.22020978,40.77979022 L 17.72528776,41.0 L 17.91914388,41.08085612 L 18.0,41.11388897 L 18.17615686,41.17615686 L 18.65391279,41.34608721 L 19.0,41.46759062 L 19.41144094,41.58855906 L 19.66158625,41.66158625 L 20.0,41.76076565 L 20.19372296,41.80627704 L 20.99375695,41.99375695 L 21.0,41.99522223 L 21.00406244,41.99593756 L 21.0271166,42.0 L 21.85968933,42.14031067 L 22.0,42.16358804 L 22.18401075,42.18401075 L 22.75227631,42.24772369 L 23.0,42.27514776 L 23.29130135,42.29130135 L 23.68656777,42.31343223 L 24.0,42.33079327 L 24.33079331,42.33079331 L 24.66920669,42.33079331 L 25.0,42.33079327 L 25.31343223,42.31343223 L 25.70869865,42.29130135 L 26.0,42.27514776 L 26.24772369,42.24772369 L 26.81598925,42.18401075 L 27.0,42.16358804 L 27.14031067,42.14031067 L 27.9728834,42.0 L 27.99593756,41.99593756 L 28.0,41.99522223 L 28.00624305,41.99375695 L 28.80627704,41.80627704 L 29.0,41.76076565 L 29.33841375,41.66158625 L 29.58855906,41.58855906 L 30.0,41.46759062 L 30.34608721,41.34608721 L 30.82384314,41.17615686 L 31.0,41.11388897 L 31.08085612,41.08085612 L 31.27471224,41.0 L 31.77979022,40.77979022 L 32.0,40.68351579 L 32.45644605,40.45644605 L 32.63168773,40.36831227 L 33.0,40.18374729 L 33.1179742,40.1179742 L 33.32517944,40.0 L 33.74744837,39.74744837 L 34.0,39.59588576 L 34.35847525,39.35847525 L 34.89213494,39.0 L 34.95504529,38.95504529 L 35.0,38.9229835 L 35.35318879,38.64681121 L 35.51805174,38.51805174 L 36.0,38.13796779 L 36.07467815,38.07467815 L 36.16073389,38.0 L 36.59800502,37.59800502 L 37.0,37.22566913 L 37.11346792,37.11346792 L 37.22566913,37.0 L 37.59800502,36.59800502 L 38.0,36.16073389 L 38.07467815,36.07467815 L 38.13796779,36.0 L 38.51805174,35.51805174 L 38.64681121,35.35318879 L 38.9229835,35.0 L 38.95504529,34.95504529 L 39.0,34.89213494 L 39.35847525,34.35847525 L 39.59588576,34.0 L 39.74744837,33.74744837 L 40.0,33.32517944 L 40.1179742,33.1179742 L 40.18374729,33.0 L 40.36831227,32.63168773 L 40.45644605,32.45644605 L 40.68351579,32.0 L 40.77979022,31.77979022 L 41.0,31.27471224 L 41.08085612,31.08085612 L 41.11388897,31.0 L 41.17615686,30.82384314 L 41.34608721,30.34608721 L 41.46759062,30.0 L 41.58855906,29.58855906 L 41.66158625,29.33841375 L 41.76076565,29.0 L 41.80627704,28.80627704 L 41.99375695,28.00624305 L 41.99522223,28.0 L 41.99593756,27.99593756 L 42.0,27.9728834 L 42.14031067,27.14031067 L 42.16358804,27.0 L 42.18401075,26.81598925 L 42.24772369,26.24772369 L 42.27514776,26.0 L 42.29130135,25.70869865 L 42.31343223,25.31343223 L 42.33079327,25.0 L 42.33079331,24.66920669 L 42.33079331,24.33079331 L 42.33079327,24.0 L 42.31343223,23.68656777 L 42.29130135,23.29130135 L 42.27514776,23.0 L 42.24772369,22.75227631 L 42.18401075,22.18401075 L 42.16358804,22.0 L 42.14031067,21.85968933 L 42.0,21.0271166 L 41.99593756,21.00406244 L 41.99522223,21.0 L 41.99375695,20.99375695 L 41.80627704,20.19372296 L 41.76076565,20.0 L 41.66158625,19.66158625 L 41.58855906,19.41144094 L 41.46759062,19.0 L 41.34608721,18.65391279 L 41.17615686,18.17615686 L 41.11388897,18.0 L 41.08085612,17.91914388 L 41.0,17.72528776 L 40.77979022,17.22020978 L 40.68351579,17.0 L 40.45644605,16.54355395 L 40.36831227,16.36831227 L 40.18374729,16.0 L 40.1179742,15.8820258 L 40.0,15.67482056 L 39.74744837,15.25255163 L 39.59588576,15.0 L 39.35847525,14.64152475 L 39.0,14.10786506 L 38.95504529,14.04495471 L 38.9229835,14.0 L 38.64681121,13.64681121 L 38.51805174,13.48194826 L 38.13796779,13.0 L 38.07467815,12.92532185 L 38.0,12.83926611 L 37.59800502,12.40199498 L 37.22566913,12.0 L 37.11346792,11.88653208 L 37.0,11.77433087 L 36.59800502,11.40199498 L 36.16073389,11.0 L 36.07467815,10.92532185 L 36.0,10.86203221 L 35.51805174,10.48194826 L 35.35318879,10.35318879 L 35.0,10.0770165 L 34.95504529,10.04495471 L 34.89213494,10.0 L 34.35847525,9.64152475 L 34.0,9.40411424 L 33.74744837,9.25255163 L 33.32517944,9.0 L 33.1179742,8.8820258 L 33.0,8.81625271 L 32.63168773,8.63168773 L 32.45644605,8.54355395 L 32.0,8.31648421 L 31.77979022,8.22020978 L 31.27471224,8.0 L 31.08085612,7.91914388 L 31.0,7.88611103 L 30.82384314,7.82384314 L 30.34608721,7.65391279 L 30.0,7.53240938 L 29.58855906,7.41144094 L 29.33841375,7.33841375 L 29.0,7.23923435 L 28.80627704,7.19372296 L 28.00624305,7.00624305 L 28.0,7.00477777 L 27.99593756,7.00406244 M 7.0,21.0271166 L 7.00406244,21.00406244 L 7.00477777,21.0 L 7.00624305,20.99375695 L 7.19372296,20.19372296 L 7.23923435,20.0 L 7.33841375,19.66158625 L 7.41144094,19.41144094 L 7.53240938,19.0 L 7.65391279,18.65391279 L 7.82384314,18.17615686 L 7.88611103,18.0 L 7.91914388,17.91914388 L 8.0,17.72528776 L 8.22020978,17.22020978 L 8.31648421,17.0 L 8.54355395,16.54355395 L 8.63168773,16.36831227 L 8.81625271,16.0 L 8.8820258,15.8820258 L 9.0,15.67482056 L 9.25255163,15.25255163 L 9.40411424,15.0 L 9.64152475,14.64152475 L 10.0,14.10786506 L 10.04495471,14.04495471 L 10.0770165,14.0 L 10.35318879,13.64681121 L 10.48194826,13.48194826 L 10.86203221,13.0 L 10.92532185,12.92532185 L 11.0,12.83926611 L 11.40199498,12.40199498 L 11.77433087,12.0 L 11.88653208,11.88653208 L 12.0,11.77433087 L 12.40199498,11.40199498 L 12.83926611,11.0 L 12.92532185,10.92532185 L 13.0,10.86203221 L 13.48194826,10.48194826 L 13.64681121,10.35318879 L 14.0,10.0770165 L 14.04495471,10.04495471 L 14.10786506,10.0 L 14.64152475,9.64152475 L 15.0,9.40411424 L 15.25255163,9.25255163 L 15.67482056,9.0 L 15.8820258,8.8820258 L 16.0,8.81625271 L 16.36831227,8.63168773 L 16.54355395,8.54355395 L 17.0,8.31648421 L 17.22020978,8.22020978 L 17.72528776,8.0 L 17.91914388,7.91914388 L 18.0,7.88611103 L 18.17615686,7.82384314 L 18.65391279,7.65391279 L 19.0,7.53240938 L 19.41144094,7.41144094 L 19.66158625,7.33841375 L 20.0,7.23923435 L 20.19372296,7.19372296 L 20.99375695,7.00624305 L 21.0,7.00477777 L 21.00406244,7.00406244 L 21.0271166,7.0 L 21.85968933,6.85968933 L 22.0,6.83641196 L 22.18401075,6.81598925 L 22.75227631,6.75227631 L 23.0,6.72485224 L 23.29130135,6.70869865 L 23.68656777,6.68656777 L 24.0,6.66920673 L 24.33079331,6.66920669 L 24.66920669,6.66920669 L 25.0,6.66920673 L 25.31343223,6.68656777 L 25.70869865,6.70869865 L 26.0,6.72485224 L 26.24772369,6.75227631 L 26.81598925,6.81598925 L 27.0,6.83641196 L 27.14031067,6.85968933 L 27.9728834,7.0 L 27.99593756,7.00406244 " stroke="rgb(255,204,0)" stroke-width="0.245" fill="none" /> 
<path d="M 8.0,21.4313519 L 7.91489782,21.91489782 L 7.89990932,22.0 L 7.88660028,22.11339972 L 7.80554715,22.80554715 L 7.78271196,23.0 L 7.76916537,23.23083463 L 7.7394213,23.7394213 L 7.72412259,24.0 L 7.72412256,24.27587744 L 7.72412256,24.72412256 L 7.72412259,25.0 L 7.7394213,25.2605787 L 7.76916537,25.76916537 L 7.78271196,26.0 L 7.80554715,26.19445285 L 7.88660028,26.88660028 L 7.89990932,27.0 L 7.91489782,27.08510218 L 8.0,27.5686481 L 8.06871658,27.93128342 L 8.08154702,28.0 L 8.10875418,28.10875418 L 8.26626689,28.73373311 L 8.33255005,29.0 L 8.4837885,29.4837885 L 8.49153723,29.50846277 L 8.64456062,30.0 L 8.74145533,30.25854467 L 9.0,30.95100658 L 9.01411445,30.98588555 L 9.0197228,31.0 L 9.0370683,31.0370683 L 9.33312313,31.66687687 L 9.48775505,32.0 L 9.6660084,32.3339916 L 10.0,32.96321062 L 10.01347595,32.98652405 L 10.02111402,33.0 L 10.05951717,33.05951717 L 10.40554643,33.59445357 L 10.66485029,34.0 L 10.8045037,34.1954963 M 8.0,21.4313519 L 8.06871658,21.06871658 L 8.08154702,21.0 L 8.10875418,20.89124582 L 8.26626689,20.26626689 L 8.33255005,20.0 L 8.4837885,19.5162115 L 8.49153723,19.49153723 L 8.64456062,19.0 L 8.74145533,18.74145533 L 9.0,18.04899342 L 9.01411445,18.01411445 L 9.0197228,18.0 L 9.0370683,17.9629317 L 9.33312313,17.33312313 L 9.48775505,17.0 L 9.6660084,16.6660084 L 10.0,16.03678938 L 10.01347595,16.01347595 L 10.02111402,16.0 L 10.05951717,15.94048283 L 10.40554643,15.40554643 L 10.66485029,15.0 L 10.8045037,14.8045037 " stroke="rgb(255,255,0)" stroke-width="0.245" fill="none" /> 
<path d="M 11.0,14.53030411 L 10.8045037,14.8045037 M 11.0,14.53030411 L 11.23166181,14.23166181 L 11.40855345,14.0 L 11.67992746,13.67992746 L 12.0,13.30046722 L 12.14438809,13.14438809 L 12.27559425,13.0 L 12.63836103,12.63836103 L 13.0,12.27559425 L 13.14438809,12.14438809 L 13.30046722,12.0 L 13.67992746,11.67992746 L 14.0,11.40855345 L 14.23166181,11.23166181 L 14.53030411,11.0 L 14.8045037,10.8045037 " stroke="rgb(255,255,0)" stroke-width="0.245" fill="none" /> 
<path d="M 11.0,34.46969589 L 10.8045037,34.1954963 M 11.0,34.46969589 L 11.23166181,34.76833819 L 11.40855345,35.0 L 11.67992746,35.32007254 L 12.0,35.69953278 L 12.14438809,35.85561191 L 12.27559425,36.0 L 12.63836103,36.36163897 L 13.0,36.72440575 L 13.14438809,36.85561191 L 13.30046722,37.0 L 13.67992746,37.32007254 L 14.0,37.59144655 L 14.23166181,37.76833819 L 14.53030411,38.0 L 14.8045037,38.1954963 " stroke="rgb(255,255,0)" stroke-width="0.245" fill="none" /> 
<path d="M 15.0,10.66485029 L 14.8045037,10.8045037 M 15.0,10.66485029 L 15.40554643,10.40554643 L 15.94048283,10.05951717 L 16.0,10.02111402 L 16.01347595,10.01347595 L 16.03678938,10.0 L 16.6660084,9.6660084 L 17.0,9.48775505 L 17.33312313,9.33312313 L 17.9629317,9.0370683 L 18.0,9.0197228 L 18.01411445,9.01411445 L 18.04899342,9.0 L 18.74145533,8.74145533 L 19.0,8.64456062 L 19.49153723,8.49153723 L 19.5162115,8.4837885 L 20.0,8.33255005 L 20.26626689,8.26626689 L 20.89124582,8.10875418 L 21.0,8.08154702 L 21.06871658,8.06871658 L 21.4313519,8.0 L 21.91489782,7.91489782 L 22.0,7.89990932 L 22.11339972,7.88660028 L 22.80554715,7.80554715 L 23.0,7.78271196 L 23.23083463,7.76916537 L 23.7394213,7.7394213 L 24.0,7.72412259 L 24.27587744,7.72412256 L 24.72412256,7.72412256 L 25.0,7.72412259 L 25.2605787,7.7394213 L 25.76916537,7.76916537 L 26.0,7.78271196 L 26.19445285,7.80554715 L 26.88660028,7.88660028 L 27.0,7.89990932 L 27.08510218,7.91489782 L 27.5686481,8.0 L 27.93128342,8.06871658 L 28.0,8.08154702 L 28.10875418,8.10875418 L 28.73373311,8.26626689 L 29.0,8.33255005 L 29.4837885,8.4837885 L 29.50846277,8.49153723 L 30.0,8.64456062 L 30.25854467,8.74145533 L 30.95100658,9.0 L 30.98588555,9.01411445 L 31.0,9.0197228 L 31.0370683,9.0370683 L 31.66687687,9.33312313 L 32.0,9.48775505 L 32.3339916,9.6660084 L 32.96321062,10.0 L 32.98652405,10.01347595 L 33.0,10.02111402 L 33.05951717,10.05951717 L 33.59445357,10.40554643 L 34.0,10.66485029 L 34.1954963,10.8045037 L 34.46969589,11.0 L 34.76833819,11.23166181 L 35.0,11.40855345 L 35.32007254,11.67992746 L 35.69953278,12.0 L 35.85561191,12.14438809 L 36.0,12.27559425 L 36.36163897,12.63836103 L 36.72440575,13.0 L 36.85561191,13.14438809 L 37.0,13.30046722 L 37.32007254,13.67992746 L 37.59144655,14.0 L 37.76833819,14.23166181 L 38.0,14.53030411 L 38.1954963,14.8045037 L 38.33514971,15.0 L 38.59445357,15.40554643 L 38.94048283,15.94048283 L 38.97888598,16.0 L 38.98652405,16.01347595 L 39.0,16.03678938 L 39.3339916,16.6660084 L 39.51224495,17.0 L 39.66687687,17.33312313 L 39.9629317,17.9629317 L 39.9802772,18.0 L 39.98588555,18.01411445 L 40.0,18.04899342 L 40.25854467,18.74145533 L 40.35543938,19.0 L 40.50846277,19.49153723 L 40.5162115,19.5162115 L 40.66744995,20.0 L 40.73373311,20.26626689 L 40.89124582,20.89124582 L 40.91845298,21.0 L 40.93128342,21.06871658 L 41.0,21.4313519 L 41.08510218,21.91489782 L 41.10009068,22.0 L 41.11339972,22.11339972 L 41.19445285,22.80554715 L 41.21728804,23.0 L 41.23083463,23.23083463 L 41.2605787,23.7394213 L 41.27587741,24.0 L 41.27587744,24.27587744 L 41.27587744,24.72412256 L 41.27587741,25.0 L 41.2605787,25.2605787 L 41.23083463,25.76916537 L 41.21728804,26.0 L 41.19445285,26.19445285 L 41.11339972,26.88660028 L 41.10009068,27.0 L 41.08510218,27.08510218 L 41.0,27.5686481 L 40.93128342,27.93128342 L 40.91845298,28.0 L 40.89124582,28.10875418 L 40.73373311,28.73373311 L 40.66744995,29.0 L 40.5162115,29.4837885 L 40.50846277,29.50846277 L 40.35543938,30.0 L 40.25854467,30.25854467 L 40.0,30.95100658 L 39.98588555,30.98588555 L 39.9802772,31.0 L 39.9629317,31.0370683 L 39.66687687,31.66687687 L 39.51224495,32.0 L 39.3339916,32.3339916 L 39.0,32.96321062 L 38.98652405,32.98652405 L 38.97888598,33.0 L 38.94048283,33.05951717 L 38.59445357,33.59445357 L 38.33514971,34.0 L 38.1954963,34.1954963 L 38.0,34.46969589 L 37.76833819,34.76833819 L 37.59144655,35.0 L 37.32007254,35.32007254 L 37.0,35.69953278 L 36.85561191,35.85561191 L 36.72440575,36.0 L 36.36163897,36.36163897 L 36.0,36.72440575 L 35.85561191,36.85561191 L 35.69953278,37.0 L 35.32007254,37.32007254 L 35.0,37.59144655 L 34.76833819,37.76833819 L 34.46969589,38.0 L 34.1954963,38.1954963 L 34.0,38.33514971 L 33.59445357,38.59445357 L 33.05951717,38.94048283 L 33.0,38.97888598 L 32.98652405,38.98652405 L 32.96321062,39.0 L 32.3339916,39.3339916 L 32.0,39.51224495 L 31.66687687,39.66687687 L 31.0370683,39.9629317 L 31.0,39.9802772 L 30.98588555,39.98588555 L 30.95100658,40.0 L 30.25854467,40.25854467 L 30.0,40.35543938 L 29.50846277,40.50846277 L 29.4837885,40.5162115 L 29.0,40.66744995 L 28.73373311,40.73373311 L 28.10875418,40.89124582 L 28.0,40.91845298 L 27.93128342,40.93128342 L 27.5686481,41.0 L 27.08510218,41.08510218 L 27.0,41.10009068 L 26.88660028,41.11339972 L 26.19445285,41.19445285 L 26.0,41.21728804 L 25.76916537,41.23083463 L 25.2605787,41.2605787 L 25.0,41.27587741 L 24.72412256,41.27587744 L 24.27587744,41.27587744 L 24.0,41.27587741 L 23.7394213,41.2605787 L 23.23083463,41.23083463 L 23.0,41.21728804 L 22.80554715,41.19445285 L 22.11339972,41.11339972 L 22.0,41.10009068 L 21.91489782,41.08510218 L 21.4313519,41.0 L 21.06871658,40.93128342 L 21.0,40.91845298 L 20.89124582,40.89124582 L 20.26626689,40.73373311 L 20.0,40.66744995 L 19.5162115,40.5162115 L 19.49153723,40.50846277 L 19.0,40.35543938 L 18.74145533,40.25854467 L 18.04899342,40.0 L 18.01411445,39.98588555 L 18.0,39.9802772 L 17.9629317,39.9629317 L 17.33312313,39.66687687 L 17.0,39.51224495 L 16.6660084,39.3339916 L 16.03678938,39.0 L 16.01347595,38.98652405 L 16.0,38.97888598 L 15.94048283,38.94048283 L 15.40554643,38.59445357 L 15.0,38.33514971 L 14.8045037,38.1954963 " stroke="rgb(255,255,0)" stroke-width="0.245" fill="none" /> 
<path d="M 9.0,22.39179207 L 9.04703378,22.04703378 L 9.05327336,22.0 L 9.06664047,21.93335953 L 9.21364815,21.21364815 L 9.25611089,21.0 L 9.34972912,20.65027088 L 9.41393205,20.41393205 L 9.52354225,20.0 L 9.64302893,19.64302893 L 9.78211773,19.21788227 L 9.8542256,19.0 L 9.89598938,18.89598938 L 10.0,18.63213124 L 10.19239949,18.19239949 L 10.27397825,18.0 L 10.51722999,17.51722999 L 10.55042405,17.44957595 L 10.77300178,17.0 L 10.85587271,16.85587271 L 11.0,16.60018535 L 11.23137307,16.23137307 L 11.37188833,16.0 L 11.630301,15.630301 L 12.0,15.08792759 L 12.03812567,15.03812567 L 12.06625785,15.0 L 12.42435824,14.57564176 L 12.49368365,14.49368365 L 12.89974528,14.0 L 12.94790465,13.94790465 L 13.0,13.89052592 L 13.44849864,13.44849864 L 13.89052592,13.0 L 13.94790465,12.94790465 L 14.0,12.89974528 L 14.49368365,12.49368365 L 14.57564176,12.42435824 L 15.0,12.06625785 L 15.03812567,12.03812567 L 15.08792759,12.0 L 15.630301,11.630301 L 16.0,11.37188833 L 16.23137307,11.23137307 L 16.60018535,11.0 L 16.85587271,10.85587271 L 17.0,10.77300178 L 17.44957595,10.55042405 L 17.51722999,10.51722999 L 18.0,10.27397825 L 18.19239949,10.19239949 L 18.63213124,10.0 L 18.89598938,9.89598938 L 19.0,9.8542256 L 19.21788227,9.78211773 L 19.64302893,9.64302893 L 20.0,9.52354225 L 20.41393205,9.41393205 L 20.65027088,9.34972912 L 21.0,9.25611089 L 21.21364815,9.21364815 L 21.93335953,9.06664047 L 22.0,9.05327336 L 22.04703378,9.04703378 L 22.39179207,9.0 L 22.93339874,8.93339874 L 23.0,8.92507449 L 23.07990514,8.92009486 L 23.87148203,8.87148203 L 24.0,8.86345738 L 24.13654264,8.86345736 L 24.86345736,8.86345736 L 25.0,8.86345738 L 25.12851797,8.87148203 L 25.92009486,8.92009486 L 26.0,8.92507449 L 26.06660126,8.93339874 L 26.60820793,9.0 L 26.95296622,9.04703378 L 27.0,9.05327336 L 27.06664047,9.06664047 L 27.78635185,9.21364815 L 28.0,9.25611089 L 28.34972912,9.34972912 L 28.58606795,9.41393205 L 29.0,9.52354225 L 29.35697107,9.64302893 L 29.78211773,9.78211773 L 30.0,9.8542256 L 30.10401062,9.89598938 L 30.36786876,10.0 L 30.80760051,10.19239949 L 31.0,10.27397825 L 31.48277001,10.51722999 L 31.55042405,10.55042405 L 32.0,10.77300178 L 32.14412729,10.85587271 L 32.39981465,11.0 L 32.76862693,11.23137307 L 33.0,11.37188833 L 33.369699,11.630301 L 33.91207241,12.0 L 33.96187433,12.03812567 M 9.0,22.39179207 L 8.93339874,22.93339874 L 8.92507449,23.0 L 8.92009486,23.07990514 L 8.87148203,23.87148203 L 8.86345738,24.0 L 8.86345736,24.13654264 L 8.86345736,24.86345736 L 8.86345738,25.0 L 8.87148203,25.12851797 L 8.92009486,25.92009486 L 8.92507449,26.0 L 8.93339874,26.06660126 L 9.0,26.60820793 L 9.04703378,26.95296622 L 9.05327336,27.0 L 9.06664047,27.06664047 L 9.21364815,27.78635185 L 9.25611089,28.0 L 9.34972912,28.34972912 L 9.41393205,28.58606795 L 9.52354225,29.0 L 9.64302893,29.35697107 L 9.78211773,29.78211773 L 9.8542256,30.0 L 9.89598938,30.10401062 L 10.0,30.36786876 L 10.19239949,30.80760051 L 10.27397825,31.0 L 10.51722999,31.48277001 L 10.55042405,31.55042405 L 10.77300178,32.0 L 10.85587271,32.14412729 L 11.0,32.39981465 L 11.23137307,32.76862693 L 11.37188833,33.0 L 11.630301,33.369699 L 12.0,33.91207241 L 12.03812567,33.96187433 L 12.06625785,34.0 L 12.42435824,34.42435824 L 12.49368365,34.50631635 L 12.89974528,35.0 L 12.94790465,35.05209535 L 13.0,35.10947408 L 13.44849864,35.55150136 L 13.89052592,36.0 L 13.94790465,36.05209535 L 14.0,36.10025472 L 14.49368365,36.50631635 L 14.57564176,36.57564176 L 15.0,36.93374215 L 15.03812567,36.96187433 L 15.08792759,37.0 L 15.630301,37.369699 L 16.0,37.62811167 L 16.23137307,37.76862693 L 16.60018535,38.0 L 16.85587271,38.14412729 L 17.0,38.22699822 L 17.44957595,38.44957595 L 17.51722999,38.48277001 L 18.0,38.72602175 L 18.19239949,38.80760051 L 18.63213124,39.0 L 18.89598938,39.10401062 L 19.0,39.1457744 L 19.21788227,39.21788227 L 19.64302893,39.35697107 L 20.0,39.47645775 L 20.41393205,39.58606795 L 20.65027088,39.65027088 L 21.0,39.74388911 L 21.21364815,39.78635185 L 21.93335953,39.93335953 L 22.0,39.94672664 L 22.04703378,39.95296622 L 22.39179207,40.0 L 22.93339874,40.06660126 L 23.0,40.07492551 L 23.07990514,40.07990514 L 23.87148203,40.12851797 L 24.0,40.13654262 L 24.13654264,40.13654264 L 24.86345736,40.13654264 L 25.0,40.13654262 L 25.12851797,40.12851797 L 25.92009486,40.07990514 L 26.0,40.07492551 L 26.06660126,40.06660126 L 26.60820793,40.0 L 26.95296622,39.95296622 L 27.0,39.94672664 L 27.06664047,39.93335953 L 27.78635185,39.78635185 L 28.0,39.74388911 L 28.34972912,39.65027088 L 28.58606795,39.58606795 L 29.0,39.47645775 L 29.35697107,39.35697107 L 29.78211773,39.21788227 L 30.0,39.1457744 L 30.10401062,39.10401062 L 30.36786876,39.0 L 30.80760051,38.80760051 L 31.0,38.72602175 L 31.48277001,38.48277001 L 31.55042405,38.44957595 L 32.0,38.22699822 L 32.14412729,38.14412729 L 32.39981465,38.0 L 32.76862693,37.76862693 L 33.0,37.62811167 L 33.369699,37.369699 L 33.91207241,37.0 L 33.96187433,36.96187433 " stroke="rgb(204,255,0)" stroke-width="0.245" fill="none" /> 
<path d="M 34.0,12.06625785 L 33.96187433,12.03812567 M 34.0,12.06625785 L 34.42435824,12.42435824 L 34.50631635,12.49368365 L 35.0,12.89974528 L 35.05209535,12.94790465 L 35.10947408,13.0 L 35.55150136,13.44849864 L 36.0,13.89052592 L 36.05209535,13.94790465 L 36.10025472,14.0 L 36.50631635,14.49368365 L 36.57564176,14.57564176 L 36.93374215,15.0 L 36.96187433,15.03812567 " stroke="rgb(204,255,0)" stroke-width="0.245" fill="none" /> 
<path d="M 34.0,36.93374215 L 33.96187433,36.96187433 M 34.0,36.93374215 L 34.42435824,36.57564176 L 34.50631635,36.50631635 L 35.0,36.10025472 L 35.05209535,36.05209535 L 35.10947408,36.0 L 35.55150136,35.55150136 L 36.0,35.10947408 L 36.05209535,35.05209535 L 36.10025472,35.0 L 36.50631635,34.50631635 L 36.57564176,34.42435824 L 36.93374215,34.0 L 36.96187433,33.96187433 " stroke="rgb(204,255,0)" stroke-width="0.245" fill="none" /> 
<path d="M 37.0,15.08792759 L 37.369699,15.630301 L 37.62811167,16.0 L 37.76862693,16.23137307 L 38.0,16.60018535 L 38.14412729,16.85587271 L 38.22699822,17.0 L 38.44957595,17.44957595 L 38.48277001,17.51722999 L 38.72602175,18.0 L 38.80760051,18.19239949 L 39.0,18.63213124 L 39.10401062,18.89598938 L 39.1457744,19.0 L 39.21788227,19.21788227 L 39.35697107,19.64302893 L 39.47645775,20.0 L 39.58606795,20.41393205 L 39.65027088,20.65027088 L 39.74388911,21.0 L 39.78635185,21.21364815 L 39.93335953,21.93335953 L 39.94672664,22.0 M 37.0,15.08792759 L 36.96187433,15.03812567 " stroke="rgb(204,255,0)" stroke-width="0.245" fill="none" /> 
<path d="M 37.0,33.91207241 L 36.96187433,33.96187433 M 37.0,33.91207241 L 37.369699,33.369699 L 37.62811167,33.0 L 37.76862693,32.76862693 L 38.0,32.39981465 L 38.14412729,32.14412729 L 38.22699822,32.0 L 38.44957595,31.55042405 L 38.48277001,31.48277001 L 38.72602175,31.0 L 38.80760051,30.80760051 L 39.0,30.36786876 L 39.10401062,30.10401062 L 39.1457744,30.0 L 39.21788227,29.78211773 L 39.35697107,29.35697107 L 39.47645775,29.0 L 39.58606795,28.58606795 L 39.65027088,28.34972912 L 39.74388911,28.0 L 39.78635185,27.78635185 L 39.93335953,27.06664047 L 39.94672664,27.0 " stroke="rgb(204,255,0)" stroke-width="0.245" fill="none" /> 
<path d="M 39.94672664,22.0 L 39.95296622,22.04703378 L 40.0,22.39179207 L 40.06660126,22.93339874 L 40.07492551,23.0 L 40.07990514,23.07990514 L 40.12851797,23.87148203 L 40.13654262,24.0 L 40.13654264,24.13654264 L 40.13654264,24.86345736 L 40.13654262,25.0 L 40.12851797,25.12851797 L 40.07990514,25.92009486 L 40.07492551,26.0 L 40.06660126,26.06660126 L 40.0,26.60820793 L 39.95296622,26.95296622 L 39.94672664,27.0 " stroke="rgb(204,255,0)" stroke-width="0.245" fill="none" /> 
<path d="M 11.0,19.64235486 L 10.90781305,19.90781305 L 10.87462251,20.0 L 10.82516316,20.17483684 L 10.68418492,20.68418492 L 10.59330971,21.0 L 10.4893406,21.4893406 L 10.48329389,21.51670611 L 10.37916078,22.0 L 10.33203716,22.33203716 L 10.27386656,22.72613344 L 10.23460995,23.0 L 10.21903076,23.21903076 L 10.1741935,23.8258065 L 10.16173927,24.0 L 10.16173927,24.16173927 L 10.16173927,24.83826073 L 10.16173927,25.0 L 10.1741935,25.1741935 L 10.21903076,25.78096924 L 10.23460995,26.0 L 10.27386656,26.27386656 L 10.33203716,26.66796284 L 10.37916078,27.0 L 10.48329389,27.48329389 L 10.4893406,27.5106594 L 10.59330971,28.0 L 10.68418492,28.31581508 L 10.82516316,28.82516316 L 10.87462251,29.0 L 10.90781305,29.09218695 L 11.0,29.35764514 L 11.18272395,29.81727605 L 11.25198884,30.0 L 11.47329484,30.47329484 L 11.49049592,30.50950408 L 11.71350575,31.0 L 11.814618,31.185382 L 12.0,31.5390112 L 12.17320409,31.82679591 L 12.27227706,32.0 L 12.5664248,32.4335752 L 12.81126569,32.81126569 L 12.93478629,33.0 L 12.96298364,33.03701636 L 13.0,33.0874675 L 13.41652638,33.58347362 L 13.74992298,34.0 L 13.87017964,34.12982036 L 14.0,34.27565915 L 14.36662419,34.63337581 L 14.72434085,35.0 L 14.87017964,35.12982036 L 15.0,35.25007702 L 15.41652638,35.58347362 L 15.9125325,36.0 L 15.96298364,36.03701636 L 16.0,36.06521371 L 16.18873431,36.18873431 L 16.5664248,36.4335752 L 17.0,36.72772294 L 17.17320409,36.82679591 L 17.4609888,37.0 L 17.814618,37.185382 L 18.0,37.28649425 L 18.49049592,37.50950408 L 18.52670516,37.52670516 L 19.0,37.74801116 L 19.18272395,37.81727605 L 19.64235486,38.0 L 19.90781305,38.09218695 L 20.0,38.12537749 L 20.17483684,38.17483684 L 20.68418492,38.31581508 L 21.0,38.40669029 L 21.4893406,38.5106594 L 21.51670611,38.51670611 L 22.0,38.62083922 L 22.33203716,38.66796284 L 22.72613344,38.72613344 L 23.0,38.76539005 L 23.21903076,38.78096924 L 23.8258065,38.8258065 L 24.0,38.83826073 L 24.16173927,38.83826073 L 24.83826073,38.83826073 M 11.0,19.64235486 L 11.18272395,19.18272395 L 11.25198884,19.0 L 11.47329484,18.52670516 L 11.49049592,18.49049592 L 11.71350575,18.0 L 11.814618,17.814618 L 12.0,17.4609888 L 12.17320409,17.17320409 L 12.27227706,17.0 L 12.5664248,16.5664248 L 12.81126569,16.18873431 L 12.93478629,16.0 L 12.96298364,15.96298364 L 13.0,15.9125325 L 13.41652638,15.41652638 L 13.74992298,15.0 L 13.87017964,14.87017964 L 14.0,14.72434085 L 14.36662419,14.36662419 L 14.72434085,14.0 L 14.87017964,13.87017964 L 15.0,13.74992298 L 15.41652638,13.41652638 L 15.9125325,13.0 L 15.96298364,12.96298364 L 16.0,12.93478629 L 16.18873431,12.81126569 L 16.5664248,12.5664248 L 17.0,12.27227706 L 17.17320409,12.17320409 L 17.4609888,12.0 L 17.814618,11.814618 L 18.0,11.71350575 L 18.49049592,11.49049592 L 18.52670516,11.47329484 L 19.0,11.25198884 L 19.18272395,11.18272395 L 19.64235486,11.0 L 19.90781305,10.90781305 L 20.0,10.87462251 L 20.17483684,10.82516316 L 20.68418492,10.68418492 L 21.0,10.59330971 L 21.4893406,10.4893406 L 21.51670611,10.48329389 L 22.0,10.37916078 L 22.33203716,10.33203716 L 22.72613344,10.27386656 L 23.0,10.23460995 L 23.21903076,10.21903076 L 23.8258065,10.1741935 L 24.0,10.16173927 L 24.16173927,10.16173927 L 24.83826073,10.16173927 " stroke="rgb(153,255,0)" stroke-width="0.245" fill="none" /> 
<path d="M 25.0,10.16173927 L 25.1741935,10.1741935 L 25.78096924,10.21903076 L 26.0,10.23460995 L 26.27386656,10.27386656 L 26.66796284,10.33203716 L 27.0,10.37916078 L 27.48329389,10.48329389 L 27.5106594,10.4893406 L 28.0,10.59330971 L 28.31581508,10.68418492 L 28.82516316,10.82516316 L 29.0,10.87462251 L 29.09218695,10.90781305 L 29.35764514,11.0 L 29.81727605,11.18272395 L 30.0,11.25198884 L 30.47329484,11.47329484 L 30.50950408,11.49049592 L 31.0,11.71350575 L 31.185382,11.814618 L 31.5390112,12.0 L 31.82679591,12.17320409 L 32.0,12.27227706 L 32.4335752,12.5664248 L 32.81126569,12.81126569 L 33.0,12.93478629 L 33.03701636,12.96298364 L 33.0874675,13.0 L 33.58347362,13.41652638 L 34.0,13.74992298 L 34.12982036,13.87017964 L 34.27565915,14.0 L 34.63337581,14.36662419 L 35.0,14.72434085 L 35.12982036,14.87017964 L 35.25007702,15.0 L 35.58347362,15.41652638 L 36.0,15.9125325 L 36.03701636,15.96298364 L 36.06521371,16.0 L 36.18873431,16.18873431 L 36.4335752,16.5664248 L 36.72772294,17.0 L 36.82679591,17.17320409 L 37.0,17.4609888 L 37.185382,17.814618 L 37.28649425,18.0 L 37.50950408,18.49049592 L 37.52670516,18.52670516 L 37.74801116,19.0 L 37.81727605,19.18272395 L 38.0,19.64235486 L 38.09218695,19.90781305 L 38.12537749,20.0 L 38.17483684,20.17483684 L 38.31581508,20.68418492 L 38.40669029,21.0 L 38.5106594,21.4893406 L 38.51670611,21.51670611 L 38.62083922,22.0 L 38.66796284,22.33203716 L 38.72613344,22.72613344 L 38.76539005,23.0 L 38.78096924,23.21903076 L 38.8258065,23.8258065 L 38.83826073,24.0 L 38.83826073,24.16173927 M 25.0,10.16173927 L 24.83826073,10.16173927 " stroke="rgb(153,255,0)" stroke-width="0.245" fill="none" /> 
<path d="M 25.0,38.83826073 L 24.83826073,38.83826073 M 25.0,38.83826073 L 25.1741935,38.8258065 L 25.78096924,38.78096924 L 26.0,38.76539005 L 26.27386656,38.72613344 L 26.66796284,38.66796284 L 27.0,38.62083922 L 27.48329389,38.51670611 L 27.5106594,38.5106594 L 28.0,38.40669029 L 28.31581508,38.31581508 L 28.82516316,38.17483684 L 29.0,38.12537749 L 29.09218695,38.09218695 L 29.35764514,38.0 L 29.81727605,37.81727605 L 30.0,37.74801116 L 30.47329484,37.52670516 L 30.50950408,37.50950408 L 31.0,37.28649425 L 31.185382,37.185382 L 31.5390112,37.0 L 31.82679591,36.82679591 L 32.0,36.72772294 L 32.4335752,36.4335752 L 32.81126569,36.18873431 L 33.0,36.06521371 L 33.03701636,36.03701636 L 33.0874675,36.0 L 33.58347362,35.58347362 L 34.0,35.25007702 L 34.12982036,35.12982036 L 34.27565915,35.0 L 34.63337581,34.63337581 L 35.0,34.27565915 L 35.12982036,34.12982036 L 35.25007702,34.0 L 35.58347362,33.58347362 L 36.0,33.0874675 L 36.03701636,33.03701636 L 36.06521371,33.0 L 36.18873431,32.81126569 L 36.4335752,32.4335752 L 36.72772294,32.0 L 36.82679591,31.82679591 L 37.0,31.5390112 L 37.185382,31.185382 L 37.28649425,31.0 L 37.50950408,30.50950408 L 37.52670516,30.47329484 L 37.74801116,30.0 L 37.81727605,29.81727605 L 38.0,29.35764514 L 38.09218695,29.09218695 L 38.12537749,29.0 L 38.17483684,28.82516316 L 38.31581508,28.31581508 L 38.40669029,28.0 L 38.5106594,27.5106594 L 38.51670611,27.48329389 L 38.62083922,27.0 L 38.66796284,26.66796284 L 38.72613344,26.27386656 L 38.76539005,26.0 L 38.78096924,25.78096924 L 38.8258065,25.1741935 L 38.83826073,25.0 L 38.83826073,24.83826073 " stroke="rgb(153,255,0)" stroke-width="0.245" fill="none" /> 
<path d="M 38.83826073,24.83826073 L 38.83826073,24.16173927 " stroke="rgb(153,255,0)" stroke-width="0.245" fill="none" /> 
<path d="M 12.0,21.86364294 L 11.97534326,21.97534326 L 11.96960565,22.0 L 11.96413336,22.03586664 L 11.84532782,22.84532782 L 11.8214037,23.0 L 11.8066021,23.1933979 L 11.76474287,23.76474287 L 11.74660968,24.0 L 11.74660968,24.25339032 L 11.74660968,24.74660968 L 11.74660968,25.0 L 11.76474287,25.23525713 L 11.8066021,25.8066021 L 11.8214037,26.0 L 11.84532782,26.15467218 L 11.96413336,26.96413336 L 11.96960565,27.0 L 11.97534326,27.02465674 L 12.0,27.13635706 L 12.17957532,27.82042468 L 12.22384186,28.0 L 12.33827709,28.33827709 L 12.42191497,28.57808503 L 12.56019277,29.0 L 12.69110391,29.30889609 L 12.94411438,29.94411438 L 12.9669655,30.0 L 12.97811099,30.02188901 L 13.0,30.06743832 L 13.33841485,30.66158515 L 13.51843149,31.0 L 13.70851429,31.29148571 L 14.0,31.76843292 L 14.09778887,31.90221113 L 14.16412802,32.0 L 14.54192102,32.45807898 L 14.8216887,32.8216887 L 14.96009424,33.0 L 14.97927944,33.02072056 L 15.0,33.04449049 L 15.4859435,33.5140565 L 15.95550951,34.0 L 15.97927944,34.02072056 L 16.0,34.03990576 L 16.1783113,34.1783113 L 16.54192102,34.45807898 L 17.0,34.83587198 L 17.09778887,34.90221113 L 17.23156708,35.0 L 17.70851429,35.29148571 L 18.0,35.48156851 L 18.33841485,35.66158515 L 18.93256168,36.0 L 18.97811099,36.02188901 L 19.0,36.0330345 L 19.05588562,36.05588562 L 19.69110391,36.30889609 L 20.0,36.43980723 L 20.42191497,36.57808503 L 20.66172291,36.66172291 L 21.0,36.77615814 L 21.17957532,36.82042468 L 21.86364294,37.0 L 21.97534326,37.02465674 L 22.0,37.03039435 L 22.03586664,37.03586664 L 22.84532782,37.15467218 L 23.0,37.1785963 L 23.1933979,37.1933979 L 23.76474287,37.23525713 L 24.0,37.25339032 L 24.25339032,37.25339032 L 24.74660968,37.25339032 L 25.0,37.25339032 L 25.23525713,37.23525713 L 25.8066021,37.1933979 L 26.0,37.1785963 L 26.15467218,37.15467218 L 26.96413336,37.03586664 L 27.0,37.03039435 L 27.02465674,37.02465674 L 27.13635706,37.0 L 27.82042468,36.82042468 L 28.0,36.77615814 L 28.33827709,36.66172291 L 28.57808503,36.57808503 L 29.0,36.43980723 L 29.30889609,36.30889609 L 29.94411438,36.05588562 L 30.0,36.0330345 L 30.02188901,36.02188901 L 30.06743832,36.0 L 30.66158515,35.66158515 L 31.0,35.48156851 L 31.29148571,35.29148571 L 31.76843292,35.0 L 31.90221113,34.90221113 L 32.0,34.83587198 L 32.45807898,34.45807898 L 32.8216887,34.1783113 L 33.0,34.03990576 L 33.02072056,34.02072056 L 33.04449049,34.0 L 33.5140565,33.5140565 L 34.0,33.04449049 L 34.02072056,33.02072056 L 34.03990576,33.0 L 34.1783113,32.8216887 L 34.45807898,32.45807898 L 34.83587198,32.0 L 34.90221113,31.90221113 L 35.0,31.76843292 L 35.29148571,31.29148571 L 35.48156851,31.0 L 35.66158515,30.66158515 L 36.0,30.06743832 L 36.02188901,30.02188901 L 36.0330345,30.0 L 36.05588562,29.94411438 L 36.30889609,29.30889609 L 36.43980723,29.0 L 36.57808503,28.57808503 L 36.66172291,28.33827709 L 36.77615814,28.0 L 36.82042468,27.82042468 L 37.0,27.13635706 L 37.02465674,27.02465674 L 37.03039435,27.0 L 37.03586664,26.96413336 L 37.15467218,26.15467218 L 37.1785963,26.0 L 37.1933979,25.8066021 L 37.23525713,25.23525713 L 37.25339032,25.0 L 37.25339032,24.74660968 L 37.25339032,24.25339032 L 37.25339032,24.0 L 37.23525713,23.76474287 L 37.1933979,23.1933979 L 37.1785963,23.0 L 37.15467218,22.84532782 L 37.03586664,22.03586664 L 37.03039435,22.0 L 37.02465674,21.97534326 L 37.0,21.86364294 L 36.82042468,21.17957532 L 36.77615814,21.0 L 36.66172291,20.66172291 L 36.57808503,20.42191497 L 36.43980723,20.0 L 36.30889609,19.69110391 L 36.05588562,19.05588562 L 36.0330345,19.0 L 36.02188901,18.97811099 L 36.0,18.93256168 L 35.66158515,18.33841485 L 35.48156851,18.0 L 35.29148571,17.70851429 L 35.0,17.23156708 L 34.90221113,17.09778887 L 34.83587198,17.0 L 34.45807898,16.54192102 L 34.1783113,16.1783113 L 34.03990576,16.0 L 34.02072056,15.97927944 L 34.0,15.95550951 L 33.5140565,15.4859435 L 33.04449049,15.0 L 33.02072056,14.97927944 L 33.0,14.96009424 L 32.8216887,14.8216887 L 32.45807898,14.54192102 L 32.0,14.16412802 L 31.90221113,14.09778887 L 31.76843292,14.0 L 31.29148571,13.70851429 L 31.0,13.51843149 L 30.66158515,13.33841485 L 30.06743832,13.0 L 30.02188901,12.97811099 L 30.0,12.9669655 L 29.94411438,12.94411438 L 29.30889609,12.69110391 L 29.0,12.56019277 L 28.57808503,12.42191497 L 28.33827709,12.33827709 L 28.0,12.22384186 L 27.82042468,12.17957532 L 27.13635706,12.0 L 27.02465674,11.97534326 L 27.0,11.96960565 L 26.96413336,11.96413336 L 26.15467218,11.84532782 L 26.0,11.8214037 L 25.8066021,11.8066021 L 25.23525713,11.76474287 L 25.0,11.74660968 L 24.74660968,11.74660968 L 24.25339032,11.74660968 L 24.0,11.74660968 L 23.76474287,11.76474287 L 23.1933979,11.8066021 L 23.0,11.8214037 L 22.84532782,11.84532782 L 22.03586664,11.96413336 L 22.0,11.96960565 L 21.97534326,11.97534326 L 21.86364294,12.0 L 21.17957532,12.17957532 L 21.0,12.22384186 L 20.66172291,12.33827709 L 20.42191497,12.42191497 L 20.0,12.56019277 L 19.69110391,12.69110391 L 19.05588562,12.94411438 L 19.0,12.9669655 L 18.97811099,12.97811099 L 18.93256168,13.0 L 18.33841485,13.33841485 L 18.0,13.51843149 L 17.70851429,13.70851429 L 17.23156708,14.0 L 17.09778887,14.09778887 L 17.0,14.16412802 L 16.54192102,14.54192102 L 16.1783113,14.8216887 L 16.0,14.96009424 L 15.97927944,14.97927944 L 15.95550951,15.0 L 15.4859435,15.4859435 L 15.0,15.95550951 L 14.97927944,15.97927944 L 14.96009424,16.0 L 14.8216887,16.1783113 L 14.54192102,16.54192102 L 14.16412802,17.0 L 14.09778887,17.09778887 L 14.0,17.23156708 L 13.70851429,17.70851429 L 13.51843149,18.0 L 13.33841485,18.33841485 L 13.0,18.93256168 L 12.97811099,18.97811099 L 12.9669655,19.0 L 12.94411438,19.05588562 L 12.69110391,19.69110391 L 12.56019277,20.0 L 12.42191497,20.42191497 L 12.33827709,20.66172291 L 12.22384186,21.0 L 12.17957532,21.17957532 M 12.0,21.86364294 L 12.17957532,21.17957532 " stroke="rgb(102,255,0)" stroke-width="0.245" fill="none" /> 
<path d="M 14.0,23.43085972 L 13.95555299,23.95555299 L 13.95149321,24.0 L 13.95149322,24.04850678 L 13.95149322,24.95149322 L 13.95149321,25.0 L 13.95555299,25.04444701 L 14.0,25.56914028 L 14.04189966,25.95810034 L 14.04605156,26.0 L 14.05776793,26.05776793 L 14.2141989,26.7858011 L 14.25634866,27.0 L 14.36947598,27.36947598 L 14.43290438,27.56709562 L 14.55992323,28.0 L 14.68795666,28.31204334 L 14.91207738,28.91207738 L 14.94631815,29.0 L 14.96455894,29.03544106 L 15.0,29.1108087 L 15.33066073,29.66933927 L 15.50770498,30.0 L 15.70923839,30.29076161 L 16.0,30.75402673 L 16.1091292,30.8908708 L 16.18721695,31.0 M 14.0,23.43085972 L 14.04189966,23.04189966 L 14.04605156,23.0 L 14.05776793,22.94223207 L 14.2141989,22.2141989 L 14.25634866,22.0 L 14.36947598,21.63052402 L 14.43290438,21.43290438 L 14.55992323,21.0 L 14.68795666,20.68795666 L 14.91207738,20.08792262 L 14.94631815,20.0 L 14.96455894,19.96455894 L 15.0,19.8891913 L 15.33066073,19.33066073 L 15.50770498,19.0 L 15.70923839,18.70923839 L 16.0,18.24597327 L 16.1091292,18.1091292 L 16.18721695,18.0 " stroke="rgb(51,255,0)" stroke-width="0.245" fill="none" /> 
<path d="M 17.0,17.06428286 L 16.57630639,17.57630639 L 16.18721695,18.0 M 17.0,17.06428286 L 17.03303496,17.03303496 L 17.06428286,17.0 L 17.57630639,16.57630639 L 18.0,16.18721695 L 18.1091292,16.1091292 L 18.24597327,16.0 L 18.70923839,15.70923839 L 19.0,15.50770498 L 19.33066073,15.33066073 L 19.8891913,15.0 L 19.96455894,14.96455894 L 20.0,14.94631815 L 20.08792262,14.91207738 L 20.68795666,14.68795666 L 21.0,14.55992323 L 21.43290438,14.43290438 L 21.63052402,14.36947598 L 22.0,14.25634866 L 22.2141989,14.2141989 L 22.94223207,14.05776793 L 23.0,14.04605156 L 23.04189966,14.04189966 L 23.43085972,14.0 L 23.95555299,13.95555299 L 24.0,13.95149321 L 24.04850678,13.95149322 L 24.95149322,13.95149322 L 25.0,13.95149321 L 25.04444701,13.95555299 L 25.56914028,14.0 L 25.95810034,14.04189966 L 26.0,14.04605156 L 26.05776793,14.05776793 L 26.7858011,14.2141989 L 27.0,14.25634866 L 27.36947598,14.36947598 L 27.56709562,14.43290438 L 28.0,14.55992323 L 28.31204334,14.68795666 L 28.91207738,14.91207738 L 29.0,14.94631815 L 29.03544106,14.96455894 L 29.1108087,15.0 L 29.66933927,15.33066073 L 30.0,15.50770498 L 30.29076161,15.70923839 L 30.75402673,16.0 L 30.8908708,16.1091292 L 31.0,16.18721695 L 31.42369361,16.57630639 L 31.93571714,17.0 L 31.96696504,17.03303496 L 32.0,17.06428286 L 32.42369361,17.57630639 L 32.81278305,18.0 L 32.8908708,18.1091292 L 33.0,18.24597327 L 33.29076161,18.70923839 L 33.49229502,19.0 L 33.66933927,19.33066073 L 34.0,19.8891913 L 34.03544106,19.96455894 L 34.05368185,20.0 L 34.08792262,20.08792262 L 34.31204334,20.68795666 L 34.44007677,21.0 L 34.56709562,21.43290438 L 34.63052402,21.63052402 L 34.74365134,22.0 L 34.7858011,22.2141989 L 34.94223207,22.94223207 L 34.95394844,23.0 L 34.95810034,23.04189966 L 35.0,23.43085972 L 35.04444701,23.95555299 L 35.04850679,24.0 L 35.04850678,24.04850678 L 35.04850678,24.95149322 L 35.04850679,25.0 L 35.04444701,25.04444701 L 35.0,25.56914028 L 34.95810034,25.95810034 L 34.95394844,26.0 L 34.94223207,26.05776793 L 34.7858011,26.7858011 L 34.74365134,27.0 L 34.63052402,27.36947598 L 34.56709562,27.56709562 L 34.44007677,28.0 L 34.31204334,28.31204334 L 34.08792262,28.91207738 L 34.05368185,29.0 L 34.03544106,29.03544106 L 34.0,29.1108087 L 33.66933927,29.66933927 L 33.49229502,30.0 L 33.29076161,30.29076161 L 33.0,30.75402673 L 32.8908708,30.8908708 L 32.81278305,31.0 L 32.42369361,31.42369361 L 32.0,31.93571714 L 31.96696504,31.96696504 L 31.93571714,32.0 L 31.42369361,32.42369361 L 31.0,32.81278305 L 30.8908708,32.8908708 L 30.75402673,33.0 L 30.29076161,33.29076161 L 30.0,33.49229502 L 29.66933927,33.66933927 L 29.1108087,34.0 L 29.03544106,34.03544106 L 29.0,34.05368185 L 28.91207738,34.08792262 L 28.31204334,34.31204334 L 28.0,34.44007677 L 27.56709562,34.56709562 L 27.36947598,34.63052402 L 27.0,34.74365134 L 26.7858011,34.7858011 L 26.05776793,34.94223207 L 26.0,34.95394844 L 25.95810034,34.95810034 L 25.56914028,35.0 L 25.04444701,35.04444701 L 25.0,35.04850679 L 24.95149322,35.04850678 L 24.04850678,35.04850678 L 24.0,35.04850679 L 23.95555299,35.04444701 L 23.43085972,35.0 L 23.04189966,34.95810034 L 23.0,34.95394844 L 22.94223207,34.94223207 L 22.2141989,34.7858011 L 22.0,34.74365134 L 21.63052402,34.63052402 L 21.43290438,34.56709562 L 21.0,34.44007677 L 20.68795666,34.31204334 L 20.08792262,34.08792262 L 20.0,34.05368185 L 19.96455894,34.03544106 L 19.8891913,34.0 L 19.33066073,33.66933927 L 19.0,33.49229502 L 18.70923839,33.29076161 L 18.24597327,33.0 L 18.1091292,32.8908708 L 18.0,32.81278305 L 17.57630639,32.42369361 L 17.06428286,32.0 L 17.03303496,31.96696504 L 17.0,31.93571714 L 16.57630639,31.42369361 L 16.18721695,31.0 " stroke="rgb(51,255,0)" stroke-width="0.245" fill="none" /> 
</svg>