<svg xmlns="http://www.w3.org/2000/svg" version="1.1" x="1" y="1" width="120.0" height="100.0"> 
	<path d="M 85.00,95.00 L 80.00,90.00 " stroke="rgb(255,255,0)" stroke-width="0.05" fill="none" /> 
	<path d="M 75.00,55.00 C 75.00 52.50, 75.31 52.47, 75.00 50.00 C 74.75 47.97, 74.83 47.86, 74.00 46.00 C 72.57 42.76, 72.28 40.23, 70.00 40.00 C 67.77 39.78, 67.50 42.50, 65.00 45.00 C 62.50 47.50, 62.50 47.50, 60.00 50.00 " stroke="rgb(255,255,0)" stroke-width="0.05" fill="none" /> 
	<path d="M 80.00,60.00 C 80.00 65.00, 80.00 65.00, 80.00 70.00 C 80.00 75.00, 80.00 75.00, 80.00 80.00 " stroke="rgb(255,255,0)" stroke-width="0.05" fill="none" /> 
	<path d="M 20.00,50.00 C 20.00 55.00, 20.00 55.00, 20.00 60.00 C 20.00 65.00, 17.50 67.50, 20.00 70.00 C 22.50 72.50, 25.00 70.00, 30.00 70.00 " stroke="rgb(255,255,0)" stroke-width="0.05" fill="none" /> 
	<path d="M 0.00,20.00 L 0.00,10.00 " stroke="rgb(255,255,0)" stroke-width="0.05" fill="none" /> 
	<path d="M 20.00,50.00 L 30.00,50.00 " stroke="rgb(255,255,0)" stroke-width="0.05" fill="none" /> 
	<path d="M 90.00,40.00 C 95.00 40.00, 95.00 40.00, 100.00 40.00 C 105.00 40.00, 106.12 37.92, 110.00 40.00 C 112.81 41.50, 112.57 42.76, 114.00 46.00 C 114.83 47.86, 115.00 48.00, 115.00 50.00 C 115.00 52.00, 114.83 52.15, 114.00 54.00 C 112.57 57.25, 112.81 58.50, 110.00 60.00 C 106.12 62.09, 104.27 61.77, 100.00 60.00 C 96.99 58.75, 97.50 57.50, 95.00 55.00 C 92.50 52.50, 91.25 53.02, 90.00 50.00 C 88.24 45.74, 90.00 45.00, 90.00 40.00 " stroke="rgb(255,255,0)" stroke-width="0.05" fill="none" /> 
	<path d="M 85.00,95.00 C 87.50 95.00, 87.54 94.70, 90.00 95.00 C 92.04 95.25, 92.15 95.18, 94.00 96.00 C 97.25 97.44, 97.00 100.00, 100.00 100.00 C 103.00 100.00, 102.76 97.44, 106.00 96.00 C 107.86 95.18, 108.00 95.00, 110.00 95.00 C 112.00 95.00, 112.15 95.18, 114.00 96.00 C 117.25 97.44, 117.00 98.00, 120.00 100.00 " stroke="rgb(255,255,0)" stroke-width="0.05" fill="none" /> 
	<path d="M 20.00,50.00 L 20.00,40.00 " stroke="rgb(255,255,0)" stroke-width="0.05" fill="none" /> 
	<path d="M 60.00,60.00 L 60.00,50.00 " stroke="rgb(255,255,0)" stroke-width="0.05" fill="none" /> 
	<path d="M 60.00,60.00 L 70.00,60.00 " stroke="rgb(255,255,0)" stroke-width="0.05" fill="none" /> 
	<path d="M 70.00,60.00 L 75.00,55.00 " stroke="rgb(255,255,0)" stroke-width="0.05" fill="none" /> 
	<path d="M 75.00,55.00 L 80.00,60.00 " stroke="rgb(255,255,0)" stroke-width="0.05" fill="none" /> 
	<path d="M 0.00,20.00 C 5.00 20.00, 9.27 18.24, 10.00 20.00 C 10.52 21.25, 7.50 22.50, 5.00 25.00 " stroke="rgb(255,255,0)" stroke-width="0.05" fill="none" /> 
	<path d="M 40.00,90.00 L 40.00,100.00 " stroke="rgb(255,255,0)" stroke-width="0.05" fill="none" /> 
	<path d="M 80.00,80.00 L 80.00,90.00 " stroke="rgb(255,255,0)" stroke-width="0.05" fill="none" /> 
	<path d="M 80.00,60.00 L 70.00,60.00 " stroke="rgb(255,255,0)" stroke-width="0.05" fill="none" /> 
	<path d="M 105.00,5.00 C 107.50 2.50, 106.99 1.25, 110.00 0.00 C 114.27 -1.77, 115.00 0.00, 120.00 0.00 " stroke="rgb(255,255,0)" stroke-width="0.05" fill="none" /> 
	<path d="M 40.00,90.00 C 35.00 90.00, 35.00 90.00, 30.00 90.00 C 25.00 90.00, 25.00 90.00, 20.00 90.00 C 15.00 90.00, 14.27 91.77, 10.00 90.00 C 6.99 88.75, 7.50 87.50, 5.00 85.00 C 2.50 82.50, 2.50 82.50, 0.00 80.00 " stroke="rgb(255,255,0)" stroke-width="0.05" fill="none" /> 
	<path d="M 40.00,30.00 L 30.00,30.00 " stroke="rgb(255,255,0)" stroke-width="0.05" fill="none" /> 
	<path d="M 5.00,25.00 C 5.00 27.50, 5.00 27.50, 5.00 30.00 C 5.00 32.50, 5.00 32.50, 5.00 35.00 C 5.00 37.50, 5.00 37.50, 5.00 40.00 C 5.00 42.50, 5.00 42.50, 5.00 45.00 C 5.00 47.50, 5.56 47.64, 5.00 50.00 C 4.59 51.77, 4.59 52.09, 3.34 53.34 C 2.09 54.59, 1.67 54.17, 0.00 55.00 " stroke="rgb(255,255,0)" stroke-width="0.05" fill="none" /> 
	<path d="M 80.00,90.00 C 80.00 95.00, 78.24 99.27, 80.00 100.00 C 81.25 100.52, 82.50 97.50, 85.00 95.00 " stroke="rgb(255,255,0)" stroke-width="0.05" fill="none" /> 
	<path d="M 40.00,10.00 L 40.00,0.00 " stroke="rgb(255,255,0)" stroke-width="0.05" fill="none" /> 
	<path d="M 40.00,10.00 C 45.00 10.00, 47.50 7.50, 50.00 10.00 C 52.50 12.50, 51.77 15.74, 50.00 20.00 C 48.75 23.02, 47.50 22.50, 45.00 25.00 C 42.50 27.50, 42.50 27.50, 40.00 30.00 " stroke="rgb(255,255,0)" stroke-width="0.05" fill="none" /> 
	<path d="M 40.00,30.00 C 42.50 32.50, 42.50 32.50, 45.00 35.00 C 47.50 37.50, 48.75 36.99, 50.00 40.00 C 51.77 44.27, 47.50 47.50, 50.00 50.00 C 52.50 52.50, 55.00 50.00, 60.00 50.00 " stroke="rgb(255,255,0)" stroke-width="0.05" fill="none" /> 
	<path d="M 40.00,10.00 C 35.00 10.00, 35.00 10.00, 30.00 10.00 C 25.00 10.00, 25.00 10.00, 20.00 10.00 " stroke="rgb(255,255,0)" stroke-width="0.05" fill="none" /> 
	<path d="M 80.00,90.00 C 75.00 90.00, 74.27 88.24, 70.00 90.00 C 66.99 91.25, 67.50 92.50, 65.00 95.00 C 62.50 97.50, 62.50 97.50, 60.00 100.00 " stroke="rgb(255,255,0)" stroke-width="0.05" fill="none" /> 
	<path d="M 80.00,80.00 C 85.00 80.00, 85.00 80.00, 90.00 80.00 C 95.00 80.00, 95.00 80.00, 100.00 80.00 C 105.00 80.00, 105.00 80.00, 110.00 80.00 C 115.00 80.00, 115.00 80.00, 120.00 80.00 " stroke="rgb(255,255,0)" stroke-width="0.05" fill="none" /> 
	<path d="M 5.00,25.00 L 0.00,20.00 " stroke="rgb(255,255,0)" stroke-width="0.05" fill="none" /> 
	<path d="M 60.00,60.00 C 60.00 65.00, 61.77 65.74, 60.00 70.00 C 58.75 73.02, 57.50 72.50, 55.00 75.00 C 52.50 77.50, 52.50 77.50, 50.00 80.00 C 47.50 82.50, 47.50 82.50, 45.00 85.00 C 42.50 87.50, 42.50 87.50, 40.00 90.00 " stroke="rgb(255,255,0)" stroke-width="0.05" fill="none" /> 
	<path d="M 105.00,5.00 C 102.50 2.50, 103.02 1.25, 100.00 0.00 C 95.74 -1.77, 94.27 -1.77, 90.00 0.00 C 86.99 1.25, 87.50 2.50, 85.00 5.00 C 82.50 7.50, 80.00 7.50, 80.00 10.00 C 80.00 12.50, 82.50 12.50, 85.00 15.00 C 87.50 17.50, 87.28 19.74, 90.00 20.00 C 92.78 20.28, 92.76 17.44, 96.00 16.00 C 97.86 15.18, 98.00 15.50, 100.00 15.00 C 102.00 14.50, 102.75 15.26, 104.00 14.00 C 105.25 12.75, 104.75 12.04, 105.00 10.00 C 105.31 7.54, 105.00 7.50, 105.00 5.00 " stroke="rgb(255,255,0)" stroke-width="0.05" fill="none" /> 
</svg>