<svg xmlns="http://www.w3.org/2000/svg" version="1.1" x="1" y="1" width="2.0" height="2.0"> 
	<path d="M 0.78,2.00 L 0.93,1.93 L 1.00,1.93 L 1.14,1.87 L 1.73,1.73 L 2.00,1.55 " stroke="rgb(255,85,0)" stroke-width="0.05" fill="none" /> 
	<path d="M 2.00,1.09 L 1.77,1.24 L 1.47,1.47 L 1.00,1.65 L 0.67,1.67 L 0.02,1.99 L 0.00,1.99 " stroke="rgb(255,170,0)" stroke-width="0.05" fill="none" /> 
	<path d="M 0.00,0.30 L 0.24,0.24 L 0.87,0.14 L 1.00,0.11 L 1.08,0.08 L 1.07,0.00 " stroke="rgb(255,170,0)" stroke-width="0.05" fill="none" /> 
	<path d="M 1.30,0.00 L 1.35,0.35 L 1.00,0.49 L 0.58,0.58 L 0.35,0.66 L 0.00,0.75 " stroke="rgb(255,255,0)" stroke-width="0.05" fill="none" /> 
	<path d="M 0.00,1.36 L 0.32,1.32 L 0.61,1.40 L 1.00,1.37 L 1.27,1.27 L 1.62,1.00 L 1.71,0.71 L 2.00,0.79 " stroke="rgb(255,255,0)" stroke-width="0.05" fill="none" /> 
	<path d="M 2.00,0.53 L 1.59,0.42 L 1.54,0.00 " stroke="rgb(170,255,0)" stroke-width="0.05" fill="none" /> 
	<path d="M 1.00,0.88 L 1.22,0.79 L 1.16,1.00 L 1.07,1.07 L 1.00,1.10 L 0.90,1.11 L 0.56,1.00 L 0.90,0.90 L 1.00,0.88 " stroke="rgb(170,255,0)" stroke-width="0.05" fill="none" /> 
	<path d="M 1.77,0.00 L 1.80,0.21 L 2.00,0.27 " stroke="rgb(85,255,0)" stroke-width="0.05" fill="none" /> 
</svg>