<svg xmlns="http://www.w3.org/2000/svg" version="1.1" x="1" y="1" width="120.0" height="100.0"> 
	<path d="M 33.33,0.00 C 32.78 1.11, 33.06 1.39, 32.22 2.22 C 31.39 3.06, 31.18 3.06, 30.00 3.33 C 28.42 3.71, 28.33 3.33, 26.67 3.33 C 25.00 3.33, 25.00 3.33, 23.33 3.33 C 21.67 3.33, 21.58 2.96, 20.00 3.33 C 17.65 3.89, 17.22 3.89, 15.56 5.56 C 13.89 7.22, 13.89 7.65, 13.33 10.00 C 12.96 11.58, 14.17 12.50, 13.33 13.33 C 12.50 14.17, 11.58 13.71, 10.00 13.33 C 8.82 13.06, 8.61 13.06, 7.78 12.22 C 6.94 11.39, 7.22 11.11, 6.67 10.00 C 5.56 7.78, 6.11 7.22, 4.44 5.56 C 2.78 3.89, 2.22 4.44, 0.00 3.33 " stroke="rgb(255,85,0)" stroke-width="0.50" fill="none" /> 
	<path d="M 27.78,57.78 C 26.94 58.61, 26.67 58.89, 26.67 60.00 C 26.67 61.11, 26.94 61.39, 27.78 62.22 C 28.61 63.06, 28.82 63.06, 30.00 63.33 C 31.58 63.71, 32.50 64.17, 33.33 63.33 C 34.17 62.50, 33.33 61.67, 33.33 60.00 C 33.33 58.33, 34.17 57.50, 33.33 56.67 C 32.50 55.83, 31.58 56.29, 30.00 56.67 C 28.82 56.94, 28.61 56.94, 27.78 57.78 " stroke="rgb(255,85,0)" stroke-width="0.50" fill="none" /> 
	<path d="M 30.00,36.67 C 31.67 36.67, 31.67 36.67, 33.33 36.67 C 35.00 36.67, 35.00 36.67, 36.67 36.67 C 38.33 36.67, 38.58 36.08, 40.00 36.67 C 41.01 37.08, 40.83 37.50, 41.67 38.33 C 42.50 39.17, 42.92 38.99, 43.33 40.00 C 43.92 41.42, 43.33 41.67, 43.33 43.33 C 43.33 45.00, 43.33 45.00, 43.33 46.67 C 43.33 48.33, 43.33 48.33, 43.33 50.00 C 43.33 51.67, 44.17 52.50, 43.33 53.33 C 42.50 54.17, 41.67 53.33, 40.00 53.33 C 38.33 53.33, 37.50 54.17, 36.67 53.33 C 35.83 52.50, 37.04 51.58, 36.67 50.00 C 36.11 47.65, 36.11 47.22, 34.44 45.56 C 32.78 43.89, 32.22 44.44, 30.00 43.33 C 28.89 42.78, 28.61 43.06, 27.78 42.22 C 26.94 41.39, 26.94 41.18, 26.67 40.00 C 26.29 38.42, 25.83 37.50, 26.67 36.67 C 27.50 35.83, 28.33 36.67, 30.00 36.67 " stroke="rgb(255,85,0)" stroke-width="0.50" fill="none" /> 
	<path d="M 97.78,47.78 C 96.94 48.61, 96.51 49.01, 96.67 50.00 C 96.82 50.94, 97.50 50.83, 98.33 51.67 C 99.17 52.50, 98.99 52.92, 100.00 53.33 C 101.42 53.92, 101.67 53.33, 103.33 53.33 C 105.00 53.33, 105.00 53.33, 106.67 53.33 C 108.33 53.33, 108.70 54.03, 110.00 53.33 C 110.93 52.83, 110.85 52.42, 111.33 51.33 C 111.61 50.71, 111.67 50.67, 111.67 50.00 C 111.67 49.33, 111.61 49.29, 111.33 48.67 C 110.85 47.58, 110.93 47.17, 110.00 46.67 C 108.70 45.97, 108.33 46.67, 106.67 46.67 C 105.00 46.67, 105.00 46.67, 103.33 46.67 C 101.67 46.67, 101.58 46.29, 100.00 46.67 C 98.82 46.94, 98.61 46.94, 97.78 47.78 " stroke="rgb(255,85,0)" stroke-width="0.50" fill="none" /> 
	<path d="M 90.00,6.67 C 91.42 6.08, 91.67 6.67, 93.33 6.67 C 95.00 6.67, 95.00 6.67, 96.67 6.67 C 98.33 6.67, 98.58 6.08, 100.00 6.67 C 101.01 7.08, 101.25 7.33, 101.67 8.33 C 101.96 9.04, 101.77 9.18, 101.67 10.00 C 101.58 10.68, 101.75 10.92, 101.33 11.33 C 100.92 11.75, 100.67 11.50, 100.00 11.67 C 98.89 11.94, 98.91 12.08, 97.78 12.22 C 95.04 12.56, 94.85 11.60, 92.22 12.22 C 91.05 12.50, 90.99 13.49, 90.00 13.33 C 89.06 13.18, 89.17 12.50, 88.33 11.67 C 87.50 10.83, 86.67 10.83, 86.67 10.00 C 86.67 9.17, 87.50 9.17, 88.33 8.33 C 89.17 7.50, 88.99 7.08, 90.00 6.67 " stroke="rgb(255,85,0)" stroke-width="0.50" fill="none" /> 
	<path d="M 120.00,93.33 C 118.89 92.78, 118.95 92.50, 117.78 92.22 C 115.15 91.60, 114.96 92.56, 112.22 92.22 C 111.09 92.08, 111.11 91.67, 110.00 91.67 C 108.89 91.67, 108.91 92.08, 107.78 92.22 C 105.04 92.56, 104.85 91.60, 102.22 92.22 C 101.05 92.50, 101.11 93.33, 100.00 93.33 C 98.89 93.33, 98.95 92.50, 97.78 92.22 C 95.15 91.60, 94.96 92.56, 92.22 92.22 C 91.09 92.08, 91.13 91.81, 90.00 91.67 C 89.18 91.57, 89.04 91.96, 88.33 91.67 C 87.33 91.25, 86.82 90.94, 86.67 90.00 C 86.51 89.01, 86.94 88.61, 87.78 87.78 C 88.61 86.94, 88.82 86.94, 90.00 86.67 C 91.58 86.29, 91.67 86.67, 93.33 86.67 C 95.00 86.67, 95.00 86.67, 96.67 86.67 C 98.33 86.67, 98.33 86.67, 100.00 86.67 C 101.67 86.67, 101.67 86.67, 103.33 86.67 C 105.00 86.67, 105.00 86.67, 106.67 86.67 C 108.33 86.67, 108.33 86.67, 110.00 86.67 C 111.67 86.67, 111.67 86.67, 113.33 86.67 C 115.00 86.67, 115.00 86.67, 116.67 86.67 C 118.33 86.67, 118.33 86.67, 120.00 86.67 " stroke="rgb(255,85,0)" stroke-width="0.50" fill="none" /> 
	<path d="M 70.00,46.67 C 70.76 46.74, 70.85 47.58, 71.33 48.67 C 71.61 49.29, 71.58 49.32, 71.67 50.00 C 71.77 50.82, 71.96 50.96, 71.67 51.67 C 71.25 52.67, 70.94 53.18, 70.00 53.33 C 69.01 53.49, 68.61 53.06, 67.78 52.22 C 66.94 51.39, 66.51 50.99, 66.67 50.00 C 66.82 49.06, 67.50 49.17, 68.33 48.33 C 69.17 47.50, 69.26 46.59, 70.00 46.67 " stroke="rgb(255,85,0)" stroke-width="0.50" fill="none" /> 
	<path d="M 73.33,100.00 C 72.78 98.89, 73.06 98.61, 72.22 97.78 C 71.39 96.94, 70.99 96.51, 70.00 96.67 C 69.06 96.82, 69.17 97.50, 68.33 98.33 C 67.50 99.17, 67.50 99.17, 66.67 100.00 " stroke="rgb(255,85,0)" stroke-width="0.50" fill="none" /> 
	<path d="M 0.00,58.33 C 1.67 57.50, 1.57 57.08, 3.33 56.67 C 4.91 56.29, 5.83 57.50, 6.67 56.67 C 7.50 55.83, 6.29 54.91, 6.67 53.33 C 7.08 51.57, 7.92 51.77, 8.33 50.00 C 8.52 49.21, 8.33 49.17, 8.33 48.33 C 8.33 45.00, 8.33 45.00, 8.33 41.67 C 8.33 40.83, 8.33 40.83, 8.33 40.00 C 8.33 39.17, 8.33 39.17, 8.33 38.33 C 8.33 35.00, 8.33 35.00, 8.33 31.67 C 8.33 30.83, 8.33 30.83, 8.33 30.00 C 8.33 29.17, 8.04 29.04, 8.33 28.33 C 8.75 27.33, 9.06 27.35, 10.00 26.67 C 11.99 25.23, 12.78 26.11, 14.44 24.44 C 16.11 22.78, 16.11 22.35, 16.67 20.00 C 17.04 18.42, 15.83 17.50, 16.67 16.67 C 17.50 15.83, 18.33 16.67, 20.00 16.67 C 21.67 16.67, 21.67 16.67, 23.33 16.67 C 25.00 16.67, 25.00 16.67, 26.67 16.67 C 28.33 16.67, 28.33 16.67, 30.00 16.67 C 31.67 16.67, 31.67 16.67, 33.33 16.67 C 35.00 16.67, 35.00 16.67, 36.67 16.67 C 38.33 16.67, 38.42 16.29, 40.00 16.67 C 41.18 16.94, 41.39 16.94, 42.22 17.78 C 43.06 18.61, 43.49 19.01, 43.33 20.00 C 43.18 20.94, 42.50 20.83, 41.67 21.67 C 40.83 22.50, 41.01 22.92, 40.00 23.33 C 38.58 23.92, 38.33 23.33, 36.67 23.33 C 35.00 23.33, 35.00 23.33, 33.33 23.33 C 31.67 23.33, 31.58 22.96, 30.00 23.33 C 27.65 23.89, 27.22 23.89, 25.56 25.56 C 23.89 27.22, 23.89 27.65, 23.33 30.00 C 22.96 31.58, 24.17 32.50, 23.33 33.33 C 22.50 34.17, 21.58 32.96, 20.00 33.33 C 17.65 33.89, 17.22 33.89, 15.56 35.56 C 13.89 37.22, 13.89 37.65, 13.33 40.00 C 12.96 41.58, 13.33 41.67, 13.33 43.33 C 13.33 45.00, 13.33 45.00, 13.33 46.67 C 13.33 48.33, 13.33 48.33, 13.33 50.00 C 13.33 51.67, 13.33 51.67, 13.33 53.33 C 13.33 55.00, 13.33 55.00, 13.33 56.67 C 13.33 58.33, 13.33 58.33, 13.33 60.00 C 13.33 61.67, 13.33 61.67, 13.33 63.33 C 13.33 65.00, 13.33 65.00, 13.33 66.67 C 13.33 68.33, 12.96 68.42, 13.33 70.00 C 13.89 72.35, 13.89 72.78, 15.56 74.44 C 17.22 76.11, 17.65 76.11, 20.00 76.67 C 21.58 77.04, 21.67 76.67, 23.33 76.67 C 25.00 76.67, 25.00 76.67, 26.67 76.67 C 28.33 76.67, 28.42 77.04, 30.00 76.67 C 32.35 76.11, 32.78 76.11, 34.44 74.44 C 36.11 72.78, 36.11 72.35, 36.67 70.00 C 37.04 68.42, 35.83 67.50, 36.67 66.67 C 37.50 65.83, 38.42 67.04, 40.00 66.67 C 42.35 66.11, 42.78 66.11, 44.44 64.44 C 46.11 62.78, 46.11 62.35, 46.67 60.00 C 47.04 58.42, 45.83 57.50, 46.67 56.67 C 47.50 55.83, 48.42 56.29, 50.00 56.67 C 51.18 56.94, 51.39 56.94, 52.22 57.78 C 53.06 58.61, 53.06 58.82, 53.33 60.00 C 53.71 61.58, 53.33 61.67, 53.33 63.33 C 53.33 65.00, 53.33 65.00, 53.33 66.67 C 53.33 68.33, 53.92 68.58, 53.33 70.00 C 52.92 71.01, 52.50 70.83, 51.67 71.67 C 50.83 72.50, 50.94 72.65, 50.00 73.33 C 48.01 74.77, 47.22 73.89, 45.56 75.56 C 43.89 77.22, 44.77 78.01, 43.33 80.00 C 42.65 80.94, 42.50 80.83, 41.67 81.67 C 40.83 82.50, 41.01 82.92, 40.00 83.33 C 38.58 83.92, 38.33 83.33, 36.67 83.33 C 35.00 83.33, 35.00 83.33, 33.33 83.33 C 31.67 83.33, 31.67 83.33, 30.00 83.33 C 28.33 83.33, 28.33 83.33, 26.67 83.33 C 25.00 83.33, 25.00 83.33, 23.33 83.33 C 21.67 83.33, 21.67 83.33, 20.00 83.33 C 18.33 83.33, 18.33 83.33, 16.67 83.33 C 15.00 83.33, 15.00 83.33, 13.33 83.33 C 11.67 83.33, 11.42 83.92, 10.00 83.33 C 8.99 82.92, 9.17 82.50, 8.33 81.67 C 7.50 80.83, 7.35 80.94, 6.67 80.00 C 5.23 78.01, 6.11 77.22, 4.44 75.56 C 2.78 73.89, 2.22 74.44, 0.00 73.33 " stroke="rgb(255,85,0)" stroke-width="0.50" fill="none" /> 
	<path d="M 120.00,83.33 C 118.33 83.33, 118.33 83.33, 116.67 83.33 C 115.00 83.33, 115.00 83.33, 113.33 83.33 C 111.67 83.33, 111.67 83.33, 110.00 83.33 C 108.33 83.33, 108.33 83.33, 106.67 83.33 C 105.00 83.33, 105.00 83.33, 103.33 83.33 C 101.67 83.33, 101.67 83.33, 100.00 83.33 C 98.33 83.33, 98.33 83.33, 96.67 83.33 C 95.00 83.33, 95.00 83.33, 93.33 83.33 C 91.67 83.33, 91.58 82.96, 90.00 83.33 C 87.65 83.89, 87.22 83.89, 85.56 85.56 C 83.89 87.22, 83.01 88.01, 83.33 90.00 C 83.64 91.89, 84.65 92.50, 86.67 93.33 C 88.09 93.92, 88.36 93.13, 90.00 93.33 C 92.26 93.61, 92.19 94.17, 94.44 94.44 C 94.99 94.51, 95.03 94.32, 95.56 94.44 C 97.91 95.00, 97.78 96.67, 100.00 96.67 C 102.22 96.67, 102.09 95.00, 104.44 94.44 C 104.97 94.32, 105.01 94.51, 105.56 94.44 C 107.81 94.17, 107.78 93.33, 110.00 93.33 C 112.22 93.33, 112.19 94.17, 114.44 94.44 C 114.99 94.51, 115.03 94.32, 115.56 94.44 C 117.91 95.00, 117.78 95.56, 120.00 96.67 " stroke="rgb(255,170,0)" stroke-width="0.50" fill="none" /> 
	<path d="M 40.00,56.67 C 41.67 56.67, 42.50 55.83, 43.33 56.67 C 44.17 57.50, 43.71 58.42, 43.33 60.00 C 43.06 61.18, 43.06 61.39, 42.22 62.22 C 41.39 63.06, 41.18 63.06, 40.00 63.33 C 38.42 63.71, 37.50 64.17, 36.67 63.33 C 35.83 62.50, 36.67 61.67, 36.67 60.00 C 36.67 58.33, 35.83 57.50, 36.67 56.67 C 37.50 55.83, 38.33 56.67, 40.00 56.67 " stroke="rgb(255,170,0)" stroke-width="0.50" fill="none" /> 
	<path d="M 100.00,43.33 C 101.58 42.96, 101.67 43.33, 103.33 43.33 C 105.00 43.33, 105.00 43.33, 106.67 43.33 C 108.33 43.33, 108.70 42.64, 110.00 43.33 C 111.87 44.33, 111.71 45.17, 112.67 47.33 C 113.21 48.57, 113.33 48.67, 113.33 50.00 C 113.33 51.33, 113.21 51.43, 112.67 52.67 C 111.71 54.83, 111.87 55.67, 110.00 56.67 C 108.70 57.36, 108.33 56.67, 106.67 56.67 C 105.00 56.67, 105.00 56.67, 103.33 56.67 C 101.67 56.67, 101.42 57.26, 100.00 56.67 C 97.99 55.83, 98.33 55.00, 96.67 53.33 C 95.00 51.67, 93.64 51.89, 93.33 50.00 C 93.01 48.01, 93.89 47.22, 95.56 45.56 C 97.22 43.89, 97.65 43.89, 100.00 43.33 " stroke="rgb(255,170,0)" stroke-width="0.50" fill="none" /> 
	<path d="M 90.00,3.33 C 91.42 2.74, 91.67 3.33, 93.33 3.33 C 95.00 3.33, 95.00 3.33, 96.67 3.33 C 98.33 3.33, 98.58 2.74, 100.00 3.33 C 102.01 4.17, 102.50 4.65, 103.33 6.67 C 103.92 8.09, 103.54 8.36, 103.33 10.00 C 103.17 11.35, 103.50 11.83, 102.67 12.67 C 101.83 13.50, 101.33 13.00, 100.00 13.33 C 97.78 13.89, 97.81 14.17, 95.56 14.44 C 95.01 14.51, 94.97 14.32, 94.44 14.44 C 92.09 15.00, 91.99 16.99, 90.00 16.67 C 88.11 16.36, 88.33 15.00, 86.67 13.33 C 85.00 11.67, 83.33 11.67, 83.33 10.00 C 83.33 8.33, 85.00 8.33, 86.67 6.67 C 88.33 5.00, 87.99 4.17, 90.00 3.33 " stroke="rgb(255,170,0)" stroke-width="0.50" fill="none" /> 
	<path d="M 0.00,56.67 C 2.22 55.56, 2.78 56.11, 4.44 54.44 C 6.11 52.78, 6.11 52.35, 6.67 50.00 C 7.04 48.42, 6.67 48.33, 6.67 46.67 C 6.67 45.00, 6.67 45.00, 6.67 43.33 C 6.67 41.67, 6.67 41.67, 6.67 40.00 C 6.67 38.33, 6.67 38.33, 6.67 36.67 C 6.67 35.00, 6.67 35.00, 6.67 33.33 C 6.67 31.67, 6.67 31.67, 6.67 30.00 C 6.67 28.33, 6.08 28.09, 6.67 26.67 C 7.50 24.65, 8.11 24.69, 10.00 23.33 C 10.99 22.62, 11.39 23.06, 12.22 22.22 C 13.06 21.39, 13.06 21.18, 13.33 20.00 C 13.71 18.42, 14.17 17.50, 13.33 16.67 C 12.50 15.83, 11.58 17.04, 10.00 16.67 C 7.65 16.11, 7.22 16.11, 5.56 14.44 C 3.89 12.78, 4.44 12.22, 3.33 10.00 C 2.78 8.89, 3.06 8.61, 2.22 7.78 C 1.39 6.94, 1.11 7.22, 0.00 6.67 " stroke="rgb(255,170,0)" stroke-width="0.50" fill="none" /> 
	<path d="M 17.78,37.78 C 16.94 38.61, 16.94 38.82, 16.67 40.00 C 16.29 41.58, 16.67 41.67, 16.67 43.33 C 16.67 45.00, 16.67 45.00, 16.67 46.67 C 16.67 48.33, 16.67 48.33, 16.67 50.00 C 16.67 51.67, 16.67 51.67, 16.67 53.33 C 16.67 55.00, 16.67 55.00, 16.67 56.67 C 16.67 58.33, 16.67 58.33, 16.67 60.00 C 16.67 61.67, 16.67 61.67, 16.67 63.33 C 16.67 65.00, 16.67 65.00, 16.67 66.67 C 16.67 68.33, 16.29 68.42, 16.67 70.00 C 16.94 71.18, 16.94 71.39, 17.78 72.22 C 18.61 73.06, 18.82 73.06, 20.00 73.33 C 21.58 73.71, 21.67 73.33, 23.33 73.33 C 25.00 73.33, 25.00 73.33, 26.67 73.33 C 28.33 73.33, 28.42 73.71, 30.00 73.33 C 31.18 73.06, 31.39 73.06, 32.22 72.22 C 33.06 71.39, 33.06 71.18, 33.33 70.00 C 33.71 68.42, 34.17 67.50, 33.33 66.67 C 32.50 65.83, 31.58 67.04, 30.00 66.67 C 27.65 66.11, 27.22 66.11, 25.56 64.44 C 23.89 62.78, 23.33 62.22, 23.33 60.00 C 23.33 57.78, 23.89 57.22, 25.56 55.56 C 27.22 53.89, 27.65 53.89, 30.00 53.33 C 31.58 52.96, 32.50 54.17, 33.33 53.33 C 34.17 52.50, 33.71 51.58, 33.33 50.00 C 33.06 48.82, 33.06 48.61, 32.22 47.78 C 31.39 46.94, 31.11 47.22, 30.00 46.67 C 27.78 45.56, 27.22 46.11, 25.56 44.44 C 23.89 42.78, 23.89 42.35, 23.33 40.00 C 22.96 38.42, 24.17 37.50, 23.33 36.67 C 22.50 35.83, 21.58 36.29, 20.00 36.67 C 18.82 36.94, 18.61 36.94, 17.78 37.78 " stroke="rgb(255,170,0)" stroke-width="0.50" fill="none" /> 
	<path d="M 76.67,100.00 C 75.56 97.78, 76.11 97.22, 74.44 95.56 C 72.78 93.89, 71.99 93.01, 70.00 93.33 C 68.11 93.64, 68.33 95.00, 66.67 96.67 C 65.00 98.33, 65.00 98.33, 63.33 100.00 " stroke="rgb(255,170,0)" stroke-width="0.50" fill="none" /> 
	<path d="M 66.67,46.67 C 65.00 48.33, 63.64 48.11, 63.33 50.00 C 63.01 51.99, 63.89 52.78, 65.56 54.44 C 67.22 56.11, 68.01 56.99, 70.00 56.67 C 71.89 56.36, 72.50 55.35, 73.33 53.33 C 73.92 51.91, 73.54 51.64, 73.33 50.00 C 73.17 48.65, 73.21 48.57, 72.67 47.33 C 71.71 45.17, 71.52 43.48, 70.00 43.33 C 68.51 43.19, 68.33 45.00, 66.67 46.67 " stroke="rgb(255,170,0)" stroke-width="0.50" fill="none" /> 
	<path d="M 36.67,0.00 C 35.56 2.22, 36.11 2.78, 34.44 4.44 C 32.78 6.11, 32.35 6.11, 30.00 6.67 C 28.42 7.04, 28.33 6.67, 26.67 6.67 C 25.00 6.67, 25.00 6.67, 23.33 6.67 C 21.67 6.67, 21.58 6.29, 20.00 6.67 C 18.82 6.94, 18.61 6.94, 17.78 7.78 C 16.94 8.61, 16.94 8.82, 16.67 10.00 C 16.29 11.58, 15.83 12.50, 16.67 13.33 C 17.50 14.17, 18.33 13.33, 20.00 13.33 C 21.67 13.33, 21.67 13.33, 23.33 13.33 C 25.00 13.33, 25.00 13.33, 26.67 13.33 C 28.33 13.33, 28.33 13.33, 30.00 13.33 C 31.67 13.33, 31.67 13.33, 33.33 13.33 C 35.00 13.33, 35.00 13.33, 36.67 13.33 C 38.33 13.33, 38.42 12.96, 40.00 13.33 C 42.35 13.89, 42.78 13.89, 44.44 15.56 C 46.11 17.22, 46.99 18.01, 46.67 20.00 C 46.36 21.89, 45.00 21.67, 43.33 23.33 C 41.67 25.00, 42.01 25.83, 40.00 26.67 C 38.58 27.26, 38.33 26.67, 36.67 26.67 C 35.00 26.67, 35.00 26.67, 33.33 26.67 C 31.67 26.67, 31.58 26.29, 30.00 26.67 C 28.82 26.94, 28.61 26.94, 27.78 27.78 C 26.94 28.61, 26.94 28.82, 26.67 30.00 C 26.29 31.58, 25.83 32.50, 26.67 33.33 C 27.50 34.17, 28.33 33.33, 30.00 33.33 C 31.67 33.33, 31.67 33.33, 33.33 33.33 C 35.00 33.33, 35.00 33.33, 36.67 33.33 C 38.33 33.33, 38.58 32.74, 40.00 33.33 C 42.01 34.17, 41.67 35.00, 43.33 36.67 C 45.00 38.33, 45.83 37.99, 46.67 40.00 C 47.26 41.42, 46.67 41.67, 46.67 43.33 C 46.67 45.00, 46.67 45.00, 46.67 46.67 C 46.67 48.33, 46.67 48.33, 46.67 50.00 C 46.67 51.67, 45.83 52.50, 46.67 53.33 C 47.50 54.17, 48.42 52.96, 50.00 53.33 C 52.35 53.89, 52.78 53.89, 54.44 55.56 C 56.11 57.22, 56.11 57.65, 56.67 60.00 C 57.04 61.58, 56.67 61.67, 56.67 63.33 C 56.67 65.00, 56.67 65.00, 56.67 66.67 C 56.67 68.33, 57.26 68.58, 56.67 70.00 C 55.83 72.01, 55.00 71.67, 53.33 73.33 C 51.67 75.00, 51.89 75.31, 50.00 76.67 C 49.01 77.38, 48.61 76.94, 47.78 77.78 C 46.94 78.61, 47.38 79.01, 46.67 80.00 C 45.31 81.89, 45.00 81.67, 43.33 83.33 C 41.67 85.00, 42.01 85.83, 40.00 86.67 C 38.58 87.26, 38.33 86.67, 36.67 86.67 C 35.00 86.67, 35.00 86.67, 33.33 86.67 C 31.67 86.67, 31.67 86.67, 30.00 86.67 C 28.33 86.67, 28.33 86.67, 26.67 86.67 C 25.00 86.67, 25.00 86.67, 23.33 86.67 C 21.67 86.67, 21.67 86.67, 20.00 86.67 C 18.33 86.67, 18.33 86.67, 16.67 86.67 C 15.00 86.67, 15.00 86.67, 13.33 86.67 C 11.67 86.67, 11.42 87.26, 10.00 86.67 C 7.99 85.83, 8.33 85.00, 6.67 83.33 C 5.00 81.67, 4.69 81.89, 3.33 80.00 C 2.62 79.01, 3.06 78.61, 2.22 77.78 C 1.39 76.94, 1.11 77.22, 0.00 76.67 " stroke="rgb(255,170,0)" stroke-width="0.50" fill="none" /> 
	<path d="M 85.00,95.00 L 80.00,90.00 " stroke="rgb(255,255,0)" stroke-width="0.50" fill="none" /> 
	<path d="M 75.00,55.00 C 75.00 52.50, 75.30 52.46, 75.00 50.00 C 74.75 47.97, 74.82 47.86, 74.00 46.00 C 72.56 42.75, 72.27 40.23, 70.00 40.00 C 67.77 39.78, 67.50 42.50, 65.00 45.00 C 62.50 47.50, 62.50 47.50, 60.00 50.00 " stroke="rgb(255,255,0)" stroke-width="0.50" fill="none" /> 
	<path d="M 80.00,60.00 C 80.00 65.00, 80.00 65.00, 80.00 70.00 C 80.00 75.00, 80.00 75.00, 80.00 80.00 " stroke="rgb(255,255,0)" stroke-width="0.50" fill="none" /> 
	<path d="M 20.00,50.00 C 20.00 55.00, 20.00 55.00, 20.00 60.00 C 20.00 65.00, 17.50 67.50, 20.00 70.00 C 22.50 72.50, 25.00 70.00, 30.00 70.00 " stroke="rgb(255,255,0)" stroke-width="0.50" fill="none" /> 
	<path d="M 0.00,20.00 L 0.00,10.00 " stroke="rgb(255,255,0)" stroke-width="0.50" fill="none" /> 
	<path d="M 20.00,50.00 L 30.00,50.00 " stroke="rgb(255,255,0)" stroke-width="0.50" fill="none" /> 
	<path d="M 90.00,40.00 C 92.50 37.50, 95.00 40.00, 100.00 40.00 C 105.00 40.00, 106.11 37.92, 110.00 40.00 C 112.80 41.50, 112.56 42.75, 114.00 46.00 C 114.82 47.86, 115.00 48.00, 115.00 50.00 C 115.00 52.00, 114.82 52.14, 114.00 54.00 C 112.56 57.25, 112.80 58.50, 110.00 60.00 C 106.11 62.08, 104.27 61.77, 100.00 60.00 C 96.98 58.75, 97.50 57.50, 95.00 55.00 C 92.50 52.50, 91.25 53.02, 90.00 50.00 C 88.23 45.73, 87.50 42.50, 90.00 40.00 " stroke="rgb(255,255,0)" stroke-width="0.50" fill="none" /> 
	<path d="M 85.00,95.00 C 87.50 95.00, 87.54 94.70, 90.00 95.00 C 92.03 95.25, 92.14 95.18, 94.00 96.00 C 97.25 97.44, 97.00 100.00, 100.00 100.00 C 103.00 100.00, 102.75 97.44, 106.00 96.00 C 107.86 95.18, 108.00 95.00, 110.00 95.00 C 112.00 95.00, 112.14 95.18, 114.00 96.00 C 117.25 97.44, 117.00 98.00, 120.00 100.00 " stroke="rgb(255,255,0)" stroke-width="0.50" fill="none" /> 
	<path d="M 20.00,50.00 L 20.00,40.00 " stroke="rgb(255,255,0)" stroke-width="0.50" fill="none" /> 
	<path d="M 60.00,60.00 L 60.00,50.00 " stroke="rgb(255,255,0)" stroke-width="0.50" fill="none" /> 
	<path d="M 60.00,60.00 L 70.00,60.00 " stroke="rgb(255,255,0)" stroke-width="0.50" fill="none" /> 
	<path d="M 70.00,60.00 L 75.00,55.00 " stroke="rgb(255,255,0)" stroke-width="0.50" fill="none" /> 
	<path d="M 75.00,55.00 L 80.00,60.00 " stroke="rgb(255,255,0)" stroke-width="0.50" fill="none" /> 
	<path d="M 0.00,20.00 C 5.00 20.00, 9.27 18.23, 10.00 20.00 C 10.52 21.25, 7.50 22.50, 5.00 25.00 " stroke="rgb(255,255,0)" stroke-width="0.50" fill="none" /> 
	<path d="M 40.00,90.00 L 40.00,100.00 " stroke="rgb(255,255,0)" stroke-width="0.50" fill="none" /> 
	<path d="M 80.00,80.00 L 80.00,90.00 " stroke="rgb(255,255,0)" stroke-width="0.50" fill="none" /> 
	<path d="M 80.00,60.00 L 70.00,60.00 " stroke="rgb(255,255,0)" stroke-width="0.50" fill="none" /> 
	<path d="M 105.00,5.00 C 107.50 2.50, 106.98 1.25, 110.00 0.00 C 114.27 -1.77, 115.00 0.00, 120.00 0.00 " stroke="rgb(255,255,0)" stroke-width="0.50" fill="none" /> 
	<path d="M 40.00,90.00 C 35.00 90.00, 35.00 90.00, 30.00 90.00 C 25.00 90.00, 25.00 90.00, 20.00 90.00 C 15.00 90.00, 14.27 91.77, 10.00 90.00 C 6.98 88.75, 7.50 87.50, 5.00 85.00 C 2.50 82.50, 2.50 82.50, 0.00 80.00 " stroke="rgb(255,255,0)" stroke-width="0.50" fill="none" /> 
	<path d="M 40.00,30.00 L 30.00,30.00 " stroke="rgb(255,255,0)" stroke-width="0.50" fill="none" /> 
	<path d="M 5.00,25.00 C 5.00 27.50, 5.00 27.50, 5.00 30.00 C 5.00 32.50, 5.00 32.50, 5.00 35.00 C 5.00 37.50, 5.00 37.50, 5.00 40.00 C 5.00 42.50, 5.00 42.50, 5.00 45.00 C 5.00 47.50, 5.56 47.63, 5.00 50.00 C 4.58 51.77, 4.58 52.08, 3.33 53.33 C 2.08 54.58, 1.67 54.17, 0.00 55.00 " stroke="rgb(255,255,0)" stroke-width="0.50" fill="none" /> 
	<path d="M 80.00,90.00 C 80.00 95.00, 78.23 99.27, 80.00 100.00 C 81.25 100.52, 82.50 97.50, 85.00 95.00 " stroke="rgb(255,255,0)" stroke-width="0.50" fill="none" /> 
	<path d="M 40.00,10.00 L 40.00,0.00 " stroke="rgb(255,255,0)" stroke-width="0.50" fill="none" /> 
	<path d="M 40.00,10.00 C 45.00 10.00, 47.50 7.50, 50.00 10.00 C 52.50 12.50, 51.77 15.73, 50.00 20.00 C 48.75 23.02, 47.50 22.50, 45.00 25.00 C 42.50 27.50, 42.50 27.50, 40.00 30.00 " stroke="rgb(255,255,0)" stroke-width="0.50" fill="none" /> 
	<path d="M 40.00,30.00 C 42.50 32.50, 42.50 32.50, 45.00 35.00 C 47.50 37.50, 48.75 36.98, 50.00 40.00 C 51.77 44.27, 47.50 47.50, 50.00 50.00 C 52.50 52.50, 55.00 50.00, 60.00 50.00 " stroke="rgb(255,255,0)" stroke-width="0.50" fill="none" /> 
	<path d="M 40.00,10.00 C 35.00 10.00, 35.00 10.00, 30.00 10.00 C 25.00 10.00, 25.00 10.00, 20.00 10.00 " stroke="rgb(255,255,0)" stroke-width="0.50" fill="none" /> 
	<path d="M 80.00,90.00 C 75.00 90.00, 74.27 88.23, 70.00 90.00 C 66.98 91.25, 67.50 92.50, 65.00 95.00 C 62.50 97.50, 62.50 97.50, 60.00 100.00 " stroke="rgb(255,255,0)" stroke-width="0.50" fill="none" /> 
	<path d="M 80.00,80.00 C 85.00 80.00, 85.00 80.00, 90.00 80.00 C 95.00 80.00, 95.00 80.00, 100.00 80.00 C 105.00 80.00, 105.00 80.00, 110.00 80.00 C 115.00 80.00, 115.00 80.00, 120.00 80.00 " stroke="rgb(255,255,0)" stroke-width="0.50" fill="none" /> 
	<path d="M 5.00,25.00 L 0.00,20.00 " stroke="rgb(255,255,0)" stroke-width="0.50" fill="none" /> 
	<path d="M 60.00,60.00 C 60.00 65.00, 61.77 65.73, 60.00 70.00 C 58.75 73.02, 57.50 72.50, 55.00 75.00 C 52.50 77.50, 52.50 77.50, 50.00 80.00 C 47.50 82.50, 47.50 82.50, 45.00 85.00 C 42.50 87.50, 42.50 87.50, 40.00 90.00 " stroke="rgb(255,255,0)" stroke-width="0.50" fill="none" /> 
	<path d="M 105.00,5.00 C 103.75 1.98, 103.02 1.25, 100.00 0.00 C 95.73 -1.77, 94.27 -1.77, 90.00 0.00 C 86.98 1.25, 87.50 2.50, 85.00 5.00 C 82.50 7.50, 80.00 7.50, 80.00 10.00 C 80.00 12.50, 82.50 12.50, 85.00 15.00 C 87.50 17.50, 87.28 19.73, 90.00 20.00 C 92.77 20.27, 92.75 17.44, 96.00 16.00 C 97.86 15.18, 98.00 15.50, 100.00 15.00 C 102.00 14.50, 102.75 15.25, 104.00 14.00 C 105.25 12.75, 104.75 12.03, 105.00 10.00 C 105.30 7.54, 105.88 7.13, 105.00 5.00 " stroke="rgb(255,255,0)" stroke-width="0.50" fill="none" /> 
	<path d="M 120.00,76.67 C 118.33 76.67, 118.33 76.67, 116.67 76.67 C 115.00 76.67, 115.00 76.67, 113.33 76.67 C 111.67 76.67, 111.67 76.67, 110.00 76.67 C 108.33 76.67, 108.33 76.67, 106.67 76.67 C 105.00 76.67, 105.00 76.67, 103.33 76.67 C 101.67 76.67, 101.67 76.67, 100.00 76.67 C 98.33 76.67, 98.33 76.67, 96.67 76.67 C 95.00 76.67, 95.00 76.67, 93.33 76.67 C 91.67 76.67, 91.58 77.04, 90.00 76.67 C 87.65 76.11, 87.22 76.11, 85.56 74.44 C 83.89 72.78, 83.89 72.35, 83.33 70.00 C 82.96 68.42, 83.33 68.33, 83.33 66.67 C 83.33 65.00, 83.33 65.00, 83.33 63.33 C 83.33 61.67, 83.33 61.67, 83.33 60.00 C 83.33 58.33, 84.17 57.50, 83.33 56.67 C 82.50 55.83, 81.42 57.26, 80.00 56.67 C 77.99 55.83, 77.50 55.35, 76.67 53.33 C 76.08 51.91, 76.87 51.64, 76.67 50.00 C 76.39 47.74, 75.83 47.81, 75.56 45.56 C 75.49 45.01, 75.68 44.97, 75.56 44.44 C 75.00 42.09, 73.89 42.35, 73.33 40.00 C 72.96 38.42, 74.17 37.50, 73.33 36.67 C 72.50 35.83, 71.67 36.67, 70.00 36.67 C 68.33 36.67, 67.50 35.83, 66.67 36.67 C 65.83 37.50, 67.26 38.58, 66.67 40.00 C 65.83 42.01, 65.00 41.67, 63.33 43.33 C 61.67 45.00, 61.89 46.36, 60.00 46.67 C 58.01 46.99, 57.22 46.11, 55.56 44.44 C 53.89 42.78, 53.89 42.35, 53.33 40.00 C 52.96 38.42, 54.17 37.50, 53.33 36.67 C 52.50 35.83, 51.42 37.26, 50.00 36.67 C 47.99 35.83, 48.33 35.00, 46.67 33.33 C 45.00 31.67, 43.33 31.67, 43.33 30.00 C 43.33 28.33, 45.00 28.33, 46.67 26.67 C 48.33 25.00, 47.99 24.17, 50.00 23.33 C 51.42 22.74, 52.50 24.17, 53.33 23.33 C 54.17 22.50, 53.33 21.67, 53.33 20.00 C 53.33 18.33, 53.33 18.33, 53.33 16.67 C 53.33 15.00, 53.33 15.00, 53.33 13.33 C 53.33 11.67, 53.71 11.58, 53.33 10.00 C 53.06 8.82, 53.06 8.61, 52.22 7.78 C 51.39 6.94, 51.11 7.22, 50.00 6.67 C 47.78 5.56, 47.22 6.11, 45.56 4.44 C 43.89 2.78, 44.44 2.22, 43.33 0.00 " stroke="rgb(170,255,0)" stroke-width="0.50" fill="none" /> 
	<path d="M 86.67,0.00 C 85.00 1.67, 85.00 1.67, 83.33 3.33 C 81.67 5.00, 81.89 5.31, 80.00 6.67 C 79.01 7.38, 78.61 6.94, 77.78 7.78 C 76.94 8.61, 76.94 8.82, 76.67 10.00 C 76.29 11.58, 75.83 12.50, 76.67 13.33 C 77.50 14.17, 78.58 12.74, 80.00 13.33 C 82.01 14.17, 81.67 15.00, 83.33 16.67 C 85.00 18.33, 85.83 17.99, 86.67 20.00 C 87.26 21.42, 85.83 22.50, 86.67 23.33 C 87.50 24.17, 88.42 23.71, 90.00 23.33 C 91.18 23.06, 91.39 23.06, 92.22 22.22 C 93.06 21.39, 92.54 20.90, 93.33 20.00 C 94.87 18.26, 95.17 18.29, 97.33 17.33 C 98.57 16.79, 98.67 17.00, 100.00 16.67 C 102.22 16.11, 102.82 14.81, 104.44 15.56 C 106.21 16.37, 105.56 17.78, 106.67 20.00 C 107.22 21.11, 106.94 21.39, 107.78 22.22 C 108.61 23.06, 108.89 23.33, 110.00 23.33 C 111.11 23.33, 111.39 23.06, 112.22 22.22 C 113.06 21.39, 113.33 21.11, 113.33 20.00 C 113.33 18.89, 113.06 18.61, 112.22 17.78 C 111.39 16.94, 111.11 17.22, 110.00 16.67 C 107.78 15.56, 106.37 16.21, 105.56 14.44 C 104.81 12.82, 106.39 12.26, 106.67 10.00 C 106.87 8.36, 106.08 8.09, 106.67 6.67 C 107.50 4.65, 107.99 4.17, 110.00 3.33 C 111.42 2.74, 111.67 3.33, 113.33 3.33 C 115.00 3.33, 115.00 3.33, 116.67 3.33 C 118.33 3.33, 118.33 3.33, 120.00 3.33 " stroke="rgb(170,255,0)" stroke-width="0.50" fill="none" /> 
	<path d="M 103.33,100.00 C 105.33 98.67, 105.17 98.29, 107.33 97.33 C 108.57 96.79, 108.67 96.67, 110.00 96.67 C 111.33 96.67, 111.43 96.79, 112.67 97.33 C 114.83 98.29, 114.67 98.67, 116.67 100.00 " stroke="rgb(170,255,0)" stroke-width="0.50" fill="none" /> 
	<path d="M 0.00,23.33 C 1.67 25.00, 2.50 24.65, 3.33 26.67 C 3.92 28.09, 3.33 28.33, 3.33 30.00 C 3.33 31.67, 3.33 31.67, 3.33 33.33 C 3.33 35.00, 3.33 35.00, 3.33 36.67 C 3.33 38.33, 3.33 38.33, 3.33 40.00 C 3.33 41.67, 3.33 41.67, 3.33 43.33 C 3.33 45.00, 3.33 45.00, 3.33 46.67 C 3.33 48.33, 3.71 48.42, 3.33 50.00 C 3.06 51.18, 3.06 51.39, 2.22 52.22 C 1.39 53.06, 1.11 52.78, 0.00 53.33 " stroke="rgb(170,255,0)" stroke-width="0.50" fill="none" /> 
	<path d="M 36.67,100.00 C 35.56 97.78, 36.11 97.22, 34.44 95.56 C 32.78 93.89, 32.35 93.89, 30.00 93.33 C 28.42 92.96, 28.33 93.33, 26.67 93.33 C 25.00 93.33, 25.00 93.33, 23.33 93.33 C 21.67 93.33, 21.67 93.33, 20.00 93.33 C 18.33 93.33, 18.33 93.33, 16.67 93.33 C 15.00 93.33, 15.00 93.33, 13.33 93.33 C 11.67 93.33, 11.58 93.71, 10.00 93.33 C 8.82 93.06, 8.61 93.06, 7.78 92.22 C 6.94 91.39, 7.38 90.99, 6.67 90.00 C 5.31 88.11, 5.00 88.33, 3.33 86.67 C 1.67 85.00, 1.67 85.00, 0.00 83.33 " stroke="rgb(170,255,0)" stroke-width="0.50" fill="none" /> 
	<path d="M 67.78,17.78 C 66.94 18.61, 66.94 18.82, 66.67 20.00 C 66.29 21.58, 65.83 22.50, 66.67 23.33 C 67.50 24.17, 68.33 23.33, 70.00 23.33 C 71.67 23.33, 72.50 24.17, 73.33 23.33 C 74.17 22.50, 73.33 21.67, 73.33 20.00 C 73.33 18.33, 74.17 17.50, 73.33 16.67 C 72.50 15.83, 71.58 16.29, 70.00 16.67 C 68.82 16.94, 68.61 16.94, 67.78 17.78 " stroke="rgb(170,255,0)" stroke-width="0.50" fill="none" /> 
	<path d="M 80.00,26.67 C 81.67 26.67, 82.50 25.83, 83.33 26.67 C 84.17 27.50, 83.33 28.33, 83.33 30.00 C 83.33 31.67, 84.17 32.50, 83.33 33.33 C 82.50 34.17, 81.67 33.33, 80.00 33.33 C 78.33 33.33, 77.50 34.17, 76.67 33.33 C 75.83 32.50, 76.67 31.67, 76.67 30.00 C 76.67 28.33, 75.83 27.50, 76.67 26.67 C 77.50 25.83, 78.33 26.67, 80.00 26.67 " stroke="rgb(170,255,0)" stroke-width="0.50" fill="none" /> 
	<path d="M 83.33,100.00 C 85.00 98.33, 84.65 97.50, 86.67 96.67 C 88.09 96.08, 88.36 96.46, 90.00 96.67 C 91.35 96.83, 91.43 96.79, 92.67 97.33 C 94.83 98.29, 94.67 98.67, 96.67 100.00 " stroke="rgb(170,255,0)" stroke-width="0.50" fill="none" /> 
	<path d="M 60.00,26.67 C 61.67 26.67, 62.50 25.83, 63.33 26.67 C 64.17 27.50, 63.33 28.33, 63.33 30.00 C 63.33 31.67, 64.17 32.50, 63.33 33.33 C 62.50 34.17, 61.67 33.33, 60.00 33.33 C 58.33 33.33, 57.50 34.17, 56.67 33.33 C 55.83 32.50, 56.67 31.67, 56.67 30.00 C 56.67 28.33, 55.83 27.50, 56.67 26.67 C 57.50 25.83, 58.33 26.67, 60.00 26.67 " stroke="rgb(170,255,0)" stroke-width="0.50" fill="none" /> 
	<path d="M 90.00,36.67 C 91.67 36.67, 91.67 36.67, 93.33 36.67 C 95.00 36.67, 95.00 36.67, 96.67 36.67 C 98.33 36.67, 98.33 36.67, 100.00 36.67 C 101.67 36.67, 101.67 36.67, 103.33 36.67 C 105.00 36.67, 105.00 36.67, 106.67 36.67 C 108.33 36.67, 108.42 36.29, 110.00 36.67 C 111.18 36.94, 111.39 36.94, 112.22 37.78 C 113.06 38.61, 112.78 38.89, 113.33 40.00 C 114.44 42.22, 115.00 42.09, 115.56 44.44 C 115.68 44.97, 115.49 45.01, 115.56 45.56 C 115.83 47.81, 116.67 47.78, 116.67 50.00 C 116.67 52.22, 115.83 52.19, 115.56 54.44 C 115.49 54.99, 115.68 55.03, 115.56 55.56 C 115.00 57.91, 114.44 57.78, 113.33 60.00 C 112.78 61.11, 113.06 61.39, 112.22 62.22 C 111.39 63.06, 111.18 63.06, 110.00 63.33 C 108.42 63.71, 108.33 63.33, 106.67 63.33 C 105.00 63.33, 105.00 63.33, 103.33 63.33 C 101.67 63.33, 101.58 63.71, 100.00 63.33 C 98.82 63.06, 98.61 63.06, 97.78 62.22 C 96.94 61.39, 97.38 60.99, 96.67 60.00 C 95.31 58.11, 95.00 58.33, 93.33 56.67 C 91.67 55.00, 92.01 54.17, 90.00 53.33 C 88.58 52.74, 87.50 54.17, 86.67 53.33 C 85.83 52.50, 86.67 51.67, 86.67 50.00 C 86.67 48.33, 86.67 48.33, 86.67 46.67 C 86.67 45.00, 86.67 45.00, 86.67 43.33 C 86.67 41.67, 86.67 41.67, 86.67 40.00 C 86.67 38.33, 85.83 37.50, 86.67 36.67 C 87.50 35.83, 88.33 36.67, 90.00 36.67 " stroke="rgb(170,255,0)" stroke-width="0.50" fill="none" /> 
	<path d="M 56.67,100.00 C 57.22 98.89, 56.94 98.61, 57.78 97.78 C 58.61 96.94, 59.01 97.38, 60.00 96.67 C 61.89 95.31, 61.67 95.00, 63.33 93.33 C 65.00 91.67, 65.31 91.89, 66.67 90.00 C 67.38 89.01, 66.94 88.61, 67.78 87.78 C 68.61 86.94, 68.89 87.22, 70.00 86.67 C 72.22 85.56, 72.78 86.11, 74.44 84.44 C 76.11 82.78, 76.11 82.35, 76.67 80.00 C 77.04 78.42, 76.67 78.33, 76.67 76.67 C 76.67 75.00, 76.67 75.00, 76.67 73.33 C 76.67 71.67, 77.04 71.58, 76.67 70.00 C 76.11 67.65, 76.11 67.22, 74.44 65.56 C 72.78 63.89, 72.22 63.33, 70.00 63.33 C 67.78 63.33, 67.22 63.89, 65.56 65.56 C 63.89 67.22, 64.44 67.78, 63.33 70.00 C 62.78 71.11, 63.06 71.39, 62.22 72.22 C 61.39 73.06, 60.99 72.62, 60.00 73.33 C 58.11 74.69, 58.33 75.00, 56.67 76.67 C 55.00 78.33, 54.69 78.11, 53.33 80.00 C 52.62 80.99, 53.06 81.39, 52.22 82.22 C 51.39 83.06, 50.99 82.62, 50.00 83.33 C 48.11 84.69, 48.33 85.00, 46.67 86.67 C 45.00 88.33, 44.17 87.99, 43.33 90.00 C 42.74 91.42, 43.33 91.67, 43.33 93.33 C 43.33 95.00, 43.33 95.00, 43.33 96.67 C 43.33 98.33, 43.33 98.33, 43.33 100.00 " stroke="rgb(170,255,0)" stroke-width="0.50" fill="none" /> 
	<path d="M 46.67,0.00 C 47.22 1.11, 46.94 1.39, 47.78 2.22 C 48.61 3.06, 48.89 2.78, 50.00 3.33 C 52.22 4.44, 52.78 3.89, 54.44 5.56 C 56.11 7.22, 56.11 7.65, 56.67 10.00 C 57.04 11.58, 56.67 11.67, 56.67 13.33 C 56.67 15.00, 56.67 15.00, 56.67 16.67 C 56.67 18.33, 56.67 18.33, 56.67 20.00 C 56.67 21.67, 55.83 22.50, 56.67 23.33 C 57.50 24.17, 58.33 23.33, 60.00 23.33 C 61.67 23.33, 62.50 24.17, 63.33 23.33 C 64.17 22.50, 62.96 21.58, 63.33 20.00 C 63.89 17.65, 63.89 17.22, 65.56 15.56 C 67.22 13.89, 67.65 13.89, 70.00 13.33 C 71.58 12.96, 72.50 14.17, 73.33 13.33 C 74.17 12.50, 72.96 11.58, 73.33 10.00 C 73.89 7.65, 73.89 7.22, 75.56 5.56 C 77.22 3.89, 78.01 4.77, 80.00 3.33 C 80.94 2.65, 80.83 2.50, 81.67 1.67 C 82.50 0.83, 82.50 0.83, 83.33 0.00 " stroke="rgb(85,255,0)" stroke-width="0.50" fill="none" /> 
	<path d="M 33.33,100.00 C 32.78 98.89, 33.06 98.61, 32.22 97.78 C 31.39 96.94, 31.18 96.94, 30.00 96.67 C 28.42 96.29, 28.33 96.67, 26.67 96.67 C 25.00 96.67, 25.00 96.67, 23.33 96.67 C 21.67 96.67, 21.67 96.67, 20.00 96.67 C 18.33 96.67, 18.33 96.67, 16.67 96.67 C 15.00 96.67, 15.00 96.67, 13.33 96.67 C 11.67 96.67, 11.58 97.04, 10.00 96.67 C 7.65 96.11, 7.22 96.11, 5.56 94.44 C 3.89 92.78, 4.77 91.99, 3.33 90.00 C 2.65 89.06, 2.50 89.17, 1.67 88.33 C 0.83 87.50, 0.83 87.50, 0.00 86.67 " stroke="rgb(85,255,0)" stroke-width="0.50" fill="none" /> 
	<path d="M 46.67,100.00 C 46.67 98.33, 46.67 98.33, 46.67 96.67 C 46.67 95.00, 46.67 95.00, 46.67 93.33 C 46.67 91.67, 46.08 91.42, 46.67 90.00 C 47.08 88.99, 47.50 89.17, 48.33 88.33 C 49.17 87.50, 49.06 87.35, 50.00 86.67 C 51.99 85.23, 52.78 86.11, 54.44 84.44 C 56.11 82.78, 55.23 81.99, 56.67 80.00 C 57.35 79.06, 57.50 79.17, 58.33 78.33 C 59.17 77.50, 59.06 77.35, 60.00 76.67 C 61.99 75.23, 62.78 76.11, 64.44 74.44 C 66.11 72.78, 65.56 72.22, 66.67 70.00 C 67.22 68.89, 66.94 68.61, 67.78 67.78 C 68.61 66.94, 68.89 66.67, 70.00 66.67 C 71.11 66.67, 71.39 66.94, 72.22 67.78 C 73.06 68.61, 73.06 68.82, 73.33 70.00 C 73.71 71.58, 73.33 71.67, 73.33 73.33 C 73.33 75.00, 73.33 75.00, 73.33 76.67 C 73.33 78.33, 73.71 78.42, 73.33 80.00 C 73.06 81.18, 73.06 81.39, 72.22 82.22 C 71.39 83.06, 71.11 82.78, 70.00 83.33 C 67.78 84.44, 67.22 83.89, 65.56 85.56 C 63.89 87.22, 64.77 88.01, 63.33 90.00 C 62.65 90.94, 62.50 90.83, 61.67 91.67 C 60.83 92.50, 60.94 92.65, 60.00 93.33 C 58.01 94.77, 57.22 93.89, 55.56 95.56 C 53.89 97.22, 54.44 97.78, 53.33 100.00 " stroke="rgb(85,255,0)" stroke-width="0.50" fill="none" /> 
	<path d="M 50.00,26.67 C 51.42 26.08, 52.50 25.83, 53.33 26.67 C 54.17 27.50, 53.33 28.33, 53.33 30.00 C 53.33 31.67, 54.17 32.50, 53.33 33.33 C 52.50 34.17, 51.42 33.92, 50.00 33.33 C 48.99 32.92, 49.17 32.50, 48.33 31.67 C 47.50 30.83, 46.67 30.83, 46.67 30.00 C 46.67 29.17, 47.50 29.17, 48.33 28.33 C 49.17 27.50, 48.99 27.08, 50.00 26.67 " stroke="rgb(85,255,0)" stroke-width="0.50" fill="none" /> 
	<path d="M 66.67,26.67 C 65.83 27.50, 66.67 28.33, 66.67 30.00 C 66.67 31.67, 65.83 32.50, 66.67 33.33 C 67.50 34.17, 68.33 33.33, 70.00 33.33 C 71.67 33.33, 72.50 34.17, 73.33 33.33 C 74.17 32.50, 73.33 31.67, 73.33 30.00 C 73.33 28.33, 74.17 27.50, 73.33 26.67 C 72.50 25.83, 71.67 26.67, 70.00 26.67 C 68.33 26.67, 67.50 25.83, 66.67 26.67 " stroke="rgb(85,255,0)" stroke-width="0.50" fill="none" /> 
	<path d="M 120.00,73.33 C 118.33 73.33, 118.33 73.33, 116.67 73.33 C 115.00 73.33, 115.00 73.33, 113.33 73.33 C 111.67 73.33, 111.67 73.33, 110.00 73.33 C 108.33 73.33, 108.33 73.33, 106.67 73.33 C 105.00 73.33, 105.00 73.33, 103.33 73.33 C 101.67 73.33, 101.67 73.33, 100.00 73.33 C 98.33 73.33, 98.33 73.33, 96.67 73.33 C 95.00 73.33, 95.00 73.33, 93.33 73.33 C 91.67 73.33, 91.58 73.71, 90.00 73.33 C 88.82 73.06, 88.61 73.06, 87.78 72.22 C 86.94 71.39, 86.94 71.18, 86.67 70.00 C 86.29 68.42, 86.67 68.33, 86.67 66.67 C 86.67 65.00, 86.67 65.00, 86.67 63.33 C 86.67 61.67, 86.67 61.67, 86.67 60.00 C 86.67 58.33, 85.83 57.50, 86.67 56.67 C 87.50 55.83, 88.58 56.08, 90.00 56.67 C 91.01 57.08, 90.83 57.50, 91.67 58.33 C 92.50 59.17, 92.65 59.06, 93.33 60.00 C 94.77 61.99, 93.89 62.78, 95.56 64.44 C 97.22 66.11, 97.65 66.11, 100.00 66.67 C 101.58 67.04, 101.67 66.67, 103.33 66.67 C 105.00 66.67, 105.00 66.67, 106.67 66.67 C 108.33 66.67, 108.42 67.04, 110.00 66.67 C 112.35 66.11, 112.78 66.11, 114.44 64.44 C 116.11 62.78, 115.56 62.22, 116.67 60.00 C 117.22 58.89, 117.50 58.95, 117.78 57.78 C 118.40 55.15, 117.44 54.96, 117.78 52.22 C 117.92 51.09, 118.33 51.11, 118.33 50.00 C 118.33 48.89, 117.92 48.91, 117.78 47.78 C 117.44 45.04, 118.40 44.85, 117.78 42.22 C 117.50 41.05, 117.22 41.11, 116.67 40.00 C 115.56 37.78, 116.11 37.22, 114.44 35.56 C 112.78 33.89, 112.35 33.89, 110.00 33.33 C 108.42 32.96, 108.33 33.33, 106.67 33.33 C 105.00 33.33, 105.00 33.33, 103.33 33.33 C 101.67 33.33, 101.67 33.33, 100.00 33.33 C 98.33 33.33, 98.33 33.33, 96.67 33.33 C 95.00 33.33, 95.00 33.33, 93.33 33.33 C 91.67 33.33, 91.67 33.33, 90.00 33.33 C 88.33 33.33, 87.50 34.17, 86.67 33.33 C 85.83 32.50, 86.67 31.67, 86.67 30.00 C 86.67 28.33, 85.83 27.50, 86.67 26.67 C 87.50 25.83, 88.42 27.04, 90.00 26.67 C 92.35 26.11, 92.78 26.11, 94.44 24.44 C 96.11 22.78, 95.08 21.80, 96.67 20.00 C 97.44 19.13, 97.58 19.15, 98.67 18.67 C 99.29 18.39, 99.33 18.50, 100.00 18.33 C 101.11 18.06, 101.41 17.40, 102.22 17.78 C 103.10 18.18, 102.78 18.89, 103.33 20.00 C 104.44 22.22, 103.89 22.78, 105.56 24.44 C 107.22 26.11, 107.78 26.67, 110.00 26.67 C 112.22 26.67, 112.78 26.11, 114.44 24.44 C 116.11 22.78, 116.67 22.22, 116.67 20.00 C 116.67 17.78, 116.11 17.22, 114.44 15.56 C 112.78 13.89, 112.22 14.44, 110.00 13.33 C 108.89 12.78, 108.18 13.10, 107.78 12.22 C 107.40 11.41, 108.19 11.13, 108.33 10.00 C 108.43 9.18, 108.04 9.04, 108.33 8.33 C 108.75 7.33, 108.99 7.08, 110.00 6.67 C 111.42 6.08, 111.67 6.67, 113.33 6.67 C 115.00 6.67, 115.00 6.67, 116.67 6.67 C 118.33 6.67, 118.33 6.67, 120.00 6.67 " stroke="rgb(85,255,0)" stroke-width="0.50" fill="none" /> 
	<path d="M 93.33,100.00 C 92.33 99.33, 92.42 99.15, 91.33 98.67 C 90.71 98.39, 90.68 98.42, 90.00 98.33 C 89.18 98.23, 89.04 98.04, 88.33 98.33 C 87.33 98.75, 87.50 99.17, 86.67 100.00 " stroke="rgb(85,255,0)" stroke-width="0.50" fill="none" /> 
	<path d="M 60.00,36.67 C 61.67 36.67, 62.50 35.83, 63.33 36.67 C 64.17 37.50, 63.92 38.58, 63.33 40.00 C 62.92 41.01, 62.50 40.83, 61.67 41.67 C 60.83 42.50, 60.94 43.18, 60.00 43.33 C 59.01 43.49, 58.61 43.06, 57.78 42.22 C 56.94 41.39, 56.94 41.18, 56.67 40.00 C 56.29 38.42, 55.83 37.50, 56.67 36.67 C 57.50 35.83, 58.33 36.67, 60.00 36.67 " stroke="rgb(85,255,0)" stroke-width="0.50" fill="none" /> 
	<path d="M 113.33,100.00 C 112.33 99.33, 112.42 99.15, 111.33 98.67 C 110.71 98.39, 110.67 98.33, 110.00 98.33 C 109.33 98.33, 109.29 98.39, 108.67 98.67 C 107.58 99.15, 107.67 99.33, 106.67 100.00 " stroke="rgb(85,255,0)" stroke-width="0.50" fill="none" /> 
	<path d="M 80.00,16.67 C 81.01 17.08, 80.83 17.50, 81.67 18.33 C 82.50 19.17, 82.92 18.99, 83.33 20.00 C 83.92 21.42, 84.17 22.50, 83.33 23.33 C 82.50 24.17, 81.67 23.33, 80.00 23.33 C 78.33 23.33, 77.50 24.17, 76.67 23.33 C 75.83 22.50, 76.67 21.67, 76.67 20.00 C 76.67 18.33, 75.83 17.50, 76.67 16.67 C 77.50 15.83, 78.58 16.08, 80.00 16.67 " stroke="rgb(85,255,0)" stroke-width="0.50" fill="none" /> 
	<path d="M 0.00,51.67 C 0.56 51.39, 0.69 51.53, 1.11 51.11 C 1.53 50.69, 1.53 50.59, 1.67 50.00 C 1.85 49.21, 1.67 49.17, 1.67 48.33 C 1.67 45.00, 1.67 45.00, 1.67 41.67 C 1.67 40.83, 1.67 40.83, 1.67 40.00 C 1.67 39.17, 1.67 39.17, 1.67 38.33 C 1.67 35.00, 1.67 35.00, 1.67 31.67 C 1.67 30.83, 1.67 30.83, 1.67 30.00 C 1.67 29.17, 1.96 29.04, 1.67 28.33 C 1.25 27.33, 0.83 27.50, 0.00 26.67 " stroke="rgb(85,255,0)" stroke-width="0.50" fill="none" /> 
	<path d="M 80.00,36.67 C 81.67 36.67, 82.50 35.83, 83.33 36.67 C 84.17 37.50, 83.33 38.33, 83.33 40.00 C 83.33 41.67, 83.33 41.67, 83.33 43.33 C 83.33 45.00, 83.33 45.00, 83.33 46.67 C 83.33 48.33, 83.33 48.33, 83.33 50.00 C 83.33 51.67, 84.17 52.50, 83.33 53.33 C 82.50 54.17, 81.42 53.92, 80.00 53.33 C 78.99 52.92, 78.75 52.67, 78.33 51.67 C 78.04 50.96, 78.43 50.82, 78.33 50.00 C 78.19 48.87, 77.92 48.91, 77.78 47.78 C 77.44 45.04, 78.40 44.85, 77.78 42.22 C 77.50 41.05, 76.94 41.18, 76.67 40.00 C 76.29 38.42, 75.83 37.50, 76.67 36.67 C 77.50 35.83, 78.33 36.67, 80.00 36.67 " stroke="rgb(85,255,0)" stroke-width="0.50" fill="none" /> 
</svg>