<svg xmlns="http://www.w3.org/2000/svg" version="1.1" x="1" y="1" width="12.0" height="10.0"> 
	<path d="M 3.34,0.00 L 3.23,0.23 L 3.00,0.34 L 2.67,0.34 L 2.34,0.34 L 2.00,0.34 L 1.56,0.56 L 1.34,1.00 L 1.34,1.34 L 1.00,1.34 L 0.78,1.23 L 0.67,1.00 L 0.45,0.56 L 0.00,0.34 " stroke="rgb(255,85,0)" stroke-width="0.05" fill="none" /> 
	<path d="M 2.78,5.78 L 2.67,6.00 L 2.78,6.23 L 3.00,6.34 L 3.34,6.34 L 3.34,6.00 L 3.34,5.67 L 3.00,5.67 L 2.78,5.78 " stroke="rgb(255,85,0)" stroke-width="0.05" fill="none" /> 
	<path d="M 3.00,3.67 L 3.34,3.67 L 3.67,3.67 L 4.00,3.67 L 4.17,3.84 L 4.34,4.00 L 4.34,4.34 L 4.34,4.67 L 4.34,5.00 L 4.34,5.34 L 4.00,5.34 L 3.67,5.34 L 3.67,5.00 L 3.45,4.56 L 3.00,4.34 L 2.78,4.23 L 2.67,4.00 L 2.67,3.67 L 3.00,3.67 " stroke="rgb(255,85,0)" stroke-width="0.05" fill="none" /> 
	<path d="M 9.78,4.78 L 9.67,5.00 L 9.84,5.17 L 10.00,5.34 L 10.34,5.34 L 10.67,5.34 L 11.00,5.34 L 11.14,5.14 L 11.17,5.00 L 11.14,4.87 L 11.00,4.67 L 10.67,4.67 L 10.34,4.67 L 10.00,4.67 L 9.78,4.78 " stroke="rgb(255,85,0)" stroke-width="0.05" fill="none" /> 
	<path d="M 9.00,0.67 L 9.34,0.67 L 9.67,0.67 L 10.00,0.67 L 10.17,0.84 L 10.17,1.00 L 10.14,1.14 L 10.00,1.17 L 9.78,1.23 L 9.23,1.23 L 9.00,1.34 L 8.84,1.17 L 8.67,1.00 L 8.84,0.84 L 9.00,0.67 " stroke="rgb(255,85,0)" stroke-width="0.05" fill="none" /> 
	<path d="M 12.00,9.34 L 11.78,9.23 L 11.23,9.23 L 11.00,9.17 L 10.78,9.23 L 10.23,9.23 L 10.00,9.34 L 9.78,9.23 L 9.23,9.23 L 9.00,9.17 L 8.84,9.17 L 8.67,9.00 L 8.78,8.78 L 9.00,8.67 L 9.34,8.67 L 9.67,8.67 L 10.00,8.67 L 10.34,8.67 L 10.67,8.67 L 11.00,8.67 L 11.34,8.67 L 11.67,8.67 L 12.00,8.67 " stroke="rgb(255,85,0)" stroke-width="0.05" fill="none" /> 
	<path d="M 7.00,4.67 L 7.14,4.87 L 7.17,5.00 L 7.17,5.17 L 7.00,5.34 L 6.78,5.23 L 6.67,5.00 L 6.84,4.84 L 7.00,4.67 " stroke="rgb(255,85,0)" stroke-width="0.05" fill="none" /> 
	<path d="M 7.34,10.00 L 7.23,9.78 L 7.00,9.67 L 6.84,9.84 L 6.67,10.00 " stroke="rgb(255,85,0)" stroke-width="0.05" fill="none" /> 
	<path d="M 0.00,5.84 L 0.34,5.67 L 0.67,5.67 L 0.67,5.34 L 0.84,5.00 L 0.84,4.84 L 0.84,4.17 L 0.84,4.00 L 0.84,3.84 L 0.84,3.17 L 0.84,3.00 L 0.84,2.84 L 1.00,2.67 L 1.45,2.45 L 1.67,2.00 L 1.67,1.67 L 2.00,1.67 L 2.34,1.67 L 2.67,1.67 L 3.00,1.67 L 3.34,1.67 L 3.67,1.67 L 4.00,1.67 L 4.23,1.78 L 4.34,2.00 L 4.17,2.17 L 4.00,2.34 L 3.67,2.34 L 3.34,2.34 L 3.00,2.34 L 2.56,2.56 L 2.34,3.00 L 2.34,3.34 L 2.00,3.34 L 1.56,3.56 L 1.34,4.00 L 1.34,4.34 L 1.34,4.67 L 1.34,5.00 L 1.34,5.34 L 1.34,5.67 L 1.34,6.00 L 1.34,6.34 L 1.34,6.67 L 1.34,7.00 L 1.56,7.45 L 2.00,7.67 L 2.34,7.67 L 2.67,7.67 L 3.00,7.67 L 3.45,7.45 L 3.67,7.00 L 3.67,6.67 L 4.00,6.67 L 4.45,6.45 L 4.67,6.00 L 4.67,5.67 L 5.00,5.67 L 5.23,5.78 L 5.34,6.00 L 5.34,6.34 L 5.34,6.67 L 5.34,7.00 L 5.17,7.17 L 5.00,7.34 L 4.56,7.56 L 4.34,8.00 L 4.17,8.17 L 4.00,8.34 L 3.67,8.34 L 3.34,8.34 L 3.00,8.34 L 2.67,8.34 L 2.34,8.34 L 2.00,8.34 L 1.67,8.34 L 1.34,8.34 L 1.00,8.34 L 0.84,8.17 L 0.67,8.00 L 0.45,7.56 L 0.00,7.34 " stroke="rgb(255,85,0)" stroke-width="0.05" fill="none" /> 
	<path d="M 12.00,8.34 L 11.67,8.34 L 11.34,8.34 L 11.00,8.34 L 10.67,8.34 L 10.34,8.34 L 10.00,8.34 L 9.67,8.34 L 9.34,8.34 L 9.00,8.34 L 8.56,8.56 L 8.34,9.00 L 8.67,9.34 L 9.00,9.34 L 9.45,9.45 L 9.56,9.45 L 10.00,9.67 L 10.45,9.45 L 10.56,9.45 L 11.00,9.34 L 11.45,9.45 L 11.56,9.45 L 12.00,9.67 " stroke="rgb(255,170,0)" stroke-width="0.05" fill="none" /> 
	<path d="M 4.00,5.67 L 4.34,5.67 L 4.34,6.00 L 4.23,6.23 L 4.00,6.34 L 3.67,6.34 L 3.67,6.00 L 3.67,5.67 L 4.00,5.67 " stroke="rgb(255,170,0)" stroke-width="0.05" fill="none" /> 
	<path d="M 10.00,4.34 L 10.34,4.34 L 10.67,4.34 L 11.00,4.34 L 11.27,4.74 L 11.34,5.00 L 11.27,5.27 L 11.00,5.67 L 10.67,5.67 L 10.34,5.67 L 10.00,5.67 L 9.67,5.34 L 9.34,5.00 L 9.56,4.56 L 10.00,4.34 " stroke="rgb(255,170,0)" stroke-width="0.05" fill="none" /> 
	<path d="M 9.00,0.34 L 9.34,0.34 L 9.67,0.34 L 10.00,0.34 L 10.34,0.67 L 10.34,1.00 L 10.27,1.27 L 10.00,1.34 L 9.56,1.45 L 9.45,1.45 L 9.00,1.67 L 8.67,1.34 L 8.34,1.00 L 8.67,0.67 L 9.00,0.34 " stroke="rgb(255,170,0)" stroke-width="0.05" fill="none" /> 
	<path d="M 0.00,5.67 L 0.45,5.45 L 0.67,5.00 L 0.67,4.67 L 0.67,4.34 L 0.67,4.00 L 0.67,3.67 L 0.67,3.34 L 0.67,3.00 L 0.67,2.67 L 1.00,2.34 L 1.23,2.23 L 1.34,2.00 L 1.34,1.67 L 1.00,1.67 L 0.56,1.45 L 0.34,1.00 L 0.23,0.78 L 0.00,0.67 " stroke="rgb(255,170,0)" stroke-width="0.05" fill="none" /> 
	<path d="M 1.78,3.78 L 1.67,4.00 L 1.67,4.34 L 1.67,4.67 L 1.67,5.00 L 1.67,5.34 L 1.67,5.67 L 1.67,6.00 L 1.67,6.34 L 1.67,6.67 L 1.67,7.00 L 1.78,7.23 L 2.00,7.34 L 2.34,7.34 L 2.67,7.34 L 3.00,7.34 L 3.23,7.23 L 3.34,7.00 L 3.34,6.67 L 3.00,6.67 L 2.56,6.45 L 2.34,6.00 L 2.56,5.56 L 3.00,5.34 L 3.34,5.34 L 3.34,5.00 L 3.23,4.78 L 3.00,4.67 L 2.56,4.45 L 2.34,4.00 L 2.34,3.67 L 2.00,3.67 L 1.78,3.78 " stroke="rgb(255,170,0)" stroke-width="0.05" fill="none" /> 
	<path d="M 7.67,10.00 L 7.45,9.56 L 7.00,9.34 L 6.67,9.67 L 6.34,10.00 " stroke="rgb(255,170,0)" stroke-width="0.05" fill="none" /> 
	<path d="M 6.67,4.67 L 6.34,5.00 L 6.56,5.45 L 7.00,5.67 L 7.34,5.34 L 7.34,5.00 L 7.27,4.74 L 7.00,4.34 L 6.67,4.67 " stroke="rgb(255,170,0)" stroke-width="0.05" fill="none" /> 
	<path d="M 3.67,0.00 L 3.45,0.45 L 3.00,0.67 L 2.67,0.67 L 2.34,0.67 L 2.00,0.67 L 1.78,0.78 L 1.67,1.00 L 1.67,1.34 L 2.00,1.34 L 2.34,1.34 L 2.67,1.34 L 3.00,1.34 L 3.34,1.34 L 3.67,1.34 L 4.00,1.34 L 4.45,1.56 L 4.67,2.00 L 4.34,2.34 L 4.00,2.67 L 3.67,2.67 L 3.34,2.67 L 3.00,2.67 L 2.78,2.78 L 2.67,3.00 L 2.67,3.34 L 3.00,3.34 L 3.34,3.34 L 3.67,3.34 L 4.00,3.34 L 4.34,3.67 L 4.67,4.00 L 4.67,4.34 L 4.67,4.67 L 4.67,5.00 L 4.67,5.34 L 5.00,5.34 L 5.45,5.56 L 5.67,6.00 L 5.67,6.34 L 5.67,6.67 L 5.67,7.00 L 5.34,7.34 L 5.00,7.67 L 4.78,7.78 L 4.67,8.00 L 4.34,8.34 L 4.00,8.67 L 3.67,8.67 L 3.34,8.67 L 3.00,8.67 L 2.67,8.67 L 2.34,8.67 L 2.00,8.67 L 1.67,8.67 L 1.34,8.67 L 1.00,8.67 L 0.67,8.34 L 0.34,8.00 L 0.23,7.78 L 0.00,7.67 " stroke="rgb(255,170,0)" stroke-width="0.05" fill="none" /> 
	<path d="M 8.50,9.50 L 8.00,9.00 " stroke="rgb(255,255,0)" stroke-width="0.05" fill="none" /> 
	<path d="M 7.50,5.50 L 7.50,5.00 L 7.40,4.60 L 7.00,4.00 L 6.50,4.50 L 6.00,5.00 " stroke="rgb(255,255,0)" stroke-width="0.05" fill="none" /> 
	<path d="M 8.00,6.00 L 8.00,7.00 L 8.00,8.00 " stroke="rgb(255,255,0)" stroke-width="0.05" fill="none" /> 
	<path d="M 2.00,5.00 L 2.00,6.00 L 2.00,7.00 L 3.00,7.00 " stroke="rgb(255,255,0)" stroke-width="0.05" fill="none" /> 
	<path d="M 0.00,2.00 L 0.00,1.00 " stroke="rgb(255,255,0)" stroke-width="0.05" fill="none" /> 
	<path d="M 2.00,5.00 L 3.00,5.00 " stroke="rgb(255,255,0)" stroke-width="0.05" fill="none" /> 
	<path d="M 9.00,4.00 L 10.00,4.00 L 11.00,4.00 L 11.40,4.60 L 11.50,5.00 L 11.40,5.40 L 11.00,6.00 L 10.00,6.00 L 9.50,5.50 L 9.00,5.00 L 9.00,4.00 " stroke="rgb(255,255,0)" stroke-width="0.05" fill="none" /> 
	<path d="M 8.50,9.50 L 9.00,9.50 L 9.40,9.60 L 10.00,10.00 L 10.60,9.60 L 11.00,9.50 L 11.40,9.60 L 12.00,10.00 " stroke="rgb(255,255,0)" stroke-width="0.05" fill="none" /> 
	<path d="M 2.00,5.00 L 2.00,4.00 " stroke="rgb(255,255,0)" stroke-width="0.05" fill="none" /> 
	<path d="M 6.00,6.00 L 6.00,5.00 " stroke="rgb(255,255,0)" stroke-width="0.05" fill="none" /> 
	<path d="M 6.00,6.00 L 7.00,6.00 " stroke="rgb(255,255,0)" stroke-width="0.05" fill="none" /> 
	<path d="M 7.00,6.00 L 7.50,5.50 " stroke="rgb(255,255,0)" stroke-width="0.05" fill="none" /> 
	<path d="M 7.50,5.50 L 8.00,6.00 " stroke="rgb(255,255,0)" stroke-width="0.05" fill="none" /> 
	<path d="M 0.00,2.00 L 1.00,2.00 L 0.50,2.50 " stroke="rgb(255,255,0)" stroke-width="0.05" fill="none" /> 
	<path d="M 4.00,9.00 L 4.00,10.00 " stroke="rgb(255,255,0)" stroke-width="0.05" fill="none" /> 
	<path d="M 8.00,8.00 L 8.00,9.00 " stroke="rgb(255,255,0)" stroke-width="0.05" fill="none" /> 
	<path d="M 8.00,6.00 L 7.00,6.00 " stroke="rgb(255,255,0)" stroke-width="0.05" fill="none" /> 
	<path d="M 10.50,0.50 L 11.00,0.00 L 12.00,0.00 " stroke="rgb(255,255,0)" stroke-width="0.05" fill="none" /> 
	<path d="M 4.00,9.00 L 3.00,9.00 L 2.00,9.00 L 1.00,9.00 L 0.50,8.50 L 0.00,8.00 " stroke="rgb(255,255,0)" stroke-width="0.05" fill="none" /> 
	<path d="M 4.00,3.00 L 3.00,3.00 " stroke="rgb(255,255,0)" stroke-width="0.05" fill="none" /> 
	<path d="M 0.50,2.50 L 0.50,3.00 L 0.50,3.50 L 0.50,4.00 L 0.50,4.50 L 0.50,5.00 L 0.34,5.34 L 0.00,5.50 " stroke="rgb(255,255,0)" stroke-width="0.05" fill="none" /> 
	<path d="M 8.00,9.00 L 8.00,10.00 L 8.50,9.50 " stroke="rgb(255,255,0)" stroke-width="0.05" fill="none" /> 
	<path d="M 4.00,1.00 L 4.00,0.00 " stroke="rgb(255,255,0)" stroke-width="0.05" fill="none" /> 
	<path d="M 4.00,1.00 L 5.00,1.00 L 5.00,2.00 L 4.50,2.50 L 4.00,3.00 " stroke="rgb(255,255,0)" stroke-width="0.05" fill="none" /> 
	<path d="M 4.00,3.00 L 4.50,3.50 L 5.00,4.00 L 5.00,5.00 L 6.00,5.00 " stroke="rgb(255,255,0)" stroke-width="0.05" fill="none" /> 
	<path d="M 4.00,1.00 L 3.00,1.00 L 2.00,1.00 " stroke="rgb(255,255,0)" stroke-width="0.05" fill="none" /> 
	<path d="M 8.00,9.00 L 7.00,9.00 L 6.50,9.50 L 6.00,10.00 " stroke="rgb(255,255,0)" stroke-width="0.05" fill="none" /> 
	<path d="M 8.00,8.00 L 9.00,8.00 L 10.00,8.00 L 11.00,8.00 L 12.00,8.00 " stroke="rgb(255,255,0)" stroke-width="0.05" fill="none" /> 
	<path d="M 0.50,2.50 L 0.00,2.00 " stroke="rgb(255,255,0)" stroke-width="0.05" fill="none" /> 
	<path d="M 6.00,6.00 L 6.00,7.00 L 5.50,7.50 L 5.00,8.00 L 4.50,8.50 L 4.00,9.00 " stroke="rgb(255,255,0)" stroke-width="0.05" fill="none" /> 
	<path d="M 10.50,0.50 L 10.00,0.00 L 9.00,0.00 L 8.50,0.50 L 8.00,1.00 L 8.50,1.50 L 9.00,2.00 L 9.60,1.60 L 10.00,1.50 L 10.40,1.40 L 10.50,1.00 L 10.50,0.50 " stroke="rgb(255,255,0)" stroke-width="0.05" fill="none" /> 
	<path d="M 12.00,7.67 L 11.67,7.67 L 11.34,7.67 L 11.00,7.67 L 10.67,7.67 L 10.34,7.67 L 10.00,7.67 L 9.67,7.67 L 9.34,7.67 L 9.00,7.67 L 8.56,7.45 L 8.34,7.00 L 8.34,6.67 L 8.34,6.34 L 8.34,6.00 L 8.34,5.67 L 8.00,5.67 L 7.67,5.34 L 7.67,5.00 L 7.56,4.56 L 7.56,4.45 L 7.34,4.00 L 7.34,3.67 L 7.00,3.67 L 6.67,3.67 L 6.67,4.00 L 6.34,4.34 L 6.00,4.67 L 5.56,4.45 L 5.34,4.00 L 5.34,3.67 L 5.00,3.67 L 4.67,3.34 L 4.34,3.00 L 4.67,2.67 L 5.00,2.34 L 5.34,2.34 L 5.34,2.00 L 5.34,1.67 L 5.34,1.34 L 5.34,1.00 L 5.23,0.78 L 5.00,0.67 L 4.56,0.45 L 4.34,0.00 " stroke="rgb(170,255,0)" stroke-width="0.05" fill="none" /> 
	<path d="M 8.67,0.00 L 8.34,0.34 L 8.00,0.67 L 7.78,0.78 L 7.67,1.00 L 7.67,1.34 L 8.00,1.34 L 8.34,1.67 L 8.67,2.00 L 8.67,2.34 L 9.00,2.34 L 9.23,2.23 L 9.34,2.00 L 9.74,1.74 L 10.00,1.67 L 10.45,1.56 L 10.67,2.00 L 10.78,2.23 L 11.00,2.34 L 11.23,2.23 L 11.34,2.00 L 11.23,1.78 L 11.00,1.67 L 10.56,1.45 L 10.67,1.00 L 10.67,0.67 L 11.00,0.34 L 11.34,0.34 L 11.67,0.34 L 12.00,0.34 " stroke="rgb(170,255,0)" stroke-width="0.05" fill="none" /> 
	<path d="M 10.34,10.00 L 10.74,9.74 L 11.00,9.67 L 11.27,9.74 L 11.67,10.00 " stroke="rgb(170,255,0)" stroke-width="0.05" fill="none" /> 
	<path d="M 0.00,2.34 L 0.34,2.67 L 0.34,3.00 L 0.34,3.34 L 0.34,3.67 L 0.34,4.00 L 0.34,4.34 L 0.34,4.67 L 0.34,5.00 L 0.23,5.23 L 0.00,5.34 " stroke="rgb(170,255,0)" stroke-width="0.05" fill="none" /> 
	<path d="M 3.67,10.00 L 3.45,9.56 L 3.00,9.34 L 2.67,9.34 L 2.34,9.34 L 2.00,9.34 L 1.67,9.34 L 1.34,9.34 L 1.00,9.34 L 0.78,9.23 L 0.67,9.00 L 0.34,8.67 L 0.00,8.34 " stroke="rgb(170,255,0)" stroke-width="0.05" fill="none" /> 
	<path d="M 6.78,1.78 L 6.67,2.00 L 6.67,2.34 L 7.00,2.34 L 7.34,2.34 L 7.34,2.00 L 7.34,1.67 L 7.00,1.67 L 6.78,1.78 " stroke="rgb(170,255,0)" stroke-width="0.05" fill="none" /> 
	<path d="M 8.00,2.67 L 8.34,2.67 L 8.34,3.00 L 8.34,3.34 L 8.00,3.34 L 7.67,3.34 L 7.67,3.00 L 7.67,2.67 L 8.00,2.67 " stroke="rgb(170,255,0)" stroke-width="0.05" fill="none" /> 
	<path d="M 8.34,10.00 L 8.67,9.67 L 9.00,9.67 L 9.27,9.74 L 9.67,10.00 " stroke="rgb(170,255,0)" stroke-width="0.05" fill="none" /> 
	<path d="M 6.00,2.67 L 6.34,2.67 L 6.34,3.00 L 6.34,3.34 L 6.00,3.34 L 5.67,3.34 L 5.67,3.00 L 5.67,2.67 L 6.00,2.67 " stroke="rgb(170,255,0)" stroke-width="0.05" fill="none" /> 
	<path d="M 9.00,3.67 L 9.34,3.67 L 9.67,3.67 L 10.00,3.67 L 10.34,3.67 L 10.67,3.67 L 11.00,3.67 L 11.23,3.78 L 11.34,4.00 L 11.56,4.45 L 11.56,4.56 L 11.67,5.00 L 11.56,5.45 L 11.56,5.56 L 11.34,6.00 L 11.23,6.23 L 11.00,6.34 L 10.67,6.34 L 10.34,6.34 L 10.00,6.34 L 9.78,6.23 L 9.67,6.00 L 9.34,5.67 L 9.00,5.34 L 8.67,5.34 L 8.67,5.00 L 8.67,4.67 L 8.67,4.34 L 8.67,4.00 L 8.67,3.67 L 9.00,3.67 " stroke="rgb(170,255,0)" stroke-width="0.05" fill="none" /> 
	<path d="M 5.67,10.00 L 5.78,9.78 L 6.00,9.67 L 6.34,9.34 L 6.67,9.00 L 6.78,8.78 L 7.00,8.67 L 7.45,8.45 L 7.67,8.00 L 7.67,7.67 L 7.67,7.34 L 7.67,7.00 L 7.45,6.56 L 7.00,6.34 L 6.56,6.56 L 6.34,7.00 L 6.23,7.23 L 6.00,7.34 L 5.67,7.67 L 5.34,8.00 L 5.23,8.23 L 5.00,8.34 L 4.67,8.67 L 4.34,9.00 L 4.34,9.34 L 4.34,9.67 L 4.34,10.00 " stroke="rgb(170,255,0)" stroke-width="0.05" fill="none" /> 
	<path d="M 4.67,0.00 L 4.78,0.23 L 5.00,0.34 L 5.45,0.56 L 5.67,1.00 L 5.67,1.34 L 5.67,1.67 L 5.67,2.00 L 5.67,2.34 L 6.00,2.34 L 6.34,2.34 L 6.34,2.00 L 6.56,1.56 L 7.00,1.34 L 7.34,1.34 L 7.34,1.00 L 7.56,0.56 L 8.00,0.34 L 8.17,0.17 L 8.34,0.00 " stroke="rgb(85,255,0)" stroke-width="0.05" fill="none" /> 
	<path d="M 3.34,10.00 L 3.23,9.78 L 3.00,9.67 L 2.67,9.67 L 2.34,9.67 L 2.00,9.67 L 1.67,9.67 L 1.34,9.67 L 1.00,9.67 L 0.56,9.45 L 0.34,9.00 L 0.17,8.84 L 0.00,8.67 " stroke="rgb(85,255,0)" stroke-width="0.05" fill="none" /> 
	<path d="M 4.67,10.00 L 4.67,9.67 L 4.67,9.34 L 4.67,9.00 L 4.84,8.84 L 5.00,8.67 L 5.45,8.45 L 5.67,8.00 L 5.84,7.84 L 6.00,7.67 L 6.45,7.45 L 6.67,7.00 L 6.78,6.78 L 7.00,6.67 L 7.23,6.78 L 7.34,7.00 L 7.34,7.34 L 7.34,7.67 L 7.34,8.00 L 7.23,8.23 L 7.00,8.34 L 6.56,8.56 L 6.34,9.00 L 6.17,9.17 L 6.00,9.34 L 5.56,9.56 L 5.34,10.00 " stroke="rgb(85,255,0)" stroke-width="0.05" fill="none" /> 
	<path d="M 5.00,2.67 L 5.34,2.67 L 5.34,3.00 L 5.34,3.34 L 5.00,3.34 L 4.84,3.17 L 4.67,3.00 L 4.84,2.84 L 5.00,2.67 " stroke="rgb(85,255,0)" stroke-width="0.05" fill="none" /> 
	<path d="M 6.67,2.67 L 6.67,3.00 L 6.67,3.34 L 7.00,3.34 L 7.34,3.34 L 7.34,3.00 L 7.34,2.67 L 7.00,2.67 L 6.67,2.67 " stroke="rgb(85,255,0)" stroke-width="0.05" fill="none" /> 
	<path d="M 12.00,7.34 L 11.67,7.34 L 11.34,7.34 L 11.00,7.34 L 10.67,7.34 L 10.34,7.34 L 10.00,7.34 L 9.67,7.34 L 9.34,7.34 L 9.00,7.34 L 8.78,7.23 L 8.67,7.00 L 8.67,6.67 L 8.67,6.34 L 8.67,6.00 L 8.67,5.67 L 9.00,5.67 L 9.17,5.84 L 9.34,6.00 L 9.56,6.45 L 10.00,6.67 L 10.34,6.67 L 10.67,6.67 L 11.00,6.67 L 11.45,6.45 L 11.67,6.00 L 11.78,5.78 L 11.78,5.23 L 11.84,5.00 L 11.78,4.78 L 11.78,4.23 L 11.67,4.00 L 11.45,3.56 L 11.00,3.34 L 10.67,3.34 L 10.34,3.34 L 10.00,3.34 L 9.67,3.34 L 9.34,3.34 L 9.00,3.34 L 8.67,3.34 L 8.67,3.00 L 8.67,2.67 L 9.00,2.67 L 9.45,2.45 L 9.67,2.00 L 9.87,1.87 L 10.00,1.84 L 10.23,1.78 L 10.34,2.00 L 10.56,2.45 L 11.00,2.67 L 11.45,2.45 L 11.67,2.00 L 11.45,1.56 L 11.00,1.34 L 10.78,1.23 L 10.84,1.00 L 10.84,0.84 L 11.00,0.67 L 11.34,0.67 L 11.67,0.67 L 12.00,0.67 " stroke="rgb(85,255,0)" stroke-width="0.05" fill="none" /> 
	<path d="M 9.34,10.00 L 9.14,9.87 L 9.00,9.84 L 8.84,9.84 L 8.67,10.00 " stroke="rgb(85,255,0)" stroke-width="0.05" fill="none" /> 
	<path d="M 6.00,3.67 L 6.34,3.67 L 6.34,4.00 L 6.17,4.17 L 6.00,4.34 L 5.78,4.23 L 5.67,4.00 L 5.67,3.67 L 6.00,3.67 " stroke="rgb(85,255,0)" stroke-width="0.05" fill="none" /> 
	<path d="M 11.34,10.00 L 11.14,9.87 L 11.00,9.84 L 10.87,9.87 L 10.67,10.00 " stroke="rgb(85,255,0)" stroke-width="0.05" fill="none" /> 
	<path d="M 8.00,1.67 L 8.17,1.84 L 8.34,2.00 L 8.34,2.34 L 8.00,2.34 L 7.67,2.34 L 7.67,2.00 L 7.67,1.67 L 8.00,1.67 " stroke="rgb(85,255,0)" stroke-width="0.05" fill="none" /> 
	<path d="M 0.00,5.17 L 0.12,5.12 L 0.17,5.00 L 0.17,4.84 L 0.17,4.17 L 0.17,4.00 L 0.17,3.84 L 0.17,3.17 L 0.17,3.00 L 0.17,2.84 L 0.00,2.67 " stroke="rgb(85,255,0)" stroke-width="0.05" fill="none" /> 
	<path d="M 8.00,3.67 L 8.34,3.67 L 8.34,4.00 L 8.34,4.34 L 8.34,4.67 L 8.34,5.00 L 8.34,5.34 L 8.00,5.34 L 7.84,5.17 L 7.84,5.00 L 7.78,4.78 L 7.78,4.23 L 7.67,4.00 L 7.67,3.67 L 8.00,3.67 " stroke="rgb(85,255,0)" stroke-width="0.05" fill="none" /> 
</svg>