<svg xmlns="http://www.w3.org/2000/svg" version="1.1" x="1" y="1" width="2.0" height="2.0"> 
<path d="M 2.0,1.23609149 L 1.84909719,1.84909719 " stroke="rgb(255,0,0)" stroke-width="0.01" fill="none" /> 
<path d="M 1.74937285,2.0 L 1.84909719,1.84909719 " stroke="rgb(255,0,0)" stroke-width="0.01" fill="none" /> 
<path d="M 2.0,0.7018746 L 1.90268745,0.90268745 " stroke="rgb(255,51,0)" stroke-width="0.01" fill="none" /> 
<path d="M 1.89602784,1.0 L 1.8276378,1.1723622 L 1.69819439,1.69819439 L 1.4987457,2.0 M 1.89602784,1.0 L 1.90268745,0.90268745 " stroke="rgb(255,51,0)" stroke-width="0.01" fill="none" /> 
<path d="M 0.12667018,0.0 L 0.10069855,0.10069855 L 0.0,0.74912885 " stroke="rgb(255,102,0)" stroke-width="0.01" fill="none" /> 
<path d="M 2.0,0.27039832 L 1.7618472,0.7618472 " stroke="rgb(255,102,0)" stroke-width="0.01" fill="none" /> 
<path d="M 1.74554913,1.0 L 1.57817835,1.42182165 L 1.54729158,1.54729158 L 1.24811855,2.0 M 1.74554913,1.0 L 1.7618472,0.7618472 " stroke="rgb(255,102,0)" stroke-width="0.01" fill="none" /> 
<path d="M 0.37292414,0.0 L 0.29646219,0.29646219 L 0.22162278,0.77837722 L 0.17308561,1.0 " stroke="rgb(255,153,0)" stroke-width="0.01" fill="none" /> 
<path d="M 0.17308561,1.0 L 0.12328814,1.12328814 L 0.0,1.1057444 " stroke="rgb(255,153,0)" stroke-width="0.01" fill="none" /> 
<path d="M 1.0,1.99747529 L 0.99802905,1.99802905 L 0.99857215,2.0 M 1.0,1.99747529 L 1.42602989,1.42602989 L 1.59507043,1.0 L 1.62100695,0.62100695 L 1.84855207,0.15144793 L 1.87214158,0.0 " stroke="rgb(255,153,0)" stroke-width="0.01" fill="none" /> 
<path d="M 0.61917809,0.0 L 0.49222583,0.49222583 L 0.48936733,0.51063267 L 0.38219196,1.0 L 0.27223369,1.27223369 L 0.0,1.2334952 " stroke="rgb(255,204,0)" stroke-width="0.01" fill="none" /> 
<path d="M 1.0,1.74523828 L 1.31829739,1.31829739 L 1.44459173,1.0 L 1.47725268,0.52274732 L 1.45826979,0.45826979 L 1.52964983,0.0 M 1.0,1.74523828 L 0.80111672,1.80111672 " stroke="rgb(255,204,0)" stroke-width="0.01" fill="none" /> 
<path d="M 0.85591898,2.0 L 0.80111672,1.80111672 " stroke="rgb(255,204,0)" stroke-width="0.01" fill="none" /> 
<path d="M 0.86543204,0.0 L 0.81866242,0.18133758 " stroke="rgb(255,255,0)" stroke-width="0.01" fill="none" /> 
<path d="M 0.664726,0.664726 L 0.59129831,1.0 M 0.664726,0.664726 L 0.81866242,0.18133758 " stroke="rgb(255,255,0)" stroke-width="0.01" fill="none" /> 
<path d="M 0.59129831,1.0 L 0.42117924,1.42117924 L 0.0,1.361246 " stroke="rgb(255,255,0)" stroke-width="0.01" fill="none" /> 
<path d="M 1.0,1.49300127 L 1.21056489,1.21056489 L 1.29411303,1.0 L 1.31571939,0.68428061 L 1.16193509,0.16193509 L 1.18715808,0.0 M 1.0,1.49300127 L 0.60420439,1.60420439 L 0.71326582,2.0 " stroke="rgb(255,255,0)" stroke-width="0.01" fill="none" /> 
<path d="M 1.0,0.32210363 L 0.83626412,0.83626412 L 0.80040465,1.0 L 0.6651583,1.3348417 L 1.0,1.24076425 L 1.10283239,1.10283239 L 1.14363432,1.0 L 1.1541861,0.8458139 M 1.0,0.32210363 L 1.1541861,0.8458139 " stroke="rgb(204,255,0)" stroke-width="0.01" fill="none" /> 
<path d="M 0.57061265,2.0 L 0.44734641,1.55265359 L 0.0,1.4889968 " stroke="rgb(204,255,0)" stroke-width="0.01" fill="none" /> 
<path d="M 0.42795949,2.0 L 0.33550981,1.66449019 L 0.0,1.6167476 " stroke="rgb(153,255,0)" stroke-width="0.01" fill="none" /> 
<path d="M 0.28530633,2.0 L 0.2236732,1.7763268 L 0.0,1.7444984 " stroke="rgb(102,255,0)" stroke-width="0.01" fill="none" /> 
<path d="M 0.14265316,2.0 L 0.1118366,1.8881634 L 0.0,1.8722492 " stroke="rgb(51,255,0)" stroke-width="0.01" fill="none" /> 
</svg>