<svg xmlns="http://www.w3.org/2000/svg" version="1.1" x="1" y="1" width="10.0" height="12.0"> 
<path d="M 0.18181818,0.0 L 0.36363636,0.36363636 L 0.36363636,0.63636364 L 0.63636364,0.63636364 L 1.0,0.81818182 L 1.12121212,0.87878788 L 1.18181818,1.0 L 1.18181818,1.18181818 L 1.0,1.18181818 L 0.63636364,1.36363636 L 0.36363636,1.36363636 L 0.36363636,1.63636364 L 0.18181818,2.0 " stroke="rgb(255,0,0)" stroke-width="0.05" fill="none" /> 
<path d="M 0.18181818,2.0 L 0.18181818,2.18181818 L 0.18181818,2.81818182 L 0.18181818,3.0 " stroke="rgb(255,0,0)" stroke-width="0.05" fill="none" /> 
<path d="M 0.18181818,3.0 L 0.12121212,3.12121212 L 0.0,3.18181818 " stroke="rgb(255,0,0)" stroke-width="0.05" fill="none" /> 
<path d="M 1.0,8.81818182 L 1.09090909,8.90909091 L 1.18181818,9.0 L 1.12121212,9.12121212 L 1.12121212,9.87878788 L 1.09090909,10.0 L 1.07272727,10.07272727 L 1.0,10.09090909 L 0.90909091,10.09090909 L 0.81818182,10.0 L 0.81818182,9.81818182 L 0.81818182,9.18181818 L 0.81818182,9.0 L 0.90909091,8.90909091 M 1.0,8.81818182 L 0.90909091,8.90909091 " stroke="rgb(255,0,0)" stroke-width="0.05" fill="none" /> 
<path d="M 2.0,1.81818182 L 1.81818182,1.81818182 L 1.81818182,2.0 L 1.81818182,2.18181818 L 1.81818182,2.81818182 L 1.81818182,3.0 L 1.81818182,3.18181818 L 1.81818182,3.81818182 L 1.81818182,4.0 L 1.87878788,4.12121212 M 2.0,1.81818182 L 2.36363636,1.63636364 L 2.63636364,1.63636364 L 2.63636364,1.36363636 L 2.81818182,1.0 L 2.90909091,0.90909091 L 3.0,0.90909091 L 3.09090909,0.90909091 L 3.90909091,0.90909091 L 4.0,0.90909091 L 4.09090909,0.90909091 L 4.90909091,0.90909091 L 5.0,0.90909091 L 5.18181818,0.81818182 L 5.81818182,0.81818182 L 5.81818182,0.18181818 L 5.90909091,0.0 " stroke="rgb(255,0,0)" stroke-width="0.05" fill="none" /> 
<path d="M 2.0,4.18181818 L 2.09090909,4.09090909 L 2.18181818,4.0 L 2.18181818,3.81818182 L 2.18181818,3.18181818 L 2.18181818,3.0 L 2.36363636,2.63636364 L 2.36363636,2.36363636 L 2.63636364,2.36363636 L 3.0,2.18181818 L 3.18181818,2.18181818 L 3.18181818,2.0 L 3.36363636,1.63636364 L 3.36363636,1.36363636 L 3.63636364,1.36363636 L 4.0,1.18181818 L 4.18181818,1.18181818 L 4.81818182,1.18181818 L 5.0,1.18181818 L 5.18181818,1.18181818 L 5.81818182,1.18181818 L 6.0,1.18181818 L 6.18181818,1.18181818 L 6.81818182,1.18181818 L 7.0,1.18181818 L 7.36363636,1.36363636 L 7.63636364,1.36363636 L 7.63636364,1.63636364 L 7.81818182,2.0 L 7.81818182,2.18181818 L 7.81818182,2.81818182 L 7.81818182,3.0 L 7.63636364,3.36363636 L 7.63636364,3.63636364 L 7.36363636,3.63636364 L 7.0,3.81818182 L 6.81818182,3.81818182 L 6.81818182,4.0 L 6.63636364,4.36363636 L 6.63636364,4.63636364 L 6.36363636,4.63636364 L 6.0,4.81818182 L 5.81818182,4.81818182 L 5.81818182,5.0 L 5.87878788,5.12121212 L 6.0,5.18181818 L 6.18181818,5.18181818 L 6.81818182,5.18181818 L 7.0,5.18181818 L 7.09090909,5.09090909 L 7.18181818,5.0 L 7.36363636,4.63636364 L 7.36363636,4.36363636 L 7.63636364,4.36363636 L 8.0,4.18181818 L 8.09090909,4.09090909 L 8.18181818,4.0 L 8.18181818,3.81818182 L 8.18181818,3.18181818 L 8.18181818,3.0 L 8.18181818,2.81818182 L 8.18181818,2.18181818 L 8.18181818,2.0 L 8.18181818,1.81818182 L 8.18181818,1.18181818 L 8.18181818,1.0 L 8.09090909,0.90909091 L 8.0,0.81818182 L 7.63636364,0.63636364 L 7.36363636,0.63636364 L 7.36363636,0.36363636 L 7.18181818,0.0 M 2.0,4.18181818 L 1.87878788,4.12121212 " stroke="rgb(255,0,0)" stroke-width="0.05" fill="none" /> 
<path d="M 4.0,2.81818182 L 4.12121212,2.87878788 L 4.18181818,3.0 L 4.36363636,3.36363636 L 4.36363636,3.63636364 L 4.63636364,3.63636364 L 5.0,3.81818182 L 5.18181818,3.81818182 L 5.18181818,4.0 L 5.18181818,4.18181818 L 5.0,4.18181818 L 4.81818182,4.18181818 L 4.18181818,4.18181818 L 4.0,4.18181818 L 3.90909091,4.09090909 L 3.81818182,4.0 L 3.81818182,3.81818182 L 3.81818182,3.18181818 L 3.81818182,3.0 L 3.81818182,2.81818182 M 4.0,2.81818182 L 3.81818182,2.81818182 " stroke="rgb(255,0,0)" stroke-width="0.05" fill="none" /> 
<path d="M 5.0,6.81818182 L 5.12121212,6.87878788 L 5.18181818,7.0 L 5.09090909,7.09090909 L 5.0,7.09090909 L 4.92727273,7.07272727 L 4.81818182,7.0 L 4.90909091,6.90909091 M 5.0,6.81818182 L 4.90909091,6.90909091 " stroke="rgb(255,0,0)" stroke-width="0.05" fill="none" /> 
<path d="M 5.0,9.81818182 L 4.87878788,9.87878788 L 4.81818182,10.0 L 4.81818182,10.18181818 L 4.81818182,10.81818182 L 4.81818182,11.0 L 4.92727273,11.07272727 L 5.0,11.09090909 L 5.07272727,11.07272727 L 5.18181818,11.0 L 5.18181818,10.81818182 L 5.18181818,10.18181818 L 5.18181818,10.0 L 5.09090909,9.90909091 M 5.0,9.81818182 L 5.09090909,9.90909091 " stroke="rgb(255,0,0)" stroke-width="0.05" fill="none" /> 
<path d="M 6.0,2.81818182 L 5.87878788,2.87878788 L 5.81818182,3.0 L 5.81818182,3.18181818 L 6.0,3.18181818 L 6.18181818,3.18181818 L 6.18181818,3.0 L 6.12121212,2.87878788 M 6.0,2.81818182 L 6.12121212,2.87878788 " stroke="rgb(255,0,0)" stroke-width="0.05" fill="none" /> 
<path d="M 9.0,8.81818182 L 9.09090909,8.90909091 L 9.09090909,9.0 L 9.12121212,9.12121212 L 9.12121212,9.87878788 L 9.18181818,10.0 L 9.12121212,10.12121212 L 9.12121212,10.87878788 L 9.09090909,11.0 L 9.12121212,11.12121212 L 9.12121212,11.87878788 L 9.18181818,12.0 M 9.0,8.81818182 L 8.87878788,8.87878788 L 8.81818182,9.0 L 8.81818182,9.18181818 L 8.81818182,9.81818182 L 8.81818182,10.0 L 8.81818182,10.18181818 L 8.81818182,10.81818182 L 8.81818182,11.0 L 8.81818182,11.18181818 L 8.81818182,11.81818182 L 8.81818182,12.0 " stroke="rgb(255,0,0)" stroke-width="0.05" fill="none" /> 
<path d="M 10.0,6.81818182 L 9.90909091,6.90909091 L 9.81818182,7.0 L 9.87878788,7.12121212 L 10.0,7.18181818 " stroke="rgb(255,0,0)" stroke-width="0.05" fill="none" /> 
<path d="M 0.36363636,0.0 L 0.57575758,0.42424242 " stroke="rgb(255,51,0)" stroke-width="0.05" fill="none" /> 
<path d="M 1.0,0.63636364 L 1.24242424,0.75757576 L 1.36363636,1.0 L 1.36363636,1.36363636 L 1.0,1.36363636 L 0.57575758,1.57575758 M 1.0,0.63636364 L 0.57575758,0.42424242 " stroke="rgb(255,51,0)" stroke-width="0.05" fill="none" /> 
<path d="M 0.36363636,2.0 L 0.57575758,1.57575758 M 0.36363636,2.0 L 0.36363636,2.36363636 L 0.36363636,2.63636364 L 0.36363636,3.0 L 0.24242424,3.24242424 L 0.0,3.36363636 " stroke="rgb(255,51,0)" stroke-width="0.05" fill="none" /> 
<path d="M 1.0,8.63636364 L 0.81818182,8.81818182 L 0.63636364,9.0 L 0.63636364,9.36363636 L 0.63636364,9.63636364 L 0.63636364,10.0 L 0.81818182,10.18181818 L 1.0,10.18181818 L 1.14545455,10.14545455 L 1.18181818,10.0 L 1.24242424,9.75757576 L 1.24242424,9.24242424 L 1.36363636,9.0 L 1.18181818,8.81818182 M 1.0,8.63636364 L 1.18181818,8.81818182 " stroke="rgb(255,51,0)" stroke-width="0.05" fill="none" /> 
<path d="M 2.0,1.63636364 L 1.63636364,1.63636364 L 1.63636364,2.0 L 1.63636364,2.36363636 L 1.63636364,2.63636364 L 1.63636364,3.0 L 1.63636364,3.36363636 L 1.63636364,3.63636364 L 1.63636364,4.0 L 1.75757576,4.24242424 L 2.0,4.36363636 L 2.18181818,4.18181818 L 2.36363636,4.0 L 2.36363636,3.63636364 L 2.36363636,3.36363636 L 2.36363636,3.0 L 2.57575758,2.57575758 L 3.0,2.36363636 L 3.36363636,2.36363636 L 3.36363636,2.0 L 3.57575758,1.57575758 L 4.0,1.36363636 L 4.36363636,1.36363636 L 4.63636364,1.36363636 L 5.0,1.36363636 L 5.36363636,1.36363636 L 5.63636364,1.36363636 L 6.0,1.36363636 L 6.36363636,1.36363636 L 6.63636364,1.36363636 L 7.0,1.36363636 L 7.42424242,1.57575758 L 7.63636364,2.0 L 7.63636364,2.36363636 L 7.63636364,2.63636364 L 7.63636364,3.0 L 7.42424242,3.42424242 L 7.0,3.63636364 L 6.63636364,3.63636364 L 6.63636364,4.0 L 6.42424242,4.42424242 L 6.0,4.63636364 L 5.63636364,4.63636364 L 5.63636364,5.0 L 5.75757576,5.24242424 L 6.0,5.36363636 L 6.36363636,5.36363636 L 6.63636364,5.36363636 L 7.0,5.36363636 L 7.18181818,5.18181818 L 7.36363636,5.0 L 7.57575758,4.57575758 L 8.0,4.36363636 L 8.18181818,4.18181818 L 8.36363636,4.0 L 8.36363636,3.63636364 L 8.36363636,3.36363636 L 8.36363636,3.0 L 8.36363636,2.63636364 L 8.36363636,2.36363636 L 8.36363636,2.0 L 8.36363636,1.63636364 L 8.36363636,1.36363636 L 8.36363636,1.0 L 8.18181818,0.81818182 L 8.0,0.63636364 L 7.57575758,0.42424242 L 7.36363636,0.0 M 2.0,1.63636364 L 2.42424242,1.42424242 L 2.63636364,1.0 L 2.81818182,0.81818182 L 3.0,0.81818182 L 3.18181818,0.81818182 L 3.81818182,0.81818182 L 4.0,0.81818182 L 4.18181818,0.81818182 L 4.81818182,0.81818182 L 5.0,0.81818182 L 5.36363636,0.63636364 L 5.63636364,0.63636364 L 5.63636364,0.36363636 L 5.81818182,0.0 " stroke="rgb(255,51,0)" stroke-width="0.05" fill="none" /> 
<path d="M 4.0,2.63636364 L 4.24242424,2.75757576 L 4.36363636,3.0 L 4.57575758,3.42424242 L 5.0,3.63636364 L 5.36363636,3.63636364 L 5.36363636,4.0 L 5.36363636,4.36363636 L 5.0,4.36363636 L 4.63636364,4.36363636 L 4.36363636,4.36363636 L 4.0,4.36363636 L 3.81818182,4.18181818 L 3.63636364,4.0 L 3.63636364,3.63636364 L 3.63636364,3.36363636 L 3.63636364,3.0 L 3.63636364,2.63636364 M 4.0,2.63636364 L 3.63636364,2.63636364 " stroke="rgb(255,51,0)" stroke-width="0.05" fill="none" /> 
<path d="M 5.0,6.63636364 L 5.24242424,6.75757576 L 5.36363636,7.0 L 5.18181818,7.18181818 L 5.0,7.18181818 L 4.85454545,7.14545455 L 4.63636364,7.0 L 4.81818182,6.81818182 M 5.0,6.63636364 L 4.81818182,6.81818182 " stroke="rgb(255,51,0)" stroke-width="0.05" fill="none" /> 
<path d="M 5.0,9.63636364 L 5.18181818,9.81818182 L 5.36363636,10.0 L 5.36363636,10.36363636 L 5.36363636,10.63636364 L 5.36363636,11.0 L 5.14545455,11.14545455 L 5.0,11.18181818 L 4.85454545,11.14545455 L 4.63636364,11.0 L 4.63636364,10.63636364 L 4.63636364,10.36363636 L 4.63636364,10.0 L 4.75757576,9.75757576 M 5.0,9.63636364 L 4.75757576,9.75757576 " stroke="rgb(255,51,0)" stroke-width="0.05" fill="none" /> 
<path d="M 6.0,2.63636364 L 5.75757576,2.75757576 L 5.63636364,3.0 L 5.63636364,3.36363636 L 6.0,3.36363636 L 6.36363636,3.36363636 L 6.36363636,3.0 L 6.24242424,2.75757576 M 6.0,2.63636364 L 6.24242424,2.75757576 " stroke="rgb(255,51,0)" stroke-width="0.05" fill="none" /> 
<path d="M 9.0,8.63636364 L 8.75757576,8.75757576 L 8.63636364,9.0 L 8.63636364,9.36363636 L 8.63636364,9.63636364 L 8.63636364,10.0 L 8.63636364,10.36363636 L 8.63636364,10.63636364 L 8.63636364,11.0 L 8.63636364,11.36363636 L 8.63636364,11.63636364 L 8.63636364,12.0 M 9.0,8.63636364 L 9.18181818,8.81818182 L 9.18181818,9.0 L 9.24242424,9.24242424 L 9.24242424,9.75757576 L 9.36363636,10.0 L 9.24242424,10.24242424 L 9.24242424,10.75757576 L 9.18181818,11.0 L 9.24242424,11.24242424 L 9.24242424,11.75757576 L 9.36363636,12.0 " stroke="rgb(255,51,0)" stroke-width="0.05" fill="none" /> 
<path d="M 10.0,6.63636364 L 9.81818182,6.81818182 L 9.63636364,7.0 L 9.75757576,7.24242424 L 10.0,7.36363636 " stroke="rgb(255,51,0)" stroke-width="0.05" fill="none" /> 
<path d="M 0.54545455,0.0 L 0.6969697,0.3030303 " stroke="rgb(255,102,0)" stroke-width="0.05" fill="none" /> 
<path d="M 1.0,0.45454545 L 1.36363636,0.63636364 L 1.54545455,1.0 L 1.54545455,1.45454545 L 2.0,1.45454545 L 2.3030303,1.3030303 L 2.45454545,1.0 L 2.72727273,0.72727273 L 3.0,0.72727273 L 3.27272727,0.72727273 L 3.72727273,0.72727273 L 4.0,0.72727273 L 4.27272727,0.72727273 L 4.72727273,0.72727273 L 5.0,0.72727273 L 5.48484848,0.48484848 L 5.72727273,0.0 M 1.0,0.45454545 L 0.6969697,0.3030303 " stroke="rgb(255,102,0)" stroke-width="0.05" fill="none" /> 
<path d="M 1.0,1.54545455 L 0.6969697,1.6969697 M 1.0,1.54545455 L 1.45454545,1.54545455 L 1.45454545,2.0 L 1.45454545,2.45454545 L 1.45454545,2.54545455 L 1.45454545,3.0 L 1.45454545,3.45454545 L 1.45454545,3.54545455 L 1.45454545,4.0 L 1.63636364,4.36363636 L 2.0,4.54545455 L 2.27272727,4.27272727 L 2.54545455,4.0 L 2.54545455,3.54545455 L 2.54545455,3.45454545 L 2.54545455,3.0 L 2.6969697,2.6969697 L 3.0,2.54545455 L 3.45454545,2.54545455 L 3.45454545,3.0 L 3.45454545,3.45454545 L 3.45454545,3.54545455 L 3.45454545,4.0 L 3.72727273,4.27272727 L 4.0,4.54545455 L 4.45454545,4.54545455 L 4.54545455,4.54545455 L 5.0,4.54545455 L 5.45454545,4.54545455 L 5.45454545,5.0 L 5.63636364,5.36363636 L 6.0,5.54545455 L 6.45454545,5.54545455 L 6.54545455,5.54545455 L 7.0,5.54545455 L 7.27272727,5.27272727 L 7.54545455,5.0 L 7.6969697,4.6969697 L 8.0,4.54545455 L 8.27272727,4.27272727 L 8.54545455,4.0 L 8.54545455,3.54545455 L 8.54545455,3.45454545 L 8.54545455,3.0 L 8.54545455,2.54545455 L 8.54545455,2.45454545 L 8.54545455,2.0 L 8.54545455,1.54545455 L 8.54545455,1.45454545 L 8.54545455,1.0 L 8.27272727,0.72727273 L 8.0,0.45454545 L 7.6969697,0.3030303 " stroke="rgb(255,102,0)" stroke-width="0.05" fill="none" /> 
<path d="M 0.54545455,2.0 L 0.54545455,2.45454545 L 0.54545455,2.54545455 L 0.54545455,3.0 L 0.36363636,3.36363636 L 0.0,3.54545455 M 0.54545455,2.0 L 0.6969697,1.6969697 " stroke="rgb(255,102,0)" stroke-width="0.05" fill="none" /> 
<path d="M 1.0,8.45454545 L 1.27272727,8.72727273 L 1.54545455,9.0 L 1.36363636,9.36363636 L 1.36363636,9.63636364 L 1.27272727,10.0 L 1.21818182,10.21818182 L 1.0,10.27272727 L 0.72727273,10.27272727 L 0.45454545,10.0 L 0.45454545,9.54545455 L 0.45454545,9.45454545 L 0.45454545,9.0 L 0.72727273,8.72727273 M 1.0,8.45454545 L 0.72727273,8.72727273 " stroke="rgb(255,102,0)" stroke-width="0.05" fill="none" /> 
<path d="M 4.0,1.54545455 L 3.6969697,1.6969697 L 3.54545455,2.0 L 3.54545455,2.45454545 L 4.0,2.45454545 L 4.36363636,2.63636364 L 4.54545455,3.0 L 4.6969697,3.3030303 L 5.0,3.45454545 L 5.45454545,3.45454545 L 5.45454545,3.0 L 5.63636364,2.63636364 L 6.0,2.45454545 L 6.36363636,2.63636364 L 6.54545455,3.0 L 6.54545455,3.45454545 L 7.0,3.45454545 L 7.3030303,3.3030303 L 7.45454545,3.0 L 7.45454545,2.54545455 L 7.45454545,2.45454545 L 7.45454545,2.0 L 7.3030303,1.6969697 L 7.0,1.54545455 L 6.54545455,1.54545455 L 6.45454545,1.54545455 L 6.0,1.54545455 L 5.54545455,1.54545455 L 5.45454545,1.54545455 L 5.0,1.54545455 L 4.54545455,1.54545455 L 4.45454545,1.54545455 M 4.0,1.54545455 L 4.45454545,1.54545455 " stroke="rgb(255,102,0)" stroke-width="0.05" fill="none" /> 
<path d="M 5.0,6.45454545 L 4.72727273,6.72727273 L 4.45454545,7.0 L 4.78181818,7.21818182 L 5.0,7.27272727 L 5.27272727,7.27272727 L 5.54545455,7.0 L 5.36363636,6.63636364 M 5.0,6.45454545 L 5.36363636,6.63636364 " stroke="rgb(255,102,0)" stroke-width="0.05" fill="none" /> 
<path d="M 5.0,9.45454545 L 4.63636364,9.63636364 L 4.45454545,10.0 L 4.45454545,10.45454545 L 4.45454545,10.54545455 L 4.45454545,11.0 L 4.78181818,11.21818182 L 5.0,11.27272727 L 5.21818182,11.21818182 L 5.54545455,11.0 L 5.54545455,10.54545455 L 5.54545455,10.45454545 L 5.54545455,10.0 L 5.27272727,9.72727273 M 5.0,9.45454545 L 5.27272727,9.72727273 " stroke="rgb(255,102,0)" stroke-width="0.05" fill="none" /> 
<path d="M 6.0,3.54545455 L 6.45454545,3.54545455 L 6.45454545,4.0 L 6.3030303,4.3030303 L 6.0,4.45454545 L 5.54545455,4.45454545 L 5.54545455,4.0 L 5.54545455,3.54545455 M 6.0,3.54545455 L 5.54545455,3.54545455 " stroke="rgb(255,102,0)" stroke-width="0.05" fill="none" /> 
<path d="M 7.54545455,0.0 L 7.6969697,0.3030303 " stroke="rgb(255,102,0)" stroke-width="0.05" fill="none" /> 
<path d="M 9.0,8.45454545 L 9.27272727,8.72727273 L 9.27272727,9.0 L 9.36363636,9.36363636 L 9.36363636,9.63636364 L 9.54545455,10.0 L 9.36363636,10.36363636 L 9.36363636,10.63636364 L 9.27272727,11.0 L 9.36363636,11.36363636 L 9.36363636,11.63636364 L 9.54545455,12.0 M 9.0,8.45454545 L 8.63636364,8.63636364 L 8.45454545,9.0 L 8.45454545,9.45454545 L 8.45454545,9.54545455 L 8.45454545,10.0 L 8.45454545,10.45454545 L 8.45454545,10.54545455 L 8.45454545,11.0 L 8.45454545,11.45454545 L 8.45454545,11.54545455 L 8.45454545,12.0 " stroke="rgb(255,102,0)" stroke-width="0.05" fill="none" /> 
<path d="M 10.0,6.45454545 L 9.72727273,6.72727273 L 9.45454545,7.0 L 9.63636364,7.36363636 L 10.0,7.54545455 " stroke="rgb(255,102,0)" stroke-width="0.05" fill="none" /> 
<path d="M 0.72727273,0.0 L 0.81818182,0.18181818 " stroke="rgb(255,153,0)" stroke-width="0.05" fill="none" /> 
<path d="M 1.0,0.27272727 L 1.48484848,0.51515152 L 1.72727273,1.0 L 1.72727273,1.27272727 L 2.0,1.27272727 L 2.18181818,1.18181818 L 2.27272727,1.0 L 2.63636364,0.63636364 L 3.0,0.63636364 L 3.36363636,0.63636364 L 3.63636364,0.63636364 L 4.0,0.63636364 L 4.36363636,0.63636364 L 4.63636364,0.63636364 L 5.0,0.63636364 L 5.42424242,0.42424242 L 5.63636364,0.0 M 1.0,0.27272727 L 0.81818182,0.18181818 " stroke="rgb(255,153,0)" stroke-width="0.05" fill="none" /> 
<path d="M 1.0,1.72727273 L 1.27272727,1.72727273 L 1.27272727,2.0 L 1.27272727,2.27272727 L 1.27272727,2.72727273 L 1.27272727,3.0 L 1.27272727,3.27272727 L 1.27272727,3.72727273 L 1.27272727,4.0 L 1.51515152,4.48484848 L 2.0,4.72727273 L 2.36363636,4.36363636 L 2.72727273,4.0 L 2.72727273,3.72727273 L 2.72727273,3.27272727 L 2.72727273,3.0 L 2.81818182,2.81818182 L 3.0,2.72727273 L 3.27272727,2.72727273 L 3.27272727,3.0 L 3.27272727,3.27272727 L 3.27272727,3.72727273 L 3.27272727,4.0 L 3.63636364,4.36363636 L 4.0,4.72727273 L 4.27272727,4.72727273 L 4.72727273,4.72727273 L 5.0,4.72727273 L 5.27272727,4.72727273 L 5.27272727,5.0 L 5.51515152,5.48484848 L 6.0,5.72727273 L 6.27272727,5.72727273 L 6.72727273,5.72727273 L 7.0,5.72727273 L 7.36363636,5.36363636 L 7.72727273,5.0 L 7.81818182,4.81818182 L 8.0,4.72727273 L 8.36363636,4.36363636 L 8.72727273,4.0 L 8.72727273,3.72727273 L 8.72727273,3.27272727 L 8.72727273,3.0 L 8.72727273,2.72727273 L 8.72727273,2.27272727 L 8.72727273,2.0 L 8.72727273,1.72727273 L 8.72727273,1.27272727 L 8.72727273,1.0 L 8.36363636,0.63636364 L 8.0,0.27272727 L 7.81818182,0.18181818 M 1.0,1.72727273 L 0.81818182,1.81818182 " stroke="rgb(255,153,0)" stroke-width="0.05" fill="none" /> 
<path d="M 0.72727273,2.0 L 0.72727273,2.27272727 L 0.72727273,2.72727273 L 0.72727273,3.0 L 0.48484848,3.48484848 L 0.0,3.72727273 M 0.72727273,2.0 L 0.81818182,1.81818182 " stroke="rgb(255,153,0)" stroke-width="0.05" fill="none" /> 
<path d="M 1.0,8.27272727 L 1.36363636,8.63636364 L 1.72727273,9.0 L 1.48484848,9.48484848 L 1.48484848,9.51515152 L 1.36363636,10.0 L 1.29090909,10.29090909 L 1.0,10.36363636 L 0.63636364,10.36363636 L 0.27272727,10.0 L 0.27272727,9.72727273 L 0.27272727,9.27272727 L 0.27272727,9.0 L 0.63636364,8.63636364 M 1.0,8.27272727 L 0.63636364,8.63636364 " stroke="rgb(255,153,0)" stroke-width="0.05" fill="none" /> 
<path d="M 4.0,1.72727273 L 4.27272727,1.72727273 L 4.72727273,1.72727273 L 5.0,1.72727273 L 5.27272727,1.72727273 L 5.72727273,1.72727273 L 6.0,1.72727273 L 6.27272727,1.72727273 L 6.72727273,1.72727273 L 7.0,1.72727273 L 7.18181818,1.81818182 L 7.27272727,2.0 L 7.27272727,2.27272727 L 7.27272727,2.72727273 L 7.27272727,3.0 L 7.18181818,3.18181818 L 7.0,3.27272727 L 6.72727273,3.27272727 L 6.72727273,3.0 L 6.48484848,2.51515152 L 6.0,2.27272727 L 5.51515152,2.51515152 L 5.27272727,3.0 L 5.27272727,3.27272727 L 5.0,3.27272727 L 4.81818182,3.18181818 L 4.72727273,3.0 L 4.48484848,2.51515152 L 4.0,2.27272727 L 3.72727273,2.27272727 L 3.72727273,2.0 L 3.81818182,1.81818182 M 4.0,1.72727273 L 3.81818182,1.81818182 " stroke="rgb(255,153,0)" stroke-width="0.05" fill="none" /> 
<path d="M 5.0,6.27272727 L 4.63636364,6.63636364 L 4.27272727,7.0 L 4.70909091,7.29090909 L 5.0,7.36363636 L 5.36363636,7.36363636 L 5.72727273,7.0 L 5.48484848,6.51515152 M 5.0,6.27272727 L 5.48484848,6.51515152 " stroke="rgb(255,153,0)" stroke-width="0.05" fill="none" /> 
<path d="M 5.0,9.27272727 L 4.51515152,9.51515152 L 4.27272727,10.0 L 4.27272727,10.27272727 L 4.27272727,10.72727273 L 4.27272727,11.0 L 4.70909091,11.29090909 L 5.0,11.36363636 L 5.29090909,11.29090909 L 5.72727273,11.0 L 5.72727273,10.72727273 L 5.72727273,10.27272727 L 5.72727273,10.0 L 5.36363636,9.63636364 M 5.0,9.27272727 L 5.36363636,9.63636364 " stroke="rgb(255,153,0)" stroke-width="0.05" fill="none" /> 
<path d="M 6.0,3.72727273 L 6.27272727,3.72727273 L 6.27272727,4.0 L 6.18181818,4.18181818 L 6.0,4.27272727 L 5.72727273,4.27272727 L 5.72727273,4.0 L 5.72727273,3.72727273 M 6.0,3.72727273 L 5.72727273,3.72727273 " stroke="rgb(255,153,0)" stroke-width="0.05" fill="none" /> 
<path d="M 7.72727273,0.0 L 7.81818182,0.18181818 " stroke="rgb(255,153,0)" stroke-width="0.05" fill="none" /> 
<path d="M 9.0,8.27272727 L 9.36363636,8.63636364 L 9.36363636,9.0 L 9.48484848,9.48484848 L 9.48484848,9.51515152 L 9.72727273,10.0 L 9.48484848,10.48484848 L 9.48484848,10.51515152 L 9.36363636,11.0 L 9.48484848,11.48484848 L 9.48484848,11.51515152 L 9.72727273,12.0 M 9.0,8.27272727 L 8.51515152,8.51515152 L 8.27272727,9.0 L 8.27272727,9.27272727 L 8.27272727,9.72727273 L 8.27272727,10.0 L 8.27272727,10.27272727 L 8.27272727,10.72727273 L 8.27272727,11.0 L 8.27272727,11.27272727 L 8.27272727,11.72727273 L 8.27272727,12.0 " stroke="rgb(255,153,0)" stroke-width="0.05" fill="none" /> 
<path d="M 10.0,6.27272727 L 9.63636364,6.63636364 L 9.27272727,7.0 L 9.51515152,7.48484848 L 10.0,7.72727273 " stroke="rgb(255,153,0)" stroke-width="0.05" fill="none" /> 
<path d="M 0.90909091,0.0 L 0.93939394,0.06060606 L 1.0,0.09090909 L 1.18181818,0.18181818 L 1.81818182,0.18181818 L 1.81818182,0.81818182 L 1.90909091,1.0 L 1.90909091,1.09090909 L 2.0,1.09090909 L 2.06060606,1.06060606 L 2.09090909,1.0 L 2.54545455,0.54545455 L 3.0,0.54545455 L 3.45454545,0.54545455 L 3.54545455,0.54545455 L 4.0,0.54545455 L 4.45454545,0.54545455 L 4.54545455,0.54545455 L 5.0,0.54545455 L 5.36363636,0.36363636 L 5.54545455,0.0 " stroke="rgb(255,204,0)" stroke-width="0.05" fill="none" /> 
<path d="M 1.0,1.90909091 L 0.93939394,1.93939394 L 0.90909091,2.0 L 0.90909091,2.09090909 L 0.90909091,2.90909091 L 0.90909091,3.0 L 0.81818182,3.18181818 L 0.81818182,3.81818182 L 0.18181818,3.81818182 L 0.0,3.90909091 M 1.0,1.90909091 L 1.09090909,1.90909091 L 1.09090909,2.0 L 1.09090909,2.09090909 L 1.09090909,2.90909091 L 1.09090909,3.0 L 1.09090909,3.09090909 L 1.09090909,3.90909091 L 1.09090909,4.0 L 1.18181818,4.18181818 L 1.18181818,4.81818182 L 1.81818182,4.81818182 L 2.0,4.90909091 L 2.45454545,4.45454545 L 2.90909091,4.0 L 2.90909091,3.90909091 L 2.90909091,3.09090909 L 2.90909091,3.0 L 2.93939394,2.93939394 L 3.0,2.90909091 L 3.09090909,2.90909091 L 3.09090909,3.0 L 3.09090909,3.09090909 L 3.09090909,3.90909091 L 3.09090909,4.0 L 3.54545455,4.45454545 L 4.0,4.90909091 L 4.09090909,4.90909091 L 4.90909091,4.90909091 L 5.0,4.90909091 L 5.09090909,4.90909091 L 5.09090909,5.0 L 5.18181818,5.18181818 L 5.18181818,5.81818182 L 5.81818182,5.81818182 L 6.0,5.90909091 L 6.09090909,5.90909091 L 6.90909091,5.90909091 L 7.0,5.90909091 L 7.45454545,5.45454545 L 7.90909091,5.0 L 7.93939394,4.93939394 L 8.0,4.90909091 L 8.45454545,4.45454545 L 8.90909091,4.0 L 8.90909091,3.90909091 L 8.90909091,3.09090909 L 8.90909091,3.0 L 8.90909091,2.90909091 L 8.90909091,2.09090909 L 8.90909091,2.0 L 8.90909091,1.90909091 L 8.90909091,1.09090909 L 8.90909091,1.0 L 8.45454545,0.54545455 L 8.0,0.09090909 L 7.93939394,0.06060606 L 7.90909091,0.0 " stroke="rgb(255,204,0)" stroke-width="0.05" fill="none" /> 
<path d="M 1.0,8.09090909 L 1.45454545,8.54545455 L 1.90909091,9.0 L 1.81818182,9.18181818 L 1.56363636,9.56363636 L 1.45454545,10.0 L 1.36363636,10.36363636 L 1.0,10.45454545 L 0.54545455,10.45454545 L 0.09090909,10.0 L 0.09090909,9.90909091 L 0.09090909,9.09090909 L 0.09090909,9.0 L 0.54545455,8.54545455 M 1.0,8.09090909 L 0.54545455,8.54545455 " stroke="rgb(255,204,0)" stroke-width="0.05" fill="none" /> 
<path d="M 4.0,1.90909091 L 4.09090909,1.90909091 L 4.90909091,1.90909091 L 5.0,1.90909091 L 5.09090909,1.90909091 L 5.90909091,1.90909091 L 6.0,1.90909091 L 6.09090909,1.90909091 L 6.90909091,1.90909091 L 7.0,1.90909091 L 7.06060606,1.93939394 L 7.09090909,2.0 L 7.09090909,2.09090909 L 7.09090909,2.90909091 L 7.09090909,3.0 L 7.06060606,3.06060606 L 7.0,3.09090909 L 6.90909091,3.09090909 L 6.90909091,3.0 L 6.81818182,2.81818182 L 6.81818182,2.18181818 L 6.18181818,2.18181818 L 6.0,2.09090909 L 5.81818182,2.18181818 L 5.18181818,2.18181818 L 5.18181818,2.81818182 L 5.09090909,3.0 L 5.09090909,3.09090909 L 5.0,3.09090909 L 4.93939394,3.06060606 L 4.90909091,3.0 L 4.81818182,2.81818182 L 4.81818182,2.18181818 L 4.18181818,2.18181818 L 4.0,2.09090909 L 3.90909091,2.09090909 L 3.90909091,2.0 L 3.93939394,1.93939394 M 4.0,1.90909091 L 3.93939394,1.93939394 " stroke="rgb(255,204,0)" stroke-width="0.05" fill="none" /> 
<path d="M 5.0,6.09090909 L 5.18181818,6.18181818 L 5.81818182,6.18181818 L 5.81818182,6.81818182 L 5.90909091,7.0 L 5.45454545,7.45454545 L 5.0,7.45454545 L 4.63636364,7.36363636 L 4.09090909,7.0 L 4.54545455,6.54545455 M 5.0,6.09090909 L 4.54545455,6.54545455 " stroke="rgb(255,204,0)" stroke-width="0.05" fill="none" /> 
<path d="M 4.81818182,9.18181818 L 4.18181818,9.18181818 L 4.18181818,9.81818182 L 4.09090909,10.0 L 4.09090909,10.09090909 L 4.09090909,10.90909091 L 4.09090909,11.0 L 4.63636364,11.36363636 L 5.0,11.45454545 L 5.36363636,11.36363636 L 5.90909091,11.0 L 5.90909091,10.90909091 L 5.90909091,10.09090909 L 5.90909091,10.0 L 5.45454545,9.54545455 L 5.0,9.09090909 M 4.81818182,9.18181818 L 5.0,9.09090909 " stroke="rgb(255,204,0)" stroke-width="0.05" fill="none" /> 
<path d="M 6.0,3.90909091 L 5.90909091,3.90909091 L 5.90909091,4.0 L 5.90909091,4.09090909 L 6.0,4.09090909 L 6.06060606,4.06060606 L 6.09090909,4.0 L 6.09090909,3.90909091 M 6.0,3.90909091 L 6.09090909,3.90909091 " stroke="rgb(255,204,0)" stroke-width="0.05" fill="none" /> 
<path d="M 8.81818182,8.18181818 L 9.0,8.09090909 L 9.45454545,8.54545455 L 9.45454545,9.0 L 9.56363636,9.43636364 L 9.81818182,9.81818182 L 9.90909091,10.0 L 9.81818182,10.18181818 L 9.56363636,10.56363636 L 9.45454545,11.0 L 9.56363636,11.43636364 L 9.81818182,11.81818182 L 9.90909091,12.0 M 8.81818182,8.18181818 L 8.18181818,8.18181818 L 8.18181818,8.81818182 L 8.09090909,9.0 L 8.09090909,9.09090909 L 8.09090909,9.90909091 L 8.09090909,10.0 L 8.09090909,10.09090909 L 8.09090909,10.90909091 L 8.09090909,11.0 L 8.09090909,11.09090909 L 8.09090909,11.90909091 L 8.09090909,12.0 " stroke="rgb(255,204,0)" stroke-width="0.05" fill="none" /> 
<path d="M 10.0,6.09090909 L 9.54545455,6.54545455 L 9.09090909,7.0 L 9.18181818,7.18181818 L 9.18181818,7.81818182 L 9.81818182,7.81818182 L 10.0,7.90909091 " stroke="rgb(255,204,0)" stroke-width="0.05" fill="none" /> 
<path d="M 0.81818182,4.18181818 L 0.18181818,4.18181818 L 0.0,4.09090909 M 0.81818182,4.18181818 L 0.81818182,4.81818182 L 0.90909091,5.0 L 0.93939394,5.06060606 L 1.0,5.09090909 L 1.09090909,5.09090909 L 1.90909091,5.09090909 L 2.0,5.09090909 L 2.09090909,5.09090909 L 2.09090909,5.0 L 2.54545455,4.54545455 L 3.0,4.09090909 L 3.45454545,4.54545455 L 3.90909091,5.0 L 3.90909091,5.09090909 L 4.0,5.09090909 L 4.18181818,5.18181818 L 4.81818182,5.18181818 L 4.81818182,5.81818182 L 4.90909091,6.0 L 4.45454545,6.45454545 L 4.0,6.90909091 L 3.90909091,6.90909091 L 3.90909091,7.0 L 3.90909091,7.09090909 L 4.0,7.09090909 L 4.18181818,7.18181818 L 4.56363636,7.43636364 L 5.0,7.54545455 L 5.45454545,7.54545455 L 5.90909091,8.0 L 5.90909091,8.09090909 L 6.0,8.09090909 L 6.09090909,8.09090909 L 6.90909091,8.09090909 L 7.0,8.09090909 L 7.18181818,8.18181818 L 7.81818182,8.18181818 L 7.81818182,8.81818182 L 7.90909091,9.0 L 7.90909091,9.09090909 L 7.90909091,9.90909091 L 7.90909091,10.0 L 7.90909091,10.09090909 L 7.90909091,10.90909091 L 7.90909091,11.0 L 7.90909091,11.09090909 L 7.90909091,11.90909091 L 7.90909091,12.0 " stroke="rgb(255,255,0)" stroke-width="0.05" fill="none" /> 
<path d="M 1.0,7.90909091 L 0.93939394,7.93939394 L 0.90909091,8.0 L 0.45454545,8.45454545 L 0.0,8.90909091 M 1.0,7.90909091 L 1.09090909,7.90909091 L 1.09090909,8.0 L 1.54545455,8.45454545 L 2.0,8.90909091 L 2.09090909,8.90909091 L 2.09090909,9.0 L 2.06060606,9.06060606 L 2.0,9.09090909 L 1.63636364,9.63636364 L 1.54545455,10.0 L 1.43636364,10.43636364 L 1.0,10.54545455 L 0.54545455,10.54545455 L 0.09090909,11.0 L 0.09090909,11.09090909 L 0.09090909,11.90909091 L 0.09090909,12.0 " stroke="rgb(255,255,0)" stroke-width="0.05" fill="none" /> 
<path d="M 2.0,6.90909091 L 1.93939394,6.93939394 L 1.90909091,7.0 L 1.90909091,7.09090909 L 2.0,7.09090909 L 2.09090909,7.09090909 L 2.09090909,7.0 L 2.09090909,6.90909091 M 2.0,6.90909091 L 2.09090909,6.90909091 " stroke="rgb(255,255,0)" stroke-width="0.05" fill="none" /> 
<path d="M 2.0,10.90909091 L 1.81818182,10.81818182 L 1.90909091,11.0 L 1.93939394,11.06060606 L 2.0,11.09090909 L 2.06060606,11.06060606 L 2.09090909,11.0 L 2.06060606,10.93939394 M 2.0,10.90909091 L 2.06060606,10.93939394 " stroke="rgb(255,255,0)" stroke-width="0.05" fill="none" /> 
<path d="M 2.09090909,0.0 L 2.54545455,0.45454545 L 3.0,0.45454545 L 3.45454545,0.45454545 L 3.54545455,0.45454545 L 4.0,0.45454545 L 4.45454545,0.45454545 L 4.54545455,0.45454545 L 5.0,0.45454545 L 5.3030303,0.3030303 L 5.45454545,0.0 " stroke="rgb(255,255,0)" stroke-width="0.05" fill="none" /> 
<path d="M 3.0,5.90909091 L 2.90909091,5.90909091 L 2.90909091,6.0 L 2.90909091,6.09090909 L 3.0,6.09090909 L 3.09090909,6.09090909 L 3.09090909,6.0 L 3.09090909,5.90909091 M 3.0,5.90909091 L 3.09090909,5.90909091 " stroke="rgb(255,255,0)" stroke-width="0.05" fill="none" /> 
<path d="M 3.0,7.90909091 L 3.09090909,7.90909091 L 3.09090909,8.0 L 3.09090909,8.09090909 L 3.0,8.09090909 L 2.90909091,8.09090909 L 2.90909091,8.0 L 2.90909091,7.90909091 M 3.0,7.90909091 L 2.90909091,7.90909091 " stroke="rgb(255,255,0)" stroke-width="0.05" fill="none" /> 
<path d="M 4.0,8.90909091 L 4.09090909,8.90909091 L 4.90909091,8.90909091 L 5.0,8.90909091 L 5.09090909,8.90909091 L 5.09090909,9.0 L 5.54545455,9.45454545 L 6.0,9.90909091 L 6.06060606,9.93939394 L 6.09090909,10.0 L 6.09090909,10.09090909 L 6.09090909,10.90909091 L 6.09090909,11.0 L 6.06060606,11.06060606 L 6.0,11.09090909 L 5.81818182,11.18181818 L 5.43636364,11.43636364 L 5.0,11.54545455 L 4.56363636,11.43636364 L 4.18181818,11.18181818 L 4.0,11.09090909 L 3.93939394,11.06060606 L 3.90909091,11.0 L 3.90909091,10.90909091 L 3.90909091,10.09090909 L 3.90909091,10.0 L 3.90909091,9.90909091 L 3.90909091,9.09090909 L 3.90909091,9.0 L 3.90909091,8.90909091 M 4.0,8.90909091 L 3.90909091,8.90909091 " stroke="rgb(255,255,0)" stroke-width="0.05" fill="none" /> 
<path d="M 6.81818182,6.18181818 L 7.0,6.09090909 L 7.06060606,6.06060606 L 7.09090909,6.0 L 7.54545455,5.54545455 L 8.0,5.09090909 L 8.06060606,5.06060606 L 8.09090909,5.0 L 8.54545455,4.54545455 L 9.0,4.09090909 L 9.09090909,4.09090909 L 9.90909091,4.09090909 L 10.0,4.09090909 M 6.81818182,6.18181818 L 6.18181818,6.18181818 L 6.18181818,6.81818182 L 6.09090909,7.0 L 6.18181818,7.18181818 L 6.18181818,7.81818182 L 6.81818182,7.81818182 L 7.0,7.90909091 L 7.09090909,7.90909091 L 7.90909091,7.90909091 L 8.0,7.90909091 L 8.18181818,7.81818182 L 8.81818182,7.81818182 L 8.81818182,7.18181818 L 8.90909091,7.0 L 8.93939394,6.93939394 L 9.0,6.90909091 L 9.45454545,6.45454545 L 9.90909091,6.0 L 9.93939394,5.93939394 L 10.0,5.90909091 " stroke="rgb(255,255,0)" stroke-width="0.05" fill="none" /> 
<path d="M 8.09090909,0.0 L 8.54545455,0.45454545 L 9.0,0.90909091 L 9.06060606,0.93939394 L 9.09090909,1.0 L 9.09090909,1.09090909 L 9.09090909,1.90909091 L 9.09090909,2.0 L 9.09090909,2.09090909 L 9.09090909,2.90909091 L 9.09090909,3.0 L 9.18181818,3.18181818 L 9.18181818,3.81818182 L 9.81818182,3.81818182 L 10.0,3.90909091 " stroke="rgb(255,255,0)" stroke-width="0.05" fill="none" /> 
<path d="M 10.0,8.09090909 L 9.54545455,8.54545455 L 9.54545455,9.0 L 9.63636364,9.36363636 L 10.0,9.90909091 " stroke="rgb(255,255,0)" stroke-width="0.05" fill="none" /> 
<path d="M 10.0,10.09090909 L 9.63636364,10.63636364 L 9.54545455,11.0 L 9.63636364,11.36363636 L 10.0,11.90909091 " stroke="rgb(255,255,0)" stroke-width="0.05" fill="none" /> 
<path d="M 0.72727273,5.0 L 0.48484848,4.51515152 L 0.0,4.27272727 M 0.72727273,5.0 L 0.81818182,5.18181818 " stroke="rgb(204,255,0)" stroke-width="0.05" fill="none" /> 
<path d="M 1.0,5.27272727 L 0.81818182,5.18181818 M 1.0,5.27272727 L 1.27272727,5.27272727 L 1.72727273,5.27272727 L 2.0,5.27272727 L 2.27272727,5.27272727 L 2.27272727,5.0 L 2.63636364,4.63636364 L 3.0,4.27272727 L 3.36363636,4.63636364 L 3.72727273,5.0 L 3.72727273,5.27272727 L 4.0,5.27272727 L 4.48484848,5.51515152 L 4.72727273,6.0 L 4.36363636,6.36363636 L 4.0,6.72727273 L 3.72727273,6.72727273 L 3.72727273,7.0 L 3.72727273,7.27272727 L 4.0,7.27272727 L 4.48484848,7.51515152 L 4.51515152,7.51515152 L 5.0,7.63636364 L 5.36363636,7.63636364 L 5.72727273,8.0 L 5.72727273,8.27272727 L 6.0,8.27272727 L 6.27272727,8.27272727 L 6.72727273,8.27272727 L 7.0,8.27272727 L 7.48484848,8.51515152 L 7.72727273,9.0 L 7.72727273,9.27272727 L 7.72727273,9.72727273 L 7.72727273,10.0 L 7.72727273,10.27272727 L 7.72727273,10.72727273 L 7.72727273,11.0 L 7.72727273,11.27272727 L 7.72727273,11.72727273 L 7.72727273,12.0 " stroke="rgb(204,255,0)" stroke-width="0.05" fill="none" /> 
<path d="M 1.0,7.72727273 L 0.81818182,7.81818182 M 1.0,7.72727273 L 1.27272727,7.72727273 L 1.27272727,8.0 L 1.63636364,8.36363636 L 2.0,8.72727273 L 2.27272727,8.72727273 L 2.27272727,9.0 L 2.18181818,9.18181818 L 2.0,9.27272727 L 1.70909091,9.70909091 L 1.63636364,10.0 L 1.51515152,10.48484848 L 2.0,10.72727273 L 2.18181818,10.81818182 L 2.27272727,11.0 L 2.18181818,11.18181818 L 2.0,11.27272727 L 1.81818182,11.18181818 L 1.72727273,11.0 L 1.48484848,10.51515152 L 1.0,10.63636364 L 0.63636364,10.63636364 L 0.27272727,11.0 L 0.27272727,11.27272727 L 0.27272727,11.72727273 L 0.27272727,12.0 " stroke="rgb(204,255,0)" stroke-width="0.05" fill="none" /> 
<path d="M 0.72727273,8.0 L 0.81818182,7.81818182 M 0.72727273,8.0 L 0.36363636,8.36363636 L 0.0,8.72727273 " stroke="rgb(204,255,0)" stroke-width="0.05" fill="none" /> 
<path d="M 2.0,6.72727273 L 2.27272727,6.72727273 L 2.27272727,7.0 L 2.27272727,7.27272727 L 2.0,7.27272727 L 1.72727273,7.27272727 L 1.72727273,7.0 L 1.81818182,6.81818182 M 2.0,6.72727273 L 1.81818182,6.81818182 " stroke="rgb(204,255,0)" stroke-width="0.05" fill="none" /> 
<path d="M 2.27272727,0.0 L 2.63636364,0.36363636 L 3.0,0.36363636 L 3.36363636,0.36363636 L 3.63636364,0.36363636 L 4.0,0.36363636 L 4.36363636,0.36363636 L 4.63636364,0.36363636 L 5.0,0.36363636 L 5.24242424,0.24242424 L 5.36363636,0.0 " stroke="rgb(204,255,0)" stroke-width="0.05" fill="none" /> 
<path d="M 3.0,5.72727273 L 2.72727273,5.72727273 L 2.72727273,6.0 L 2.72727273,6.27272727 L 3.0,6.27272727 L 3.27272727,6.27272727 L 3.27272727,6.0 L 3.27272727,5.72727273 M 3.0,5.72727273 L 3.27272727,5.72727273 " stroke="rgb(204,255,0)" stroke-width="0.05" fill="none" /> 
<path d="M 3.0,7.72727273 L 3.27272727,7.72727273 L 3.27272727,8.0 L 3.27272727,8.27272727 L 3.0,8.27272727 L 2.72727273,8.27272727 L 2.72727273,8.0 L 2.72727273,7.72727273 M 3.0,7.72727273 L 2.72727273,7.72727273 " stroke="rgb(204,255,0)" stroke-width="0.05" fill="none" /> 
<path d="M 4.0,8.72727273 L 4.27272727,8.72727273 L 4.72727273,8.72727273 L 5.0,8.72727273 L 5.27272727,8.72727273 L 5.27272727,9.0 L 5.63636364,9.36363636 L 6.0,9.72727273 L 6.18181818,9.81818182 L 6.27272727,10.0 L 6.27272727,10.27272727 L 6.27272727,10.72727273 L 6.27272727,11.0 L 6.18181818,11.18181818 L 6.0,11.27272727 L 5.51515152,11.51515152 L 5.48484848,11.51515152 L 5.0,11.63636364 L 4.51515152,11.51515152 L 4.48484848,11.51515152 L 4.0,11.27272727 L 3.81818182,11.18181818 L 3.72727273,11.0 L 3.72727273,10.72727273 L 3.72727273,10.27272727 L 3.72727273,10.0 L 3.72727273,9.72727273 L 3.72727273,9.27272727 L 3.72727273,9.0 L 3.72727273,8.72727273 M 4.0,8.72727273 L 3.72727273,8.72727273 " stroke="rgb(204,255,0)" stroke-width="0.05" fill="none" /> 
<path d="M 7.0,6.27272727 L 6.51515152,6.51515152 L 6.27272727,7.0 L 6.51515152,7.48484848 L 7.0,7.72727273 L 7.27272727,7.72727273 L 7.72727273,7.72727273 L 8.0,7.72727273 L 8.48484848,7.48484848 L 8.72727273,7.0 L 8.81818182,6.81818182 L 9.0,6.72727273 L 9.36363636,6.36363636 L 9.72727273,6.0 L 9.81818182,5.81818182 L 10.0,5.72727273 M 7.0,6.27272727 L 7.18181818,6.18181818 L 7.27272727,6.0 L 7.63636364,5.63636364 L 8.0,5.27272727 L 8.18181818,5.18181818 L 8.27272727,5.0 L 8.63636364,4.63636364 L 9.0,4.27272727 L 9.27272727,4.27272727 L 9.72727273,4.27272727 L 10.0,4.27272727 " stroke="rgb(204,255,0)" stroke-width="0.05" fill="none" /> 
<path d="M 8.27272727,0.0 L 8.63636364,0.36363636 L 9.0,0.72727273 L 9.18181818,0.81818182 L 9.27272727,1.0 L 9.27272727,1.27272727 L 9.27272727,1.72727273 L 9.27272727,2.0 L 9.27272727,2.27272727 L 9.27272727,2.72727273 L 9.27272727,3.0 L 9.51515152,3.48484848 L 10.0,3.72727273 " stroke="rgb(204,255,0)" stroke-width="0.05" fill="none" /> 
<path d="M 10.0,8.27272727 L 9.63636364,8.63636364 L 9.63636364,9.0 L 9.70909091,9.29090909 L 10.0,9.72727273 " stroke="rgb(204,255,0)" stroke-width="0.05" fill="none" /> 
<path d="M 10.0,10.27272727 L 9.70909091,10.70909091 L 9.63636364,11.0 L 9.70909091,11.29090909 L 10.0,11.72727273 " stroke="rgb(204,255,0)" stroke-width="0.05" fill="none" /> 
<path d="M 0.54545455,5.0 L 0.36363636,4.63636364 L 0.0,4.45454545 M 0.54545455,5.0 L 0.6969697,5.3030303 " stroke="rgb(153,255,0)" stroke-width="0.05" fill="none" /> 
<path d="M 1.0,5.45454545 L 1.45454545,5.45454545 L 1.54545455,5.45454545 L 2.0,5.45454545 L 2.45454545,5.45454545 L 2.45454545,5.0 L 2.72727273,4.72727273 L 3.0,4.45454545 L 3.27272727,4.72727273 L 3.54545455,5.0 L 3.54545455,5.45454545 L 4.0,5.45454545 L 4.36363636,5.63636364 L 4.54545455,6.0 L 4.27272727,6.27272727 L 4.0,6.54545455 L 3.54545455,6.54545455 L 3.54545455,7.0 L 3.54545455,7.45454545 L 4.0,7.45454545 L 4.36363636,7.63636364 L 4.63636364,7.63636364 L 5.0,7.72727273 L 5.27272727,7.72727273 L 5.54545455,8.0 L 5.54545455,8.45454545 L 6.0,8.45454545 L 6.45454545,8.45454545 L 6.54545455,8.45454545 L 7.0,8.45454545 L 7.36363636,8.63636364 L 7.54545455,9.0 L 7.54545455,9.45454545 L 7.54545455,9.54545455 L 7.54545455,10.0 L 7.54545455,10.45454545 L 7.54545455,10.54545455 L 7.54545455,11.0 L 7.54545455,11.45454545 L 7.54545455,11.54545455 L 7.54545455,12.0 M 1.0,5.45454545 L 0.6969697,5.3030303 " stroke="rgb(153,255,0)" stroke-width="0.05" fill="none" /> 
<path d="M 1.0,7.54545455 L 1.45454545,7.54545455 L 1.45454545,8.0 L 1.72727273,8.27272727 L 2.0,8.54545455 L 2.45454545,8.54545455 L 2.45454545,9.0 L 2.3030303,9.3030303 L 2.0,9.45454545 L 1.78181818,9.78181818 L 1.72727273,10.0 L 1.63636364,10.36363636 L 2.0,10.54545455 L 2.3030303,10.6969697 L 2.45454545,11.0 L 2.3030303,11.3030303 L 2.0,11.45454545 L 1.6969697,11.3030303 L 1.54545455,11.0 L 1.36363636,10.63636364 L 1.0,10.72727273 L 0.72727273,10.72727273 L 0.45454545,11.0 L 0.45454545,11.45454545 L 0.45454545,11.54545455 L 0.45454545,12.0 M 1.0,7.54545455 L 0.6969697,7.6969697 " stroke="rgb(153,255,0)" stroke-width="0.05" fill="none" /> 
<path d="M 0.54545455,8.0 L 0.6969697,7.6969697 M 0.54545455,8.0 L 0.27272727,8.27272727 L 0.0,8.54545455 " stroke="rgb(153,255,0)" stroke-width="0.05" fill="none" /> 
<path d="M 2.0,6.54545455 L 1.6969697,6.6969697 L 1.54545455,7.0 L 1.54545455,7.45454545 L 2.0,7.45454545 L 2.45454545,7.45454545 L 2.45454545,7.0 L 2.45454545,6.54545455 M 2.0,6.54545455 L 2.45454545,6.54545455 " stroke="rgb(153,255,0)" stroke-width="0.05" fill="none" /> 
<path d="M 2.45454545,0.0 L 2.72727273,0.27272727 L 3.0,0.27272727 L 3.27272727,0.27272727 L 3.72727273,0.27272727 L 4.0,0.27272727 L 4.27272727,0.27272727 L 4.72727273,0.27272727 L 5.0,0.27272727 L 5.18181818,0.18181818 L 5.27272727,0.0 " stroke="rgb(153,255,0)" stroke-width="0.05" fill="none" /> 
<path d="M 3.0,5.54545455 L 2.54545455,5.54545455 L 2.54545455,6.0 L 2.54545455,6.45454545 L 3.0,6.45454545 L 3.45454545,6.45454545 L 3.45454545,6.0 L 3.45454545,5.54545455 M 3.0,5.54545455 L 3.45454545,5.54545455 " stroke="rgb(153,255,0)" stroke-width="0.05" fill="none" /> 
<path d="M 3.0,7.54545455 L 2.54545455,7.54545455 L 2.54545455,8.0 L 2.54545455,8.45454545 L 3.0,8.45454545 L 3.45454545,8.45454545 L 3.45454545,8.0 L 3.45454545,7.54545455 M 3.0,7.54545455 L 3.45454545,7.54545455 " stroke="rgb(153,255,0)" stroke-width="0.05" fill="none" /> 
<path d="M 4.0,8.54545455 L 4.45454545,8.54545455 L 4.54545455,8.54545455 L 5.0,8.54545455 L 5.45454545,8.54545455 L 5.45454545,9.0 L 5.72727273,9.27272727 L 6.0,9.54545455 L 6.3030303,9.6969697 L 6.45454545,10.0 L 6.45454545,10.45454545 L 6.45454545,10.54545455 L 6.45454545,11.0 L 6.3030303,11.3030303 L 6.0,11.45454545 L 5.63636364,11.63636364 L 5.36363636,11.63636364 L 5.0,11.72727273 L 4.63636364,11.63636364 L 4.36363636,11.63636364 L 4.0,11.45454545 L 3.6969697,11.3030303 L 3.54545455,11.0 L 3.54545455,10.54545455 L 3.54545455,10.45454545 L 3.54545455,10.0 L 3.54545455,9.54545455 L 3.54545455,9.45454545 L 3.54545455,9.0 L 3.54545455,8.54545455 M 4.0,8.54545455 L 3.54545455,8.54545455 " stroke="rgb(153,255,0)" stroke-width="0.05" fill="none" /> 
<path d="M 7.0,6.45454545 L 7.3030303,6.3030303 L 7.45454545,6.0 L 7.72727273,5.72727273 L 8.0,5.45454545 L 8.3030303,5.3030303 L 8.45454545,5.0 L 8.72727273,4.72727273 L 9.0,4.45454545 L 9.45454545,4.45454545 L 9.54545455,4.45454545 L 10.0,4.45454545 M 7.0,6.45454545 L 6.63636364,6.63636364 L 6.45454545,7.0 L 6.63636364,7.36363636 L 7.0,7.54545455 L 7.45454545,7.54545455 L 7.54545455,7.54545455 L 8.0,7.54545455 L 8.36363636,7.36363636 L 8.54545455,7.0 L 8.6969697,6.6969697 L 9.0,6.54545455 L 9.27272727,6.27272727 L 9.54545455,6.0 L 9.6969697,5.6969697 L 10.0,5.54545455 " stroke="rgb(153,255,0)" stroke-width="0.05" fill="none" /> 
<path d="M 8.45454545,0.0 L 8.72727273,0.27272727 L 9.0,0.54545455 L 9.3030303,0.6969697 L 9.45454545,1.0 L 9.45454545,1.45454545 L 9.45454545,1.54545455 L 9.45454545,2.0 L 9.45454545,2.45454545 L 9.45454545,2.54545455 L 9.45454545,3.0 L 9.63636364,3.36363636 L 10.0,3.54545455 " stroke="rgb(153,255,0)" stroke-width="0.05" fill="none" /> 
<path d="M 10.0,8.45454545 L 9.72727273,8.72727273 L 9.72727273,9.0 L 9.78181818,9.21818182 L 10.0,9.54545455 " stroke="rgb(153,255,0)" stroke-width="0.05" fill="none" /> 
<path d="M 10.0,10.45454545 L 9.78181818,10.78181818 L 9.72727273,11.0 L 9.78181818,11.21818182 L 10.0,11.54545455 " stroke="rgb(153,255,0)" stroke-width="0.05" fill="none" /> 
<path d="M 0.36363636,5.0 L 0.57575758,5.42424242 L 1.0,5.63636364 L 1.36363636,5.63636364 L 1.63636364,5.63636364 L 2.0,5.63636364 L 2.36363636,5.63636364 L 2.36363636,6.0 L 2.36363636,6.36363636 L 2.0,6.36363636 L 1.57575758,6.57575758 L 1.36363636,7.0 L 1.36363636,7.36363636 L 1.0,7.36363636 L 0.57575758,7.57575758 L 0.36363636,8.0 L 0.18181818,8.18181818 L 0.0,8.36363636 M 0.36363636,5.0 L 0.24242424,4.75757576 L 0.0,4.63636364 " stroke="rgb(102,255,0)" stroke-width="0.05" fill="none" /> 
<path d="M 1.0,10.81818182 L 0.81818182,10.81818182 L 0.63636364,11.0 L 0.63636364,11.36363636 L 0.63636364,11.63636364 L 0.63636364,12.0 M 1.0,10.81818182 L 1.24242424,10.75757576 L 1.36363636,11.0 L 1.57575758,11.42424242 L 2.0,11.63636364 L 2.42424242,11.42424242 L 2.63636364,11.0 L 2.42424242,10.57575758 L 2.0,10.36363636 L 1.75757576,10.24242424 L 1.81818182,10.0 L 1.85454545,9.85454545 L 2.0,9.63636364 L 2.42424242,9.42424242 L 2.63636364,9.0 L 2.63636364,8.63636364 L 3.0,8.63636364 L 3.36363636,8.63636364 L 3.36363636,9.0 L 3.36363636,9.36363636 L 3.36363636,9.63636364 L 3.36363636,10.0 L 3.36363636,10.36363636 L 3.36363636,10.63636364 L 3.36363636,11.0 L 3.57575758,11.42424242 L 4.0,11.63636364 L 4.24242424,11.75757576 L 4.75757576,11.75757576 L 5.0,11.81818182 L 5.24242424,11.75757576 L 5.75757576,11.75757576 L 6.0,11.63636364 L 6.42424242,11.42424242 L 6.63636364,11.0 L 6.63636364,10.63636364 L 6.63636364,10.36363636 L 6.63636364,10.0 L 6.42424242,9.57575758 L 6.0,9.36363636 L 5.81818182,9.18181818 L 5.63636364,9.0 L 5.63636364,8.63636364 L 6.0,8.63636364 L 6.36363636,8.63636364 L 6.63636364,8.63636364 L 7.0,8.63636364 L 7.24242424,8.75757576 L 7.36363636,9.0 L 7.36363636,9.36363636 L 7.36363636,9.63636364 L 7.36363636,10.0 L 7.36363636,10.36363636 L 7.36363636,10.63636364 L 7.36363636,11.0 L 7.36363636,11.36363636 L 7.36363636,11.63636364 L 7.36363636,12.0 " stroke="rgb(102,255,0)" stroke-width="0.05" fill="none" /> 
<path d="M 2.0,7.63636364 L 1.63636364,7.63636364 L 1.63636364,8.0 L 1.81818182,8.18181818 L 2.0,8.36363636 L 2.36363636,8.36363636 L 2.36363636,8.0 L 2.36363636,7.63636364 M 2.0,7.63636364 L 2.36363636,7.63636364 " stroke="rgb(102,255,0)" stroke-width="0.05" fill="none" /> 
<path d="M 2.63636364,0.0 L 2.81818182,0.18181818 L 3.0,0.18181818 L 3.18181818,0.18181818 L 3.81818182,0.18181818 L 4.0,0.18181818 L 4.18181818,0.18181818 L 4.81818182,0.18181818 L 5.0,0.18181818 L 5.12121212,0.12121212 L 5.18181818,0.0 " stroke="rgb(102,255,0)" stroke-width="0.05" fill="none" /> 
<path d="M 3.0,4.63636364 L 2.81818182,4.81818182 L 2.63636364,5.0 L 2.63636364,5.36363636 L 3.0,5.36363636 L 3.36363636,5.36363636 L 3.36363636,5.0 L 3.18181818,4.81818182 M 3.0,4.63636364 L 3.18181818,4.81818182 " stroke="rgb(102,255,0)" stroke-width="0.05" fill="none" /> 
<path d="M 3.0,6.63636364 L 2.63636364,6.63636364 L 2.63636364,7.0 L 2.63636364,7.36363636 L 3.0,7.36363636 L 3.36363636,7.36363636 L 3.36363636,7.0 L 3.36363636,6.63636364 M 3.0,6.63636364 L 3.36363636,6.63636364 " stroke="rgb(102,255,0)" stroke-width="0.05" fill="none" /> 
<path d="M 4.0,5.63636364 L 4.24242424,5.75757576 L 4.36363636,6.0 L 4.18181818,6.18181818 L 4.0,6.36363636 L 3.63636364,6.36363636 L 3.63636364,6.0 L 3.63636364,5.63636364 M 4.0,5.63636364 L 3.63636364,5.63636364 " stroke="rgb(102,255,0)" stroke-width="0.05" fill="none" /> 
<path d="M 4.0,7.63636364 L 3.63636364,7.63636364 L 3.63636364,8.0 L 3.63636364,8.36363636 L 4.0,8.36363636 L 4.36363636,8.36363636 L 4.63636364,8.36363636 L 5.0,8.36363636 L 5.36363636,8.36363636 L 5.36363636,8.0 L 5.18181818,7.81818182 L 5.0,7.81818182 L 4.75757576,7.75757576 L 4.24242424,7.75757576 M 4.0,7.63636364 L 4.24242424,7.75757576 " stroke="rgb(102,255,0)" stroke-width="0.05" fill="none" /> 
<path d="M 7.0,6.63636364 L 7.42424242,6.42424242 L 7.63636364,6.0 L 7.81818182,5.81818182 L 8.0,5.63636364 L 8.42424242,5.42424242 L 8.63636364,5.0 L 8.81818182,4.81818182 L 9.0,4.63636364 L 9.36363636,4.63636364 L 9.63636364,4.63636364 L 10.0,4.63636364 M 7.0,6.63636364 L 6.75757576,6.75757576 L 6.63636364,7.0 L 6.75757576,7.24242424 L 7.0,7.36363636 L 7.36363636,7.36363636 L 7.63636364,7.36363636 L 8.0,7.36363636 L 8.24242424,7.24242424 L 8.36363636,7.0 L 8.57575758,6.57575758 L 9.0,6.36363636 L 9.18181818,6.18181818 L 9.36363636,6.0 L 9.57575758,5.57575758 L 10.0,5.36363636 " stroke="rgb(102,255,0)" stroke-width="0.05" fill="none" /> 
<path d="M 8.63636364,0.0 L 8.81818182,0.18181818 L 9.0,0.36363636 L 9.42424242,0.57575758 L 9.63636364,1.0 L 9.63636364,1.36363636 L 9.63636364,1.63636364 L 9.63636364,2.0 L 9.63636364,2.36363636 L 9.63636364,2.63636364 L 9.63636364,3.0 L 9.75757576,3.24242424 L 10.0,3.36363636 " stroke="rgb(102,255,0)" stroke-width="0.05" fill="none" /> 
<path d="M 10.0,8.63636364 L 9.81818182,8.81818182 L 9.81818182,9.0 L 9.85454545,9.14545455 L 10.0,9.36363636 " stroke="rgb(102,255,0)" stroke-width="0.05" fill="none" /> 
<path d="M 10.0,10.63636364 L 9.85454545,10.85454545 L 9.81818182,11.0 L 9.85454545,11.14545455 L 10.0,11.36363636 " stroke="rgb(102,255,0)" stroke-width="0.05" fill="none" /> 
<path d="M 0.18181818,5.0 L 0.12121212,4.87878788 L 0.0,4.81818182 M 0.18181818,5.0 L 0.36363636,5.36363636 L 0.36363636,5.63636364 L 0.63636364,5.63636364 L 1.0,5.81818182 L 1.18181818,5.81818182 L 1.81818182,5.81818182 L 2.0,5.81818182 L 2.18181818,5.81818182 L 2.18181818,6.0 L 2.18181818,6.18181818 L 2.0,6.18181818 L 1.63636364,6.36363636 L 1.36363636,6.36363636 L 1.36363636,6.63636364 L 1.18181818,7.0 L 1.18181818,7.18181818 L 1.0,7.18181818 L 0.63636364,7.36363636 L 0.36363636,7.36363636 L 0.36363636,7.63636364 L 0.18181818,8.0 L 0.09090909,8.09090909 L 0.0,8.18181818 " stroke="rgb(51,255,0)" stroke-width="0.05" fill="none" /> 
<path d="M 1.0,10.90909091 L 0.90909091,10.90909091 L 0.81818182,11.0 L 0.81818182,11.18181818 L 0.81818182,11.81818182 L 0.81818182,12.0 M 1.0,10.90909091 L 1.12121212,10.87878788 L 1.18181818,11.0 L 1.36363636,11.36363636 L 1.36363636,11.63636364 L 1.63636364,11.63636364 L 2.0,11.81818182 L 2.36363636,11.63636364 L 2.63636364,11.63636364 L 2.63636364,11.36363636 L 2.81818182,11.0 L 2.63636364,10.63636364 L 2.63636364,10.36363636 L 2.36363636,10.36363636 L 2.0,10.18181818 L 1.87878788,10.12121212 L 1.90909091,10.0 L 1.92727273,9.92727273 L 2.0,9.81818182 L 2.36363636,9.63636364 L 2.63636364,9.63636364 L 2.63636364,9.36363636 L 2.81818182,9.0 L 2.81818182,8.81818182 L 3.0,8.81818182 L 3.18181818,8.81818182 L 3.18181818,9.0 L 3.18181818,9.18181818 L 3.18181818,9.81818182 L 3.18181818,10.0 L 3.18181818,10.18181818 L 3.18181818,10.81818182 L 3.18181818,11.0 L 3.36363636,11.36363636 L 3.36363636,11.63636364 L 3.63636364,11.63636364 L 4.0,11.81818182 L 4.12121212,11.87878788 L 4.87878788,11.87878788 L 5.0,11.90909091 L 5.12121212,11.87878788 L 5.87878788,11.87878788 L 6.0,11.81818182 L 6.36363636,11.63636364 L 6.63636364,11.63636364 L 6.63636364,11.36363636 L 6.81818182,11.0 L 6.81818182,10.81818182 L 6.81818182,10.18181818 L 6.81818182,10.0 L 6.63636364,9.63636364 L 6.63636364,9.36363636 L 6.36363636,9.36363636 L 6.0,9.18181818 L 5.90909091,9.09090909 L 5.81818182,9.0 L 5.81818182,8.81818182 L 6.0,8.81818182 L 6.18181818,8.81818182 L 6.81818182,8.81818182 L 7.0,8.81818182 L 7.12121212,8.87878788 L 7.18181818,9.0 L 7.18181818,9.18181818 L 7.18181818,9.81818182 L 7.18181818,10.0 L 7.18181818,10.18181818 L 7.18181818,10.81818182 L 7.18181818,11.0 L 7.18181818,11.18181818 L 7.18181818,11.81818182 L 7.18181818,12.0 " stroke="rgb(51,255,0)" stroke-width="0.05" fill="none" /> 
<path d="M 2.0,7.81818182 L 2.18181818,7.81818182 L 2.18181818,8.0 L 2.18181818,8.18181818 L 2.0,8.18181818 L 1.90909091,8.09090909 L 1.81818182,8.0 L 1.81818182,7.81818182 M 2.0,7.81818182 L 1.81818182,7.81818182 " stroke="rgb(51,255,0)" stroke-width="0.05" fill="none" /> 
<path d="M 2.81818182,0.0 L 2.90909091,0.09090909 L 3.0,0.09090909 L 3.09090909,0.09090909 L 3.90909091,0.09090909 L 4.0,0.09090909 L 4.09090909,0.09090909 L 4.90909091,0.09090909 L 5.0,0.09090909 L 5.06060606,0.06060606 L 5.09090909,0.0 " stroke="rgb(51,255,0)" stroke-width="0.05" fill="none" /> 
<path d="M 3.0,4.81818182 L 3.09090909,4.90909091 L 3.18181818,5.0 L 3.18181818,5.18181818 L 3.0,5.18181818 L 2.81818182,5.18181818 L 2.81818182,5.0 L 2.90909091,4.90909091 M 3.0,4.81818182 L 2.90909091,4.90909091 " stroke="rgb(51,255,0)" stroke-width="0.05" fill="none" /> 
<path d="M 3.0,6.81818182 L 2.81818182,6.81818182 L 2.81818182,7.0 L 2.81818182,7.18181818 L 3.0,7.18181818 L 3.18181818,7.18181818 L 3.18181818,7.0 L 3.18181818,6.81818182 M 3.0,6.81818182 L 3.18181818,6.81818182 " stroke="rgb(51,255,0)" stroke-width="0.05" fill="none" /> 
<path d="M 4.0,5.81818182 L 3.81818182,5.81818182 L 3.81818182,6.0 L 3.81818182,6.18181818 L 4.0,6.18181818 L 4.09090909,6.09090909 L 4.18181818,6.0 L 4.12121212,5.87878788 M 4.0,5.81818182 L 4.12121212,5.87878788 " stroke="rgb(51,255,0)" stroke-width="0.05" fill="none" /> 
<path d="M 4.0,7.81818182 L 3.81818182,7.81818182 L 3.81818182,8.0 L 3.81818182,8.18181818 L 4.0,8.18181818 L 4.18181818,8.18181818 L 4.81818182,8.18181818 L 5.0,8.18181818 L 5.18181818,8.18181818 L 5.18181818,8.0 L 5.09090909,7.90909091 L 5.0,7.90909091 L 4.87878788,7.87878788 L 4.12121212,7.87878788 M 4.0,7.81818182 L 4.12121212,7.87878788 " stroke="rgb(51,255,0)" stroke-width="0.05" fill="none" /> 
<path d="M 7.0,6.81818182 L 6.87878788,6.87878788 L 6.81818182,7.0 L 6.87878788,7.12121212 L 7.0,7.18181818 L 7.18181818,7.18181818 L 7.81818182,7.18181818 L 8.0,7.18181818 L 8.12121212,7.12121212 L 8.18181818,7.0 L 8.36363636,6.63636364 L 8.36363636,6.36363636 L 8.63636364,6.36363636 L 9.0,6.18181818 L 9.09090909,6.09090909 L 9.18181818,6.0 L 9.36363636,5.63636364 L 9.36363636,5.36363636 L 9.63636364,5.36363636 L 10.0,5.18181818 M 7.0,6.81818182 L 7.36363636,6.63636364 L 7.63636364,6.63636364 L 7.63636364,6.36363636 L 7.81818182,6.0 L 7.90909091,5.90909091 L 8.0,5.81818182 L 8.36363636,5.63636364 L 8.63636364,5.63636364 L 8.63636364,5.36363636 L 8.81818182,5.0 L 8.90909091,4.90909091 L 9.0,4.81818182 L 9.18181818,4.81818182 L 9.81818182,4.81818182 L 10.0,4.81818182 " stroke="rgb(51,255,0)" stroke-width="0.05" fill="none" /> 
<path d="M 8.81818182,0.0 L 8.90909091,0.09090909 L 9.0,0.18181818 L 9.36363636,0.36363636 L 9.63636364,0.36363636 L 9.63636364,0.63636364 L 9.81818182,1.0 L 9.81818182,1.18181818 L 9.81818182,1.81818182 L 9.81818182,2.0 L 9.81818182,2.18181818 L 9.81818182,2.81818182 L 9.81818182,3.0 L 9.87878788,3.12121212 L 10.0,3.18181818 " stroke="rgb(51,255,0)" stroke-width="0.05" fill="none" /> 
<path d="M 10.0,8.81818182 L 9.90909091,8.90909091 L 9.90909091,9.0 L 9.92727273,9.07272727 L 10.0,9.18181818 " stroke="rgb(51,255,0)" stroke-width="0.05" fill="none" /> 
<path d="M 10.0,10.81818182 L 9.92727273,10.92727273 L 9.90909091,11.0 L 9.92727273,11.07272727 L 10.0,11.18181818 " stroke="rgb(51,255,0)" stroke-width="0.05" fill="none" /> 
</svg>