<svg xmlns="http://www.w3.org/2000/svg" version="1.1" x="1" y="1" width="20.0" height="20.0"> 
	<path d="M 12.98,0.00 C 13.23 1.74, 14.16 2.28, 13.47 3.47 C 12.74 4.75, 11.78 4.32, 10.00 4.87 C 7.95 5.51, 7.87 5.24, 5.79 5.79 C 4.62 6.11, 4.65 6.20, 3.48 6.53 C 1.76 7.03, 1.74 6.98, 0.00 7.43 " stroke="rgb(255,255,0)" stroke-width="0.05" fill="none" /> 
	<path d="M 0.00,13.59 C 1.56 13.35, 1.58 13.01, 3.11 13.11 C 4.60 13.20, 4.54 13.81, 6.04 13.97 C 7.98 14.18, 8.09 14.13, 10.00 13.70 C 11.38 13.39, 11.42 13.34, 12.65 12.65 C 14.56 11.58, 15.01 11.73, 16.20 10.00 C 17.02 8.80, 16.08 7.57, 17.03 7.03 C 17.98 6.49, 18.52 7.44, 20.00 7.85 " stroke="rgb(255,255,0)" stroke-width="0.05" fill="none" /> 
</svg>