<svg xmlns="http://www.w3.org/2000/svg" version="1.1" x="1" y="1" width="120.0" height="100.0"> 
	<path d="M 33.33,0.00 L 32.22,2.22 L 30.00,3.33 L 26.67,3.33 L 23.33,3.33 L 20.00,3.33 L 15.56,5.56 L 13.33,10.00 L 13.33,13.33 L 10.00,13.33 L 7.78,12.22 L 6.67,10.00 L 4.44,5.56 L 0.00,3.33 " stroke="rgb(255,85,0)" stroke-width="0.50" fill="none" /> 
	<path d="M 27.78,57.78 L 26.67,60.00 L 27.78,62.22 L 30.00,63.33 L 33.33,63.33 L 33.33,60.00 L 33.33,56.67 L 30.00,56.67 L 27.78,57.78 " stroke="rgb(255,85,0)" stroke-width="0.70" fill="none" /> 
	<path d="M 30.00,36.67 L 33.33,36.67 L 36.67,36.67 L 40.00,36.67 L 41.67,38.33 L 43.33,40.00 L 43.33,43.33 L 43.33,46.67 L 43.33,50.00 L 43.33,53.33 L 40.00,53.33 L 36.67,53.33 L 36.67,50.00 L 34.44,45.56 L 30.00,43.33 L 27.78,42.22 L 26.67,40.00 L 26.67,36.67 L 30.00,36.67 " stroke="rgb(255,85,0)" stroke-width="0.90" fill="none" /> 
	<path d="M 97.78,47.78 L 96.67,50.00 L 98.33,51.67 L 100.00,53.33 L 103.33,53.33 L 106.67,53.33 L 110.00,53.33 L 111.33,51.33 L 111.67,50.00 L 111.33,48.67 L 110.00,46.67 L 106.67,46.67 L 103.33,46.67 L 100.00,46.67 L 97.78,47.78 " stroke="rgb(255,85,0)" stroke-width="1.10" fill="none" /> 
	<path d="M 90.00,6.67 L 93.33,6.67 L 96.67,6.67 L 100.00,6.67 L 101.67,8.33 L 101.67,10.00 L 101.33,11.33 L 100.00,11.67 L 97.78,12.22 L 92.22,12.22 L 90.00,13.33 L 88.33,11.67 L 86.67,10.00 L 88.33,8.33 L 90.00,6.67 " stroke="rgb(255,85,0)" stroke-width="1.30" fill="none" /> 
	<path d="M 120.00,93.33 L 117.78,92.22 L 112.22,92.22 L 110.00,91.67 L 107.78,92.22 L 102.22,92.22 L 100.00,93.33 L 97.78,92.22 L 92.22,92.22 L 90.00,91.67 L 88.33,91.67 L 86.67,90.00 L 87.78,87.78 L 90.00,86.67 L 93.33,86.67 L 96.67,86.67 L 100.00,86.67 L 103.33,86.67 L 106.67,86.67 L 110.00,86.67 L 113.33,86.67 L 116.67,86.67 L 120.00,86.67 " stroke="rgb(255,85,0)" stroke-width="1.50" fill="none" /> 
	<path d="M 70.00,46.67 L 71.33,48.67 L 71.67,50.00 L 71.67,51.67 L 70.00,53.33 L 67.78,52.22 L 66.67,50.00 L 68.33,48.33 L 70.00,46.67 " stroke="rgb(255,85,0)" stroke-width="0.70" fill="none" /> 
	<path d="M 73.33,100.00 L 72.22,97.78 L 70.00,96.67 L 68.33,98.33 L 66.67,100.00 " stroke="rgb(255,85,0)" stroke-width="0.90" fill="none" /> 
	<path d="M 0.00,58.33 L 3.33,56.67 L 6.67,56.67 L 6.67,53.33 L 8.33,50.00 L 8.33,48.33 L 8.33,41.67 L 8.33,40.00 L 8.33,38.33 L 8.33,31.67 L 8.33,30.00 L 8.33,28.33 L 10.00,26.67 L 14.44,24.44 L 16.67,20.00 L 16.67,16.67 L 20.00,16.67 L 23.33,16.67 L 26.67,16.67 L 30.00,16.67 L 33.33,16.67 L 36.67,16.67 L 40.00,16.67 L 42.22,17.78 L 43.33,20.00 L 41.67,21.67 L 40.00,23.33 L 36.67,23.33 L 33.33,23.33 L 30.00,23.33 L 25.56,25.56 L 23.33,30.00 L 23.33,33.33 L 20.00,33.33 L 15.56,35.56 L 13.33,40.00 L 13.33,43.33 L 13.33,46.67 L 13.33,50.00 L 13.33,53.33 L 13.33,56.67 L 13.33,60.00 L 13.33,63.33 L 13.33,66.67 L 13.33,70.00 L 15.56,74.44 L 20.00,76.67 L 23.33,76.67 L 26.67,76.67 L 30.00,76.67 L 34.44,74.44 L 36.67,70.00 L 36.67,66.67 L 40.00,66.67 L 44.44,64.44 L 46.67,60.00 L 46.67,56.67 L 50.00,56.67 L 52.22,57.78 L 53.33,60.00 L 53.33,63.33 L 53.33,66.67 L 53.33,70.00 L 51.67,71.67 L 50.00,73.33 L 45.56,75.56 L 43.33,80.00 L 41.67,81.67 L 40.00,83.33 L 36.67,83.33 L 33.33,83.33 L 30.00,83.33 L 26.67,83.33 L 23.33,83.33 L 20.00,83.33 L 16.67,83.33 L 13.33,83.33 L 10.00,83.33 L 8.33,81.67 L 6.67,80.00 L 4.44,75.56 L 0.00,73.33 " stroke="rgb(255,85,0)" stroke-width="1.10" fill="none" /> 
	<path d="M 120.00,83.33 L 116.67,83.33 L 113.33,83.33 L 110.00,83.33 L 106.67,83.33 L 103.33,83.33 L 100.00,83.33 L 96.67,83.33 L 93.33,83.33 L 90.00,83.33 L 85.56,85.56 L 83.33,90.00 L 86.67,93.33 L 90.00,93.33 L 94.44,94.44 L 95.56,94.44 L 100.00,96.67 L 104.44,94.44 L 105.56,94.44 L 110.00,93.33 L 114.44,94.44 L 115.56,94.44 L 120.00,96.67 " stroke="rgb(255,170,0)" stroke-width="0.50" fill="none" /> 
	<path d="M 40.00,56.67 L 43.33,56.67 L 43.33,60.00 L 42.22,62.22 L 40.00,63.33 L 36.67,63.33 L 36.67,60.00 L 36.67,56.67 L 40.00,56.67 " stroke="rgb(255,170,0)" stroke-width="0.70" fill="none" /> 
	<path d="M 100.00,43.33 L 103.33,43.33 L 106.67,43.33 L 110.00,43.33 L 112.67,47.33 L 113.33,50.00 L 112.67,52.67 L 110.00,56.67 L 106.67,56.67 L 103.33,56.67 L 100.00,56.67 L 96.67,53.33 L 93.33,50.00 L 95.56,45.56 L 100.00,43.33 " stroke="rgb(255,170,0)" stroke-width="0.90" fill="none" /> 
	<path d="M 90.00,3.33 L 93.33,3.33 L 96.67,3.33 L 100.00,3.33 L 103.33,6.67 L 103.33,10.00 L 102.67,12.67 L 100.00,13.33 L 95.56,14.44 L 94.44,14.44 L 90.00,16.67 L 86.67,13.33 L 83.33,10.00 L 86.67,6.67 L 90.00,3.33 " stroke="rgb(255,170,0)" stroke-width="1.10" fill="none" /> 
	<path d="M 0.00,56.67 L 4.44,54.44 L 6.67,50.00 L 6.67,46.67 L 6.67,43.33 L 6.67,40.00 L 6.67,36.67 L 6.67,33.33 L 6.67,30.00 L 6.67,26.67 L 10.00,23.33 L 12.22,22.22 L 13.33,20.00 L 13.33,16.67 L 10.00,16.67 L 5.56,14.44 L 3.33,10.00 L 2.22,7.78 L 0.00,6.67 " stroke="rgb(255,170,0)" stroke-width="1.30" fill="none" /> 
	<path d="M 17.78,37.78 L 16.67,40.00 L 16.67,43.33 L 16.67,46.67 L 16.67,50.00 L 16.67,53.33 L 16.67,56.67 L 16.67,60.00 L 16.67,63.33 L 16.67,66.67 L 16.67,70.00 L 17.78,72.22 L 20.00,73.33 L 23.33,73.33 L 26.67,73.33 L 30.00,73.33 L 32.22,72.22 L 33.33,70.00 L 33.33,66.67 L 30.00,66.67 L 25.56,64.44 L 23.33,60.00 L 25.56,55.56 L 30.00,53.33 L 33.33,53.33 L 33.33,50.00 L 32.22,47.78 L 30.00,46.67 L 25.56,44.44 L 23.33,40.00 L 23.33,36.67 L 20.00,36.67 L 17.78,37.78 " stroke="rgb(255,170,0)" stroke-width="1.50" fill="none" /> 
	<path d="M 76.67,100.00 L 74.44,95.56 L 70.00,93.33 L 66.67,96.67 L 63.33,100.00 " stroke="rgb(255,170,0)" stroke-width="0.70" fill="none" /> 
	<path d="M 66.67,46.67 L 63.33,50.00 L 65.56,54.44 L 70.00,56.67 L 73.33,53.33 L 73.33,50.00 L 72.67,47.33 L 70.00,43.33 L 66.67,46.67 " stroke="rgb(255,170,0)" stroke-width="0.90" fill="none" /> 
	<path d="M 36.67,0.00 L 34.44,4.44 L 30.00,6.67 L 26.67,6.67 L 23.33,6.67 L 20.00,6.67 L 17.78,7.78 L 16.67,10.00 L 16.67,13.33 L 20.00,13.33 L 23.33,13.33 L 26.67,13.33 L 30.00,13.33 L 33.33,13.33 L 36.67,13.33 L 40.00,13.33 L 44.44,15.56 L 46.67,20.00 L 43.33,23.33 L 40.00,26.67 L 36.67,26.67 L 33.33,26.67 L 30.00,26.67 L 27.78,27.78 L 26.67,30.00 L 26.67,33.33 L 30.00,33.33 L 33.33,33.33 L 36.67,33.33 L 40.00,33.33 L 43.33,36.67 L 46.67,40.00 L 46.67,43.33 L 46.67,46.67 L 46.67,50.00 L 46.67,53.33 L 50.00,53.33 L 54.44,55.56 L 56.67,60.00 L 56.67,63.33 L 56.67,66.67 L 56.67,70.00 L 53.33,73.33 L 50.00,76.67 L 47.78,77.78 L 46.67,80.00 L 43.33,83.33 L 40.00,86.67 L 36.67,86.67 L 33.33,86.67 L 30.00,86.67 L 26.67,86.67 L 23.33,86.67 L 20.00,86.67 L 16.67,86.67 L 13.33,86.67 L 10.00,86.67 L 6.67,83.33 L 3.33,80.00 L 2.22,77.78 L 0.00,76.67 " stroke="rgb(255,170,0)" stroke-width="1.10" fill="none" /> 
	<path d="M 85.00,95.00 L 80.00,90.00 " stroke="rgb(255,255,0)" stroke-width="0.50" fill="none" /> 
	<path d="M 75.00,55.00 L 75.00,50.00 L 74.00,46.00 L 70.00,40.00 L 65.00,45.00 L 60.00,50.00 " stroke="rgb(255,255,0)" stroke-width="0.70" fill="none" /> 
	<path d="M 80.00,60.00 L 80.00,70.00 L 80.00,80.00 " stroke="rgb(255,255,0)" stroke-width="0.90" fill="none" /> 
	<path d="M 20.00,50.00 L 20.00,60.00 L 20.00,70.00 L 30.00,70.00 " stroke="rgb(255,255,0)" stroke-width="1.10" fill="none" /> 
	<path d="M 0.00,20.00 L 0.00,10.00 " stroke="rgb(255,255,0)" stroke-width="1.30" fill="none" /> 
	<path d="M 20.00,50.00 L 30.00,50.00 " stroke="rgb(255,255,0)" stroke-width="1.50" fill="none" /> 
	<path d="M 90.00,40.00 L 100.00,40.00 L 110.00,40.00 L 114.00,46.00 L 115.00,50.00 L 114.00,54.00 L 110.00,60.00 L 100.00,60.00 L 95.00,55.00 L 90.00,50.00 L 90.00,40.00 " stroke="rgb(255,255,0)" stroke-width="0.70" fill="none" /> 
	<path d="M 85.00,95.00 L 90.00,95.00 L 94.00,96.00 L 100.00,100.00 L 106.00,96.00 L 110.00,95.00 L 114.00,96.00 L 120.00,100.00 " stroke="rgb(255,255,0)" stroke-width="0.90" fill="none" /> 
	<path d="M 20.00,50.00 L 20.00,40.00 " stroke="rgb(255,255,0)" stroke-width="1.10" fill="none" /> 
	<path d="M 60.00,60.00 L 60.00,50.00 " stroke="rgb(255,255,0)" stroke-width="1.30" fill="none" /> 
	<path d="M 60.00,60.00 L 70.00,60.00 " stroke="rgb(255,255,0)" stroke-width="1.50" fill="none" /> 
	<path d="M 70.00,60.00 L 75.00,55.00 " stroke="rgb(255,255,0)" stroke-width="0.70" fill="none" /> 
	<path d="M 75.00,55.00 L 80.00,60.00 " stroke="rgb(255,255,0)" stroke-width="0.90" fill="none" /> 
	<path d="M 0.00,20.00 L 10.00,20.00 L 5.00,25.00 " stroke="rgb(255,255,0)" stroke-width="1.10" fill="none" /> 
	<path d="M 40.00,90.00 L 40.00,100.00 " stroke="rgb(255,255,0)" stroke-width="1.30" fill="none" /> 
	<path d="M 80.00,80.00 L 80.00,90.00 " stroke="rgb(255,255,0)" stroke-width="1.50" fill="none" /> 
	<path d="M 80.00,60.00 L 70.00,60.00 " stroke="rgb(255,255,0)" stroke-width="0.70" fill="none" /> 
	<path d="M 105.00,5.00 L 110.00,0.00 L 120.00,0.00 " stroke="rgb(255,255,0)" stroke-width="0.90" fill="none" /> 
	<path d="M 40.00,90.00 L 30.00,90.00 L 20.00,90.00 L 10.00,90.00 L 5.00,85.00 L 0.00,80.00 " stroke="rgb(255,255,0)" stroke-width="1.10" fill="none" /> 
	<path d="M 40.00,30.00 L 30.00,30.00 " stroke="rgb(255,255,0)" stroke-width="1.30" fill="none" /> 
	<path d="M 5.00,25.00 L 5.00,30.00 L 5.00,35.00 L 5.00,40.00 L 5.00,45.00 L 5.00,50.00 L 3.33,53.33 L 0.00,55.00 " stroke="rgb(255,255,0)" stroke-width="1.50" fill="none" /> 
	<path d="M 80.00,90.00 L 80.00,100.00 L 85.00,95.00 " stroke="rgb(255,255,0)" stroke-width="0.70" fill="none" /> 
	<path d="M 40.00,10.00 L 40.00,0.00 " stroke="rgb(255,255,0)" stroke-width="0.90" fill="none" /> 
	<path d="M 40.00,10.00 L 50.00,10.00 L 50.00,20.00 L 45.00,25.00 L 40.00,30.00 " stroke="rgb(255,255,0)" stroke-width="1.10" fill="none" /> 
	<path d="M 40.00,30.00 L 45.00,35.00 L 50.00,40.00 L 50.00,50.00 L 60.00,50.00 " stroke="rgb(255,255,0)" stroke-width="1.30" fill="none" /> 
	<path d="M 40.00,10.00 L 30.00,10.00 L 20.00,10.00 " stroke="rgb(255,255,0)" stroke-width="1.50" fill="none" /> 
	<path d="M 80.00,90.00 L 70.00,90.00 L 65.00,95.00 L 60.00,100.00 " stroke="rgb(255,255,0)" stroke-width="0.70" fill="none" /> 
	<path d="M 80.00,80.00 L 90.00,80.00 L 100.00,80.00 L 110.00,80.00 L 120.00,80.00 " stroke="rgb(255,255,0)" stroke-width="0.90" fill="none" /> 
	<path d="M 5.00,25.00 L 0.00,20.00 " stroke="rgb(255,255,0)" stroke-width="1.10" fill="none" /> 
	<path d="M 60.00,60.00 L 60.00,70.00 L 55.00,75.00 L 50.00,80.00 L 45.00,85.00 L 40.00,90.00 " stroke="rgb(255,255,0)" stroke-width="1.30" fill="none" /> 
	<path d="M 105.00,5.00 L 100.00,0.00 L 90.00,0.00 L 85.00,5.00 L 80.00,10.00 L 85.00,15.00 L 90.00,20.00 L 96.00,16.00 L 100.00,15.00 L 104.00,14.00 L 105.00,10.00 L 105.00,5.00 " stroke="rgb(255,255,0)" stroke-width="1.50" fill="none" /> 
	<path d="M 120.00,76.67 L 116.67,76.67 L 113.33,76.67 L 110.00,76.67 L 106.67,76.67 L 103.33,76.67 L 100.00,76.67 L 96.67,76.67 L 93.33,76.67 L 90.00,76.67 L 85.56,74.44 L 83.33,70.00 L 83.33,66.67 L 83.33,63.33 L 83.33,60.00 L 83.33,56.67 L 80.00,56.67 L 76.67,53.33 L 76.67,50.00 L 75.56,45.56 L 75.56,44.44 L 73.33,40.00 L 73.33,36.67 L 70.00,36.67 L 66.67,36.67 L 66.67,40.00 L 63.33,43.33 L 60.00,46.67 L 55.56,44.44 L 53.33,40.00 L 53.33,36.67 L 50.00,36.67 L 46.67,33.33 L 43.33,30.00 L 46.67,26.67 L 50.00,23.33 L 53.33,23.33 L 53.33,20.00 L 53.33,16.67 L 53.33,13.33 L 53.33,10.00 L 52.22,7.78 L 50.00,6.67 L 45.56,4.44 L 43.33,0.00 " stroke="rgb(170,255,0)" stroke-width="0.50" fill="none" /> 
	<path d="M 86.67,0.00 L 83.33,3.33 L 80.00,6.67 L 77.78,7.78 L 76.67,10.00 L 76.67,13.33 L 80.00,13.33 L 83.33,16.67 L 86.67,20.00 L 86.67,23.33 L 90.00,23.33 L 92.22,22.22 L 93.33,20.00 L 97.33,17.33 L 100.00,16.67 L 104.44,15.56 L 106.67,20.00 L 107.78,22.22 L 110.00,23.33 L 112.22,22.22 L 113.33,20.00 L 112.22,17.78 L 110.00,16.67 L 105.56,14.44 L 106.67,10.00 L 106.67,6.67 L 110.00,3.33 L 113.33,3.33 L 116.67,3.33 L 120.00,3.33 " stroke="rgb(170,255,0)" stroke-width="0.70" fill="none" /> 
	<path d="M 103.33,100.00 L 107.33,97.33 L 110.00,96.67 L 112.67,97.33 L 116.67,100.00 " stroke="rgb(170,255,0)" stroke-width="0.90" fill="none" /> 
	<path d="M 0.00,23.33 L 3.33,26.67 L 3.33,30.00 L 3.33,33.33 L 3.33,36.67 L 3.33,40.00 L 3.33,43.33 L 3.33,46.67 L 3.33,50.00 L 2.22,52.22 L 0.00,53.33 " stroke="rgb(170,255,0)" stroke-width="1.10" fill="none" /> 
	<path d="M 36.67,100.00 L 34.44,95.56 L 30.00,93.33 L 26.67,93.33 L 23.33,93.33 L 20.00,93.33 L 16.67,93.33 L 13.33,93.33 L 10.00,93.33 L 7.78,92.22 L 6.67,90.00 L 3.33,86.67 L 0.00,83.33 " stroke="rgb(170,255,0)" stroke-width="1.30" fill="none" /> 
	<path d="M 67.78,17.78 L 66.67,20.00 L 66.67,23.33 L 70.00,23.33 L 73.33,23.33 L 73.33,20.00 L 73.33,16.67 L 70.00,16.67 L 67.78,17.78 " stroke="rgb(170,255,0)" stroke-width="1.50" fill="none" /> 
	<path d="M 80.00,26.67 L 83.33,26.67 L 83.33,30.00 L 83.33,33.33 L 80.00,33.33 L 76.67,33.33 L 76.67,30.00 L 76.67,26.67 L 80.00,26.67 " stroke="rgb(170,255,0)" stroke-width="0.70" fill="none" /> 
	<path d="M 83.33,100.00 L 86.67,96.67 L 90.00,96.67 L 92.67,97.33 L 96.67,100.00 " stroke="rgb(170,255,0)" stroke-width="0.90" fill="none" /> 
	<path d="M 60.00,26.67 L 63.33,26.67 L 63.33,30.00 L 63.33,33.33 L 60.00,33.33 L 56.67,33.33 L 56.67,30.00 L 56.67,26.67 L 60.00,26.67 " stroke="rgb(170,255,0)" stroke-width="1.10" fill="none" /> 
	<path d="M 90.00,36.67 L 93.33,36.67 L 96.67,36.67 L 100.00,36.67 L 103.33,36.67 L 106.67,36.67 L 110.00,36.67 L 112.22,37.78 L 113.33,40.00 L 115.56,44.44 L 115.56,45.56 L 116.67,50.00 L 115.56,54.44 L 115.56,55.56 L 113.33,60.00 L 112.22,62.22 L 110.00,63.33 L 106.67,63.33 L 103.33,63.33 L 100.00,63.33 L 97.78,62.22 L 96.67,60.00 L 93.33,56.67 L 90.00,53.33 L 86.67,53.33 L 86.67,50.00 L 86.67,46.67 L 86.67,43.33 L 86.67,40.00 L 86.67,36.67 L 90.00,36.67 " stroke="rgb(170,255,0)" stroke-width="1.30" fill="none" /> 
	<path d="M 56.67,100.00 L 57.78,97.78 L 60.00,96.67 L 63.33,93.33 L 66.67,90.00 L 67.78,87.78 L 70.00,86.67 L 74.44,84.44 L 76.67,80.00 L 76.67,76.67 L 76.67,73.33 L 76.67,70.00 L 74.44,65.56 L 70.00,63.33 L 65.56,65.56 L 63.33,70.00 L 62.22,72.22 L 60.00,73.33 L 56.67,76.67 L 53.33,80.00 L 52.22,82.22 L 50.00,83.33 L 46.67,86.67 L 43.33,90.00 L 43.33,93.33 L 43.33,96.67 L 43.33,100.00 " stroke="rgb(170,255,0)" stroke-width="1.50" fill="none" /> 
	<path d="M 46.67,0.00 L 47.78,2.22 L 50.00,3.33 L 54.44,5.56 L 56.67,10.00 L 56.67,13.33 L 56.67,16.67 L 56.67,20.00 L 56.67,23.33 L 60.00,23.33 L 63.33,23.33 L 63.33,20.00 L 65.56,15.56 L 70.00,13.33 L 73.33,13.33 L 73.33,10.00 L 75.56,5.56 L 80.00,3.33 L 81.67,1.67 L 83.33,0.00 " stroke="rgb(85,255,0)" stroke-width="0.50" fill="none" /> 
	<path d="M 33.33,100.00 L 32.22,97.78 L 30.00,96.67 L 26.67,96.67 L 23.33,96.67 L 20.00,96.67 L 16.67,96.67 L 13.33,96.67 L 10.00,96.67 L 5.56,94.44 L 3.33,90.00 L 1.67,88.33 L 0.00,86.67 " stroke="rgb(85,255,0)" stroke-width="0.70" fill="none" /> 
	<path d="M 46.67,100.00 L 46.67,96.67 L 46.67,93.33 L 46.67,90.00 L 48.33,88.33 L 50.00,86.67 L 54.44,84.44 L 56.67,80.00 L 58.33,78.33 L 60.00,76.67 L 64.44,74.44 L 66.67,70.00 L 67.78,67.78 L 70.00,66.67 L 72.22,67.78 L 73.33,70.00 L 73.33,73.33 L 73.33,76.67 L 73.33,80.00 L 72.22,82.22 L 70.00,83.33 L 65.56,85.56 L 63.33,90.00 L 61.67,91.67 L 60.00,93.33 L 55.56,95.56 L 53.33,100.00 " stroke="rgb(85,255,0)" stroke-width="0.90" fill="none" /> 
	<path d="M 50.00,26.67 L 53.33,26.67 L 53.33,30.00 L 53.33,33.33 L 50.00,33.33 L 48.33,31.67 L 46.67,30.00 L 48.33,28.33 L 50.00,26.67 " stroke="rgb(85,255,0)" stroke-width="1.10" fill="none" /> 
	<path d="M 66.67,26.67 L 66.67,30.00 L 66.67,33.33 L 70.00,33.33 L 73.33,33.33 L 73.33,30.00 L 73.33,26.67 L 70.00,26.67 L 66.67,26.67 " stroke="rgb(85,255,0)" stroke-width="1.30" fill="none" /> 
	<path d="M 120.00,73.33 L 116.67,73.33 L 113.33,73.33 L 110.00,73.33 L 106.67,73.33 L 103.33,73.33 L 100.00,73.33 L 96.67,73.33 L 93.33,73.33 L 90.00,73.33 L 87.78,72.22 L 86.67,70.00 L 86.67,66.67 L 86.67,63.33 L 86.67,60.00 L 86.67,56.67 L 90.00,56.67 L 91.67,58.33 L 93.33,60.00 L 95.56,64.44 L 100.00,66.67 L 103.33,66.67 L 106.67,66.67 L 110.00,66.67 L 114.44,64.44 L 116.67,60.00 L 117.78,57.78 L 117.78,52.22 L 118.33,50.00 L 117.78,47.78 L 117.78,42.22 L 116.67,40.00 L 114.44,35.56 L 110.00,33.33 L 106.67,33.33 L 103.33,33.33 L 100.00,33.33 L 96.67,33.33 L 93.33,33.33 L 90.00,33.33 L 86.67,33.33 L 86.67,30.00 L 86.67,26.67 L 90.00,26.67 L 94.44,24.44 L 96.67,20.00 L 98.67,18.67 L 100.00,18.33 L 102.22,17.78 L 103.33,20.00 L 105.56,24.44 L 110.00,26.67 L 114.44,24.44 L 116.67,20.00 L 114.44,15.56 L 110.00,13.33 L 107.78,12.22 L 108.33,10.00 L 108.33,8.33 L 110.00,6.67 L 113.33,6.67 L 116.67,6.67 L 120.00,6.67 " stroke="rgb(85,255,0)" stroke-width="1.50" fill="none" /> 
	<path d="M 93.33,100.00 L 91.33,98.67 L 90.00,98.33 L 88.33,98.33 L 86.67,100.00 " stroke="rgb(85,255,0)" stroke-width="0.70" fill="none" /> 
	<path d="M 60.00,36.67 L 63.33,36.67 L 63.33,40.00 L 61.67,41.67 L 60.00,43.33 L 57.78,42.22 L 56.67,40.00 L 56.67,36.67 L 60.00,36.67 " stroke="rgb(85,255,0)" stroke-width="0.90" fill="none" /> 
	<path d="M 113.33,100.00 L 111.33,98.67 L 110.00,98.33 L 108.67,98.67 L 106.67,100.00 " stroke="rgb(85,255,0)" stroke-width="1.10" fill="none" /> 
	<path d="M 80.00,16.67 L 81.67,18.33 L 83.33,20.00 L 83.33,23.33 L 80.00,23.33 L 76.67,23.33 L 76.67,20.00 L 76.67,16.67 L 80.00,16.67 " stroke="rgb(85,255,0)" stroke-width="1.30" fill="none" /> 
	<path d="M 0.00,51.67 L 1.11,51.11 L 1.67,50.00 L 1.67,48.33 L 1.67,41.67 L 1.67,40.00 L 1.67,38.33 L 1.67,31.67 L 1.67,30.00 L 1.67,28.33 L 0.00,26.67 " stroke="rgb(85,255,0)" stroke-width="1.50" fill="none" /> 
	<path d="M 80.00,36.67 L 83.33,36.67 L 83.33,40.00 L 83.33,43.33 L 83.33,46.67 L 83.33,50.00 L 83.33,53.33 L 80.00,53.33 L 78.33,51.67 L 78.33,50.00 L 77.78,47.78 L 77.78,42.22 L 76.67,40.00 L 76.67,36.67 L 80.00,36.67 " stroke="rgb(85,255,0)" stroke-width="0.70" fill="none" /> 
</svg>