<svg xmlns="http://www.w3.org/2000/svg" version="1.1" x="1" y="1" width="2.0" height="2.0"> 
<path d="M 1.8962543204,1.8962543204 L 2.0000000000,1.4748128962 " stroke="rgb(255,31,0)" stroke-width="0.0001333333" fill="none" /> 
<path d="M 1.8962543204,1.8962543204 L 1.8276938351,2.0000000000 " stroke="rgb(255,31,0)" stroke-width="0.0001333333" fill="none" /> 
<path d="M 1.9907126104,0.9907126104 L 2.0000000000,0.9715472790 " stroke="rgb(255,62,0)" stroke-width="0.0001333333" fill="none" /> 
<path d="M 1.9900770246,1.0000000000 L 1.9835499641,1.0164500359 L 1.7925086408,1.7925086408 M 1.9900770246,1.0000000000 L 1.9907126104,0.9907126104 " stroke="rgb(255,62,0)" stroke-width="0.0001333333" fill="none" /> 
<path d="M 1.6553876703,2.0000000000 L 1.7925086408,1.7925086408 " stroke="rgb(255,62,0)" stroke-width="0.0001333333" fill="none" /> 
<path d="M 2.0000000000,0.6749073350 L 1.8938849384,0.8938849384 " stroke="rgb(255,93,0)" stroke-width="0.0001333333" fill="none" /> 
<path d="M 1.8866229166,1.0000000000 L 1.8938849384,0.8938849384 " stroke="rgb(255,93,0)" stroke-width="0.0001333333" fill="none" /> 
<path d="M 1.8120465873,1.1879534127 L 1.8866229166,1.0000000000 M 1.8120465873,1.1879534127 L 1.6887629612,1.6887629612 " stroke="rgb(255,93,0)" stroke-width="0.0001333333" fill="none" /> 
<path d="M 1.4830815054,2.0000000000 L 1.6887629612,1.6887629612 " stroke="rgb(255,93,0)" stroke-width="0.0001333333" fill="none" /> 
<path d="M 0.0517576420,0.0517576420 L 0.0000000000,0.3850417093 M 0.0517576420,0.0517576420 L 0.0651066963,0.0000000000 " stroke="rgb(255,124,0)" stroke-width="0.0001333333" fill="none" /> 
<path d="M 2.0000000000,0.3782673909 L 1.7970572664,0.7970572664 L 1.7831688086,1.0000000000 L 1.6405432105,1.3594567895 L 1.5850172817,1.5850172817 " stroke="rgb(255,124,0)" stroke-width="0.0001333333" fill="none" /> 
<path d="M 1.5850172817,1.5850172817 L 1.3107753406,2.0000000000 " stroke="rgb(255,124,0)" stroke-width="0.0001333333" fill="none" /> 
<path d="M 0.1863451452,0.1863451452 L 0.0710164638,0.9289835362 L 0.0554632885,1.0000000000 M 0.1863451452,0.1863451452 L 0.2344062885,0.0000000000 " stroke="rgb(255,155,0)" stroke-width="0.0001333333" fill="none" /> 
<path d="M 0.0554632885,1.0000000000 L 0.0395062619,1.0395062619 L 0.0000000000,1.0338845738 " stroke="rgb(255,155,0)" stroke-width="0.0001333333" fill="none" /> 
<path d="M 1.7002295944,0.7002295944 L 2.0000000000,0.0816274469 " stroke="rgb(255,155,0)" stroke-width="0.0001333333" fill="none" /> 
<path d="M 1.7002295944,0.7002295944 L 1.6797147006,1.0000000000 L 1.4866294260,1.4866294260 L 1.4082847634,1.5917152366 L 1.1384691757,2.0000000000 " stroke="rgb(255,155,0)" stroke-width="0.0001333333" fill="none" /> 
<path d="M 0.3209326484,0.3209326484 L 0.4037058808,0.0000000000 M 0.3209326484,0.3209326484 L 0.2550908442,0.7449091558 L 0.1992239029,1.0000000000 " stroke="rgb(255,186,0)" stroke-width="0.0001333333" fill="none" /> 
<path d="M 0.1419063292,1.1419063292 L 0.0000000000,1.1217132489 M 0.1419063292,1.1419063292 L 0.1992239029,1.0000000000 " stroke="rgb(255,186,0)" stroke-width="0.0001333333" fill="none" /> 
<path d="M 1.0000000000,1.9659456644 L 1.4125633315,1.4125633315 L 1.5762605925,1.0000000000 M 1.0000000000,1.9659456644 L 0.9734150091,1.9734150091 L 0.9807405001,2.0000000000 " stroke="rgb(255,186,0)" stroke-width="0.0001333333" fill="none" /> 
<path d="M 1.7978420118,0.2021579882 L 1.8293301154,0.0000000000 " stroke="rgb(255,186,0)" stroke-width="0.0001333333" fill="none" /> 
<path d="M 1.7978420118,0.2021579882 L 1.6034019223,0.6034019223 L 1.5762605925,1.0000000000 " stroke="rgb(255,186,0)" stroke-width="0.0001333333" fill="none" /> 
<path d="M 0.5730054730,0.0000000000 L 0.4555201516,0.4555201516 L 0.4391652246,0.5608347754 L 0.3429845174,1.0000000000 L 0.2443063965,1.2443063965 L 0.0000000000,1.2095419240 " stroke="rgb(255,217,0)" stroke-width="0.0001333333" fill="none" /> 
<path d="M 1.0000000000,1.7925327182 L 0.8380377803,1.8380377803 L 0.8826664501,2.0000000000 M 1.0000000000,1.7925327182 L 1.3384972371,1.3384972371 L 1.4728064845,1.0000000000 " stroke="rgb(255,217,0)" stroke-width="0.0001333333" fill="none" /> 
<path d="M 1.5189366687,0.4810633313 L 1.5065742503,0.5065742503 M 1.5189366687,0.4810633313 L 1.5938670346,0.0000000000 " stroke="rgb(255,217,0)" stroke-width="0.0001333333" fill="none" /> 
<path d="M 1.4728064845,1.0000000000 L 1.5065742503,0.5065742503 " stroke="rgb(255,217,0)" stroke-width="0.0001333333" fill="none" /> 
<path d="M 0.6527421873,0.3472578127 L 0.5789569396,0.5789569396 L 0.4867451318,1.0000000000 L 0.3467064639,1.3467064639 L 0.0000000000,1.2973705991 M 0.6527421873,0.3472578127 L 0.7423050653,0.0000000000 " stroke="rgb(255,248,0)" stroke-width="0.0001333333" fill="none" /> 
<path d="M 0.7026605515,1.7026605515 L 0.7845924001,2.0000000000 M 0.7026605515,1.7026605515 L 1.0000000000,1.6191197721 L 1.2644311427,1.2644311427 L 1.3693523765,1.0000000000 L 1.3964860389,0.6035139611 L 1.3101024361,0.3101024361 L 1.3584039538,0.0000000000 " stroke="rgb(255,248,0)" stroke-width="0.0001333333" fill="none" /> 
<path d="M 0.9116046575,0.0000000000 L 0.8808825121,0.1191174879 " stroke="rgb(231,255,0)" stroke-width="0.0001333333" fill="none" /> 
<path d="M 0.8808825121,0.1191174879 L 0.6968893993,0.6968893993 L 0.6305057462,1.0000000000 L 0.4491065312,1.4491065312 L 0.0000000000,1.3851992742 " stroke="rgb(231,255,0)" stroke-width="0.0001333333" fill="none" /> 
<path d="M 0.5672833227,1.5672833227 L 1.0000000000,1.4457068259 L 1.1903650482,1.1903650482 L 1.2658982685,1.0000000000 L 1.2854319017,0.7145680983 L 1.1063723316,0.1063723316 L 1.1229408730,0.0000000000 " stroke="rgb(231,255,0)" stroke-width="0.0001333333" fill="none" /> 
<path d="M 0.6865183501,2.0000000000 L 0.5672833227,1.5672833227 " stroke="rgb(231,255,0)" stroke-width="0.0001333333" fill="none" /> 
<path d="M 0.8148218590,0.8148218590 L 0.7742663606,1.0000000000 L 0.6213086246,1.3786913754 M 0.8148218590,0.8148218590 L 1.0000000000,0.2333287428 L 1.1743777645,0.8256222355 L 1.1624441605,1.0000000000 " stroke="rgb(200,255,0)" stroke-width="0.0001333333" fill="none" /> 
<path d="M 1.0000000000,1.2722938798 L 0.6213086246,1.3786913754 M 1.0000000000,1.2722938798 L 1.1162989538,1.1162989538 L 1.1624441605,1.0000000000 " stroke="rgb(200,255,0)" stroke-width="0.0001333333" fill="none" /> 
<path d="M 0.5884443001,2.0000000000 L 0.4613259822,1.5386740178 L 0.0000000000,1.4730279494 " stroke="rgb(200,255,0)" stroke-width="0.0001333333" fill="none" /> 
<path d="M 1.0000000000,0.7215906220 L 1.0633236273,0.9366763727 L 1.0589900525,1.0000000000 M 1.0000000000,0.7215906220 L 0.9327543186,0.9327543186 L 0.9180269750,1.0000000000 L 0.8624818274,1.1375181726 L 1.0000000000,1.0988809336 L 1.0422328594,1.0422328594 L 1.0589900525,1.0000000000 " stroke="rgb(169,255,0)" stroke-width="0.0001333333" fill="none" /> 
<path d="M 0.4903702501,2.0000000000 L 0.3844383185,1.6155616815 L 0.0000000000,1.5608566245 " stroke="rgb(169,255,0)" stroke-width="0.0001333333" fill="none" /> 
<path d="M 0.3075506548,1.6924493452 L 0.3922962000,2.0000000000 M 0.3075506548,1.6924493452 L 0.0000000000,1.6486852996 " stroke="rgb(138,255,0)" stroke-width="0.0001333333" fill="none" /> 
<path d="M 0.2942221500,2.0000000000 L 0.2306629911,1.7693370089 L 0.0000000000,1.7365139747 " stroke="rgb(107,255,0)" stroke-width="0.0001333333" fill="none" /> 
<path d="M 0.1537753274,1.8462246726 L 0.0000000000,1.8243426498 M 0.1537753274,1.8462246726 L 0.1961481000,2.0000000000 " stroke="rgb(76,255,0)" stroke-width="0.0001333333" fill="none" /> 
<path d="M 0.0980740500,2.0000000000 L 0.0768876637,1.9231123363 L 0.0000000000,1.9121713249 " stroke="rgb(45,255,0)" stroke-width="0.0001333333" fill="none" /> 
</svg>