<svg xmlns="http://www.w3.org/2000/svg" version="1.1" x="1" y="1" width="49.0" height="49.0"> 
<path d="M 0.25596159,10.0 L 0.15480415,9.84519585 L 0.0,9.5782425 " stroke="rgb(255,0,0)" stroke-width="0.245" fill="none" /> 
<path d="M 0.25596159,10.0 L 0.52159108,10.47840892 L 0.59575759,10.59575759 L 0.84352067,11.0 " stroke="rgb(255,0,0)" stroke-width="0.245" fill="none" /> 
<path d="M 0.84352067,11.0 L 0.89657481,11.10342519 L 1.0,11.27713947 L 1.24854121,11.75145879 L 1.39481837,12.0 L 1.59636225,12.40363775 L 1.84642004,12.84642004 L 1.93010313,13.0 " stroke="rgb(255,0,0)" stroke-width="0.245" fill="none" /> 
<path d="M 1.0,37.72286053 L 0.89657481,37.89657481 L 0.84352067,38.0 M 1.0,37.72286053 L 1.24854121,37.24854121 L 1.39481837,37.0 L 1.59636225,36.59636225 L 1.84642004,36.15357996 L 1.93010313,36.0 " stroke="rgb(255,0,0)" stroke-width="0.245" fill="none" /> 
<path d="M 0.84352067,38.0 L 0.59575759,38.40424241 L 0.52159108,38.52159108 L 0.25596159,39.0 " stroke="rgb(255,0,0)" stroke-width="0.245" fill="none" /> 
<path d="M 0.25596159,39.0 L 0.15480415,39.15480415 L 0.0,39.4217575 " stroke="rgb(255,0,0)" stroke-width="0.245" fill="none" /> 
<path d="M 1.93010313,13.0 L 1.95200778,13.04799222 L 2.0,13.13958619 L 2.27289281,13.72710719 L 2.41413637,14.0 L 2.59263206,14.40736794 L 2.77072012,14.77072012 L 2.87871425,15.0 L 2.91299892,15.08700108 L 3.0,15.28240528 L 3.20503034,15.79496966 L 3.2953484,16.0 L 3.46900506,16.46900506 L 3.48517285,16.51482715 L 3.67504209,17.0 L 3.75461731,17.24538269 L 4.0,17.92795825 L 4.01783071,17.98216929 L 4.02419734,18.0 L 4.0342757,18.0342757 L 4.23830947,18.76169053 L 4.31112332,19.0 L 4.41236847,19.41236847 L 4.44544552,19.55455448 L 4.55861325,20.0 L 4.63122971,20.36877029 L 4.70277419,20.70277419 L 4.76301791,21.0 L 4.79359388,21.20640612 L 4.90638042,21.90638042 L 4.92056625,22.0 L 4.92772824,22.07227176 L 5.0,22.74356934 L 5.02310391,22.97689609 L 5.02554841,23.0 L 5.02696155,23.02696155 L 5.07154423,23.92845577 L 5.07531758,24.0 L 5.07531758,24.07531758 L 5.07531758,24.92468242 L 5.07531758,25.0 L 5.07154423,25.07154423 L 5.02696155,25.97303845 L 5.02554841,26.0 L 5.02310391,26.02310391 L 5.0,26.25643066 L 4.92772824,26.92772824 L 4.92056625,27.0 L 4.90638042,27.09361958 L 4.79359388,27.79359388 L 4.76301791,28.0 L 4.70277419,28.29722581 L 4.63122971,28.63122971 L 4.55861325,29.0 L 4.44544552,29.44544552 L 4.41236847,29.58763153 L 4.31112332,30.0 L 4.23830947,30.23830947 L 4.0342757,30.9657243 L 4.02419734,31.0 L 4.01783071,31.01783071 L 4.0,31.07204175 L 3.75461731,31.75461731 L 3.67504209,32.0 L 3.48517285,32.48517285 L 3.46900506,32.53099494 L 3.2953484,33.0 L 3.20503034,33.20503034 L 3.0,33.71759472 L 2.91299892,33.91299892 L 2.87871425,34.0 L 2.77072012,34.22927988 L 2.59263206,34.59263206 L 2.41413637,35.0 L 2.27289281,35.27289281 L 2.0,35.86041381 L 1.95200778,35.95200778 L 1.93010313,36.0 " stroke="rgb(255,0,0)" stroke-width="0.245" fill="none" /> 
<path d="M 44.0,22.74356934 L 44.07227176,22.07227176 L 44.07943375,22.0 L 44.09361958,21.90638042 L 44.20640612,21.20640612 L 44.23698209,21.0 L 44.29722581,20.70277419 L 44.36877029,20.36877029 L 44.44138675,20.0 L 44.55455448,19.55455448 L 44.58763153,19.41236847 L 44.68887668,19.0 L 44.76169053,18.76169053 L 44.9657243,18.0342757 L 44.97580266,18.0 L 44.98216929,17.98216929 L 45.0,17.92795825 L 45.24538269,17.24538269 L 45.32495791,17.0 L 45.51482715,16.51482715 L 45.53099494,16.46900506 L 45.7046516,16.0 L 45.79496966,15.79496966 L 46.0,15.28240528 L 46.08700108,15.08700108 L 46.12128575,15.0 L 46.22927988,14.77072012 L 46.40736794,14.40736794 L 46.58586363,14.0 L 46.72710719,13.72710719 L 47.0,13.13958619 L 47.04799222,13.04799222 L 47.06989687,13.0 L 47.15357996,12.84642004 L 47.40363775,12.40363775 L 47.60518163,12.0 L 47.75145879,11.75145879 L 48.0,11.27713947 L 48.10342519,11.10342519 L 48.15647933,11.0 L 48.40424241,10.59575759 L 48.47840892,10.47840892 L 48.74403841,10.0 L 48.84519585,9.84519585 L 49.0,9.5782425 M 44.0,22.74356934 L 43.97689609,22.97689609 L 43.97445159,23.0 L 43.97303845,23.02696155 L 43.92845577,23.92845577 L 43.92468242,24.0 L 43.92468242,24.07531758 L 43.92468242,24.92468242 L 43.92468242,25.0 L 43.92845577,25.07154423 L 43.97303845,25.97303845 L 43.97445159,26.0 L 43.97689609,26.02310391 L 44.0,26.25643066 L 44.07227176,26.92772824 L 44.07943375,27.0 L 44.09361958,27.09361958 L 44.20640612,27.79359388 L 44.23698209,28.0 L 44.29722581,28.29722581 L 44.36877029,28.63122971 L 44.44138675,29.0 L 44.55455448,29.44544552 L 44.58763153,29.58763153 L 44.68887668,30.0 L 44.76169053,30.23830947 L 44.9657243,30.9657243 L 44.97580266,31.0 L 44.98216929,31.01783071 L 45.0,31.07204175 L 45.24538269,31.75461731 L 45.32495791,32.0 L 45.51482715,32.48517285 L 45.53099494,32.53099494 L 45.7046516,33.0 L 45.79496966,33.20503034 L 46.0,33.71759472 L 46.08700108,33.91299892 L 46.12128575,34.0 L 46.22927988,34.22927988 L 46.40736794,34.59263206 L 46.58586363,35.0 L 46.72710719,35.27289281 L 47.0,35.86041381 L 47.04799222,35.95200778 L 47.06989687,36.0 L 47.15357996,36.15357996 L 47.40363775,36.59636225 L 47.60518163,37.0 L 47.75145879,37.24854121 L 48.0,37.72286053 L 48.10342519,37.89657481 L 48.15647933,38.0 L 48.40424241,38.40424241 L 48.47840892,38.52159108 L 48.74403841,39.0 L 48.84519585,39.15480415 L 49.0,39.4217575 " stroke="rgb(255,0,0)" stroke-width="0.245" fill="none" /> 
<path d="M 0.41393902,7.0 L 0.23343502,6.76656498 L 0.0,6.44187845 M 0.41393902,7.0 L 0.6519405,7.3480595 " stroke="rgb(255,51,0)" stroke-width="0.245" fill="none" /> 
<path d="M 1.0,7.8165014 L 0.6519405,7.3480595 M 1.0,7.8165014 L 1.07629857,7.92370143 L 1.13422733,8.0 L 1.41244373,8.41244373 L 1.4823578,8.5176422 L 1.82828806,9.0 L 1.89466773,9.10533227 L 2.0,9.25892814 L 2.29326244,9.70673756 L 2.49854316,10.0 L 2.69006334,10.30993666 L 3.0,10.77598257 L 3.08770667,10.91229333 L 3.14751383,11.0 L 3.37225256,11.37225256 L 3.4674548,11.5325452 L 3.76398041,12.0 L 3.84835739,12.15164261 L 4.0,12.40554929 L 4.21792747,12.78207253 L 4.35139271,13.0 L 4.57826149,13.42173851 L 4.78692397,13.78692397 L 4.90664246,14.0 L 4.9372922,14.0627078 L 5.0,14.182873 L 5.27530975,14.72469025 L 5.42275962,15.0 L 5.60599262,15.39400738 " stroke="rgb(255,51,0)" stroke-width="0.245" fill="none" /> 
<path d="M 1.0,41.1834986 L 1.07629857,41.07629857 L 1.13422733,41.0 L 1.41244373,40.58755627 L 1.4823578,40.4823578 L 1.82828806,40.0 L 1.89466773,39.89466773 L 2.0,39.74107186 L 2.29326244,39.29326244 L 2.49854316,39.0 L 2.69006334,38.69006334 L 3.0,38.22401743 L 3.08770667,38.08770667 L 3.14751383,38.0 L 3.37225256,37.62774744 L 3.4674548,37.4674548 L 3.76398041,37.0 L 3.84835739,36.84835739 L 4.0,36.59445071 L 4.21792747,36.21792747 L 4.35139271,36.0 L 4.57826149,35.57826149 L 4.78692397,35.21307603 L 4.90664246,35.0 L 4.9372922,34.9372922 L 5.0,34.817127 L 5.27530975,34.27530975 L 5.42275962,34.0 L 5.60599262,33.60599262 M 1.0,41.1834986 L 0.6519405,41.6519405 " stroke="rgb(255,51,0)" stroke-width="0.245" fill="none" /> 
<path d="M 0.41393902,42.0 L 0.23343502,42.23343502 L 0.0,42.55812155 M 0.41393902,42.0 L 0.6519405,41.6519405 " stroke="rgb(255,51,0)" stroke-width="0.245" fill="none" /> 
<path d="M 5.81069561,15.81069561 L 5.60599262,15.39400738 M 5.81069561,15.81069561 L 5.90193918,16.0 L 5.93062647,16.06937353 L 6.0,16.22768012 L 6.23222106,16.76777894 L 6.33685725,17.0 L 6.52066003,17.47933997 L 6.54845671,17.54845671 L 6.72635088,18.0 L 6.79409411,18.20590589 L 7.0,18.80175127 L 7.0505762,18.9494238 L 7.06860123,19.0 L 7.09679761,19.09679761 L 7.27557735,19.72442265 L 7.35732338,20.0 L 7.46609014,20.46609014 L 7.47865952,20.52134048 L 7.59208076,21.0 L 7.65292576,21.34707424 L 7.72112009,21.72112009 L 7.77059658,22.0 L 7.7946417,22.2053583 L 7.87625899,22.87625899 L 7.89086652,23.0 L 7.89691366,23.10308634 L 7.94835717,23.94835717 L 7.9513992,24.0 L 7.95139919,24.04860081 L 7.95139919,24.95139919 L 7.9513992,25.0 L 7.94835717,25.05164283 L 7.89691366,25.89691366 L 7.89086652,26.0 L 7.87625899,26.12374101 L 7.7946417,26.7946417 L 7.77059658,27.0 L 7.72112009,27.27887991 L 7.65292576,27.65292576 L 7.59208076,28.0 L 7.47865952,28.47865952 L 7.46609014,28.53390986 L 7.35732338,29.0 L 7.27557735,29.27557735 L 7.09679761,29.90320239 L 7.06860123,30.0 L 7.0505762,30.0505762 L 7.0,30.19824873 L 6.79409411,30.79409411 L 6.72635088,31.0 L 6.54845671,31.45154329 L 6.52066003,31.52066003 L 6.33685725,32.0 L 6.23222106,32.23222106 L 6.0,32.77231988 L 5.93062647,32.93062647 L 5.90193918,33.0 L 5.81069561,33.18930439 L 5.60599262,33.60599262 " stroke="rgb(255,51,0)" stroke-width="0.245" fill="none" /> 
<path d="M 42.0,18.80175127 L 42.20590589,18.20590589 L 42.27364912,18.0 L 42.45154329,17.54845671 L 42.47933997,17.47933997 L 42.66314275,17.0 L 42.76777894,16.76777894 L 43.0,16.22768012 L 43.06937353,16.06937353 L 43.09806082,16.0 L 43.18930439,15.81069561 L 43.39400738,15.39400738 L 43.57724038,15.0 L 43.72469025,14.72469025 L 44.0,14.182873 L 44.0627078,14.0627078 L 44.09335754,14.0 L 44.21307603,13.78692397 L 44.42173851,13.42173851 L 44.64860729,13.0 L 44.78207253,12.78207253 L 45.0,12.40554929 L 45.15164261,12.15164261 L 45.23601959,12.0 L 45.5325452,11.5325452 L 45.62774744,11.37225256 L 45.85248617,11.0 L 45.91229333,10.91229333 L 46.0,10.77598257 L 46.30993666,10.30993666 L 46.50145684,10.0 L 46.70673756,9.70673756 L 47.0,9.25892814 L 47.10533227,9.10533227 L 47.17171194,9.0 L 47.5176422,8.5176422 L 47.58755627,8.41244373 L 47.86577267,8.0 L 47.92370143,7.92370143 L 48.0,7.8165014 L 48.3480595,7.3480595 L 48.58606098,7.0 L 48.76656498,6.76656498 L 49.0,6.44187845 M 42.0,18.80175127 L 41.9494238,18.9494238 L 41.93139877,19.0 L 41.90320239,19.09679761 L 41.72442265,19.72442265 L 41.64267662,20.0 L 41.53390986,20.46609014 L 41.52134048,20.52134048 L 41.40791924,21.0 L 41.34707424,21.34707424 L 41.27887991,21.72112009 L 41.22940342,22.0 L 41.2053583,22.2053583 L 41.12374101,22.87625899 L 41.10913348,23.0 L 41.10308634,23.10308634 L 41.05164283,23.94835717 L 41.0486008,24.0 L 41.04860081,24.04860081 L 41.04860081,24.95139919 L 41.0486008,25.0 L 41.05164283,25.05164283 L 41.10308634,25.89691366 L 41.10913348,26.0 L 41.12374101,26.12374101 L 41.2053583,26.7946417 L 41.22940342,27.0 L 41.27887991,27.27887991 L 41.34707424,27.65292576 L 41.40791924,28.0 L 41.52134048,28.47865952 L 41.53390986,28.53390986 L 41.64267662,29.0 L 41.72442265,29.27557735 L 41.90320239,29.90320239 L 41.93139877,30.0 L 41.9494238,30.0505762 L 42.0,30.19824873 L 42.20590589,30.79409411 L 42.27364912,31.0 L 42.45154329,31.45154329 L 42.47933997,31.52066003 L 42.66314275,32.0 L 42.76777894,32.23222106 L 43.0,32.77231988 L 43.06937353,32.93062647 L 43.09806082,33.0 L 43.18930439,33.18930439 L 43.39400738,33.60599262 L 43.57724038,34.0 L 43.72469025,34.27530975 L 44.0,34.817127 L 44.0627078,34.9372922 L 44.09335754,35.0 L 44.21307603,35.21307603 L 44.42173851,35.57826149 L 44.64860729,36.0 L 44.78207253,36.21792747 L 45.0,36.59445071 L 45.15164261,36.84835739 L 45.23601959,37.0 L 45.5325452,37.4674548 L 45.62774744,37.62774744 L 45.85248617,38.0 L 45.91229333,38.08770667 L 46.0,38.22401743 L 46.30993666,38.69006334 L 46.50145684,39.0 L 46.70673756,39.29326244 L 47.0,39.74107186 L 47.10533227,39.89466773 L 47.17171194,40.0 L 47.5176422,40.4823578 L 47.58755627,40.58755627 L 47.86577267,41.0 L 47.92370143,41.07629857 L 48.0,41.1834986 L 48.3480595,41.6519405 L 48.58606098,42.0 L 48.76656498,42.23343502 L 49.0,42.55812155 " stroke="rgb(255,51,0)" stroke-width="0.245" fill="none" /> 
<path d="M 0.65929377,5.0 L 0.80764187,5.19235813 L 1.0,5.42769784 L 1.25550968,5.74449032 L 1.47065436,6.0 L 1.70000534,6.29999466 L 2.0,6.67242932 L 2.14565633,6.85434367 L 2.26688088,7.0 M 0.65929377,5.0 L 0.35613125,4.64386875 L 0.0,4.20507824 " stroke="rgb(255,102,0)" stroke-width="0.245" fill="none" /> 
<path d="M 1.0,43.57230216 L 1.25550968,43.25550968 L 1.47065436,43.0 L 1.70000534,42.70000534 L 2.0,42.32757068 L 2.14565633,42.14565633 L 2.26688088,42.0 M 1.0,43.57230216 L 0.80764187,43.80764187 L 0.65929377,44.0 L 0.35613125,44.35613125 L 0.0,44.79492176 " stroke="rgb(255,102,0)" stroke-width="0.245" fill="none" /> 
<path d="M 2.26688088,7.0 L 2.58270193,7.41729807 L 3.0,7.94351425 L 3.02499867,7.97500133 L 3.0455449,8.0 " stroke="rgb(255,102,0)" stroke-width="0.245" fill="none" /> 
<path d="M 3.0,41.05648575 L 3.02499867,41.02499867 L 3.0455449,41.0 M 3.0,41.05648575 L 2.58270193,41.58270193 L 2.26688088,42.0 " stroke="rgb(255,102,0)" stroke-width="0.245" fill="none" /> 
<path d="M 3.0455449,8.0 L 3.18074721,8.18074721 L 3.45301927,8.54698073 L 3.80443409,9.0 L 3.88492661,9.11507339 L 4.0,9.27171205 L 4.30823303,9.69176697 L 4.54306969,10.0 L 4.72920528,10.27079472 L 5.0,10.64813359 L 5.14761527,10.85238473 L 5.25787936,11.0 L 5.55655495,11.44344505 L 5.81970989,11.81970989 L 5.94495217,12.0 L 5.96603984,12.03396016 L 6.0,12.08637357 L 6.36099785,12.63900215 L 6.60478933,13.0 L 6.75336548,13.24663452 L 7.0,13.64133954 L 7.13939057,13.86060943 L 7.23056949,14.0 L 7.51339858,14.48660142 L 7.55353739,14.55353739 L 7.81915574,15.0 L 7.8812579,15.1187421 L 8.0,15.33823007 L 8.23557528,15.76442472 L 8.36931798,16.0 L 8.57816661,16.42183339 L 8.74042863,16.74042863 L 8.87140759,17.0 L 8.91028554,17.08971446 L 9.0,17.29066858 L 9.22316012,17.77683988 L 9.32804948,18.0 L 9.51902841,18.48097159 L 9.54513047,18.54513047 L 9.72828795,19.0 L 9.79587809,19.20412191 " stroke="rgb(255,102,0)" stroke-width="0.245" fill="none" /> 
<path d="M 4.0,39.72828795 L 4.30823303,39.30823303 L 4.54306969,39.0 L 4.72920528,38.72920528 L 5.0,38.35186641 L 5.14761527,38.14761527 L 5.25787936,38.0 L 5.55655495,37.55655495 L 5.81970989,37.18029011 L 5.94495217,37.0 L 5.96603984,36.96603984 L 6.0,36.91362643 L 6.36099785,36.36099785 L 6.60478933,36.0 L 6.75336548,35.75336548 L 7.0,35.35866046 L 7.13939057,35.13939057 L 7.23056949,35.0 L 7.51339858,34.51339858 L 7.55353739,34.44646261 L 7.81915574,34.0 L 7.8812579,33.8812579 L 8.0,33.66176993 L 8.23557528,33.23557528 L 8.36931798,33.0 L 8.57816661,32.57816661 L 8.74042863,32.25957137 L 8.87140759,32.0 L 8.91028554,31.91028554 L 9.0,31.70933142 L 9.22316012,31.22316012 L 9.32804948,31.0 L 9.51902841,30.51902841 L 9.54513047,30.45486953 L 9.72828795,30.0 L 9.79587809,29.79587809 M 4.0,39.72828795 L 3.88492661,39.88492661 L 3.80443409,40.0 L 3.45301927,40.45301927 L 3.18074721,40.81925279 L 3.0455449,41.0 " stroke="rgb(255,102,0)" stroke-width="0.245" fill="none" /> 
<path d="M 10.0,19.80546995 L 10.05063124,19.94936876 L 10.06880148,20.0 L 10.09613988,20.09613988 L 10.27342812,20.72657188 L 10.35186641,21.0 L 10.44736395,21.44736395 L 10.46568849,21.53431151 L 10.56578585,22.0 L 10.6199313,22.3800687 L 10.6606674,22.6606674 L 10.70923972,23.0 L 10.72859457,23.27140543 L 10.7643903,23.7643903 L 10.78123316,24.0 L 10.78123313,24.21876687 L 10.78123313,24.78123313 L 10.78123316,25.0 L 10.7643903,25.2356097 L 10.72859457,25.72859457 L 10.70923972,26.0 L 10.6606674,26.3393326 L 10.6199313,26.6199313 L 10.56578585,27.0 L 10.46568849,27.46568849 L 10.44736395,27.55263605 L 10.35186641,28.0 L 10.27342812,28.27342812 L 10.09613988,28.90386012 L 10.06880148,29.0 L 10.05063124,29.05063124 L 10.0,29.19453005 L 9.79587809,29.79587809 M 10.0,19.80546995 L 9.79587809,19.20412191 " stroke="rgb(255,102,0)" stroke-width="0.245" fill="none" /> 
<path d="M 39.0,19.80546995 L 38.94936876,19.94936876 L 38.93119852,20.0 L 38.90386012,20.09613988 L 38.72657188,20.72657188 L 38.64813359,21.0 L 38.55263605,21.44736395 L 38.53431151,21.53431151 L 38.43421415,22.0 L 38.3800687,22.3800687 L 38.3393326,22.6606674 L 38.29076028,23.0 L 38.27140543,23.27140543 L 38.2356097,23.7643903 L 38.21876684,24.0 L 38.21876687,24.21876687 L 38.21876687,24.78123313 L 38.21876684,25.0 L 38.2356097,25.2356097 L 38.27140543,25.72859457 L 38.29076028,26.0 L 38.3393326,26.3393326 L 38.3800687,26.6199313 L 38.43421415,27.0 L 38.53431151,27.46568849 L 38.55263605,27.55263605 L 38.64813359,28.0 L 38.72657188,28.27342812 L 38.90386012,28.90386012 L 38.93119852,29.0 L 38.94936876,29.05063124 L 39.0,29.19453005 L 39.20412191,29.79587809 L 39.27171205,30.0 L 39.45486953,30.45486953 L 39.48097159,30.51902841 L 39.67195052,31.0 L 39.77683988,31.22316012 L 40.0,31.70933142 L 40.08971446,31.91028554 L 40.12859241,32.0 L 40.25957137,32.25957137 L 40.42183339,32.57816661 L 40.63068202,33.0 L 40.76442472,33.23557528 L 41.0,33.66176993 L 41.1187421,33.8812579 L 41.18084426,34.0 L 41.44646261,34.44646261 L 41.48660142,34.51339858 L 41.76943051,35.0 L 41.86060943,35.13939057 L 42.0,35.35866046 L 42.24663452,35.75336548 L 42.39521067,36.0 L 42.63900215,36.36099785 L 43.0,36.91362643 L 43.03396016,36.96603984 L 43.05504783,37.0 L 43.18029011,37.18029011 L 43.44344505,37.55655495 L 43.74212064,38.0 L 43.85238473,38.14761527 L 44.0,38.35186641 L 44.27079472,38.72920528 L 44.45693031,39.0 L 44.69176697,39.30823303 L 45.0,39.72828795 L 45.11507339,39.88492661 L 45.19556591,40.0 L 45.54698073,40.45301927 L 45.81925279,40.81925279 L 45.9544551,41.0 L 45.97500133,41.02499867 L 46.0,41.05648575 L 46.41729807,41.58270193 L 46.73311912,42.0 L 46.85434367,42.14565633 L 47.0,42.32757068 L 47.29999466,42.70000534 L 47.52934564,43.0 L 47.74449032,43.25550968 L 48.0,43.57230216 L 48.19235813,43.80764187 L 48.34070623,44.0 L 48.64386875,44.35613125 L 49.0,44.79492176 M 39.0,19.80546995 L 39.20412191,19.20412191 L 39.27171205,19.0 L 39.45486953,18.54513047 L 39.48097159,18.48097159 L 39.67195052,18.0 L 39.77683988,17.77683988 L 40.0,17.29066858 L 40.08971446,17.08971446 L 40.12859241,17.0 L 40.25957137,16.74042863 L 40.42183339,16.42183339 L 40.63068202,16.0 L 40.76442472,15.76442472 L 41.0,15.33823007 L 41.1187421,15.1187421 L 41.18084426,15.0 L 41.44646261,14.55353739 L 41.48660142,14.48660142 L 41.76943051,14.0 L 41.86060943,13.86060943 L 42.0,13.64133954 L 42.24663452,13.24663452 L 42.39521067,13.0 L 42.63900215,12.63900215 L 43.0,12.08637357 L 43.03396016,12.03396016 L 43.05504783,12.0 L 43.18029011,11.81970989 L 43.44344505,11.44344505 L 43.74212064,11.0 L 43.85238473,10.85238473 L 44.0,10.64813359 L 44.27079472,10.27079472 L 44.45693031,10.0 L 44.69176697,9.69176697 L 45.0,9.27171205 L 45.11507339,9.11507339 L 45.19556591,9.0 L 45.54698073,8.54698073 L 45.81925279,8.18074721 L 45.9544551,8.0 L 45.97500133,7.97500133 L 46.0,7.94351425 L 46.41729807,7.41729807 L 46.73311912,7.0 L 46.85434367,6.85434367 L 47.0,6.67242932 L 47.29999466,6.29999466 L 47.52934564,6.0 L 47.74449032,5.74449032 L 48.0,5.42769784 L 48.19235813,5.19235813 L 48.34070623,5.0 L 48.64386875,4.64386875 L 49.0,4.20507824 " stroke="rgb(255,102,0)" stroke-width="0.245" fill="none" /> 
<path d="M 0.57159474,3.0 L 0.29659415,2.70340585 L 0.0,2.37566989 M 0.57159474,3.0 L 0.76973404,3.23026596 L 1.0,3.48859254 L 1.2425837,3.7574163 L 1.46638659,4.0 L 1.71256492,4.28743508 L 2.0,4.61244546 L 2.18351615,4.81648385 L 2.35192696,5.0 L 2.65004551,5.34995449 L 3.0,5.74899381 L 3.11862057,5.88137943 L 3.22685884,6.0 L 3.58132709,6.41867291 L 4.0,6.90039441 L 4.04696393,6.95303607 L 4.08955453,7.0 L 4.50537822,7.49462178 L 4.57182732,7.57182732 L 4.93969116,8.0 L 4.96629009,8.03370991 L 5.0,8.07515519 L 5.42010118,8.57989882 L 5.77723891,9.0 " stroke="rgb(255,153,0)" stroke-width="0.245" fill="none" /> 
<path d="M 1.0,45.51140746 L 0.76973404,45.76973404 L 0.57159474,46.0 L 0.29659415,46.29659415 L 0.0,46.62433011 M 1.0,45.51140746 L 1.2425837,45.2425837 L 1.46638659,45.0 L 1.71256492,44.71256492 L 2.0,44.38755454 L 2.18351615,44.18351615 L 2.35192696,44.0 L 2.65004551,43.65004551 L 3.0,43.25100619 L 3.11862057,43.11862057 L 3.22685884,43.0 L 3.58132709,42.58132709 L 4.0,42.09960559 L 4.04696393,42.04696393 L 4.08955453,42.0 L 4.50537822,41.50537822 L 4.57182732,41.42817268 L 4.93969116,41.0 L 4.96629009,40.96629009 L 5.0,40.92484481 L 5.42010118,40.42010118 L 5.77723891,40.0 " stroke="rgb(255,153,0)" stroke-width="0.245" fill="none" /> 
<path d="M 5.77723891,9.0 L 5.87484943,9.12515057 L 6.0,9.28135197 L 6.32480237,9.67519763 L 6.59773496,10.0 L 6.77267481,10.22732519 L 7.0,10.51580341 L 7.21756454,10.78243546 L 7.39804127,11.0 L 7.65752837,11.34247163 L 8.0,11.78519563 L 8.09586169,11.90413831 L 8.1742395,12.0 L 8.52653618,12.47346382 L 8.69238539,12.69238539 L 8.92484481,13.0 L 8.955302,13.044698 L 9.0,13.10891868 L 9.3750023,13.6249977 L 9.65176222,14.0 L 9.79043326,14.20956674 L 10.0,14.52060626 L 10.19883063,14.80116937 L 10.34160781,15.0 L 10.59827259,15.40172741 L 10.96117782,15.96117782 L 10.98627919,16.0 L 10.99124827,16.00875173 L 11.0,16.02390771 L 11.36999312,16.63000688 L 11.59873611,17.0 L 11.73871527,17.26128473 L 12.0,17.7422991 L 12.09454133,17.90545867 L 12.14989012,18.0 L 12.29861267,18.29861267 L 12.43218507,18.56781493 L 12.64903923,19.0 L 12.75199636,19.24800364 L 13.0,19.83847456 L 13.05026117,19.94973883 L 13.07316563,20.0 L 13.114804,20.114804 L 13.31921323,20.68078677 L 13.43554736,21.0 L 13.55629767,21.44370233 L 13.59892087,21.59892087 L 13.70849437,22.0 L 13.75328165,22.24671835 L 13.86684381,22.86684381 L 13.89108132,23.0 L 13.90015019,23.09984981 L 13.98083222,23.98083222 L 13.98257555,24.0 L 13.98257555,24.01742445 L 13.98257555,24.98257555 L 13.98257555,25.0 L 13.98083222,25.01916778 L 13.90015019,25.90015019 L 13.89108132,26.0 L 13.86684381,26.13315619 L 13.75328165,26.75328165 L 13.70849437,27.0 L 13.59892087,27.40107913 L 13.55629767,27.55629767 L 13.43554736,28.0 L 13.31921323,28.31921323 L 13.114804,28.885196 L 13.07316563,29.0 L 13.05026117,29.05026117 L 13.0,29.16152544 L 12.75199636,29.75199636 L 12.64903923,30.0 L 12.43218507,30.43218507 L 12.29861267,30.70138733 L 12.14989012,31.0 L 12.09454133,31.09454133 L 12.0,31.2577009 L 11.73871527,31.73871527 L 11.59873611,32.0 L 11.36999312,32.36999312 L 11.0,32.97609229 L 10.99124827,32.99124827 L 10.98627919,33.0 L 10.96117782,33.03882218 L 10.59827259,33.59827259 L 10.34160781,34.0 L 10.19883063,34.19883063 L 10.0,34.47939374 L 9.79043326,34.79043326 L 9.65176222,35.0 L 9.3750023,35.3750023 L 9.0,35.89108132 L 8.955302,35.955302 L 8.92484481,36.0 L 8.69238539,36.30761461 L 8.52653618,36.52653618 L 8.1742395,37.0 L 8.09586169,37.09586169 L 8.0,37.21480437 L 7.65752837,37.65752837 L 7.39804127,38.0 L 7.21756454,38.21756454 L 7.0,38.48419659 L 6.77267481,38.77267481 L 6.59773496,39.0 L 6.32480237,39.32480237 L 6.0,39.71864803 L 5.87484943,39.87484943 L 5.77723891,40.0 " stroke="rgb(255,153,0)" stroke-width="0.245" fill="none" /> 
<path d="M 36.0,19.83847456 L 35.94973883,19.94973883 L 35.92683437,20.0 L 35.885196,20.114804 L 35.68078677,20.68078677 L 35.56445264,21.0 L 35.44370233,21.44370233 L 35.40107913,21.59892087 L 35.29150563,22.0 L 35.24671835,22.24671835 L 35.13315619,22.86684381 L 35.10891868,23.0 L 35.09984981,23.09984981 L 35.01916778,23.98083222 L 35.01742445,24.0 L 35.01742445,24.01742445 L 35.01742445,24.98257555 L 35.01742445,25.0 L 35.01916778,25.01916778 L 35.09984981,25.90015019 L 35.10891868,26.0 L 35.13315619,26.13315619 L 35.24671835,26.75328165 L 35.29150563,27.0 L 35.40107913,27.40107913 L 35.44370233,27.55629767 L 35.56445264,28.0 L 35.68078677,28.31921323 L 35.885196,28.885196 L 35.92683437,29.0 L 35.94973883,29.05026117 L 36.0,29.16152544 L 36.24800364,29.75199636 L 36.35096077,30.0 L 36.56781493,30.43218507 L 36.70138733,30.70138733 L 36.85010988,31.0 L 36.90545867,31.09454133 L 37.0,31.2577009 L 37.26128473,31.73871527 L 37.40126389,32.0 L 37.63000688,32.36999312 L 38.0,32.97609229 L 38.00875173,32.99124827 L 38.01372081,33.0 L 38.03882218,33.03882218 L 38.40172741,33.59827259 L 38.65839219,34.0 L 38.80116937,34.19883063 L 39.0,34.47939374 L 39.20956674,34.79043326 L 39.34823778,35.0 L 39.6249977,35.3750023 L 40.0,35.89108132 L 40.044698,35.955302 L 40.07515519,36.0 L 40.30761461,36.30761461 L 40.47346382,36.52653618 L 40.8257605,37.0 L 40.90413831,37.09586169 L 41.0,37.21480437 L 41.34247163,37.65752837 L 41.60195873,38.0 L 41.78243546,38.21756454 L 42.0,38.48419659 L 42.22732519,38.77267481 L 42.40226504,39.0 L 42.67519763,39.32480237 L 43.0,39.71864803 L 43.12515057,39.87484943 L 43.22276109,40.0 L 43.57989882,40.42010118 L 44.0,40.92484481 L 44.03370991,40.96629009 L 44.06030884,41.0 L 44.42817268,41.42817268 L 44.49462178,41.50537822 L 44.91044547,42.0 L 44.95303607,42.04696393 L 45.0,42.09960559 L 45.41867291,42.58132709 L 45.77314116,43.0 L 45.88137943,43.11862057 L 46.0,43.25100619 L 46.34995449,43.65004551 L 46.64807304,44.0 L 46.81648385,44.18351615 L 47.0,44.38755454 L 47.28743508,44.71256492 L 47.53361341,45.0 L 47.7574163,45.2425837 L 48.0,45.51140746 L 48.23026596,45.76973404 L 48.42840526,46.0 L 48.70340585,46.29659415 L 49.0,46.62433011 M 36.0,19.83847456 L 36.24800364,19.24800364 L 36.35096077,19.0 L 36.56781493,18.56781493 L 36.70138733,18.29861267 L 36.85010988,18.0 L 36.90545867,17.90545867 L 37.0,17.7422991 L 37.26128473,17.26128473 L 37.40126389,17.0 L 37.63000688,16.63000688 L 38.0,16.02390771 L 38.00875173,16.00875173 L 38.01372081,16.0 L 38.03882218,15.96117782 L 38.40172741,15.40172741 L 38.65839219,15.0 L 38.80116937,14.80116937 L 39.0,14.52060626 L 39.20956674,14.20956674 L 39.34823778,14.0 L 39.6249977,13.6249977 L 40.0,13.10891868 L 40.044698,13.044698 L 40.07515519,13.0 L 40.30761461,12.69238539 L 40.47346382,12.47346382 L 40.8257605,12.0 L 40.90413831,11.90413831 L 41.0,11.78519563 L 41.34247163,11.34247163 L 41.60195873,11.0 L 41.78243546,10.78243546 L 42.0,10.51580341 L 42.22732519,10.22732519 L 42.40226504,10.0 L 42.67519763,9.67519763 L 43.0,9.28135197 L 43.12515057,9.12515057 L 43.22276109,9.0 L 43.57989882,8.57989882 L 44.0,8.07515519 L 44.03370991,8.03370991 L 44.06030884,8.0 L 44.42817268,7.57182732 L 44.49462178,7.49462178 L 44.91044547,7.0 L 44.95303607,6.95303607 L 45.0,6.90039441 L 45.41867291,6.41867291 L 45.77314116,6.0 L 45.88137943,5.88137943 L 46.0,5.74899381 L 46.34995449,5.34995449 L 46.64807304,5.0 L 46.81648385,4.81648385 L 47.0,4.61244546 L 47.28743508,4.28743508 L 47.53361341,4.0 L 47.7574163,3.7574163 L 48.0,3.48859254 L 48.23026596,3.23026596 L 48.42840526,3.0 L 48.70340585,2.70340585 L 49.0,2.37566989 " stroke="rgb(255,153,0)" stroke-width="0.245" fill="none" /> 
<path d="M 0.24048984,1.0 L 0.12024492,0.87975508 L 0.0,0.75951016 M 0.24048984,1.0 L 0.61100373,1.38899627 L 1.0,1.79239422 L 1.10380289,1.89619711 L 1.20760578,2.0 L 1.59388871,2.40611129 L 2.0,2.82827392 L 2.08586304,2.91413696 L 2.17172608,3.0 L 2.57517357,3.42482643 L 3.0,3.86757727 L 3.06621136,3.93378864 L 3.13242273,4.0 L 3.55462415,4.44537585 L 4.0,4.91081767 L 4.04459116,4.95540884 L 4.08918233,5.0 L 4.53195821,5.46804179 L 5.0,5.95861695 L 5.02069153,5.97930847 L 5.04138305,6.0 L 5.50683266,6.49316734 L 5.77215878,6.77215878 L 5.98879846,7.0 L 5.9940685,7.0059315 L 6.0,7.01251096 L 6.47875344,7.52124656 L 6.93238504,8.0 L 6.96409887,8.03590113 L 7.0,8.07601862 L 7.44725415,8.55274585 L 7.86941562,9.0 L 7.93044822,9.06955178 L 8.0,9.14790744 L 8.41170184,9.58829816 L 8.79865239,10.0 L 8.89237336,10.10762664 L 9.0,10.22998313 L 9.37125565,10.62874435 L 9.7185273,11.0 L 9.84891878,11.15108122 L 10.0,11.32460709 L 10.32482563,11.67517437 L 10.62702467,12.0 L 10.79883507,12.20116493 L 11.0,12.43492767 L 11.27097292,12.72902708 L 11.52150836,13.0 L 11.74045636,13.25954364 L 12.0,13.56523813 L 12.20775831,13.79224169 L 12.39846367,14.0 L 12.67151114,14.32848886 L 13.0,14.72154893 L 13.13250376,14.86749624 L 13.25309786,15.0 L 13.58881935,15.41118065 L 14.0,15.91254179 L 14.04140377,15.95859623 L 14.07870129,16.0 L 14.39089685,16.39089685 L 14.48776564,16.51223436 L 14.8785793,17.0 L 14.92851461,17.07148539 L 15.0,17.17332658 L 15.36133106,17.63866894 L 15.64270056,18.0 L 15.78548399,18.21451601 L 16.0,18.53559089 L 16.19888472,18.80111528 L 16.34818008,19.0 L 16.59870133,19.40129867 L 16.92917223,19.92917223 L 16.97348454,20.0 L 16.98231619,20.01768381 L 17.0,20.05297887 L 17.34407592,20.65592408 L 17.54082326,21.0 L 17.67850464,21.32149536 L 17.94695903,21.94695903 L 17.9697044,22.0 L 17.97643369,22.02356631 L 18.0,22.10591049 L 18.22333327,22.77666673 L 18.29779971,23.0 L 18.35734105,23.35734105 L 18.39805757,23.60194243 L 18.46440911,24.0 " stroke="rgb(255,204,0)" stroke-width="0.245" fill="none" /> 
<path d="M 1.0,47.20760578 L 0.61100373,47.61100373 L 0.24048984,48.0 L 0.12024492,48.12024492 L 0.0,48.24048984 M 1.0,47.20760578 L 1.10380289,47.10380289 L 1.20760578,47.0 L 1.59388871,46.59388871 L 2.0,46.17172608 L 2.08586304,46.08586304 L 2.17172608,46.0 L 2.57517357,45.57517357 L 3.0,45.13242273 L 3.06621136,45.06621136 L 3.13242273,45.0 L 3.55462415,44.55462415 L 4.0,44.08918233 L 4.04459116,44.04459116 L 4.08918233,44.0 L 4.53195821,43.53195821 L 5.0,43.04138305 L 5.02069153,43.02069153 L 5.04138305,43.0 L 5.50683266,42.50683266 L 5.77215878,42.22784122 L 5.98879846,42.0 L 5.9940685,41.9940685 L 6.0,41.98748904 L 6.47875344,41.47875344 L 6.93238504,41.0 L 6.96409887,40.96409887 L 7.0,40.92398138 L 7.44725415,40.44725415 L 7.86941562,40.0 L 7.93044822,39.93044822 L 8.0,39.85209256 L 8.41170184,39.41170184 L 8.79865239,39.0 L 8.89237336,38.89237336 L 9.0,38.77001687 L 9.37125565,38.37125565 L 9.7185273,38.0 L 9.84891878,37.84891878 L 10.0,37.67539291 L 10.32482563,37.32482563 L 10.62702467,37.0 L 10.79883507,36.79883507 L 11.0,36.56507233 L 11.27097292,36.27097292 L 11.52150836,36.0 L 11.74045636,35.74045636 L 12.0,35.43476187 L 12.20775831,35.20775831 L 12.39846367,35.0 L 12.67151114,34.67151114 L 13.0,34.27845107 L 13.13250376,34.13250376 L 13.25309786,34.0 L 13.58881935,33.58881935 L 14.0,33.08745821 L 14.04140377,33.04140377 L 14.07870129,33.0 L 14.39089685,32.60910315 L 14.48776564,32.48776564 L 14.8785793,32.0 L 14.92851461,31.92851461 L 15.0,31.82667342 L 15.36133106,31.36133106 L 15.64270056,31.0 L 15.78548399,30.78548399 L 16.0,30.46440911 L 16.19888472,30.19888472 L 16.34818008,30.0 L 16.59870133,29.59870133 L 16.92917223,29.07082777 L 16.97348454,29.0 L 16.98231619,28.98231619 L 17.0,28.94702113 L 17.34407592,28.34407592 L 17.54082326,28.0 L 17.67850464,27.67850464 L 17.94695903,27.05304097 L 17.9697044,27.0 L 17.97643369,26.97643369 L 18.0,26.89408951 L 18.22333327,26.22333327 L 18.29779971,26.0 L 18.35734105,25.64265895 L 18.39805757,25.39805757 L 18.46440911,25.0 " stroke="rgb(255,204,0)" stroke-width="0.245" fill="none" /> 
<path d="M 18.46440911,24.0 L 18.46440911,24.46440911 L 18.46440911,24.53559089 L 18.46440911,25.0 " stroke="rgb(255,204,0)" stroke-width="0.245" fill="none" /> 
<path d="M 31.0,22.10591049 L 31.02356631,22.02356631 L 31.0302956,22.0 L 31.05304097,21.94695903 L 31.32149536,21.32149536 L 31.45917674,21.0 L 31.65592408,20.65592408 L 32.0,20.05297887 L 32.01768381,20.01768381 L 32.02651546,20.0 L 32.07082777,19.92917223 L 32.40129867,19.40129867 L 32.65181992,19.0 L 32.80111528,18.80111528 L 33.0,18.53559089 L 33.21451601,18.21451601 L 33.35729944,18.0 L 33.63866894,17.63866894 L 34.0,17.17332658 L 34.07148539,17.07148539 L 34.1214207,17.0 L 34.51223436,16.51223436 L 34.60910315,16.39089685 L 34.92129871,16.0 L 34.95859623,15.95859623 L 35.0,15.91254179 L 35.41118065,15.41118065 L 35.74690214,15.0 L 35.86749624,14.86749624 L 36.0,14.72154893 L 36.32848886,14.32848886 L 36.60153633,14.0 L 36.79224169,13.79224169 L 37.0,13.56523813 L 37.25954364,13.25954364 L 37.47849164,13.0 L 37.72902708,12.72902708 L 38.0,12.43492767 L 38.20116493,12.20116493 L 38.37297533,12.0 L 38.67517437,11.67517437 L 39.0,11.32460709 L 39.15108122,11.15108122 L 39.2814727,11.0 L 39.62874435,10.62874435 L 40.0,10.22998313 L 40.10762664,10.10762664 L 40.20134761,10.0 L 40.58829816,9.58829816 L 41.0,9.14790744 L 41.06955178,9.06955178 L 41.13058438,9.0 L 41.55274585,8.55274585 L 42.0,8.07601862 L 42.03590113,8.03590113 L 42.06761496,8.0 L 42.52124656,7.52124656 L 43.0,7.01251096 L 43.0059315,7.0059315 L 43.01120154,7.0 L 43.22784122,6.77215878 L 43.49316734,6.49316734 L 43.95861695,6.0 L 43.97930847,5.97930847 L 44.0,5.95861695 L 44.46804179,5.46804179 L 44.91081767,5.0 L 44.95540884,4.95540884 L 45.0,4.91081767 L 45.44537585,4.44537585 L 45.86757727,4.0 L 45.93378864,3.93378864 L 46.0,3.86757727 L 46.42482643,3.42482643 L 46.82827392,3.0 L 46.91413696,2.91413696 L 47.0,2.82827392 L 47.40611129,2.40611129 L 47.79239422,2.0 L 47.89619711,1.89619711 L 48.0,1.79239422 L 48.38899627,1.38899627 L 48.75951016,1.0 L 48.87975508,0.87975508 L 49.0,0.75951016 M 31.0,22.10591049 L 30.77666673,22.77666673 L 30.70220029,23.0 L 30.64265895,23.35734105 L 30.60194243,23.60194243 L 30.53559089,24.0 " stroke="rgb(255,204,0)" stroke-width="0.245" fill="none" /> 
<path d="M 30.53559089,24.0 L 30.53559089,24.46440911 L 30.53559089,24.53559089 L 30.53559089,25.0 " stroke="rgb(255,204,0)" stroke-width="0.245" fill="none" /> 
<path d="M 30.53559089,25.0 L 30.60194243,25.39805757 L 30.64265895,25.64265895 L 30.70220029,26.0 L 30.77666673,26.22333327 L 31.0,26.89408951 L 31.02356631,26.97643369 L 31.0302956,27.0 L 31.05304097,27.05304097 L 31.32149536,27.67850464 L 31.45917674,28.0 L 31.65592408,28.34407592 L 32.0,28.94702113 L 32.01768381,28.98231619 L 32.02651546,29.0 L 32.07082777,29.07082777 L 32.40129867,29.59870133 L 32.65181992,30.0 L 32.80111528,30.19888472 L 33.0,30.46440911 L 33.21451601,30.78548399 L 33.35729944,31.0 L 33.63866894,31.36133106 L 34.0,31.82667342 L 34.07148539,31.92851461 L 34.1214207,32.0 L 34.51223436,32.48776564 L 34.60910315,32.60910315 L 34.92129871,33.0 L 34.95859623,33.04140377 L 35.0,33.08745821 L 35.41118065,33.58881935 L 35.74690214,34.0 L 35.86749624,34.13250376 L 36.0,34.27845107 L 36.32848886,34.67151114 L 36.60153633,35.0 L 36.79224169,35.20775831 L 37.0,35.43476187 L 37.25954364,35.74045636 L 37.47849164,36.0 L 37.72902708,36.27097292 L 38.0,36.56507233 L 38.20116493,36.79883507 L 38.37297533,37.0 L 38.67517437,37.32482563 L 39.0,37.67539291 L 39.15108122,37.84891878 L 39.2814727,38.0 L 39.62874435,38.37125565 L 40.0,38.77001687 L 40.10762664,38.89237336 L 40.20134761,39.0 L 40.58829816,39.41170184 L 41.0,39.85209256 L 41.06955178,39.93044822 L 41.13058438,40.0 L 41.55274585,40.44725415 L 42.0,40.92398138 L 42.03590113,40.96409887 L 42.06761496,41.0 L 42.52124656,41.47875344 L 43.0,41.98748904 L 43.0059315,41.9940685 L 43.01120154,42.0 L 43.22784122,42.22784122 L 43.49316734,42.50683266 L 43.95861695,43.0 L 43.97930847,43.02069153 L 44.0,43.04138305 L 44.46804179,43.53195821 L 44.91081767,44.0 L 44.95540884,44.04459116 L 45.0,44.08918233 L 45.44537585,44.55462415 L 45.86757727,45.0 L 45.93378864,45.06621136 L 46.0,45.13242273 L 46.42482643,45.57517357 L 46.82827392,46.0 L 46.91413696,46.08586304 L 47.0,46.17172608 L 47.40611129,46.59388871 L 47.79239422,47.0 L 47.89619711,47.10380289 L 48.0,47.20760578 L 48.38899627,47.61100373 L 48.75951016,48.0 L 48.87975508,48.12024492 L 49.0,48.24048984 " stroke="rgb(255,204,0)" stroke-width="0.245" fill="none" /> 
<path d="M 0.75951016,0.0 L 0.87975508,0.12024492 L 1.0,0.24048984 L 1.38899627,0.61100373 L 1.79239422,1.0 L 1.89619711,1.10380289 L 2.0,1.20760578 L 2.40611129,1.59388871 L 2.82827392,2.0 L 2.91413696,2.08586304 L 3.0,2.17172608 L 3.42482643,2.57517357 L 3.86757727,3.0 L 3.93378864,3.06621136 L 4.0,3.13242273 L 4.44537585,3.55462415 L 4.91081767,4.0 L 4.95540884,4.04459116 L 5.0,4.08918233 L 5.46804179,4.53195821 L 5.95861695,5.0 L 5.97930847,5.02069153 L 6.0,5.04138305 L 6.49316734,5.50683266 L 6.77215878,5.77215878 L 7.0,5.98879846 L 7.0059315,5.9940685 L 7.01251096,6.0 L 7.52124656,6.47875344 L 8.0,6.93238504 L 8.03590113,6.96409887 L 8.07601862,7.0 L 8.55274585,7.44725415 L 9.0,7.86941562 L 9.06955178,7.93044822 L 9.14790744,8.0 " stroke="rgb(255,255,0)" stroke-width="0.245" fill="none" /> 
<path d="M 1.0,48.75951016 L 1.38899627,48.38899627 L 1.79239422,48.0 L 1.89619711,47.89619711 L 2.0,47.79239422 L 2.40611129,47.40611129 L 2.82827392,47.0 L 2.91413696,46.91413696 L 3.0,46.82827392 L 3.42482643,46.42482643 L 3.86757727,46.0 L 3.93378864,45.93378864 L 4.0,45.86757727 L 4.44537585,45.44537585 L 4.91081767,45.0 L 4.95540884,44.95540884 L 5.0,44.91081767 L 5.46804179,44.46804179 L 5.95861695,44.0 L 5.97930847,43.97930847 L 6.0,43.95861695 L 6.49316734,43.49316734 L 6.77215878,43.22784122 L 7.0,43.01120154 L 7.0059315,43.0059315 L 7.01251096,43.0 L 7.52124656,42.52124656 L 8.0,42.06761496 L 8.03590113,42.03590113 L 8.07601862,42.0 L 8.55274585,41.55274585 L 9.0,41.13058438 L 9.06955178,41.06955178 L 9.14790744,41.0 M 1.0,48.75951016 L 0.87975508,48.87975508 L 0.75951016,49.0 " stroke="rgb(255,255,0)" stroke-width="0.245" fill="none" /> 
<path d="M 9.14790744,8.0 L 9.58829816,8.41170184 L 10.0,8.79865239 L 10.10762664,8.89237336 L 10.22998313,9.0 L 10.62874435,9.37125565 L 11.0,9.7185273 L 11.15108122,9.84891878 L 11.32460709,10.0 L 11.67517437,10.32482563 L 12.0,10.62702467 L 12.20116493,10.79883507 L 12.43492767,11.0 " stroke="rgb(255,255,0)" stroke-width="0.245" fill="none" /> 
<path d="M 10.0,40.20134761 L 9.58829816,40.58829816 L 9.14790744,41.0 M 10.0,40.20134761 L 10.10762664,40.10762664 L 10.22998313,40.0 L 10.62874435,39.62874435 L 11.0,39.2814727 L 11.15108122,39.15108122 L 11.32460709,39.0 L 11.67517437,38.67517437 L 12.0,38.37297533 L 12.20116493,38.20116493 L 12.43492767,38.0 " stroke="rgb(255,255,0)" stroke-width="0.245" fill="none" /> 
<path d="M 12.43492767,11.0 L 12.72902708,11.27097292 L 13.0,11.52150836 L 13.25954364,11.74045636 L 13.56523813,12.0 L 13.79224169,12.20775831 L 14.0,12.39846367 L 14.32848886,12.67151114 L 14.72154893,13.0 L 14.86749624,13.13250376 L 15.0,13.25309786 L 15.41118065,13.58881935 L 15.91254179,14.0 L 15.95859623,14.04140377 L 16.0,14.07870129 L 16.39089685,14.39089685 L 16.51223436,14.48776564 L 17.0,14.8785793 L 17.07148539,14.92851461 L 17.17332658,15.0 L 17.63866894,15.36133106 L 18.0,15.64270056 L 18.21451601,15.78548399 L 18.53559089,16.0 " stroke="rgb(255,255,0)" stroke-width="0.245" fill="none" /> 
<path d="M 13.0,37.47849164 L 12.72902708,37.72902708 L 12.43492767,38.0 M 13.0,37.47849164 L 13.25954364,37.25954364 L 13.56523813,37.0 L 13.79224169,36.79224169 L 14.0,36.60153633 L 14.32848886,36.32848886 L 14.72154893,36.0 L 14.86749624,35.86749624 L 15.0,35.74690214 L 15.41118065,35.41118065 L 15.91254179,35.0 L 15.95859623,34.95859623 L 16.0,34.92129871 L 16.39089685,34.60910315 L 16.51223436,34.51223436 L 17.0,34.1214207 L 17.07148539,34.07148539 L 17.17332658,34.0 L 17.63866894,33.63866894 L 18.0,33.35729944 L 18.21451601,33.21451601 L 18.53559089,33.0 " stroke="rgb(255,255,0)" stroke-width="0.245" fill="none" /> 
<path d="M 18.53559089,16.0 L 18.80111528,16.19888472 L 19.0,16.34818008 L 19.40129867,16.59870133 L 19.92917223,16.92917223 L 20.0,16.97348454 L 20.01768381,16.98231619 L 20.05297887,17.0 " stroke="rgb(255,255,0)" stroke-width="0.245" fill="none" /> 
<path d="M 19.0,32.65181992 L 19.40129867,32.40129867 L 19.92917223,32.07082777 L 20.0,32.02651546 L 20.01768381,32.01768381 L 20.05297887,32.0 M 19.0,32.65181992 L 18.80111528,32.80111528 L 18.53559089,33.0 " stroke="rgb(255,255,0)" stroke-width="0.245" fill="none" /> 
<path d="M 20.05297887,17.0 L 20.65592408,17.34407592 L 21.0,17.54082326 L 21.32149536,17.67850464 L 21.94695903,17.94695903 L 22.0,17.9697044 L 22.02356631,17.97643369 L 22.10591049,18.0 L 22.77666673,18.22333327 L 23.0,18.29779971 L 23.35734105,18.35734105 L 23.60194243,18.39805757 L 24.0,18.46440911 L 24.46440911,18.46440911 L 24.53559089,18.46440911 L 25.0,18.46440911 L 25.39805757,18.39805757 L 25.64265895,18.35734105 L 26.0,18.29779971 L 26.22333327,18.22333327 L 26.89408951,18.0 L 26.97643369,17.97643369 L 27.0,17.9697044 L 27.05304097,17.94695903 L 27.67850464,17.67850464 L 28.0,17.54082326 L 28.34407592,17.34407592 L 28.94702113,17.0 " stroke="rgb(255,255,0)" stroke-width="0.245" fill="none" /> 
<path d="M 21.0,31.45917674 L 21.32149536,31.32149536 L 21.94695903,31.05304097 L 22.0,31.0302956 L 22.02356631,31.02356631 L 22.10591049,31.0 L 22.77666673,30.77666673 L 23.0,30.70220029 L 23.35734105,30.64265895 L 23.60194243,30.60194243 L 24.0,30.53559089 L 24.46440911,30.53559089 L 24.53559089,30.53559089 L 25.0,30.53559089 L 25.39805757,30.60194243 L 25.64265895,30.64265895 L 26.0,30.70220029 L 26.22333327,30.77666673 L 26.89408951,31.0 L 26.97643369,31.02356631 L 27.0,31.0302956 L 27.05304097,31.05304097 L 27.67850464,31.32149536 L 28.0,31.45917674 L 28.34407592,31.65592408 L 28.94702113,32.0 M 21.0,31.45917674 L 20.65592408,31.65592408 L 20.05297887,32.0 " stroke="rgb(255,255,0)" stroke-width="0.245" fill="none" /> 
<path d="M 29.0,16.97348454 L 29.07082777,16.92917223 L 29.59870133,16.59870133 L 30.0,16.34818008 L 30.19888472,16.19888472 L 30.46440911,16.0 M 29.0,16.97348454 L 28.98231619,16.98231619 L 28.94702113,17.0 " stroke="rgb(255,255,0)" stroke-width="0.245" fill="none" /> 
<path d="M 28.94702113,32.0 L 28.98231619,32.01768381 L 29.0,32.02651546 L 29.07082777,32.07082777 L 29.59870133,32.40129867 L 30.0,32.65181992 L 30.19888472,32.80111528 L 30.46440911,33.0 " stroke="rgb(255,255,0)" stroke-width="0.245" fill="none" /> 
<path d="M 31.0,15.64270056 L 31.36133106,15.36133106 L 31.82667342,15.0 L 31.92851461,14.92851461 L 32.0,14.8785793 L 32.48776564,14.48776564 L 32.60910315,14.39089685 L 33.0,14.07870129 L 33.04140377,14.04140377 L 33.08745821,14.0 L 33.58881935,13.58881935 L 34.0,13.25309786 L 34.13250376,13.13250376 L 34.27845107,13.0 L 34.67151114,12.67151114 L 35.0,12.39846367 L 35.20775831,12.20775831 L 35.43476187,12.0 L 35.74045636,11.74045636 L 36.0,11.52150836 L 36.27097292,11.27097292 L 36.56507233,11.0 L 36.79883507,10.79883507 L 37.0,10.62702467 L 37.32482563,10.32482563 L 37.67539291,10.0 L 37.84891878,9.84891878 L 38.0,9.7185273 L 38.37125565,9.37125565 L 38.77001687,9.0 L 38.89237336,8.89237336 L 39.0,8.79865239 L 39.41170184,8.41170184 L 39.85209256,8.0 L 39.93044822,7.93044822 L 40.0,7.86941562 L 40.44725415,7.44725415 L 40.92398138,7.0 L 40.96409887,6.96409887 L 41.0,6.93238504 L 41.47875344,6.47875344 L 41.98748904,6.0 L 41.9940685,5.9940685 L 42.0,5.98879846 L 42.22784122,5.77215878 L 42.50683266,5.50683266 L 43.0,5.04138305 L 43.02069153,5.02069153 L 43.04138305,5.0 L 43.53195821,4.53195821 L 44.0,4.08918233 L 44.04459116,4.04459116 L 44.08918233,4.0 L 44.55462415,3.55462415 L 45.0,3.13242273 L 45.06621136,3.06621136 L 45.13242273,3.0 L 45.57517357,2.57517357 L 46.0,2.17172608 L 46.08586304,2.08586304 L 46.17172608,2.0 L 46.59388871,1.59388871 L 47.0,1.20760578 L 47.10380289,1.10380289 L 47.20760578,1.0 L 47.61100373,0.61100373 L 48.0,0.24048984 L 48.12024492,0.12024492 L 48.24048984,0.0 M 31.0,15.64270056 L 30.78548399,15.78548399 L 30.46440911,16.0 " stroke="rgb(255,255,0)" stroke-width="0.245" fill="none" /> 
<path d="M 30.46440911,33.0 L 30.78548399,33.21451601 L 31.0,33.35729944 L 31.36133106,33.63866894 L 31.82667342,34.0 L 31.92851461,34.07148539 L 32.0,34.1214207 L 32.48776564,34.51223436 L 32.60910315,34.60910315 L 33.0,34.92129871 L 33.04140377,34.95859623 L 33.08745821,35.0 L 33.58881935,35.41118065 L 34.0,35.74690214 L 34.13250376,35.86749624 L 34.27845107,36.0 L 34.67151114,36.32848886 L 35.0,36.60153633 L 35.20775831,36.79224169 L 35.43476187,37.0 L 35.74045636,37.25954364 L 36.0,37.47849164 L 36.27097292,37.72902708 L 36.56507233,38.0 L 36.79883507,38.20116493 L 37.0,38.37297533 L 37.32482563,38.67517437 L 37.67539291,39.0 L 37.84891878,39.15108122 L 38.0,39.2814727 L 38.37125565,39.62874435 L 38.77001687,40.0 L 38.89237336,40.10762664 L 39.0,40.20134761 L 39.41170184,40.58829816 L 39.85209256,41.0 L 39.93044822,41.06955178 L 40.0,41.13058438 L 40.44725415,41.55274585 L 40.92398138,42.0 L 40.96409887,42.03590113 L 41.0,42.06761496 L 41.47875344,42.52124656 L 41.98748904,43.0 L 41.9940685,43.0059315 L 42.0,43.01120154 L 42.22784122,43.22784122 L 42.50683266,43.49316734 L 43.0,43.95861695 L 43.02069153,43.97930847 L 43.04138305,44.0 L 43.53195821,44.46804179 L 44.0,44.91081767 L 44.04459116,44.95540884 L 44.08918233,45.0 L 44.55462415,45.44537585 L 45.0,45.86757727 L 45.06621136,45.93378864 L 45.13242273,46.0 L 45.57517357,46.42482643 L 46.0,46.82827392 L 46.08586304,46.91413696 L 46.17172608,47.0 L 46.59388871,47.40611129 L 47.0,47.79239422 L 47.10380289,47.89619711 L 47.20760578,48.0 L 47.61100373,48.38899627 L 48.0,48.75951016 L 48.12024492,48.87975508 L 48.24048984,49.0 " stroke="rgb(255,255,0)" stroke-width="0.245" fill="none" /> 
<path d="M 2.37566989,0.0 L 2.70340585,0.29659415 L 3.0,0.57159474 L 3.23026596,0.76973404 L 3.48859254,1.0 L 3.7574163,1.2425837 L 4.0,1.46638659 L 4.28743508,1.71256492 L 4.61244546,2.0 L 4.81648385,2.18351615 L 5.0,2.35192696 L 5.34995449,2.65004551 L 5.74899381,3.0 L 5.88137943,3.11862057 " stroke="rgb(204,255,0)" stroke-width="0.245" fill="none" /> 
<path d="M 3.0,48.42840526 L 3.23026596,48.23026596 L 3.48859254,48.0 L 3.7574163,47.7574163 L 4.0,47.53361341 L 4.28743508,47.28743508 L 4.61244546,47.0 L 4.81648385,46.81648385 L 5.0,46.64807304 L 5.34995449,46.34995449 L 5.74899381,46.0 L 5.88137943,45.88137943 L 6.0,45.77314116 L 6.41867291,45.41867291 L 6.90039441,45.0 L 6.95303607,44.95303607 L 7.0,44.91044547 L 7.49462178,44.49462178 L 7.57182732,44.42817268 L 8.0,44.06030884 L 8.03370991,44.03370991 L 8.07515519,44.0 L 8.57989882,43.57989882 L 9.0,43.22276109 L 9.12515057,43.12515057 L 9.28135197,43.0 L 9.67519763,42.67519763 L 10.0,42.40226504 L 10.22732519,42.22732519 L 10.51580341,42.0 L 10.78243546,41.78243546 L 11.0,41.60195873 L 11.34247163,41.34247163 L 11.78519563,41.0 L 11.90413831,40.90413831 L 12.0,40.8257605 L 12.47346382,40.47346382 L 12.69238539,40.30761461 L 13.0,40.07515519 L 13.044698,40.044698 L 13.10891868,40.0 L 13.6249977,39.6249977 M 3.0,48.42840526 L 2.70340585,48.70340585 L 2.37566989,49.0 " stroke="rgb(204,255,0)" stroke-width="0.245" fill="none" /> 
<path d="M 6.0,3.22685884 L 5.88137943,3.11862057 M 6.0,3.22685884 L 6.41867291,3.58132709 L 6.90039441,4.0 L 6.95303607,4.04696393 L 7.0,4.08955453 L 7.49462178,4.50537822 L 7.57182732,4.57182732 L 8.0,4.93969116 L 8.03370991,4.96629009 L 8.07515519,5.0 L 8.57989882,5.42010118 L 9.0,5.77723891 L 9.12515057,5.87484943 L 9.28135197,6.0 L 9.67519763,6.32480237 L 10.0,6.59773496 L 10.22732519,6.77267481 L 10.51580341,7.0 L 10.78243546,7.21756454 L 11.0,7.39804127 L 11.34247163,7.65752837 L 11.78519563,8.0 L 11.90413831,8.09586169 L 12.0,8.1742395 L 12.47346382,8.52653618 L 12.69238539,8.69238539 L 13.0,8.92484481 L 13.044698,8.955302 L 13.10891868,9.0 L 13.6249977,9.3750023 L 14.0,9.65176222 L 14.20956674,9.79043326 L 14.52060626,10.0 L 14.80116937,10.19883063 L 15.0,10.34160781 L 15.40172741,10.59827259 L 15.96117782,10.96117782 L 16.0,10.98627919 L 16.00875173,10.99124827 L 16.02390771,11.0 L 16.63000688,11.36999312 L 17.0,11.59873611 L 17.26128473,11.73871527 L 17.7422991,12.0 L 17.90545867,12.09454133 L 18.0,12.14989012 L 18.29861267,12.29861267 L 18.56781493,12.43218507 L 19.0,12.64903923 L 19.24800364,12.75199636 L 19.83847456,13.0 L 19.94973883,13.05026117 L 20.0,13.07316563 L 20.114804,13.114804 L 20.68078677,13.31921323 L 21.0,13.43554736 L 21.44370233,13.55629767 L 21.59892087,13.59892087 L 22.0,13.70849437 L 22.24671835,13.75328165 L 22.86684381,13.86684381 L 23.0,13.89108132 L 23.09984981,13.90015019 L 23.98083222,13.98083222 L 24.0,13.98257555 L 24.01742445,13.98257555 L 24.98257555,13.98257555 L 25.0,13.98257555 L 25.01916778,13.98083222 L 25.90015019,13.90015019 L 26.0,13.89108132 L 26.13315619,13.86684381 L 26.75328165,13.75328165 L 27.0,13.70849437 L 27.40107913,13.59892087 L 27.55629767,13.55629767 L 28.0,13.43554736 L 28.31921323,13.31921323 L 28.885196,13.114804 L 29.0,13.07316563 L 29.05026117,13.05026117 L 29.16152544,13.0 L 29.75199636,12.75199636 L 30.0,12.64903923 L 30.43218507,12.43218507 L 30.70138733,12.29861267 L 31.0,12.14989012 L 31.09454133,12.09454133 L 31.2577009,12.0 L 31.73871527,11.73871527 " stroke="rgb(204,255,0)" stroke-width="0.245" fill="none" /> 
<path d="M 14.0,39.34823778 L 13.6249977,39.6249977 M 14.0,39.34823778 L 14.20956674,39.20956674 L 14.52060626,39.0 L 14.80116937,38.80116937 L 15.0,38.65839219 L 15.40172741,38.40172741 L 15.96117782,38.03882218 L 16.0,38.01372081 L 16.00875173,38.00875173 L 16.02390771,38.0 L 16.63000688,37.63000688 L 17.0,37.40126389 L 17.26128473,37.26128473 L 17.7422991,37.0 L 17.90545867,36.90545867 L 18.0,36.85010988 L 18.29861267,36.70138733 L 18.56781493,36.56781493 L 19.0,36.35096077 L 19.24800364,36.24800364 L 19.83847456,36.0 L 19.94973883,35.94973883 L 20.0,35.92683437 L 20.114804,35.885196 L 20.68078677,35.68078677 L 21.0,35.56445264 L 21.44370233,35.44370233 L 21.59892087,35.40107913 L 22.0,35.29150563 L 22.24671835,35.24671835 L 22.86684381,35.13315619 L 23.0,35.10891868 L 23.09984981,35.09984981 L 23.98083222,35.01916778 L 24.0,35.01742445 L 24.01742445,35.01742445 L 24.98257555,35.01742445 L 25.0,35.01742445 L 25.01916778,35.01916778 L 25.90015019,35.09984981 L 26.0,35.10891868 L 26.13315619,35.13315619 L 26.75328165,35.24671835 L 27.0,35.29150563 L 27.40107913,35.40107913 L 27.55629767,35.44370233 L 28.0,35.56445264 L 28.31921323,35.68078677 L 28.885196,35.885196 L 29.0,35.92683437 L 29.05026117,35.94973883 L 29.16152544,36.0 L 29.75199636,36.24800364 L 30.0,36.35096077 L 30.43218507,36.56781493 L 30.70138733,36.70138733 L 31.0,36.85010988 L 31.09454133,36.90545867 L 31.2577009,37.0 L 31.73871527,37.26128473 L 32.0,37.40126389 L 32.36999312,37.63000688 L 32.97609229,38.0 L 32.99124827,38.00875173 L 33.0,38.01372081 L 33.03882218,38.03882218 L 33.59827259,38.40172741 L 34.0,38.65839219 L 34.19883063,38.80116937 L 34.47939374,39.0 L 34.79043326,39.20956674 L 35.0,39.34823778 L 35.3750023,39.6249977 L 35.89108132,40.0 L 35.955302,40.044698 L 36.0,40.07515519 L 36.30761461,40.30761461 L 36.52653618,40.47346382 L 37.0,40.8257605 L 37.09586169,40.90413831 L 37.21480437,41.0 L 37.65752837,41.34247163 L 38.0,41.60195873 L 38.21756454,41.78243546 L 38.48419659,42.0 L 38.77267481,42.22732519 L 39.0,42.40226504 L 39.32480237,42.67519763 L 39.71864803,43.0 L 39.87484943,43.12515057 L 40.0,43.22276109 L 40.42010118,43.57989882 L 40.92484481,44.0 L 40.96629009,44.03370991 L 41.0,44.06030884 L 41.42817268,44.42817268 L 41.50537822,44.49462178 L 42.0,44.91044547 L 42.04696393,44.95303607 L 42.09960559,45.0 L 42.58132709,45.41867291 L 43.0,45.77314116 L 43.11862057,45.88137943 L 43.25100619,46.0 L 43.65004551,46.34995449 L 44.0,46.64807304 L 44.18351615,46.81648385 L 44.38755454,47.0 L 44.71256492,47.28743508 L 45.0,47.53361341 L 45.2425837,47.7574163 L 45.51140746,48.0 L 45.76973404,48.23026596 L 46.0,48.42840526 L 46.29659415,48.70340585 L 46.62433011,49.0 " stroke="rgb(204,255,0)" stroke-width="0.245" fill="none" /> 
<path d="M 32.0,11.59873611 L 31.73871527,11.73871527 M 32.0,11.59873611 L 32.36999312,11.36999312 L 32.97609229,11.0 L 32.99124827,10.99124827 L 33.0,10.98627919 L 33.03882218,10.96117782 L 33.59827259,10.59827259 L 34.0,10.34160781 L 34.19883063,10.19883063 L 34.47939374,10.0 L 34.79043326,9.79043326 L 35.0,9.65176222 L 35.3750023,9.3750023 L 35.89108132,9.0 L 35.955302,8.955302 L 36.0,8.92484481 L 36.30761461,8.69238539 L 36.52653618,8.52653618 L 37.0,8.1742395 L 37.09586169,8.09586169 L 37.21480437,8.0 L 37.65752837,7.65752837 L 38.0,7.39804127 L 38.21756454,7.21756454 L 38.48419659,7.0 L 38.77267481,6.77267481 L 39.0,6.59773496 L 39.32480237,6.32480237 L 39.71864803,6.0 L 39.87484943,5.87484943 L 40.0,5.77723891 L 40.42010118,5.42010118 L 40.92484481,5.0 L 40.96629009,4.96629009 L 41.0,4.93969116 L 41.42817268,4.57182732 L 41.50537822,4.50537822 " stroke="rgb(204,255,0)" stroke-width="0.245" fill="none" /> 
<path d="M 42.0,4.08955453 L 42.04696393,4.04696393 L 42.09960559,4.0 L 42.58132709,3.58132709 L 43.0,3.22685884 L 43.11862057,3.11862057 L 43.25100619,3.0 L 43.65004551,2.65004551 L 44.0,2.35192696 L 44.18351615,2.18351615 L 44.38755454,2.0 L 44.71256492,1.71256492 L 45.0,1.46638659 L 45.2425837,1.2425837 L 45.51140746,1.0 L 45.76973404,0.76973404 L 46.0,0.57159474 L 46.29659415,0.29659415 L 46.62433011,0.0 M 42.0,4.08955453 L 41.50537822,4.50537822 " stroke="rgb(204,255,0)" stroke-width="0.245" fill="none" /> 
<path d="M 4.20507824,0.0 L 4.64386875,0.35613125 L 5.0,0.65929377 L 5.19235813,0.80764187 L 5.42769784,1.0 L 5.74449032,1.25550968 L 6.0,1.47065436 L 6.29999466,1.70000534 L 6.67242932,2.0 L 6.85434367,2.14565633 L 7.0,2.26688088 L 7.41729807,2.58270193 L 7.94351425,3.0 L 7.97500133,3.02499867 L 8.0,3.0455449 L 8.18074721,3.18074721 L 8.54698073,3.45301927 L 9.0,3.80443409 L 9.11507339,3.88492661 L 9.27171205,4.0 L 9.69176697,4.30823303 L 10.0,4.54306969 L 10.27079472,4.72920528 L 10.64813359,5.0 L 10.85238473,5.14761527 " stroke="rgb(153,255,0)" stroke-width="0.245" fill="none" /> 
<path d="M 5.0,48.34070623 L 5.19235813,48.19235813 L 5.42769784,48.0 L 5.74449032,47.74449032 L 6.0,47.52934564 L 6.29999466,47.29999466 L 6.67242932,47.0 L 6.85434367,46.85434367 L 7.0,46.73311912 L 7.41729807,46.41729807 L 7.94351425,46.0 L 7.97500133,45.97500133 L 8.0,45.9544551 L 8.18074721,45.81925279 L 8.54698073,45.54698073 L 9.0,45.19556591 L 9.11507339,45.11507339 L 9.27171205,45.0 L 9.69176697,44.69176697 L 10.0,44.45693031 L 10.27079472,44.27079472 L 10.64813359,44.0 L 10.85238473,43.85238473 L 11.0,43.74212064 L 11.44344505,43.44344505 L 11.81970989,43.18029011 L 12.0,43.05504783 L 12.03396016,43.03396016 L 12.08637357,43.0 L 12.63900215,42.63900215 L 13.0,42.39521067 L 13.24663452,42.24663452 L 13.64133954,42.0 L 13.86060943,41.86060943 L 14.0,41.76943051 L 14.48660142,41.48660142 L 14.55353739,41.44646261 L 15.0,41.18084426 L 15.1187421,41.1187421 L 15.33823007,41.0 L 15.76442472,40.76442472 L 16.0,40.63068202 L 16.42183339,40.42183339 L 16.74042863,40.25957137 L 17.0,40.12859241 L 17.08971446,40.08971446 L 17.29066858,40.0 L 17.77683988,39.77683988 L 18.0,39.67195052 L 18.48097159,39.48097159 L 18.54513047,39.45486953 L 19.0,39.27171205 L 19.20412191,39.20412191 L 19.80546995,39.0 L 19.94936876,38.94936876 L 20.0,38.93119852 L 20.09613988,38.90386012 L 20.72657188,38.72657188 L 21.0,38.64813359 L 21.44736395,38.55263605 L 21.53431151,38.53431151 L 22.0,38.43421415 L 22.3800687,38.3800687 L 22.6606674,38.3393326 L 23.0,38.29076028 L 23.27140543,38.27140543 L 23.7643903,38.2356097 L 24.0,38.21876684 L 24.21876687,38.21876687 L 24.78123313,38.21876687 L 25.0,38.21876684 L 25.2356097,38.2356097 L 25.72859457,38.27140543 L 26.0,38.29076028 L 26.3393326,38.3393326 L 26.6199313,38.3800687 L 27.0,38.43421415 L 27.46568849,38.53431151 L 27.55263605,38.55263605 L 28.0,38.64813359 L 28.27342812,38.72657188 L 28.90386012,38.90386012 L 29.0,38.93119852 L 29.05063124,38.94936876 L 29.19453005,39.0 L 29.79587809,39.20412191 M 5.0,48.34070623 L 4.64386875,48.64386875 L 4.20507824,49.0 " stroke="rgb(153,255,0)" stroke-width="0.245" fill="none" /> 
<path d="M 11.0,5.25787936 L 10.85238473,5.14761527 M 11.0,5.25787936 L 11.44344505,5.55655495 L 11.81970989,5.81970989 L 12.0,5.94495217 L 12.03396016,5.96603984 L 12.08637357,6.0 L 12.63900215,6.36099785 L 13.0,6.60478933 L 13.24663452,6.75336548 L 13.64133954,7.0 L 13.86060943,7.13939057 L 14.0,7.23056949 L 14.48660142,7.51339858 L 14.55353739,7.55353739 L 15.0,7.81915574 L 15.1187421,7.8812579 L 15.33823007,8.0 L 15.76442472,8.23557528 L 16.0,8.36931798 L 16.42183339,8.57816661 L 16.74042863,8.74042863 L 17.0,8.87140759 L 17.08971446,8.91028554 L 17.29066858,9.0 L 17.77683988,9.22316012 L 18.0,9.32804948 L 18.48097159,9.51902841 L 18.54513047,9.54513047 L 19.0,9.72828795 L 19.20412191,9.79587809 L 19.80546995,10.0 L 19.94936876,10.05063124 L 20.0,10.06880148 L 20.09613988,10.09613988 L 20.72657188,10.27342812 L 21.0,10.35186641 L 21.44736395,10.44736395 L 21.53431151,10.46568849 L 22.0,10.56578585 L 22.3800687,10.6199313 L 22.6606674,10.6606674 L 23.0,10.70923972 L 23.27140543,10.72859457 L 23.7643903,10.7643903 L 24.0,10.78123316 L 24.21876687,10.78123313 L 24.78123313,10.78123313 L 25.0,10.78123316 L 25.2356097,10.7643903 L 25.72859457,10.72859457 L 26.0,10.70923972 L 26.3393326,10.6606674 L 26.6199313,10.6199313 L 27.0,10.56578585 L 27.46568849,10.46568849 L 27.55263605,10.44736395 L 28.0,10.35186641 L 28.27342812,10.27342812 L 28.90386012,10.09613988 L 29.0,10.06880148 L 29.05063124,10.05063124 L 29.19453005,10.0 L 29.79587809,9.79587809 " stroke="rgb(153,255,0)" stroke-width="0.245" fill="none" /> 
<path d="M 30.0,9.72828795 L 29.79587809,9.79587809 M 30.0,9.72828795 L 30.45486953,9.54513047 L 30.51902841,9.51902841 L 31.0,9.32804948 L 31.22316012,9.22316012 L 31.70933142,9.0 L 31.91028554,8.91028554 L 32.0,8.87140759 L 32.25957137,8.74042863 L 32.57816661,8.57816661 L 33.0,8.36931798 L 33.23557528,8.23557528 L 33.66176993,8.0 L 33.8812579,7.8812579 L 34.0,7.81915574 L 34.44646261,7.55353739 L 34.51339858,7.51339858 L 35.0,7.23056949 L 35.13939057,7.13939057 L 35.35866046,7.0 L 35.75336548,6.75336548 L 36.0,6.60478933 L 36.36099785,6.36099785 L 36.91362643,6.0 L 36.96603984,5.96603984 L 37.0,5.94495217 L 37.18029011,5.81970989 L 37.55655495,5.55655495 L 38.0,5.25787936 L 38.14761527,5.14761527 L 38.35186641,5.0 L 38.72920528,4.72920528 L 39.0,4.54306969 L 39.30823303,4.30823303 L 39.72828795,4.0 L 39.88492661,3.88492661 L 40.0,3.80443409 L 40.45301927,3.45301927 L 40.81925279,3.18074721 L 41.0,3.0455449 L 41.02499867,3.02499867 L 41.05648575,3.0 L 41.58270193,2.58270193 L 42.0,2.26688088 L 42.14565633,2.14565633 L 42.32757068,2.0 L 42.70000534,1.70000534 L 43.0,1.47065436 L 43.25550968,1.25550968 L 43.57230216,1.0 L 43.80764187,0.80764187 L 44.0,0.65929377 L 44.35613125,0.35613125 L 44.79492176,0.0 " stroke="rgb(153,255,0)" stroke-width="0.245" fill="none" /> 
<path d="M 30.0,39.27171205 L 30.45486953,39.45486953 L 30.51902841,39.48097159 L 31.0,39.67195052 L 31.22316012,39.77683988 L 31.70933142,40.0 L 31.91028554,40.08971446 L 32.0,40.12859241 L 32.25957137,40.25957137 L 32.57816661,40.42183339 L 33.0,40.63068202 L 33.23557528,40.76442472 L 33.66176993,41.0 L 33.8812579,41.1187421 L 34.0,41.18084426 L 34.44646261,41.44646261 L 34.51339858,41.48660142 L 35.0,41.76943051 L 35.13939057,41.86060943 L 35.35866046,42.0 L 35.75336548,42.24663452 L 36.0,42.39521067 L 36.36099785,42.63900215 L 36.91362643,43.0 L 36.96603984,43.03396016 L 37.0,43.05504783 L 37.18029011,43.18029011 L 37.55655495,43.44344505 L 38.0,43.74212064 L 38.14761527,43.85238473 L 38.35186641,44.0 L 38.72920528,44.27079472 L 39.0,44.45693031 L 39.30823303,44.69176697 L 39.72828795,45.0 L 39.88492661,45.11507339 L 40.0,45.19556591 L 40.45301927,45.54698073 L 40.81925279,45.81925279 L 41.0,45.9544551 L 41.02499867,45.97500133 L 41.05648575,46.0 L 41.58270193,46.41729807 L 42.0,46.73311912 L 42.14565633,46.85434367 L 42.32757068,47.0 L 42.70000534,47.29999466 L 43.0,47.52934564 L 43.25550968,47.74449032 L 43.57230216,48.0 L 43.80764187,48.19235813 L 44.0,48.34070623 L 44.35613125,48.64386875 L 44.79492176,49.0 M 30.0,39.27171205 L 29.79587809,39.20412191 " stroke="rgb(153,255,0)" stroke-width="0.245" fill="none" /> 
<path d="M 6.44187845,0.0 L 6.76656498,0.23343502 L 7.0,0.41393902 L 7.3480595,0.6519405 L 7.8165014,1.0 L 7.92370143,1.07629857 L 8.0,1.13422733 L 8.41244373,1.41244373 L 8.5176422,1.4823578 " stroke="rgb(102,255,0)" stroke-width="0.245" fill="none" /> 
<path d="M 7.0,48.58606098 L 7.3480595,48.3480595 L 7.8165014,48.0 L 7.92370143,47.92370143 L 8.0,47.86577267 L 8.41244373,47.58755627 L 8.5176422,47.5176422 L 9.0,47.17171194 L 9.10533227,47.10533227 L 9.25892814,47.0 L 9.70673756,46.70673756 L 10.0,46.50145684 L 10.30993666,46.30993666 L 10.77598257,46.0 L 10.91229333,45.91229333 L 11.0,45.85248617 L 11.37225256,45.62774744 L 11.5325452,45.5325452 L 12.0,45.23601959 L 12.15164261,45.15164261 L 12.40554929,45.0 L 12.78207253,44.78207253 L 13.0,44.64860729 L 13.42173851,44.42173851 L 13.78692397,44.21307603 L 14.0,44.09335754 L 14.0627078,44.0627078 L 14.182873,44.0 L 14.72469025,43.72469025 L 15.0,43.57724038 L 15.39400738,43.39400738 L 15.81069561,43.18930439 L 16.0,43.09806082 L 16.06937353,43.06937353 L 16.22768012,43.0 L 16.76777894,42.76777894 L 17.0,42.66314275 L 17.47933997,42.47933997 L 17.54845671,42.45154329 L 18.0,42.27364912 L 18.20590589,42.20590589 L 18.80175127,42.0 L 18.9494238,41.9494238 L 19.0,41.93139877 L 19.09679761,41.90320239 L 19.72442265,41.72442265 L 20.0,41.64267662 L 20.46609014,41.53390986 L 20.52134048,41.52134048 L 21.0,41.40791924 L 21.34707424,41.34707424 L 21.72112009,41.27887991 L 22.0,41.22940342 L 22.2053583,41.2053583 L 22.87625899,41.12374101 L 23.0,41.10913348 L 23.10308634,41.10308634 L 23.94835717,41.05164283 L 24.0,41.0486008 L 24.04860081,41.04860081 L 24.95139919,41.04860081 L 25.0,41.0486008 L 25.05164283,41.05164283 L 25.89691366,41.10308634 L 26.0,41.10913348 L 26.12374101,41.12374101 L 26.7946417,41.2053583 L 27.0,41.22940342 L 27.27887991,41.27887991 L 27.65292576,41.34707424 L 28.0,41.40791924 L 28.47865952,41.52134048 L 28.53390986,41.53390986 L 29.0,41.64267662 L 29.27557735,41.72442265 L 29.90320239,41.90320239 L 30.0,41.93139877 L 30.0505762,41.9494238 L 30.19824873,42.0 L 30.79409411,42.20590589 L 31.0,42.27364912 L 31.45154329,42.45154329 L 31.52066003,42.47933997 L 32.0,42.66314275 L 32.23222106,42.76777894 L 32.77231988,43.0 L 32.93062647,43.06937353 L 33.0,43.09806082 L 33.18930439,43.18930439 L 33.60599262,43.39400738 L 34.0,43.57724038 L 34.27530975,43.72469025 L 34.817127,44.0 L 34.9372922,44.0627078 L 35.0,44.09335754 L 35.21307603,44.21307603 L 35.57826149,44.42173851 L 36.0,44.64860729 L 36.21792747,44.78207253 L 36.59445071,45.0 L 36.84835739,45.15164261 L 37.0,45.23601959 L 37.4674548,45.5325452 L 37.62774744,45.62774744 L 38.0,45.85248617 L 38.08770667,45.91229333 L 38.22401743,46.0 L 38.69006334,46.30993666 L 39.0,46.50145684 L 39.29326244,46.70673756 L 39.74107186,47.0 L 39.89466773,47.10533227 L 40.0,47.17171194 L 40.4823578,47.5176422 L 40.58755627,47.58755627 L 41.0,47.86577267 L 41.07629857,47.92370143 L 41.1834986,48.0 L 41.6519405,48.3480595 L 42.0,48.58606098 L 42.23343502,48.76656498 L 42.55812155,49.0 M 7.0,48.58606098 L 6.76656498,48.76656498 L 6.44187845,49.0 " stroke="rgb(102,255,0)" stroke-width="0.245" fill="none" /> 
<path d="M 9.0,1.82828806 L 9.10533227,1.89466773 L 9.25892814,2.0 L 9.70673756,2.29326244 L 10.0,2.49854316 L 10.30993666,2.69006334 L 10.77598257,3.0 L 10.91229333,3.08770667 L 11.0,3.14751383 L 11.37225256,3.37225256 L 11.5325452,3.4674548 L 12.0,3.76398041 L 12.15164261,3.84835739 L 12.40554929,4.0 L 12.78207253,4.21792747 M 9.0,1.82828806 L 8.5176422,1.4823578 " stroke="rgb(102,255,0)" stroke-width="0.245" fill="none" /> 
<path d="M 13.0,4.35139271 L 12.78207253,4.21792747 M 13.0,4.35139271 L 13.42173851,4.57826149 L 13.78692397,4.78692397 L 14.0,4.90664246 L 14.0627078,4.9372922 L 14.182873,5.0 L 14.72469025,5.27530975 L 15.0,5.42275962 L 15.39400738,5.60599262 L 15.81069561,5.81069561 L 16.0,5.90193918 L 16.06937353,5.93062647 L 16.22768012,6.0 L 16.76777894,6.23222106 L 17.0,6.33685725 L 17.47933997,6.52066003 L 17.54845671,6.54845671 L 18.0,6.72635088 L 18.20590589,6.79409411 L 18.80175127,7.0 L 18.9494238,7.0505762 L 19.0,7.06860123 L 19.09679761,7.09679761 L 19.72442265,7.27557735 L 20.0,7.35732338 L 20.46609014,7.46609014 L 20.52134048,7.47865952 L 21.0,7.59208076 L 21.34707424,7.65292576 L 21.72112009,7.72112009 L 22.0,7.77059658 L 22.2053583,7.7946417 L 22.87625899,7.87625899 L 23.0,7.89086652 L 23.10308634,7.89691366 L 23.94835717,7.94835717 L 24.0,7.9513992 L 24.04860081,7.95139919 L 24.95139919,7.95139919 L 25.0,7.9513992 L 25.05164283,7.94835717 L 25.89691366,7.89691366 L 26.0,7.89086652 L 26.12374101,7.87625899 L 26.7946417,7.7946417 L 27.0,7.77059658 L 27.27887991,7.72112009 L 27.65292576,7.65292576 L 28.0,7.59208076 L 28.47865952,7.47865952 L 28.53390986,7.46609014 L 29.0,7.35732338 L 29.27557735,7.27557735 L 29.90320239,7.09679761 L 30.0,7.06860123 L 30.0505762,7.0505762 L 30.19824873,7.0 L 30.79409411,6.79409411 " stroke="rgb(102,255,0)" stroke-width="0.245" fill="none" /> 
<path d="M 31.0,6.72635088 L 30.79409411,6.79409411 M 31.0,6.72635088 L 31.45154329,6.54845671 L 31.52066003,6.52066003 L 32.0,6.33685725 L 32.23222106,6.23222106 L 32.77231988,6.0 L 32.93062647,5.93062647 L 33.0,5.90193918 L 33.18930439,5.81069561 L 33.60599262,5.60599262 L 34.0,5.42275962 L 34.27530975,5.27530975 L 34.817127,5.0 L 34.9372922,4.9372922 L 35.0,4.90664246 L 35.21307603,4.78692397 L 35.57826149,4.57826149 L 36.0,4.35139271 L 36.21792747,4.21792747 L 36.59445071,4.0 L 36.84835739,3.84835739 L 37.0,3.76398041 L 37.4674548,3.4674548 L 37.62774744,3.37225256 L 38.0,3.14751383 L 38.08770667,3.08770667 L 38.22401743,3.0 L 38.69006334,2.69006334 L 39.0,2.49854316 L 39.29326244,2.29326244 L 39.74107186,2.0 L 39.89466773,1.89466773 L 40.0,1.82828806 L 40.4823578,1.4823578 L 40.58755627,1.41244373 L 41.0,1.13422733 L 41.07629857,1.07629857 L 41.1834986,1.0 L 41.6519405,0.6519405 L 42.0,0.41393902 L 42.23343502,0.23343502 L 42.55812155,0.0 " stroke="rgb(102,255,0)" stroke-width="0.245" fill="none" /> 
<path d="M 9.5782425,0.0 L 9.84519585,0.15480415 " stroke="rgb(51,255,0)" stroke-width="0.245" fill="none" /> 
<path d="M 10.0,0.25596159 L 10.47840892,0.52159108 L 10.59575759,0.59575759 L 11.0,0.84352067 L 11.10342519,0.89657481 L 11.27713947,1.0 L 11.75145879,1.24854121 L 12.0,1.39481837 L 12.40363775,1.59636225 L 12.84642004,1.84642004 L 13.0,1.93010313 L 13.04799222,1.95200778 L 13.13958619,2.0 L 13.72710719,2.27289281 L 14.0,2.41413637 L 14.40736794,2.59263206 L 14.77072012,2.77072012 L 15.0,2.87871425 L 15.08700108,2.91299892 L 15.28240528,3.0 L 15.79496966,3.20503034 L 16.0,3.2953484 L 16.46900506,3.46900506 L 16.51482715,3.48517285 L 17.0,3.67504209 L 17.24538269,3.75461731 L 17.92795825,4.0 L 17.98216929,4.01783071 L 18.0,4.02419734 L 18.0342757,4.0342757 L 18.76169053,4.23830947 L 19.0,4.31112332 L 19.41236847,4.41236847 L 19.55455448,4.44544552 L 20.0,4.55861325 L 20.36877029,4.63122971 L 20.70277419,4.70277419 L 21.0,4.76301791 L 21.20640612,4.79359388 L 21.90638042,4.90638042 L 22.0,4.92056625 L 22.07227176,4.92772824 L 22.74356934,5.0 L 22.97689609,5.02310391 M 10.0,0.25596159 L 9.84519585,0.15480415 " stroke="rgb(51,255,0)" stroke-width="0.245" fill="none" /> 
<path d="M 10.0,48.74403841 L 10.47840892,48.47840892 L 10.59575759,48.40424241 L 11.0,48.15647933 L 11.10342519,48.10342519 L 11.27713947,48.0 L 11.75145879,47.75145879 L 12.0,47.60518163 L 12.40363775,47.40363775 L 12.84642004,47.15357996 L 13.0,47.06989687 L 13.04799222,47.04799222 L 13.13958619,47.0 L 13.72710719,46.72710719 L 14.0,46.58586363 L 14.40736794,46.40736794 L 14.77072012,46.22927988 L 15.0,46.12128575 L 15.08700108,46.08700108 L 15.28240528,46.0 L 15.79496966,45.79496966 L 16.0,45.7046516 L 16.46900506,45.53099494 L 16.51482715,45.51482715 L 17.0,45.32495791 L 17.24538269,45.24538269 L 17.92795825,45.0 L 17.98216929,44.98216929 L 18.0,44.97580266 L 18.0342757,44.9657243 L 18.76169053,44.76169053 L 19.0,44.68887668 L 19.41236847,44.58763153 L 19.55455448,44.55455448 L 20.0,44.44138675 L 20.36877029,44.36877029 L 20.70277419,44.29722581 L 21.0,44.23698209 L 21.20640612,44.20640612 L 21.90638042,44.09361958 L 22.0,44.07943375 L 22.07227176,44.07227176 L 22.74356934,44.0 L 22.97689609,43.97689609 L 23.0,43.97445159 L 23.02696155,43.97303845 L 23.92845577,43.92845577 L 24.0,43.92468242 L 24.07531758,43.92468242 L 24.92468242,43.92468242 L 25.0,43.92468242 L 25.07154423,43.92845577 L 25.97303845,43.97303845 L 26.0,43.97445159 L 26.02310391,43.97689609 L 26.25643066,44.0 L 26.92772824,44.07227176 L 27.0,44.07943375 L 27.09361958,44.09361958 L 27.79359388,44.20640612 L 28.0,44.23698209 L 28.29722581,44.29722581 L 28.63122971,44.36877029 L 29.0,44.44138675 L 29.44544552,44.55455448 L 29.58763153,44.58763153 L 30.0,44.68887668 L 30.23830947,44.76169053 L 30.9657243,44.9657243 L 31.0,44.97580266 L 31.01783071,44.98216929 L 31.07204175,45.0 L 31.75461731,45.24538269 L 32.0,45.32495791 L 32.48517285,45.51482715 L 32.53099494,45.53099494 L 33.0,45.7046516 L 33.20503034,45.79496966 L 33.71759472,46.0 L 33.91299892,46.08700108 L 34.0,46.12128575 L 34.22927988,46.22927988 L 34.59263206,46.40736794 L 35.0,46.58586363 L 35.27289281,46.72710719 L 35.86041381,47.0 L 35.95200778,47.04799222 L 36.0,47.06989687 L 36.15357996,47.15357996 L 36.59636225,47.40363775 L 37.0,47.60518163 L 37.24854121,47.75145879 L 37.72286053,48.0 L 37.89657481,48.10342519 L 38.0,48.15647933 L 38.40424241,48.40424241 L 38.52159108,48.47840892 L 39.0,48.74403841 L 39.15480415,48.84519585 L 39.4217575,49.0 M 10.0,48.74403841 L 9.84519585,48.84519585 L 9.5782425,49.0 " stroke="rgb(51,255,0)" stroke-width="0.245" fill="none" /> 
<path d="M 23.0,5.02554841 L 23.02696155,5.02696155 L 23.92845577,5.07154423 L 24.0,5.07531758 L 24.07531758,5.07531758 L 24.92468242,5.07531758 L 25.0,5.07531758 L 25.07154423,5.07154423 L 25.97303845,5.02696155 L 26.0,5.02554841 L 26.02310391,5.02310391 L 26.25643066,5.0 L 26.92772824,4.92772824 L 27.0,4.92056625 L 27.09361958,4.90638042 L 27.79359388,4.79359388 L 28.0,4.76301791 L 28.29722581,4.70277419 L 28.63122971,4.63122971 L 29.0,4.55861325 L 29.44544552,4.44544552 L 29.58763153,4.41236847 L 30.0,4.31112332 L 30.23830947,4.23830947 L 30.9657243,4.0342757 L 31.0,4.02419734 L 31.01783071,4.01783071 L 31.07204175,4.0 L 31.75461731,3.75461731 L 32.0,3.67504209 L 32.48517285,3.48517285 L 32.53099494,3.46900506 L 33.0,3.2953484 L 33.20503034,3.20503034 L 33.71759472,3.0 L 33.91299892,2.91299892 L 34.0,2.87871425 L 34.22927988,2.77072012 L 34.59263206,2.59263206 L 35.0,2.41413637 L 35.27289281,2.27289281 L 35.86041381,2.0 L 35.95200778,1.95200778 L 36.0,1.93010313 L 36.15357996,1.84642004 L 36.59636225,1.59636225 L 37.0,1.39481837 L 37.24854121,1.24854121 L 37.72286053,1.0 L 37.89657481,0.89657481 M 23.0,5.02554841 L 22.97689609,5.02310391 " stroke="rgb(51,255,0)" stroke-width="0.245" fill="none" /> 
<path d="M 38.0,0.84352067 L 37.89657481,0.89657481 M 38.0,0.84352067 L 38.40424241,0.59575759 L 38.52159108,0.52159108 L 39.0,0.25596159 L 39.15480415,0.15480415 L 39.4217575,0.0 " stroke="rgb(51,255,0)" stroke-width="0.245" fill="none" /> 
</svg>