<svg xmlns="http://www.w3.org/2000/svg" version="1.1" x="1" y="1" width="49.0" height="49.0"> 
<path d="M 40.09090914,0.0 L 40.54545457,0.45454543 L 41.0,0.90909086 L 41.04545457,0.95454543 L 41.09090914,1.0 L 41.54545457,1.45454543 " stroke="rgb(255,0,0)" stroke-width="0.245" fill="none" /> 
<path d="M 42.0,1.90909086 L 41.54545457,1.45454543 M 42.0,1.90909086 L 42.04545457,1.95454543 L 42.09090914,2.0 L 42.54545457,2.45454543 L 43.0,2.90909086 L 43.04545457,2.95454543 L 43.09090914,3.0 L 43.54545457,3.45454543 L 44.0,3.90909086 L 44.04545457,3.95454543 L 44.09090914,4.0 L 44.54545457,4.45454543 L 45.0,4.90909086 L 45.04545457,4.95454543 L 45.09090914,5.0 L 45.54545457,5.45454543 L 46.0,5.90909086 L 46.04545457,5.95454543 L 46.09090914,6.0 L 46.54545457,6.45454543 L 47.0,6.90909086 L 47.04545457,6.95454543 L 47.09090914,7.0 L 47.54545457,7.45454543 L 48.0,7.90909086 L 48.04545457,7.95454543 L 48.09090914,8.0 L 48.54545457,8.45454543 L 49.0,8.90909086 " stroke="rgb(255,0,0)" stroke-width="0.245" fill="none" /> 
<path d="M 31.18181827,0.0 L 31.59090914,0.40909086 L 32.0,0.81818173 L 32.09090914,0.90909086 L 32.18181827,1.0 L 32.59090914,1.40909086 L 33.0,1.81818173 L 33.09090914,1.90909086 L 33.18181827,2.0 L 33.59090914,2.40909086 " stroke="rgb(255,51,0)" stroke-width="0.245" fill="none" /> 
<path d="M 34.0,2.81818173 L 33.59090914,2.40909086 M 34.0,2.81818173 L 34.09090914,2.90909086 L 34.18181827,3.0 L 34.59090914,3.40909086 " stroke="rgb(255,51,0)" stroke-width="0.245" fill="none" /> 
<path d="M 35.0,3.81818173 L 35.09090914,3.90909086 L 35.18181827,4.0 L 35.59090914,4.40909086 L 36.0,4.81818173 L 36.09090914,4.90909086 L 36.18181827,5.0 L 36.59090914,5.40909086 L 37.0,5.81818173 L 37.09090914,5.90909086 L 37.18181827,6.0 L 37.59090914,6.40909086 L 38.0,6.81818173 L 38.09090914,6.90909086 L 38.18181827,7.0 L 38.59090914,7.40909086 L 39.0,7.81818173 L 39.09090914,7.90909086 L 39.18181827,8.0 L 39.59090914,8.40909086 L 40.0,8.81818173 L 40.09090914,8.90909086 L 40.18181827,9.0 L 40.59090914,9.40909086 L 41.0,9.81818173 L 41.09090914,9.90909086 L 41.18181827,10.0 L 41.59090914,10.40909086 L 42.0,10.81818173 L 42.09090914,10.90909086 L 42.18181827,11.0 L 42.59090914,11.40909086 L 43.0,11.81818173 L 43.09090914,11.90909086 L 43.18181827,12.0 L 43.59090914,12.40909086 L 44.0,12.81818173 L 44.09090914,12.90909086 L 44.18181827,13.0 L 44.59090914,13.40909086 L 45.0,13.81818173 L 45.09090914,13.90909086 L 45.18181827,14.0 L 45.59090914,14.40909086 L 46.0,14.81818173 L 46.09090914,14.90909086 L 46.18181827,15.0 L 46.59090914,15.40909086 L 47.0,15.81818173 L 47.09090914,15.90909086 L 47.18181827,16.0 L 47.59090914,16.40909086 L 48.0,16.81818173 L 48.09090914,16.90909086 L 48.18181827,17.0 L 48.59090914,17.40909086 L 49.0,17.81818173 M 35.0,3.81818173 L 34.59090914,3.40909086 " stroke="rgb(255,51,0)" stroke-width="0.245" fill="none" /> 
<path d="M 22.27272727,0.0 L 22.63636364,0.36363636 " stroke="rgb(255,102,0)" stroke-width="0.245" fill="none" /> 
<path d="M 23.0,0.72727273 L 22.63636364,0.36363636 M 23.0,0.72727273 L 23.13636364,0.86363636 L 23.27272727,1.0 L 23.63636364,1.36363636 L 24.0,1.72727273 L 24.13636364,1.86363636 L 24.27272727,2.0 L 24.63636364,2.36363636 L 25.0,2.72727273 L 25.13636364,2.86363636 L 25.27272727,3.0 L 25.63636364,3.36363636 L 26.0,3.72727273 L 26.13636364,3.86363636 L 26.27272727,4.0 L 26.63636364,4.36363636 L 27.0,4.72727273 L 27.13636364,4.86363636 L 27.27272727,5.0 L 27.63636364,5.36363636 L 28.0,5.72727273 L 28.13636364,5.86363636 L 28.27272727,6.0 L 28.63636364,6.36363636 L 29.0,6.72727273 L 29.13636364,6.86363636 L 29.27272727,7.0 L 29.63636364,7.36363636 L 30.0,7.72727273 L 30.13636364,7.86363636 L 30.27272727,8.0 L 30.63636364,8.36363636 L 31.0,8.72727273 L 31.13636364,8.86363636 L 31.27272727,9.0 L 31.63636364,9.36363636 L 32.0,9.72727273 L 32.13636364,9.86363636 L 32.27272727,10.0 L 32.63636364,10.36363636 L 33.0,10.72727273 L 33.13636364,10.86363636 L 33.27272727,11.0 L 33.63636364,11.36363636 L 34.0,11.72727273 L 34.13636364,11.86363636 L 34.27272727,12.0 L 34.63636364,12.36363636 L 35.0,12.72727273 L 35.13636364,12.86363636 L 35.27272727,13.0 L 35.63636364,13.36363636 L 36.0,13.72727273 L 36.13636364,13.86363636 L 36.27272727,14.0 L 36.63636364,14.36363636 L 37.0,14.72727273 L 37.13636364,14.86363636 L 37.27272727,15.0 L 37.63636364,15.36363636 L 38.0,15.72727273 L 38.13636364,15.86363636 L 38.27272727,16.0 L 38.63636364,16.36363636 L 39.0,16.72727273 L 39.13636364,16.86363636 L 39.27272727,17.0 L 39.63636364,17.36363636 L 40.0,17.72727273 L 40.13636364,17.86363636 L 40.27272727,18.0 L 40.63636364,18.36363636 L 41.0,18.72727273 L 41.13636364,18.86363636 L 41.27272727,19.0 L 41.63636364,19.36363636 L 42.0,19.72727273 L 42.13636364,19.86363636 L 42.27272727,20.0 L 42.63636364,20.36363636 L 43.0,20.72727273 L 43.13636364,20.86363636 L 43.27272727,21.0 L 43.63636364,21.36363636 L 44.0,21.72727273 L 44.13636364,21.86363636 L 44.27272727,22.0 L 44.63636364,22.36363636 L 45.0,22.72727273 L 45.13636364,22.86363636 L 45.27272727,23.0 L 45.63636364,23.36363636 L 46.0,23.72727273 L 46.13636364,23.86363636 L 46.27272727,24.0 L 46.63636364,24.36363636 L 47.0,24.72727273 L 47.13636364,24.86363636 L 47.27272727,25.0 L 47.63636364,25.36363636 L 48.0,25.72727273 L 48.13636364,25.86363636 L 48.27272727,26.0 L 48.63636364,26.36363636 L 49.0,26.72727273 " stroke="rgb(255,102,0)" stroke-width="0.245" fill="none" /> 
<path d="M 13.36363636,0.0 L 13.68181818,0.31818182 L 14.0,0.63636364 L 14.18181818,0.81818182 L 14.36363636,1.0 L 14.68181818,1.31818182 L 15.0,1.63636364 L 15.18181818,1.81818182 L 15.36363636,2.0 L 15.68181818,2.31818182 L 16.0,2.63636364 L 16.18181818,2.81818182 L 16.36363636,3.0 L 16.68181818,3.31818182 L 17.0,3.63636364 L 17.18181818,3.81818182 L 17.36363636,4.0 L 17.68181818,4.31818182 L 18.0,4.63636364 L 18.18181818,4.81818182 L 18.36363636,5.0 L 18.68181818,5.31818182 L 19.0,5.63636364 L 19.18181818,5.81818182 L 19.36363636,6.0 L 19.68181818,6.31818182 L 20.0,6.63636364 L 20.18181818,6.81818182 L 20.36363636,7.0 L 20.68181818,7.31818182 L 21.0,7.63636364 L 21.18181818,7.81818182 L 21.36363636,8.0 L 21.68181818,8.31818182 L 22.0,8.63636364 L 22.18181818,8.81818182 L 22.36363636,9.0 L 22.68181818,9.31818182 L 23.0,9.63636364 L 23.18181818,9.81818182 L 23.36363636,10.0 L 23.68181818,10.31818182 L 24.0,10.63636364 L 24.18181818,10.81818182 L 24.36363636,11.0 L 24.68181818,11.31818182 L 25.0,11.63636364 L 25.18181818,11.81818182 L 25.36363636,12.0 L 25.68181818,12.31818182 L 26.0,12.63636364 L 26.18181818,12.81818182 L 26.36363636,13.0 L 26.68181818,13.31818182 L 27.0,13.63636364 L 27.18181818,13.81818182 L 27.36363636,14.0 L 27.68181818,14.31818182 L 28.0,14.63636364 L 28.18181818,14.81818182 L 28.36363636,15.0 L 28.68181818,15.31818182 L 29.0,15.63636364 L 29.18181818,15.81818182 L 29.36363636,16.0 L 29.68181818,16.31818182 L 30.0,16.63636364 L 30.18181818,16.81818182 L 30.36363636,17.0 L 30.68181818,17.31818182 L 31.0,17.63636364 L 31.18181818,17.81818182 L 31.36363636,18.0 L 31.68181818,18.31818182 L 32.0,18.63636364 L 32.18181818,18.81818182 L 32.36363636,19.0 L 32.68181818,19.31818182 L 33.0,19.63636364 L 33.18181818,19.81818182 L 33.36363636,20.0 L 33.68181818,20.31818182 L 34.0,20.63636364 L 34.18181818,20.81818182 L 34.36363636,21.0 L 34.68181818,21.31818182 L 35.0,21.63636364 L 35.18181818,21.81818182 L 35.36363636,22.0 L 35.68181818,22.31818182 L 36.0,22.63636364 L 36.18181818,22.81818182 L 36.36363636,23.0 L 36.68181818,23.31818182 L 37.0,23.63636364 L 37.18181818,23.81818182 L 37.36363636,24.0 L 37.68181818,24.31818182 L 38.0,24.63636364 L 38.18181818,24.81818182 L 38.36363636,25.0 L 38.68181818,25.31818182 L 39.0,25.63636364 L 39.18181818,25.81818182 L 39.36363636,26.0 L 39.68181818,26.31818182 L 40.0,26.63636364 L 40.18181818,26.81818182 L 40.36363636,27.0 L 40.68181818,27.31818182 L 41.0,27.63636364 L 41.18181818,27.81818182 L 41.36363636,28.0 L 41.68181818,28.31818182 L 42.0,28.63636364 L 42.18181818,28.81818182 L 42.36363636,29.0 L 42.68181818,29.31818182 L 43.0,29.63636364 L 43.18181818,29.81818182 L 43.36363636,30.0 L 43.68181818,30.31818182 L 44.0,30.63636364 L 44.18181818,30.81818182 L 44.36363636,31.0 L 44.68181818,31.31818182 L 45.0,31.63636364 L 45.18181818,31.81818182 L 45.36363636,32.0 L 45.68181818,32.31818182 L 46.0,32.63636364 L 46.18181818,32.81818182 L 46.36363636,33.0 L 46.68181818,33.31818182 L 47.0,33.63636364 L 47.18181818,33.81818182 L 47.36363636,34.0 L 47.68181818,34.31818182 L 48.0,34.63636364 L 48.18181818,34.81818182 L 48.36363636,35.0 L 48.68181818,35.31818182 L 49.0,35.63636364 " stroke="rgb(255,153,0)" stroke-width="0.245" fill="none" /> 
<path d="M 4.45454545,0.0 L 4.72727273,0.27272727 L 5.0,0.54545455 L 5.22727273,0.77272727 L 5.45454545,1.0 L 5.72727273,1.27272727 L 6.0,1.54545455 L 6.22727273,1.77272727 L 6.45454545,2.0 L 6.72727273,2.27272727 L 7.0,2.54545455 L 7.22727273,2.77272727 L 7.45454545,3.0 L 7.72727273,3.27272727 L 8.0,3.54545455 L 8.22727273,3.77272727 L 8.45454545,4.0 L 8.72727273,4.27272727 L 9.0,4.54545455 L 9.22727273,4.77272727 L 9.45454545,5.0 L 9.72727273,5.27272727 L 10.0,5.54545455 L 10.22727273,5.77272727 L 10.45454545,6.0 L 10.72727273,6.27272727 L 11.0,6.54545455 L 11.22727273,6.77272727 L 11.45454545,7.0 L 11.72727273,7.27272727 L 12.0,7.54545455 L 12.22727273,7.77272727 L 12.45454545,8.0 L 12.72727273,8.27272727 L 13.0,8.54545455 L 13.22727273,8.77272727 L 13.45454545,9.0 L 13.72727273,9.27272727 L 14.0,9.54545455 L 14.22727273,9.77272727 L 14.45454545,10.0 L 14.72727273,10.27272727 L 15.0,10.54545455 L 15.22727273,10.77272727 L 15.45454545,11.0 L 15.72727273,11.27272727 L 16.0,11.54545455 L 16.22727273,11.77272727 L 16.45454545,12.0 L 16.72727273,12.27272727 L 17.0,12.54545455 L 17.22727273,12.77272727 L 17.45454545,13.0 L 17.72727273,13.27272727 L 18.0,13.54545455 L 18.22727273,13.77272727 L 18.45454545,14.0 L 18.72727273,14.27272727 L 19.0,14.54545455 L 19.22727273,14.77272727 L 19.45454545,15.0 L 19.72727273,15.27272727 L 20.0,15.54545455 L 20.22727273,15.77272727 L 20.45454545,16.0 L 20.72727273,16.27272727 L 21.0,16.54545455 L 21.22727273,16.77272727 L 21.45454545,17.0 L 21.72727273,17.27272727 L 22.0,17.54545455 L 22.22727273,17.77272727 L 22.45454545,18.0 L 22.72727273,18.27272727 L 23.0,18.54545455 L 23.22727273,18.77272727 L 23.45454545,19.0 L 23.72727273,19.27272727 L 24.0,19.54545455 L 24.22727273,19.77272727 L 24.45454545,20.0 L 24.72727273,20.27272727 L 25.0,20.54545455 L 25.22727273,20.77272727 L 25.45454545,21.0 L 25.72727273,21.27272727 L 26.0,21.54545455 L 26.22727273,21.77272727 L 26.45454545,22.0 L 26.72727273,22.27272727 L 27.0,22.54545455 L 27.22727273,22.77272727 L 27.45454545,23.0 L 27.72727273,23.27272727 L 28.0,23.54545455 L 28.22727273,23.77272727 L 28.45454545,24.0 L 28.72727273,24.27272727 L 29.0,24.54545455 L 29.22727273,24.77272727 L 29.45454545,25.0 L 29.72727273,25.27272727 L 30.0,25.54545455 L 30.22727273,25.77272727 L 30.45454545,26.0 L 30.72727273,26.27272727 L 31.0,26.54545455 L 31.22727273,26.77272727 L 31.45454545,27.0 L 31.72727273,27.27272727 L 32.0,27.54545455 L 32.22727273,27.77272727 L 32.45454545,28.0 L 32.72727273,28.27272727 L 33.0,28.54545455 L 33.22727273,28.77272727 L 33.45454545,29.0 L 33.72727273,29.27272727 L 34.0,29.54545455 L 34.22727273,29.77272727 L 34.45454545,30.0 L 34.72727273,30.27272727 L 35.0,30.54545455 L 35.22727273,30.77272727 L 35.45454545,31.0 L 35.72727273,31.27272727 L 36.0,31.54545455 L 36.22727273,31.77272727 L 36.45454545,32.0 L 36.72727273,32.27272727 L 37.0,32.54545455 L 37.22727273,32.77272727 L 37.45454545,33.0 L 37.72727273,33.27272727 L 38.0,33.54545455 L 38.22727273,33.77272727 L 38.45454545,34.0 L 38.72727273,34.27272727 L 39.0,34.54545455 L 39.22727273,34.77272727 L 39.45454545,35.0 L 39.72727273,35.27272727 L 40.0,35.54545455 L 40.22727273,35.77272727 L 40.45454545,36.0 L 40.72727273,36.27272727 L 41.0,36.54545455 L 41.22727273,36.77272727 L 41.45454545,37.0 L 41.72727273,37.27272727 L 42.0,37.54545455 L 42.22727273,37.77272727 L 42.45454545,38.0 L 42.72727273,38.27272727 L 43.0,38.54545455 L 43.22727273,38.77272727 L 43.45454545,39.0 L 43.72727273,39.27272727 L 44.0,39.54545455 L 44.22727273,39.77272727 L 44.45454545,40.0 L 44.72727273,40.27272727 L 45.0,40.54545455 L 45.22727273,40.77272727 L 45.45454545,41.0 L 45.72727273,41.27272727 L 46.0,41.54545455 L 46.22727273,41.77272727 L 46.45454545,42.0 L 46.72727273,42.27272727 L 47.0,42.54545455 L 47.22727273,42.77272727 L 47.45454545,43.0 L 47.72727273,43.27272727 L 48.0,43.54545455 L 48.22727273,43.77272727 L 48.45454545,44.0 L 48.72727273,44.27272727 L 49.0,44.54545455 " stroke="rgb(255,204,0)" stroke-width="0.245" fill="none" /> 
<path d="M 0.54545455,5.0 L 0.27272727,4.72727273 L 0.0,4.45454545 M 0.54545455,5.0 L 0.77272727,5.22727273 L 1.0,5.45454545 L 1.27272727,5.72727273 L 1.54545455,6.0 L 1.77272727,6.22727273 L 2.0,6.45454545 L 2.27272727,6.72727273 L 2.54545455,7.0 L 2.77272727,7.22727273 L 3.0,7.45454545 L 3.27272727,7.72727273 L 3.54545455,8.0 L 3.77272727,8.22727273 L 4.0,8.45454545 L 4.27272727,8.72727273 L 4.54545455,9.0 L 4.77272727,9.22727273 L 5.0,9.45454545 L 5.27272727,9.72727273 L 5.54545455,10.0 L 5.77272727,10.22727273 L 6.0,10.45454545 L 6.27272727,10.72727273 L 6.54545455,11.0 L 6.77272727,11.22727273 L 7.0,11.45454545 L 7.27272727,11.72727273 L 7.54545455,12.0 L 7.77272727,12.22727273 L 8.0,12.45454545 L 8.27272727,12.72727273 L 8.54545455,13.0 L 8.77272727,13.22727273 L 9.0,13.45454545 L 9.27272727,13.72727273 L 9.54545455,14.0 L 9.77272727,14.22727273 L 10.0,14.45454545 L 10.27272727,14.72727273 L 10.54545455,15.0 L 10.77272727,15.22727273 L 11.0,15.45454545 L 11.27272727,15.72727273 L 11.54545455,16.0 L 11.77272727,16.22727273 L 12.0,16.45454545 L 12.27272727,16.72727273 L 12.54545455,17.0 L 12.77272727,17.22727273 L 13.0,17.45454545 L 13.27272727,17.72727273 L 13.54545455,18.0 L 13.77272727,18.22727273 L 14.0,18.45454545 L 14.27272727,18.72727273 L 14.54545455,19.0 L 14.77272727,19.22727273 L 15.0,19.45454545 L 15.27272727,19.72727273 L 15.54545455,20.0 L 15.77272727,20.22727273 L 16.0,20.45454545 L 16.27272727,20.72727273 L 16.54545455,21.0 L 16.77272727,21.22727273 L 17.0,21.45454545 L 17.27272727,21.72727273 L 17.54545455,22.0 L 17.77272727,22.22727273 L 18.0,22.45454545 L 18.27272727,22.72727273 L 18.54545455,23.0 L 18.77272727,23.22727273 L 19.0,23.45454545 L 19.27272727,23.72727273 L 19.54545455,24.0 L 19.77272727,24.22727273 L 20.0,24.45454545 L 20.27272727,24.72727273 L 20.54545455,25.0 L 20.77272727,25.22727273 L 21.0,25.45454545 L 21.27272727,25.72727273 L 21.54545455,26.0 L 21.77272727,26.22727273 L 22.0,26.45454545 L 22.27272727,26.72727273 L 22.54545455,27.0 L 22.77272727,27.22727273 L 23.0,27.45454545 L 23.27272727,27.72727273 L 23.54545455,28.0 L 23.77272727,28.22727273 L 24.0,28.45454545 L 24.27272727,28.72727273 L 24.54545455,29.0 L 24.77272727,29.22727273 L 25.0,29.45454545 L 25.27272727,29.72727273 L 25.54545455,30.0 L 25.77272727,30.22727273 L 26.0,30.45454545 L 26.27272727,30.72727273 L 26.54545455,31.0 L 26.77272727,31.22727273 L 27.0,31.45454545 L 27.27272727,31.72727273 L 27.54545455,32.0 L 27.77272727,32.22727273 L 28.0,32.45454545 L 28.27272727,32.72727273 L 28.54545455,33.0 L 28.77272727,33.22727273 L 29.0,33.45454545 L 29.27272727,33.72727273 L 29.54545455,34.0 L 29.77272727,34.22727273 L 30.0,34.45454545 L 30.27272727,34.72727273 L 30.54545455,35.0 L 30.77272727,35.22727273 L 31.0,35.45454545 L 31.27272727,35.72727273 L 31.54545455,36.0 L 31.77272727,36.22727273 L 32.0,36.45454545 L 32.27272727,36.72727273 L 32.54545455,37.0 L 32.77272727,37.22727273 L 33.0,37.45454545 L 33.27272727,37.72727273 L 33.54545455,38.0 L 33.77272727,38.22727273 L 34.0,38.45454545 L 34.27272727,38.72727273 L 34.54545455,39.0 L 34.77272727,39.22727273 L 35.0,39.45454545 L 35.27272727,39.72727273 L 35.54545455,40.0 L 35.77272727,40.22727273 L 36.0,40.45454545 L 36.27272727,40.72727273 L 36.54545455,41.0 L 36.77272727,41.22727273 L 37.0,41.45454545 L 37.27272727,41.72727273 L 37.54545455,42.0 L 37.77272727,42.22727273 L 38.0,42.45454545 L 38.27272727,42.72727273 L 38.54545455,43.0 L 38.77272727,43.22727273 L 39.0,43.45454545 L 39.27272727,43.72727273 L 39.54545455,44.0 L 39.77272727,44.22727273 L 40.0,44.45454545 L 40.27272727,44.72727273 L 40.54545455,45.0 L 40.77272727,45.22727273 L 41.0,45.45454545 L 41.27272727,45.72727273 L 41.54545455,46.0 L 41.77272727,46.22727273 L 42.0,46.45454545 L 42.27272727,46.72727273 L 42.54545455,47.0 L 42.77272727,47.22727273 L 43.0,47.45454545 L 43.27272727,47.72727273 L 43.54545455,48.0 L 43.77272727,48.22727273 L 44.0,48.45454545 L 44.27272727,48.72727273 L 44.54545455,49.0 " stroke="rgb(255,255,0)" stroke-width="0.245" fill="none" /> 
<path d="M 0.63636364,14.0 L 0.81818182,14.18181818 L 1.0,14.36363636 L 1.31818182,14.68181818 L 1.63636364,15.0 L 1.81818182,15.18181818 L 2.0,15.36363636 L 2.31818182,15.68181818 L 2.63636364,16.0 L 2.81818182,16.18181818 L 3.0,16.36363636 L 3.31818182,16.68181818 L 3.63636364,17.0 L 3.81818182,17.18181818 L 4.0,17.36363636 L 4.31818182,17.68181818 L 4.63636364,18.0 L 4.81818182,18.18181818 L 5.0,18.36363636 L 5.31818182,18.68181818 L 5.63636364,19.0 L 5.81818182,19.18181818 L 6.0,19.36363636 L 6.31818182,19.68181818 L 6.63636364,20.0 L 6.81818182,20.18181818 L 7.0,20.36363636 L 7.31818182,20.68181818 L 7.63636364,21.0 L 7.81818182,21.18181818 L 8.0,21.36363636 L 8.31818182,21.68181818 L 8.63636364,22.0 L 8.81818182,22.18181818 L 9.0,22.36363636 L 9.31818182,22.68181818 L 9.63636364,23.0 L 9.81818182,23.18181818 L 10.0,23.36363636 L 10.31818182,23.68181818 L 10.63636364,24.0 L 10.81818182,24.18181818 L 11.0,24.36363636 L 11.31818182,24.68181818 L 11.63636364,25.0 L 11.81818182,25.18181818 L 12.0,25.36363636 L 12.31818182,25.68181818 L 12.63636364,26.0 L 12.81818182,26.18181818 L 13.0,26.36363636 L 13.31818182,26.68181818 L 13.63636364,27.0 L 13.81818182,27.18181818 L 14.0,27.36363636 L 14.31818182,27.68181818 L 14.63636364,28.0 L 14.81818182,28.18181818 L 15.0,28.36363636 L 15.31818182,28.68181818 L 15.63636364,29.0 L 15.81818182,29.18181818 L 16.0,29.36363636 L 16.31818182,29.68181818 L 16.63636364,30.0 L 16.81818182,30.18181818 L 17.0,30.36363636 L 17.31818182,30.68181818 L 17.63636364,31.0 L 17.81818182,31.18181818 L 18.0,31.36363636 L 18.31818182,31.68181818 L 18.63636364,32.0 L 18.81818182,32.18181818 L 19.0,32.36363636 L 19.31818182,32.68181818 L 19.63636364,33.0 L 19.81818182,33.18181818 L 20.0,33.36363636 L 20.31818182,33.68181818 L 20.63636364,34.0 L 20.81818182,34.18181818 L 21.0,34.36363636 L 21.31818182,34.68181818 L 21.63636364,35.0 L 21.81818182,35.18181818 L 22.0,35.36363636 L 22.31818182,35.68181818 L 22.63636364,36.0 L 22.81818182,36.18181818 L 23.0,36.36363636 L 23.31818182,36.68181818 L 23.63636364,37.0 L 23.81818182,37.18181818 L 24.0,37.36363636 L 24.31818182,37.68181818 L 24.63636364,38.0 L 24.81818182,38.18181818 L 25.0,38.36363636 L 25.31818182,38.68181818 L 25.63636364,39.0 L 25.81818182,39.18181818 L 26.0,39.36363636 L 26.31818182,39.68181818 L 26.63636364,40.0 L 26.81818182,40.18181818 L 27.0,40.36363636 L 27.31818182,40.68181818 L 27.63636364,41.0 L 27.81818182,41.18181818 L 28.0,41.36363636 L 28.31818182,41.68181818 L 28.63636364,42.0 L 28.81818182,42.18181818 L 29.0,42.36363636 L 29.31818182,42.68181818 L 29.63636364,43.0 L 29.81818182,43.18181818 L 30.0,43.36363636 L 30.31818182,43.68181818 L 30.63636364,44.0 L 30.81818182,44.18181818 L 31.0,44.36363636 L 31.31818182,44.68181818 L 31.63636364,45.0 L 31.81818182,45.18181818 L 32.0,45.36363636 L 32.31818182,45.68181818 L 32.63636364,46.0 L 32.81818182,46.18181818 L 33.0,46.36363636 L 33.31818182,46.68181818 L 33.63636364,47.0 L 33.81818182,47.18181818 L 34.0,47.36363636 L 34.31818182,47.68181818 L 34.63636364,48.0 L 34.81818182,48.18181818 L 35.0,48.36363636 L 35.31818182,48.68181818 L 35.63636364,49.0 M 0.63636364,14.0 L 0.31818182,13.68181818 L 0.0,13.36363636 " stroke="rgb(204,255,0)" stroke-width="0.245" fill="none" /> 
<path d="M 0.72727273,23.0 L 0.36363636,22.63636364 L 0.0,22.27272727 " stroke="rgb(153,255,0)" stroke-width="0.245" fill="none" /> 
<path d="M 0.72727273,23.0 L 0.86363636,23.13636364 L 1.0,23.27272727 L 1.36363636,23.63636364 L 1.72727273,24.0 L 1.86363636,24.13636364 L 2.0,24.27272727 L 2.36363636,24.63636364 L 2.72727273,25.0 L 2.86363636,25.13636364 L 3.0,25.27272727 L 3.36363636,25.63636364 L 3.72727273,26.0 L 3.86363636,26.13636364 L 4.0,26.27272727 L 4.36363636,26.63636364 L 4.72727273,27.0 L 4.86363636,27.13636364 L 5.0,27.27272727 L 5.36363636,27.63636364 L 5.72727273,28.0 L 5.86363636,28.13636364 L 6.0,28.27272727 L 6.36363636,28.63636364 L 6.72727273,29.0 L 6.86363636,29.13636364 L 7.0,29.27272727 L 7.36363636,29.63636364 L 7.72727273,30.0 L 7.86363636,30.13636364 L 8.0,30.27272727 L 8.36363636,30.63636364 L 8.72727273,31.0 L 8.86363636,31.13636364 L 9.0,31.27272727 L 9.36363636,31.63636364 L 9.72727273,32.0 L 9.86363636,32.13636364 L 10.0,32.27272727 L 10.36363636,32.63636364 L 10.72727273,33.0 L 10.86363636,33.13636364 L 11.0,33.27272727 L 11.36363636,33.63636364 L 11.72727273,34.0 L 11.86363636,34.13636364 L 12.0,34.27272727 L 12.36363636,34.63636364 L 12.72727273,35.0 L 12.86363636,35.13636364 L 13.0,35.27272727 L 13.36363636,35.63636364 L 13.72727273,36.0 L 13.86363636,36.13636364 L 14.0,36.27272727 L 14.36363636,36.63636364 L 14.72727273,37.0 L 14.86363636,37.13636364 L 15.0,37.27272727 L 15.36363636,37.63636364 L 15.72727273,38.0 L 15.86363636,38.13636364 L 16.0,38.27272727 L 16.36363636,38.63636364 L 16.72727273,39.0 L 16.86363636,39.13636364 L 17.0,39.27272727 L 17.36363636,39.63636364 L 17.72727273,40.0 L 17.86363636,40.13636364 L 18.0,40.27272727 L 18.36363636,40.63636364 L 18.72727273,41.0 L 18.86363636,41.13636364 L 19.0,41.27272727 L 19.36363636,41.63636364 L 19.72727273,42.0 L 19.86363636,42.13636364 L 20.0,42.27272727 L 20.36363636,42.63636364 L 20.72727273,43.0 L 20.86363636,43.13636364 L 21.0,43.27272727 L 21.36363636,43.63636364 L 21.72727273,44.0 L 21.86363636,44.13636364 L 22.0,44.27272727 L 22.36363636,44.63636364 L 22.72727273,45.0 L 22.86363636,45.13636364 L 23.0,45.27272727 L 23.36363636,45.63636364 L 23.72727273,46.0 L 23.86363636,46.13636364 L 24.0,46.27272727 L 24.36363636,46.63636364 L 24.72727273,47.0 L 24.86363636,47.13636364 L 25.0,47.27272727 L 25.36363636,47.63636364 L 25.72727273,48.0 L 25.86363636,48.13636364 L 26.0,48.27272727 L 26.36363636,48.63636364 L 26.72727273,49.0 " stroke="rgb(153,255,0)" stroke-width="0.245" fill="none" /> 
<path d="M 0.81818173,32.0 L 0.40909086,31.59090914 L 0.0,31.18181827 M 0.81818173,32.0 L 0.90909086,32.09090914 L 1.0,32.18181827 L 1.40909086,32.59090914 L 1.81818173,33.0 L 1.90909086,33.09090914 " stroke="rgb(102,255,0)" stroke-width="0.245" fill="none" /> 
<path d="M 2.0,33.18181827 L 1.90909086,33.09090914 M 2.0,33.18181827 L 2.40909086,33.59090914 L 2.81818173,34.0 " stroke="rgb(102,255,0)" stroke-width="0.245" fill="none" /> 
<path d="M 2.81818173,34.0 L 2.90909086,34.09090914 L 3.0,34.18181827 L 3.40909086,34.59090914 L 3.81818173,35.0 " stroke="rgb(102,255,0)" stroke-width="0.245" fill="none" /> 
<path d="M 3.81818173,35.0 L 3.90909086,35.09090914 L 4.0,35.18181827 L 4.40909086,35.59090914 L 4.81818173,36.0 L 4.90909086,36.09090914 L 5.0,36.18181827 L 5.40909086,36.59090914 L 5.81818173,37.0 L 5.90909086,37.09090914 L 6.0,37.18181827 L 6.40909086,37.59090914 L 6.81818173,38.0 L 6.90909086,38.09090914 L 7.0,38.18181827 L 7.40909086,38.59090914 L 7.81818173,39.0 L 7.90909086,39.09090914 L 8.0,39.18181827 L 8.40909086,39.59090914 L 8.81818173,40.0 L 8.90909086,40.09090914 L 9.0,40.18181827 L 9.40909086,40.59090914 L 9.81818173,41.0 L 9.90909086,41.09090914 L 10.0,41.18181827 L 10.40909086,41.59090914 L 10.81818173,42.0 L 10.90909086,42.09090914 L 11.0,42.18181827 L 11.40909086,42.59090914 L 11.81818173,43.0 L 11.90909086,43.09090914 L 12.0,43.18181827 L 12.40909086,43.59090914 L 12.81818173,44.0 L 12.90909086,44.09090914 L 13.0,44.18181827 L 13.40909086,44.59090914 L 13.81818173,45.0 L 13.90909086,45.09090914 L 14.0,45.18181827 L 14.40909086,45.59090914 L 14.81818173,46.0 L 14.90909086,46.09090914 L 15.0,46.18181827 L 15.40909086,46.59090914 L 15.81818173,47.0 L 15.90909086,47.09090914 L 16.0,47.18181827 L 16.40909086,47.59090914 L 16.81818173,48.0 L 16.90909086,48.09090914 L 17.0,48.18181827 L 17.40909086,48.59090914 L 17.81818173,49.0 " stroke="rgb(102,255,0)" stroke-width="0.245" fill="none" /> 
<path d="M 0.90909086,41.0 L 0.45454543,40.54545457 L 0.0,40.09090914 M 0.90909086,41.0 L 0.95454543,41.04545457 L 1.0,41.09090914 L 1.45454543,41.54545457 L 1.90909086,42.0 L 1.95454543,42.04545457 L 2.0,42.09090914 L 2.45454543,42.54545457 L 2.90909086,43.0 L 2.95454543,43.04545457 L 3.0,43.09090914 L 3.45454543,43.54545457 L 3.90909086,44.0 L 3.95454543,44.04545457 L 4.0,44.09090914 L 4.45454543,44.54545457 L 4.90909086,45.0 L 4.95454543,45.04545457 L 5.0,45.09090914 L 5.45454543,45.54545457 L 5.90909086,46.0 L 5.95454543,46.04545457 L 6.0,46.09090914 L 6.45454543,46.54545457 L 6.90909086,47.0 L 6.95454543,47.04545457 L 7.0,47.09090914 L 7.45454543,47.54545457 L 7.90909086,48.0 L 7.95454543,48.04545457 L 8.0,48.09090914 L 8.45454543,48.54545457 L 8.90909086,49.0 " stroke="rgb(51,255,0)" stroke-width="0.245" fill="none" /> 
</svg>