<svg xmlns="http://www.w3.org/2000/svg" version="1.1" x="1" y="1" width="49.0" height="49.0"> 
<path d="M 42.9375000003,0.0624999997 L 43.0000000000,0.1249999994 L 43.4375000003,0.5624999997 L 43.8750000006,1.0000000000 L 43.9375000003,1.0624999997 L 44.0000000000,1.1249999994 L 44.4375000003,1.5624999997 L 44.8750000006,2.0000000000 L 44.9375000003,2.0624999997 L 45.0000000000,2.1249999994 L 45.4375000003,2.5624999997 L 45.8750000006,3.0000000000 L 45.9375000003,3.0624999997 L 46.0000000000,3.1249999994 L 46.4375000003,3.5624999997 L 46.8750000006,4.0000000000 L 46.9375000003,4.0624999997 L 47.0000000000,4.1249999994 L 47.4375000003,4.5624999997 L 47.8750000006,5.0000000000 L 47.9375000003,5.0624999997 L 48.0000000000,5.1249999994 L 48.4375000003,5.5624999997 L 48.8750000006,6.0000000000 L 48.9375000003,6.0624999997 L 49.0000000000,6.1249999994 M 42.9375000003,0.0624999997 L 42.8750000006,0.0000000000 " stroke="rgb(255,31,0)" stroke-width="0.0032666667" fill="none" /> 
<path d="M 36.8750000000,0.1250000000 L 37.0000000000,0.2500000000 L 37.3750000000,0.6250000000 L 37.7500000000,1.0000000000 L 37.8750000000,1.1250000000 L 38.0000000000,1.2500000000 L 38.3750000000,1.6250000000 L 38.7500000000,2.0000000000 L 38.8750000000,2.1250000000 L 39.0000000000,2.2500000000 L 39.3750000000,2.6250000000 L 39.7500000000,3.0000000000 L 39.8750000000,3.1250000000 L 40.0000000000,3.2500000000 L 40.3750000000,3.6250000000 L 40.7500000000,4.0000000000 L 40.8750000000,4.1250000000 L 41.0000000000,4.2500000000 L 41.3750000000,4.6250000000 L 41.7500000000,5.0000000000 L 41.8750000000,5.1250000000 L 42.0000000000,5.2500000000 L 42.3750000000,5.6250000000 L 42.7500000000,6.0000000000 L 42.8750000000,6.1250000000 L 43.0000000000,6.2500000000 L 43.3750000000,6.6250000000 L 43.7500000000,7.0000000000 L 43.8750000000,7.1250000000 L 44.0000000000,7.2500000000 L 44.3750000000,7.6250000000 L 44.7500000000,8.0000000000 L 44.8750000000,8.1250000000 L 45.0000000000,8.2500000000 L 45.3750000000,8.6250000000 L 45.7500000000,9.0000000000 L 45.8750000000,9.1250000000 L 46.0000000000,9.2500000000 L 46.3750000000,9.6250000000 L 46.7500000000,10.0000000000 L 46.8750000000,10.1250000000 L 47.0000000000,10.2500000000 L 47.3750000000,10.6250000000 L 47.7500000000,11.0000000000 L 47.8750000000,11.1250000000 L 48.0000000000,11.2500000000 L 48.3750000000,11.6250000000 L 48.7500000000,12.0000000000 L 48.8750000000,12.1250000000 L 49.0000000000,12.2500000000 M 36.8750000000,0.1250000000 L 36.7500000000,0.0000000000 " stroke="rgb(255,62,0)" stroke-width="0.0032666667" fill="none" /> 
<path d="M 30.6250000000,0.0000000000 L 30.8125000000,0.1875000000 L 31.0000000000,0.3750000000 L 31.3125000000,0.6875000000 L 31.6250000000,1.0000000000 L 31.8125000000,1.1875000000 L 32.0000000000,1.3750000000 L 32.3125000000,1.6875000000 L 32.6250000000,2.0000000000 L 32.8125000000,2.1875000000 L 33.0000000000,2.3750000000 L 33.3125000000,2.6875000000 L 33.6250000000,3.0000000000 L 33.8125000000,3.1875000000 L 34.0000000000,3.3750000000 L 34.3125000000,3.6875000000 L 34.6250000000,4.0000000000 L 34.8125000000,4.1875000000 L 35.0000000000,4.3750000000 L 35.3125000000,4.6875000000 L 35.6250000000,5.0000000000 L 35.8125000000,5.1875000000 L 36.0000000000,5.3750000000 L 36.3125000000,5.6875000000 L 36.6250000000,6.0000000000 L 36.8125000000,6.1875000000 L 37.0000000000,6.3750000000 L 37.3125000000,6.6875000000 L 37.6250000000,7.0000000000 L 37.8125000000,7.1875000000 L 38.0000000000,7.3750000000 L 38.3125000000,7.6875000000 L 38.6250000000,8.0000000000 L 38.8125000000,8.1875000000 L 39.0000000000,8.3750000000 L 39.3125000000,8.6875000000 L 39.6250000000,9.0000000000 L 39.8125000000,9.1875000000 L 40.0000000000,9.3750000000 L 40.3125000000,9.6875000000 L 40.6250000000,10.0000000000 L 40.8125000000,10.1875000000 L 41.0000000000,10.3750000000 L 41.3125000000,10.6875000000 L 41.6250000000,11.0000000000 L 41.8125000000,11.1875000000 L 42.0000000000,11.3750000000 L 42.3125000000,11.6875000000 L 42.6250000000,12.0000000000 L 42.8125000000,12.1875000000 L 43.0000000000,12.3750000000 L 43.3125000000,12.6875000000 L 43.6250000000,13.0000000000 L 43.8125000000,13.1875000000 L 44.0000000000,13.3750000000 L 44.3125000000,13.6875000000 L 44.6250000000,14.0000000000 L 44.8125000000,14.1875000000 L 45.0000000000,14.3750000000 L 45.3125000000,14.6875000000 L 45.6250000000,15.0000000000 L 45.8125000000,15.1875000000 L 46.0000000000,15.3750000000 L 46.3125000000,15.6875000000 L 46.6250000000,16.0000000000 L 46.8125000000,16.1875000000 L 47.0000000000,16.3750000000 L 47.3125000000,16.6875000000 L 47.6250000000,17.0000000000 L 47.8125000000,17.1875000000 L 48.0000000000,17.3750000000 L 48.3125000000,17.6875000000 L 48.6250000000,18.0000000000 L 48.8125000000,18.1875000000 L 49.0000000000,18.3750000000 " stroke="rgb(255,93,0)" stroke-width="0.0032666667" fill="none" /> 
<path d="M 24.5000000000,0.0000000000 L 24.7500000000,0.2500000000 " stroke="rgb(255,124,0)" stroke-width="0.0032666667" fill="none" /> 
<path d="M 24.7500000000,0.2500000000 L 25.0000000000,0.5000000000 L 25.2500000000,0.7500000000 L 25.5000000000,1.0000000000 L 25.7500000000,1.2500000000 L 26.0000000000,1.5000000000 L 26.2500000000,1.7500000000 L 26.5000000000,2.0000000000 L 26.7500000000,2.2500000000 L 27.0000000000,2.5000000000 L 27.2500000000,2.7500000000 L 27.5000000000,3.0000000000 L 27.7500000000,3.2500000000 L 28.0000000000,3.5000000000 L 28.2500000000,3.7500000000 L 28.5000000000,4.0000000000 L 28.7500000000,4.2500000000 L 29.0000000000,4.5000000000 L 29.2500000000,4.7500000000 L 29.5000000000,5.0000000000 L 29.7500000000,5.2500000000 L 30.0000000000,5.5000000000 L 30.2500000000,5.7500000000 L 30.5000000000,6.0000000000 L 30.7500000000,6.2500000000 L 31.0000000000,6.5000000000 L 31.2500000000,6.7500000000 L 31.5000000000,7.0000000000 L 31.7500000000,7.2500000000 L 32.0000000000,7.5000000000 L 32.2500000000,7.7500000000 L 32.5000000000,8.0000000000 L 32.7500000000,8.2500000000 L 33.0000000000,8.5000000000 L 33.2500000000,8.7500000000 L 33.5000000000,9.0000000000 L 33.7500000000,9.2500000000 L 34.0000000000,9.5000000000 L 34.2500000000,9.7500000000 L 34.5000000000,10.0000000000 L 34.7500000000,10.2500000000 L 35.0000000000,10.5000000000 L 35.2500000000,10.7500000000 L 35.5000000000,11.0000000000 L 35.7500000000,11.2500000000 L 36.0000000000,11.5000000000 L 36.2500000000,11.7500000000 L 36.5000000000,12.0000000000 L 36.7500000000,12.2500000000 L 37.0000000000,12.5000000000 L 37.2500000000,12.7500000000 L 37.5000000000,13.0000000000 L 37.7500000000,13.2500000000 L 38.0000000000,13.5000000000 L 38.2500000000,13.7500000000 L 38.5000000000,14.0000000000 L 38.7500000000,14.2500000000 L 39.0000000000,14.5000000000 L 39.2500000000,14.7500000000 L 39.5000000000,15.0000000000 L 39.7500000000,15.2500000000 L 40.0000000000,15.5000000000 L 40.2500000000,15.7500000000 L 40.5000000000,16.0000000000 L 40.7500000000,16.2500000000 L 41.0000000000,16.5000000000 L 41.2500000000,16.7500000000 L 41.5000000000,17.0000000000 L 41.7500000000,17.2500000000 L 42.0000000000,17.5000000000 L 42.2500000000,17.7500000000 L 42.5000000000,18.0000000000 L 42.7500000000,18.2500000000 L 43.0000000000,18.5000000000 L 43.2500000000,18.7500000000 L 43.5000000000,19.0000000000 L 43.7500000000,19.2500000000 L 44.0000000000,19.5000000000 L 44.2500000000,19.7500000000 L 44.5000000000,20.0000000000 L 44.7500000000,20.2500000000 L 45.0000000000,20.5000000000 L 45.2500000000,20.7500000000 L 45.5000000000,21.0000000000 L 45.7500000000,21.2500000000 L 46.0000000000,21.5000000000 L 46.2500000000,21.7500000000 L 46.5000000000,22.0000000000 L 46.7500000000,22.2500000000 L 47.0000000000,22.5000000000 L 47.2500000000,22.7500000000 L 47.5000000000,23.0000000000 L 47.7500000000,23.2500000000 L 48.0000000000,23.5000000000 L 48.2500000000,23.7500000000 L 48.5000000000,24.0000000000 L 48.7500000000,24.2500000000 L 49.0000000000,24.5000000000 " stroke="rgb(255,124,0)" stroke-width="0.0032666667" fill="none" /> 
<path d="M 18.3750000000,0.0000000000 L 18.6875000000,0.3125000000 L 19.0000000000,0.6250000000 L 19.1875000000,0.8125000000 L 19.3750000000,1.0000000000 L 19.6875000000,1.3125000000 L 20.0000000000,1.6250000000 L 20.1875000000,1.8125000000 L 20.3750000000,2.0000000000 L 20.6875000000,2.3125000000 L 21.0000000000,2.6250000000 L 21.1875000000,2.8125000000 L 21.3750000000,3.0000000000 L 21.6875000000,3.3125000000 L 22.0000000000,3.6250000000 L 22.1875000000,3.8125000000 L 22.3750000000,4.0000000000 L 22.6875000000,4.3125000000 L 23.0000000000,4.6250000000 L 23.1875000000,4.8125000000 L 23.3750000000,5.0000000000 L 23.6875000000,5.3125000000 L 24.0000000000,5.6250000000 L 24.1875000000,5.8125000000 L 24.3750000000,6.0000000000 L 24.6875000000,6.3125000000 L 25.0000000000,6.6250000000 L 25.1875000000,6.8125000000 L 25.3750000000,7.0000000000 L 25.6875000000,7.3125000000 L 26.0000000000,7.6250000000 L 26.1875000000,7.8125000000 L 26.3750000000,8.0000000000 L 26.6875000000,8.3125000000 L 27.0000000000,8.6250000000 L 27.1875000000,8.8125000000 L 27.3750000000,9.0000000000 L 27.6875000000,9.3125000000 L 28.0000000000,9.6250000000 L 28.1875000000,9.8125000000 L 28.3750000000,10.0000000000 L 28.6875000000,10.3125000000 L 29.0000000000,10.6250000000 L 29.1875000000,10.8125000000 L 29.3750000000,11.0000000000 L 29.6875000000,11.3125000000 L 30.0000000000,11.6250000000 L 30.1875000000,11.8125000000 L 30.3750000000,12.0000000000 L 30.6875000000,12.3125000000 L 31.0000000000,12.6250000000 L 31.1875000000,12.8125000000 L 31.3750000000,13.0000000000 L 31.6875000000,13.3125000000 L 32.0000000000,13.6250000000 L 32.1875000000,13.8125000000 L 32.3750000000,14.0000000000 L 32.6875000000,14.3125000000 L 33.0000000000,14.6250000000 L 33.1875000000,14.8125000000 L 33.3750000000,15.0000000000 L 33.6875000000,15.3125000000 L 34.0000000000,15.6250000000 L 34.1875000000,15.8125000000 L 34.3750000000,16.0000000000 L 34.6875000000,16.3125000000 L 35.0000000000,16.6250000000 L 35.1875000000,16.8125000000 L 35.3750000000,17.0000000000 L 35.6875000000,17.3125000000 L 36.0000000000,17.6250000000 L 36.1875000000,17.8125000000 L 36.3750000000,18.0000000000 L 36.6875000000,18.3125000000 L 37.0000000000,18.6250000000 L 37.1875000000,18.8125000000 L 37.3750000000,19.0000000000 L 37.6875000000,19.3125000000 L 38.0000000000,19.6250000000 L 38.1875000000,19.8125000000 L 38.3750000000,20.0000000000 L 38.6875000000,20.3125000000 L 39.0000000000,20.6250000000 L 39.1875000000,20.8125000000 L 39.3750000000,21.0000000000 L 39.6875000000,21.3125000000 L 40.0000000000,21.6250000000 L 40.1875000000,21.8125000000 L 40.3750000000,22.0000000000 L 40.6875000000,22.3125000000 L 41.0000000000,22.6250000000 L 41.1875000000,22.8125000000 L 41.3750000000,23.0000000000 L 41.6875000000,23.3125000000 L 42.0000000000,23.6250000000 L 42.1875000000,23.8125000000 L 42.3750000000,24.0000000000 L 42.6875000000,24.3125000000 L 43.0000000000,24.6250000000 L 43.1875000000,24.8125000000 L 43.3750000000,25.0000000000 L 43.6875000000,25.3125000000 L 44.0000000000,25.6250000000 L 44.1875000000,25.8125000000 L 44.3750000000,26.0000000000 L 44.6875000000,26.3125000000 L 45.0000000000,26.6250000000 L 45.1875000000,26.8125000000 L 45.3750000000,27.0000000000 L 45.6875000000,27.3125000000 L 46.0000000000,27.6250000000 L 46.1875000000,27.8125000000 L 46.3750000000,28.0000000000 L 46.6875000000,28.3125000000 L 47.0000000000,28.6250000000 L 47.1875000000,28.8125000000 L 47.3750000000,29.0000000000 L 47.6875000000,29.3125000000 L 48.0000000000,29.6250000000 L 48.1875000000,29.8125000000 L 48.3750000000,30.0000000000 L 48.6875000000,30.3125000000 L 49.0000000000,30.6250000000 " stroke="rgb(255,155,0)" stroke-width="0.0032666667" fill="none" /> 
<path d="M 12.6250000000,0.3750000000 L 12.2500000000,0.0000000000 M 12.6250000000,0.3750000000 L 13.0000000000,0.7500000000 L 13.1250000000,0.8750000000 L 13.2500000000,1.0000000000 L 13.6250000000,1.3750000000 L 14.0000000000,1.7500000000 L 14.1250000000,1.8750000000 L 14.2500000000,2.0000000000 L 14.6250000000,2.3750000000 L 15.0000000000,2.7500000000 L 15.1250000000,2.8750000000 L 15.2500000000,3.0000000000 L 15.6250000000,3.3750000000 L 16.0000000000,3.7500000000 L 16.1250000000,3.8750000000 L 16.2500000000,4.0000000000 L 16.6250000000,4.3750000000 L 17.0000000000,4.7500000000 L 17.1250000000,4.8750000000 L 17.2500000000,5.0000000000 L 17.6250000000,5.3750000000 L 18.0000000000,5.7500000000 L 18.1250000000,5.8750000000 L 18.2500000000,6.0000000000 L 18.6250000000,6.3750000000 L 19.0000000000,6.7500000000 L 19.1250000000,6.8750000000 L 19.2500000000,7.0000000000 L 19.6250000000,7.3750000000 L 20.0000000000,7.7500000000 L 20.1250000000,7.8750000000 L 20.2500000000,8.0000000000 L 20.6250000000,8.3750000000 L 21.0000000000,8.7500000000 L 21.1250000000,8.8750000000 L 21.2500000000,9.0000000000 L 21.6250000000,9.3750000000 L 22.0000000000,9.7500000000 L 22.1250000000,9.8750000000 L 22.2500000000,10.0000000000 L 22.6250000000,10.3750000000 L 23.0000000000,10.7500000000 L 23.1250000000,10.8750000000 L 23.2500000000,11.0000000000 L 23.6250000000,11.3750000000 L 24.0000000000,11.7500000000 L 24.1250000000,11.8750000000 L 24.2500000000,12.0000000000 L 24.6250000000,12.3750000000 L 25.0000000000,12.7500000000 L 25.1250000000,12.8750000000 L 25.2500000000,13.0000000000 L 25.6250000000,13.3750000000 L 26.0000000000,13.7500000000 L 26.1250000000,13.8750000000 L 26.2500000000,14.0000000000 L 26.6250000000,14.3750000000 L 27.0000000000,14.7500000000 L 27.1250000000,14.8750000000 L 27.2500000000,15.0000000000 L 27.6250000000,15.3750000000 L 28.0000000000,15.7500000000 L 28.1250000000,15.8750000000 L 28.2500000000,16.0000000000 L 28.6250000000,16.3750000000 L 29.0000000000,16.7500000000 L 29.1250000000,16.8750000000 L 29.2500000000,17.0000000000 L 29.6250000000,17.3750000000 L 30.0000000000,17.7500000000 L 30.1250000000,17.8750000000 L 30.2500000000,18.0000000000 L 30.6250000000,18.3750000000 L 31.0000000000,18.7500000000 L 31.1250000000,18.8750000000 L 31.2500000000,19.0000000000 L 31.6250000000,19.3750000000 L 32.0000000000,19.7500000000 L 32.1250000000,19.8750000000 L 32.2500000000,20.0000000000 L 32.6250000000,20.3750000000 L 33.0000000000,20.7500000000 L 33.1250000000,20.8750000000 L 33.2500000000,21.0000000000 L 33.6250000000,21.3750000000 L 34.0000000000,21.7500000000 L 34.1250000000,21.8750000000 L 34.2500000000,22.0000000000 L 34.6250000000,22.3750000000 L 35.0000000000,22.7500000000 L 35.1250000000,22.8750000000 L 35.2500000000,23.0000000000 L 35.6250000000,23.3750000000 L 36.0000000000,23.7500000000 L 36.1250000000,23.8750000000 L 36.2500000000,24.0000000000 L 36.6250000000,24.3750000000 L 37.0000000000,24.7500000000 L 37.1250000000,24.8750000000 L 37.2500000000,25.0000000000 L 37.6250000000,25.3750000000 L 38.0000000000,25.7500000000 L 38.1250000000,25.8750000000 L 38.2500000000,26.0000000000 L 38.6250000000,26.3750000000 L 39.0000000000,26.7500000000 L 39.1250000000,26.8750000000 L 39.2500000000,27.0000000000 L 39.6250000000,27.3750000000 L 40.0000000000,27.7500000000 L 40.1250000000,27.8750000000 L 40.2500000000,28.0000000000 L 40.6250000000,28.3750000000 L 41.0000000000,28.7500000000 L 41.1250000000,28.8750000000 L 41.2500000000,29.0000000000 L 41.6250000000,29.3750000000 L 42.0000000000,29.7500000000 L 42.1250000000,29.8750000000 L 42.2500000000,30.0000000000 L 42.6250000000,30.3750000000 L 43.0000000000,30.7500000000 L 43.1250000000,30.8750000000 L 43.2500000000,31.0000000000 L 43.6250000000,31.3750000000 L 44.0000000000,31.7500000000 L 44.1250000000,31.8750000000 L 44.2500000000,32.0000000000 L 44.6250000000,32.3750000000 L 45.0000000000,32.7500000000 L 45.1250000000,32.8750000000 L 45.2500000000,33.0000000000 L 45.6250000000,33.3750000000 L 46.0000000000,33.7500000000 L 46.1250000000,33.8750000000 L 46.2500000000,34.0000000000 L 46.6250000000,34.3750000000 L 47.0000000000,34.7500000000 L 47.1250000000,34.8750000000 L 47.2500000000,35.0000000000 L 47.6250000000,35.3750000000 L 48.0000000000,35.7500000000 L 48.1250000000,35.8750000000 L 48.2500000000,36.0000000000 L 48.6250000000,36.3750000000 L 49.0000000000,36.7500000000 " stroke="rgb(255,186,0)" stroke-width="0.0032666667" fill="none" /> 
<path d="M 6.5624999997,0.4375000003 L 7.0000000000,0.8750000006 L 7.0624999997,0.9375000003 L 7.1249999994,1.0000000000 L 7.5624999997,1.4375000003 L 8.0000000000,1.8750000006 L 8.0624999997,1.9375000003 L 8.1249999994,2.0000000000 L 8.5624999997,2.4375000003 L 9.0000000000,2.8750000006 L 9.0624999997,2.9375000003 L 9.1249999994,3.0000000000 L 9.5624999997,3.4375000003 L 10.0000000000,3.8750000006 L 10.0624999997,3.9375000003 L 10.1249999994,4.0000000000 L 10.5624999997,4.4375000003 L 11.0000000000,4.8750000006 L 11.0624999997,4.9375000003 L 11.1249999994,5.0000000000 L 11.5624999997,5.4375000003 L 12.0000000000,5.8750000006 L 12.0624999997,5.9375000003 L 12.1249999994,6.0000000000 L 12.5624999997,6.4375000003 L 13.0000000000,6.8750000006 L 13.0624999997,6.9375000003 L 13.1249999994,7.0000000000 L 13.5624999997,7.4375000003 L 14.0000000000,7.8750000006 L 14.0624999997,7.9375000003 L 14.1249999994,8.0000000000 L 14.5624999997,8.4375000003 L 15.0000000000,8.8750000006 L 15.0624999997,8.9375000003 L 15.1249999994,9.0000000000 L 15.5624999997,9.4375000003 L 16.0000000000,9.8750000006 L 16.0624999997,9.9375000003 L 16.1249999994,10.0000000000 L 16.5624999997,10.4375000003 L 17.0000000000,10.8750000006 L 17.0624999997,10.9375000003 L 17.1249999994,11.0000000000 L 17.5624999997,11.4375000003 L 18.0000000000,11.8750000006 L 18.0624999997,11.9375000003 L 18.1249999994,12.0000000000 L 18.5624999997,12.4375000003 L 19.0000000000,12.8750000006 L 19.0624999997,12.9375000003 L 19.1249999994,13.0000000000 L 19.5624999997,13.4375000003 L 20.0000000000,13.8750000006 L 20.0624999997,13.9375000003 L 20.1249999994,14.0000000000 L 20.5624999997,14.4375000003 L 21.0000000000,14.8750000006 L 21.0624999997,14.9375000003 L 21.1249999994,15.0000000000 L 21.5624999997,15.4375000003 L 22.0000000000,15.8750000006 L 22.0624999997,15.9375000003 L 22.1249999994,16.0000000000 L 22.5624999997,16.4375000003 L 23.0000000000,16.8750000006 L 23.0624999997,16.9375000003 L 23.1249999994,17.0000000000 L 23.5624999997,17.4375000003 L 24.0000000000,17.8750000006 L 24.0624999997,17.9375000003 L 24.1249999994,18.0000000000 L 24.5624999997,18.4375000003 L 25.0000000000,18.8750000006 L 25.0624999997,18.9375000003 L 25.1249999994,19.0000000000 L 25.5624999997,19.4375000003 L 26.0000000000,19.8750000006 L 26.0624999997,19.9375000003 L 26.1249999994,20.0000000000 L 26.5624999997,20.4375000003 L 27.0000000000,20.8750000006 L 27.0624999997,20.9375000003 L 27.1249999994,21.0000000000 L 27.5624999997,21.4375000003 L 28.0000000000,21.8750000006 L 28.0624999997,21.9375000003 L 28.1249999994,22.0000000000 L 28.5624999997,22.4375000003 L 29.0000000000,22.8750000006 L 29.0624999997,22.9375000003 L 29.1249999994,23.0000000000 L 29.5624999997,23.4375000003 L 30.0000000000,23.8750000006 L 30.0624999997,23.9375000003 L 30.1249999994,24.0000000000 L 30.5624999997,24.4375000003 L 31.0000000000,24.8750000006 L 31.0624999997,24.9375000003 L 31.1249999994,25.0000000000 L 31.5624999997,25.4375000003 L 32.0000000000,25.8750000006 L 32.0624999997,25.9375000003 L 32.1249999994,26.0000000000 L 32.5624999997,26.4375000003 L 33.0000000000,26.8750000006 L 33.0624999997,26.9375000003 L 33.1249999994,27.0000000000 L 33.5624999997,27.4375000003 L 34.0000000000,27.8750000006 L 34.0624999997,27.9375000003 L 34.1249999994,28.0000000000 L 34.5624999997,28.4375000003 L 35.0000000000,28.8750000006 L 35.0624999997,28.9375000003 L 35.1249999994,29.0000000000 L 35.5624999997,29.4375000003 L 36.0000000000,29.8750000006 L 36.0624999997,29.9375000003 L 36.1249999994,30.0000000000 L 36.5624999997,30.4375000003 L 37.0000000000,30.8750000006 L 37.0624999997,30.9375000003 L 37.1249999994,31.0000000000 L 37.5624999997,31.4375000003 L 38.0000000000,31.8750000006 L 38.0624999997,31.9375000003 L 38.1249999994,32.0000000000 L 38.5624999997,32.4375000003 L 39.0000000000,32.8750000006 L 39.0624999997,32.9375000003 L 39.1249999994,33.0000000000 L 39.5624999997,33.4375000003 L 40.0000000000,33.8750000006 L 40.0624999997,33.9375000003 L 40.1249999994,34.0000000000 L 40.5624999997,34.4375000003 L 41.0000000000,34.8750000006 L 41.0624999997,34.9375000003 L 41.1249999994,35.0000000000 L 41.5624999997,35.4375000003 L 42.0000000000,35.8750000006 L 42.0624999997,35.9375000003 L 42.1249999994,36.0000000000 L 42.5624999997,36.4375000003 L 43.0000000000,36.8750000006 L 43.0624999997,36.9375000003 L 43.1249999994,37.0000000000 L 43.5624999997,37.4375000003 L 44.0000000000,37.8750000006 L 44.0624999997,37.9375000003 L 44.1249999994,38.0000000000 L 44.5624999997,38.4375000003 L 45.0000000000,38.8750000006 L 45.0624999997,38.9375000003 L 45.1249999994,39.0000000000 L 45.5624999997,39.4375000003 L 46.0000000000,39.8750000006 L 46.0624999997,39.9375000003 L 46.1249999994,40.0000000000 L 46.5624999997,40.4375000003 L 47.0000000000,40.8750000006 L 47.0624999997,40.9375000003 L 47.1249999994,41.0000000000 L 47.5624999997,41.4375000003 L 48.0000000000,41.8750000006 L 48.0624999997,41.9375000003 L 48.1249999994,42.0000000000 L 48.5624999997,42.4375000003 L 49.0000000000,42.8750000006 M 6.5624999997,0.4375000003 L 6.1249999994,0.0000000000 " stroke="rgb(255,217,0)" stroke-width="0.0032666667" fill="none" /> 
<path d="M 0.0000000000,0.0000000000 L 0.5000000000,0.5000000000 L 1.0000000000,1.0000000000 L 1.0000000000,1.0000000000 L 1.0000000000,1.0000000000 L 1.5000000000,1.5000000000 L 2.0000000000,2.0000000000 L 2.0000000000,2.0000000000 L 2.0000000000,2.0000000000 L 2.5000000000,2.5000000000 L 3.0000000000,3.0000000000 L 3.0000000000,3.0000000000 L 3.0000000000,3.0000000000 L 3.5000000000,3.5000000000 L 4.0000000000,4.0000000000 L 4.0000000000,4.0000000000 L 4.0000000000,4.0000000000 L 4.5000000000,4.5000000000 L 5.0000000000,5.0000000000 L 5.0000000000,5.0000000000 L 5.0000000000,5.0000000000 L 5.5000000000,5.5000000000 L 6.0000000000,6.0000000000 L 6.0000000000,6.0000000000 L 6.0000000000,6.0000000000 L 6.5000000000,6.5000000000 L 7.0000000000,7.0000000000 L 7.0000000000,7.0000000000 L 7.0000000000,7.0000000000 L 7.5000000000,7.5000000000 L 8.0000000000,8.0000000000 L 8.0000000000,8.0000000000 L 8.0000000000,8.0000000000 L 8.5000000000,8.5000000000 L 9.0000000000,9.0000000000 L 9.0000000000,9.0000000000 L 9.0000000000,9.0000000000 L 9.5000000000,9.5000000000 L 10.0000000000,10.0000000000 L 10.0000000000,10.0000000000 L 10.0000000000,10.0000000000 L 10.5000000000,10.5000000000 L 11.0000000000,11.0000000000 L 11.0000000000,11.0000000000 L 11.0000000000,11.0000000000 L 11.5000000000,11.5000000000 L 12.0000000000,12.0000000000 L 12.0000000000,12.0000000000 L 12.0000000000,12.0000000000 L 12.5000000000,12.5000000000 L 13.0000000000,13.0000000000 L 13.0000000000,13.0000000000 L 13.0000000000,13.0000000000 L 13.5000000000,13.5000000000 L 14.0000000000,14.0000000000 L 14.0000000000,14.0000000000 L 14.0000000000,14.0000000000 L 14.5000000000,14.5000000000 L 15.0000000000,15.0000000000 L 15.0000000000,15.0000000000 L 15.0000000000,15.0000000000 L 15.5000000000,15.5000000000 L 16.0000000000,16.0000000000 L 16.0000000000,16.0000000000 L 16.0000000000,16.0000000000 L 16.5000000000,16.5000000000 L 17.0000000000,17.0000000000 L 17.0000000000,17.0000000000 L 17.0000000000,17.0000000000 L 17.5000000000,17.5000000000 L 18.0000000000,18.0000000000 L 18.0000000000,18.0000000000 L 18.0000000000,18.0000000000 L 18.5000000000,18.5000000000 L 19.0000000000,19.0000000000 L 19.0000000000,19.0000000000 L 19.0000000000,19.0000000000 L 19.5000000000,19.5000000000 L 20.0000000000,20.0000000000 L 20.0000000000,20.0000000000 L 20.0000000000,20.0000000000 L 20.5000000000,20.5000000000 L 21.0000000000,21.0000000000 L 21.0000000000,21.0000000000 L 21.0000000000,21.0000000000 L 21.5000000000,21.5000000000 L 22.0000000000,22.0000000000 L 22.0000000000,22.0000000000 L 22.0000000000,22.0000000000 L 22.5000000000,22.5000000000 L 23.0000000000,23.0000000000 L 23.0000000000,23.0000000000 L 23.0000000000,23.0000000000 L 23.5000000000,23.5000000000 L 24.0000000000,24.0000000000 L 24.0000000000,24.0000000000 L 24.0000000000,24.0000000000 L 24.5000000000,24.5000000000 L 25.0000000000,25.0000000000 L 25.0000000000,25.0000000000 L 25.0000000000,25.0000000000 L 25.5000000000,25.5000000000 L 26.0000000000,26.0000000000 L 26.0000000000,26.0000000000 L 26.0000000000,26.0000000000 L 26.5000000000,26.5000000000 L 27.0000000000,27.0000000000 L 27.0000000000,27.0000000000 L 27.0000000000,27.0000000000 L 27.5000000000,27.5000000000 L 28.0000000000,28.0000000000 L 28.0000000000,28.0000000000 L 28.0000000000,28.0000000000 L 28.5000000000,28.5000000000 L 29.0000000000,29.0000000000 L 29.0000000000,29.0000000000 L 29.0000000000,29.0000000000 L 29.5000000000,29.5000000000 L 30.0000000000,30.0000000000 L 30.0000000000,30.0000000000 L 30.0000000000,30.0000000000 L 30.5000000000,30.5000000000 L 31.0000000000,31.0000000000 L 31.0000000000,31.0000000000 L 31.0000000000,31.0000000000 L 31.5000000000,31.5000000000 L 32.0000000000,32.0000000000 L 32.0000000000,32.0000000000 L 32.0000000000,32.0000000000 L 32.5000000000,32.5000000000 L 33.0000000000,33.0000000000 L 33.0000000000,33.0000000000 L 33.0000000000,33.0000000000 L 33.5000000000,33.5000000000 L 34.0000000000,34.0000000000 L 34.0000000000,34.0000000000 L 34.0000000000,34.0000000000 L 34.5000000000,34.5000000000 L 35.0000000000,35.0000000000 L 35.0000000000,35.0000000000 L 35.0000000000,35.0000000000 L 35.5000000000,35.5000000000 L 36.0000000000,36.0000000000 L 36.0000000000,36.0000000000 L 36.0000000000,36.0000000000 L 36.5000000000,36.5000000000 L 37.0000000000,37.0000000000 L 37.0000000000,37.0000000000 L 37.0000000000,37.0000000000 L 37.5000000000,37.5000000000 L 38.0000000000,38.0000000000 L 38.0000000000,38.0000000000 L 38.0000000000,38.0000000000 L 38.5000000000,38.5000000000 L 39.0000000000,39.0000000000 L 39.0000000000,39.0000000000 L 39.0000000000,39.0000000000 L 39.5000000000,39.5000000000 L 40.0000000000,40.0000000000 L 40.0000000000,40.0000000000 L 40.0000000000,40.0000000000 L 40.5000000000,40.5000000000 L 41.0000000000,41.0000000000 L 41.0000000000,41.0000000000 L 41.0000000000,41.0000000000 L 41.5000000000,41.5000000000 L 42.0000000000,42.0000000000 L 42.0000000000,42.0000000000 L 42.0000000000,42.0000000000 L 42.5000000000,42.5000000000 L 43.0000000000,43.0000000000 L 43.0000000000,43.0000000000 L 43.0000000000,43.0000000000 L 43.5000000000,43.5000000000 L 44.0000000000,44.0000000000 L 44.0000000000,44.0000000000 L 44.0000000000,44.0000000000 L 44.5000000000,44.5000000000 L 45.0000000000,45.0000000000 L 45.0000000000,45.0000000000 L 45.0000000000,45.0000000000 L 45.5000000000,45.5000000000 L 46.0000000000,46.0000000000 L 46.0000000000,46.0000000000 L 46.0000000000,46.0000000000 L 46.5000000000,46.5000000000 L 47.0000000000,47.0000000000 L 47.0000000000,47.0000000000 L 47.0000000000,47.0000000000 L 47.5000000000,47.5000000000 L 48.0000000000,48.0000000000 L 48.0000000000,48.0000000000 L 48.0000000000,48.0000000000 L 48.5000000000,48.5000000000 L 49.0000000000,49.0000000000 " stroke="rgb(255,248,0)" stroke-width="0.0032666667" fill="none" /> 
<path d="M 0.8750000006,7.0000000000 L 0.9375000003,7.0624999997 L 1.0000000000,7.1249999994 L 1.4375000003,7.5624999997 L 1.8750000006,8.0000000000 L 1.9375000003,8.0624999997 M 0.8750000006,7.0000000000 L 0.4375000003,6.5624999997 L 0.0000000000,6.1249999994 " stroke="rgb(231,255,0)" stroke-width="0.0032666667" fill="none" /> 
<path d="M 2.0000000000,8.1249999994 L 1.9375000003,8.0624999997 M 2.0000000000,8.1249999994 L 2.4375000003,8.5624999997 L 2.8750000006,9.0000000000 " stroke="rgb(231,255,0)" stroke-width="0.0032666667" fill="none" /> 
<path d="M 2.8750000006,9.0000000000 L 2.9375000003,9.0624999997 L 3.0000000000,9.1249999994 L 3.4375000003,9.5624999997 L 3.8750000006,10.0000000000 " stroke="rgb(231,255,0)" stroke-width="0.0032666667" fill="none" /> 
<path d="M 3.8750000006,10.0000000000 L 3.9375000003,10.0624999997 L 4.0000000000,10.1249999994 L 4.4375000003,10.5624999997 L 4.8750000006,11.0000000000 L 4.9375000003,11.0624999997 L 5.0000000000,11.1249999994 L 5.4375000003,11.5624999997 L 5.8750000006,12.0000000000 L 5.9375000003,12.0624999997 L 6.0000000000,12.1249999994 L 6.4375000003,12.5624999997 L 6.8750000006,13.0000000000 L 6.9375000003,13.0624999997 L 7.0000000000,13.1249999994 L 7.4375000003,13.5624999997 L 7.8750000006,14.0000000000 L 7.9375000003,14.0624999997 L 8.0000000000,14.1249999994 L 8.4375000003,14.5624999997 L 8.8750000006,15.0000000000 L 8.9375000003,15.0624999997 L 9.0000000000,15.1249999994 L 9.4375000003,15.5624999997 L 9.8750000006,16.0000000000 L 9.9375000003,16.0624999997 L 10.0000000000,16.1249999994 L 10.4375000003,16.5624999997 L 10.8750000006,17.0000000000 L 10.9375000003,17.0624999997 L 11.0000000000,17.1249999994 L 11.4375000003,17.5624999997 L 11.8750000006,18.0000000000 L 11.9375000003,18.0624999997 L 12.0000000000,18.1249999994 L 12.4375000003,18.5624999997 L 12.8750000006,19.0000000000 L 12.9375000003,19.0624999997 L 13.0000000000,19.1249999994 L 13.4375000003,19.5624999997 L 13.8750000006,20.0000000000 L 13.9375000003,20.0624999997 L 14.0000000000,20.1249999994 L 14.4375000003,20.5624999997 L 14.8750000006,21.0000000000 L 14.9375000003,21.0624999997 L 15.0000000000,21.1249999994 L 15.4375000003,21.5624999997 L 15.8750000006,22.0000000000 L 15.9375000003,22.0624999997 L 16.0000000000,22.1249999994 L 16.4375000003,22.5624999997 L 16.8750000006,23.0000000000 L 16.9375000003,23.0624999997 L 17.0000000000,23.1249999994 L 17.4375000003,23.5624999997 L 17.8750000006,24.0000000000 L 17.9375000003,24.0624999997 L 18.0000000000,24.1249999994 L 18.4375000003,24.5624999997 L 18.8750000006,25.0000000000 L 18.9375000003,25.0624999997 L 19.0000000000,25.1249999994 L 19.4375000003,25.5624999997 L 19.8750000006,26.0000000000 L 19.9375000003,26.0624999997 L 20.0000000000,26.1249999994 L 20.4375000003,26.5624999997 L 20.8750000006,27.0000000000 L 20.9375000003,27.0624999997 L 21.0000000000,27.1249999994 L 21.4375000003,27.5624999997 L 21.8750000006,28.0000000000 L 21.9375000003,28.0624999997 L 22.0000000000,28.1249999994 L 22.4375000003,28.5624999997 L 22.8750000006,29.0000000000 L 22.9375000003,29.0624999997 L 23.0000000000,29.1249999994 L 23.4375000003,29.5624999997 L 23.8750000006,30.0000000000 L 23.9375000003,30.0624999997 L 24.0000000000,30.1249999994 L 24.4375000003,30.5624999997 L 24.8750000006,31.0000000000 L 24.9375000003,31.0624999997 L 25.0000000000,31.1249999994 L 25.4375000003,31.5624999997 L 25.8750000006,32.0000000000 L 25.9375000003,32.0624999997 L 26.0000000000,32.1249999994 L 26.4375000003,32.5624999997 L 26.8750000006,33.0000000000 L 26.9375000003,33.0624999997 L 27.0000000000,33.1249999994 L 27.4375000003,33.5624999997 L 27.8750000006,34.0000000000 L 27.9375000003,34.0624999997 L 28.0000000000,34.1249999994 L 28.4375000003,34.5624999997 L 28.8750000006,35.0000000000 L 28.9375000003,35.0624999997 L 29.0000000000,35.1249999994 L 29.4375000003,35.5624999997 L 29.8750000006,36.0000000000 L 29.9375000003,36.0624999997 L 30.0000000000,36.1249999994 L 30.4375000003,36.5624999997 L 30.8750000006,37.0000000000 L 30.9375000003,37.0624999997 L 31.0000000000,37.1249999994 L 31.4375000003,37.5624999997 L 31.8750000006,38.0000000000 L 31.9375000003,38.0624999997 L 32.0000000000,38.1249999994 L 32.4375000003,38.5624999997 L 32.8750000006,39.0000000000 L 32.9375000003,39.0624999997 L 33.0000000000,39.1249999994 L 33.4375000003,39.5624999997 L 33.8750000006,40.0000000000 L 33.9375000003,40.0624999997 L 34.0000000000,40.1249999994 L 34.4375000003,40.5624999997 L 34.8750000006,41.0000000000 L 34.9375000003,41.0624999997 L 35.0000000000,41.1249999994 L 35.4375000003,41.5624999997 L 35.8750000006,42.0000000000 L 35.9375000003,42.0624999997 L 36.0000000000,42.1249999994 L 36.4375000003,42.5624999997 L 36.8750000006,43.0000000000 L 36.9375000003,43.0624999997 L 37.0000000000,43.1249999994 L 37.4375000003,43.5624999997 L 37.8750000006,44.0000000000 L 37.9375000003,44.0624999997 L 38.0000000000,44.1249999994 L 38.4375000003,44.5624999997 L 38.8750000006,45.0000000000 L 38.9375000003,45.0624999997 L 39.0000000000,45.1249999994 L 39.4375000003,45.5624999997 L 39.8750000006,46.0000000000 L 39.9375000003,46.0624999997 L 40.0000000000,46.1249999994 L 40.4375000003,46.5624999997 L 40.8750000006,47.0000000000 L 40.9375000003,47.0624999997 L 41.0000000000,47.1249999994 L 41.4375000003,47.5624999997 L 41.8750000006,48.0000000000 L 41.9375000003,48.0624999997 L 42.0000000000,48.1249999994 L 42.4375000003,48.5624999997 L 42.8750000006,49.0000000000 " stroke="rgb(231,255,0)" stroke-width="0.0032666667" fill="none" /> 
<path d="M 0.3750000000,12.6250000000 L 0.7500000000,13.0000000000 L 0.8750000000,13.1250000000 L 1.0000000000,13.2500000000 L 1.3750000000,13.6250000000 L 1.7500000000,14.0000000000 L 1.8750000000,14.1250000000 L 2.0000000000,14.2500000000 L 2.3750000000,14.6250000000 L 2.7500000000,15.0000000000 L 2.8750000000,15.1250000000 L 3.0000000000,15.2500000000 L 3.3750000000,15.6250000000 L 3.7500000000,16.0000000000 L 3.8750000000,16.1250000000 L 4.0000000000,16.2500000000 L 4.3750000000,16.6250000000 L 4.7500000000,17.0000000000 L 4.8750000000,17.1250000000 L 5.0000000000,17.2500000000 L 5.3750000000,17.6250000000 L 5.7500000000,18.0000000000 L 5.8750000000,18.1250000000 L 6.0000000000,18.2500000000 L 6.3750000000,18.6250000000 L 6.7500000000,19.0000000000 L 6.8750000000,19.1250000000 L 7.0000000000,19.2500000000 L 7.3750000000,19.6250000000 L 7.7500000000,20.0000000000 L 7.8750000000,20.1250000000 L 8.0000000000,20.2500000000 L 8.3750000000,20.6250000000 L 8.7500000000,21.0000000000 L 8.8750000000,21.1250000000 L 9.0000000000,21.2500000000 L 9.3750000000,21.6250000000 L 9.7500000000,22.0000000000 L 9.8750000000,22.1250000000 L 10.0000000000,22.2500000000 L 10.3750000000,22.6250000000 L 10.7500000000,23.0000000000 L 10.8750000000,23.1250000000 L 11.0000000000,23.2500000000 L 11.3750000000,23.6250000000 L 11.7500000000,24.0000000000 L 11.8750000000,24.1250000000 L 12.0000000000,24.2500000000 L 12.3750000000,24.6250000000 L 12.7500000000,25.0000000000 L 12.8750000000,25.1250000000 L 13.0000000000,25.2500000000 L 13.3750000000,25.6250000000 L 13.7500000000,26.0000000000 L 13.8750000000,26.1250000000 L 14.0000000000,26.2500000000 L 14.3750000000,26.6250000000 L 14.7500000000,27.0000000000 L 14.8750000000,27.1250000000 L 15.0000000000,27.2500000000 L 15.3750000000,27.6250000000 L 15.7500000000,28.0000000000 L 15.8750000000,28.1250000000 L 16.0000000000,28.2500000000 L 16.3750000000,28.6250000000 L 16.7500000000,29.0000000000 L 16.8750000000,29.1250000000 L 17.0000000000,29.2500000000 L 17.3750000000,29.6250000000 L 17.7500000000,30.0000000000 L 17.8750000000,30.1250000000 L 18.0000000000,30.2500000000 L 18.3750000000,30.6250000000 L 18.7500000000,31.0000000000 L 18.8750000000,31.1250000000 L 19.0000000000,31.2500000000 L 19.3750000000,31.6250000000 L 19.7500000000,32.0000000000 L 19.8750000000,32.1250000000 L 20.0000000000,32.2500000000 L 20.3750000000,32.6250000000 L 20.7500000000,33.0000000000 L 20.8750000000,33.1250000000 L 21.0000000000,33.2500000000 L 21.3750000000,33.6250000000 L 21.7500000000,34.0000000000 L 21.8750000000,34.1250000000 L 22.0000000000,34.2500000000 L 22.3750000000,34.6250000000 L 22.7500000000,35.0000000000 L 22.8750000000,35.1250000000 L 23.0000000000,35.2500000000 L 23.3750000000,35.6250000000 L 23.7500000000,36.0000000000 L 23.8750000000,36.1250000000 L 24.0000000000,36.2500000000 L 24.3750000000,36.6250000000 L 24.7500000000,37.0000000000 L 24.8750000000,37.1250000000 L 25.0000000000,37.2500000000 L 25.3750000000,37.6250000000 L 25.7500000000,38.0000000000 L 25.8750000000,38.1250000000 L 26.0000000000,38.2500000000 L 26.3750000000,38.6250000000 L 26.7500000000,39.0000000000 L 26.8750000000,39.1250000000 L 27.0000000000,39.2500000000 L 27.3750000000,39.6250000000 L 27.7500000000,40.0000000000 L 27.8750000000,40.1250000000 L 28.0000000000,40.2500000000 L 28.3750000000,40.6250000000 L 28.7500000000,41.0000000000 L 28.8750000000,41.1250000000 L 29.0000000000,41.2500000000 L 29.3750000000,41.6250000000 L 29.7500000000,42.0000000000 L 29.8750000000,42.1250000000 L 30.0000000000,42.2500000000 L 30.3750000000,42.6250000000 L 30.7500000000,43.0000000000 L 30.8750000000,43.1250000000 L 31.0000000000,43.2500000000 L 31.3750000000,43.6250000000 L 31.7500000000,44.0000000000 L 31.8750000000,44.1250000000 L 32.0000000000,44.2500000000 L 32.3750000000,44.6250000000 L 32.7500000000,45.0000000000 L 32.8750000000,45.1250000000 L 33.0000000000,45.2500000000 L 33.3750000000,45.6250000000 L 33.7500000000,46.0000000000 L 33.8750000000,46.1250000000 L 34.0000000000,46.2500000000 L 34.3750000000,46.6250000000 L 34.7500000000,47.0000000000 L 34.8750000000,47.1250000000 L 35.0000000000,47.2500000000 L 35.3750000000,47.6250000000 L 35.7500000000,48.0000000000 L 35.8750000000,48.1250000000 L 36.0000000000,48.2500000000 L 36.3750000000,48.6250000000 L 36.7500000000,49.0000000000 M 0.3750000000,12.6250000000 L 0.0000000000,12.2500000000 " stroke="rgb(200,255,0)" stroke-width="0.0032666667" fill="none" /> 
<path d="M 0.6250000000,19.0000000000 L 0.3125000000,18.6875000000 L 0.0000000000,18.3750000000 M 0.6250000000,19.0000000000 L 0.8125000000,19.1875000000 L 1.0000000000,19.3750000000 L 1.3125000000,19.6875000000 L 1.6250000000,20.0000000000 L 1.8125000000,20.1875000000 L 2.0000000000,20.3750000000 L 2.3125000000,20.6875000000 L 2.6250000000,21.0000000000 L 2.8125000000,21.1875000000 L 3.0000000000,21.3750000000 L 3.3125000000,21.6875000000 L 3.6250000000,22.0000000000 L 3.8125000000,22.1875000000 L 4.0000000000,22.3750000000 L 4.3125000000,22.6875000000 L 4.6250000000,23.0000000000 L 4.8125000000,23.1875000000 L 5.0000000000,23.3750000000 L 5.3125000000,23.6875000000 L 5.6250000000,24.0000000000 L 5.8125000000,24.1875000000 L 6.0000000000,24.3750000000 L 6.3125000000,24.6875000000 L 6.6250000000,25.0000000000 L 6.8125000000,25.1875000000 L 7.0000000000,25.3750000000 L 7.3125000000,25.6875000000 L 7.6250000000,26.0000000000 L 7.8125000000,26.1875000000 L 8.0000000000,26.3750000000 L 8.3125000000,26.6875000000 L 8.6250000000,27.0000000000 L 8.8125000000,27.1875000000 L 9.0000000000,27.3750000000 L 9.3125000000,27.6875000000 L 9.6250000000,28.0000000000 L 9.8125000000,28.1875000000 L 10.0000000000,28.3750000000 L 10.3125000000,28.6875000000 L 10.6250000000,29.0000000000 L 10.8125000000,29.1875000000 L 11.0000000000,29.3750000000 L 11.3125000000,29.6875000000 L 11.6250000000,30.0000000000 L 11.8125000000,30.1875000000 L 12.0000000000,30.3750000000 L 12.3125000000,30.6875000000 L 12.6250000000,31.0000000000 L 12.8125000000,31.1875000000 L 13.0000000000,31.3750000000 L 13.3125000000,31.6875000000 L 13.6250000000,32.0000000000 L 13.8125000000,32.1875000000 L 14.0000000000,32.3750000000 L 14.3125000000,32.6875000000 L 14.6250000000,33.0000000000 L 14.8125000000,33.1875000000 L 15.0000000000,33.3750000000 L 15.3125000000,33.6875000000 L 15.6250000000,34.0000000000 L 15.8125000000,34.1875000000 L 16.0000000000,34.3750000000 L 16.3125000000,34.6875000000 L 16.6250000000,35.0000000000 L 16.8125000000,35.1875000000 L 17.0000000000,35.3750000000 L 17.3125000000,35.6875000000 L 17.6250000000,36.0000000000 L 17.8125000000,36.1875000000 L 18.0000000000,36.3750000000 L 18.3125000000,36.6875000000 L 18.6250000000,37.0000000000 L 18.8125000000,37.1875000000 L 19.0000000000,37.3750000000 L 19.3125000000,37.6875000000 L 19.6250000000,38.0000000000 L 19.8125000000,38.1875000000 L 20.0000000000,38.3750000000 L 20.3125000000,38.6875000000 L 20.6250000000,39.0000000000 L 20.8125000000,39.1875000000 L 21.0000000000,39.3750000000 L 21.3125000000,39.6875000000 L 21.6250000000,40.0000000000 L 21.8125000000,40.1875000000 L 22.0000000000,40.3750000000 L 22.3125000000,40.6875000000 L 22.6250000000,41.0000000000 L 22.8125000000,41.1875000000 L 23.0000000000,41.3750000000 L 23.3125000000,41.6875000000 L 23.6250000000,42.0000000000 L 23.8125000000,42.1875000000 L 24.0000000000,42.3750000000 L 24.3125000000,42.6875000000 L 24.6250000000,43.0000000000 L 24.8125000000,43.1875000000 L 25.0000000000,43.3750000000 L 25.3125000000,43.6875000000 L 25.6250000000,44.0000000000 L 25.8125000000,44.1875000000 L 26.0000000000,44.3750000000 L 26.3125000000,44.6875000000 L 26.6250000000,45.0000000000 L 26.8125000000,45.1875000000 L 27.0000000000,45.3750000000 L 27.3125000000,45.6875000000 L 27.6250000000,46.0000000000 L 27.8125000000,46.1875000000 L 28.0000000000,46.3750000000 L 28.3125000000,46.6875000000 L 28.6250000000,47.0000000000 L 28.8125000000,47.1875000000 L 29.0000000000,47.3750000000 L 29.3125000000,47.6875000000 L 29.6250000000,48.0000000000 L 29.8125000000,48.1875000000 L 30.0000000000,48.3750000000 L 30.3125000000,48.6875000000 L 30.6250000000,49.0000000000 " stroke="rgb(169,255,0)" stroke-width="0.0032666667" fill="none" /> 
<path d="M 0.5000000000,25.0000000000 L 0.2500000000,24.7500000000 L 0.0000000000,24.5000000000 M 0.5000000000,25.0000000000 L 0.7500000000,25.2500000000 L 1.0000000000,25.5000000000 L 1.2500000000,25.7500000000 L 1.5000000000,26.0000000000 L 1.7500000000,26.2500000000 L 2.0000000000,26.5000000000 L 2.2500000000,26.7500000000 L 2.5000000000,27.0000000000 L 2.7500000000,27.2500000000 L 3.0000000000,27.5000000000 L 3.2500000000,27.7500000000 L 3.5000000000,28.0000000000 L 3.7500000000,28.2500000000 L 4.0000000000,28.5000000000 L 4.2500000000,28.7500000000 L 4.5000000000,29.0000000000 L 4.7500000000,29.2500000000 L 5.0000000000,29.5000000000 L 5.2500000000,29.7500000000 L 5.5000000000,30.0000000000 L 5.7500000000,30.2500000000 L 6.0000000000,30.5000000000 L 6.2500000000,30.7500000000 L 6.5000000000,31.0000000000 L 6.7500000000,31.2500000000 L 7.0000000000,31.5000000000 L 7.2500000000,31.7500000000 L 7.5000000000,32.0000000000 L 7.7500000000,32.2500000000 L 8.0000000000,32.5000000000 L 8.2500000000,32.7500000000 L 8.5000000000,33.0000000000 L 8.7500000000,33.2500000000 L 9.0000000000,33.5000000000 L 9.2500000000,33.7500000000 L 9.5000000000,34.0000000000 L 9.7500000000,34.2500000000 L 10.0000000000,34.5000000000 L 10.2500000000,34.7500000000 L 10.5000000000,35.0000000000 L 10.7500000000,35.2500000000 L 11.0000000000,35.5000000000 L 11.2500000000,35.7500000000 L 11.5000000000,36.0000000000 L 11.7500000000,36.2500000000 L 12.0000000000,36.5000000000 L 12.2500000000,36.7500000000 L 12.5000000000,37.0000000000 L 12.7500000000,37.2500000000 L 13.0000000000,37.5000000000 L 13.2500000000,37.7500000000 L 13.5000000000,38.0000000000 L 13.7500000000,38.2500000000 L 14.0000000000,38.5000000000 L 14.2500000000,38.7500000000 L 14.5000000000,39.0000000000 L 14.7500000000,39.2500000000 L 15.0000000000,39.5000000000 L 15.2500000000,39.7500000000 L 15.5000000000,40.0000000000 L 15.7500000000,40.2500000000 L 16.0000000000,40.5000000000 L 16.2500000000,40.7500000000 L 16.5000000000,41.0000000000 L 16.7500000000,41.2500000000 L 17.0000000000,41.5000000000 L 17.2500000000,41.7500000000 L 17.5000000000,42.0000000000 L 17.7500000000,42.2500000000 L 18.0000000000,42.5000000000 L 18.2500000000,42.7500000000 L 18.5000000000,43.0000000000 L 18.7500000000,43.2500000000 L 19.0000000000,43.5000000000 L 19.2500000000,43.7500000000 L 19.5000000000,44.0000000000 L 19.7500000000,44.2500000000 L 20.0000000000,44.5000000000 L 20.2500000000,44.7500000000 L 20.5000000000,45.0000000000 L 20.7500000000,45.2500000000 L 21.0000000000,45.5000000000 L 21.2500000000,45.7500000000 L 21.5000000000,46.0000000000 L 21.7500000000,46.2500000000 L 22.0000000000,46.5000000000 L 22.2500000000,46.7500000000 L 22.5000000000,47.0000000000 L 22.7500000000,47.2500000000 L 23.0000000000,47.5000000000 L 23.2500000000,47.7500000000 L 23.5000000000,48.0000000000 L 23.7500000000,48.2500000000 L 24.0000000000,48.5000000000 L 24.2500000000,48.7500000000 L 24.5000000000,49.0000000000 " stroke="rgb(138,255,0)" stroke-width="0.0032666667" fill="none" /> 
<path d="M 0.3750000000,31.0000000000 L 0.1875000000,30.8125000000 L 0.0000000000,30.6250000000 M 0.3750000000,31.0000000000 L 0.6875000000,31.3125000000 L 1.0000000000,31.6250000000 L 1.1875000000,31.8125000000 L 1.3750000000,32.0000000000 L 1.6875000000,32.3125000000 L 2.0000000000,32.6250000000 L 2.1875000000,32.8125000000 L 2.3750000000,33.0000000000 L 2.6875000000,33.3125000000 L 3.0000000000,33.6250000000 L 3.1875000000,33.8125000000 L 3.3750000000,34.0000000000 L 3.6875000000,34.3125000000 L 4.0000000000,34.6250000000 L 4.1875000000,34.8125000000 L 4.3750000000,35.0000000000 L 4.6875000000,35.3125000000 L 5.0000000000,35.6250000000 L 5.1875000000,35.8125000000 L 5.3750000000,36.0000000000 L 5.6875000000,36.3125000000 L 6.0000000000,36.6250000000 L 6.1875000000,36.8125000000 L 6.3750000000,37.0000000000 L 6.6875000000,37.3125000000 L 7.0000000000,37.6250000000 L 7.1875000000,37.8125000000 L 7.3750000000,38.0000000000 L 7.6875000000,38.3125000000 L 8.0000000000,38.6250000000 L 8.1875000000,38.8125000000 L 8.3750000000,39.0000000000 L 8.6875000000,39.3125000000 L 9.0000000000,39.6250000000 L 9.1875000000,39.8125000000 L 9.3750000000,40.0000000000 L 9.6875000000,40.3125000000 L 10.0000000000,40.6250000000 L 10.1875000000,40.8125000000 L 10.3750000000,41.0000000000 L 10.6875000000,41.3125000000 L 11.0000000000,41.6250000000 L 11.1875000000,41.8125000000 L 11.3750000000,42.0000000000 L 11.6875000000,42.3125000000 L 12.0000000000,42.6250000000 L 12.1875000000,42.8125000000 L 12.3750000000,43.0000000000 L 12.6875000000,43.3125000000 L 13.0000000000,43.6250000000 L 13.1875000000,43.8125000000 L 13.3750000000,44.0000000000 L 13.6875000000,44.3125000000 L 14.0000000000,44.6250000000 L 14.1875000000,44.8125000000 L 14.3750000000,45.0000000000 L 14.6875000000,45.3125000000 L 15.0000000000,45.6250000000 L 15.1875000000,45.8125000000 L 15.3750000000,46.0000000000 L 15.6875000000,46.3125000000 L 16.0000000000,46.6250000000 L 16.1875000000,46.8125000000 L 16.3750000000,47.0000000000 L 16.6875000000,47.3125000000 L 17.0000000000,47.6250000000 L 17.1875000000,47.8125000000 L 17.3750000000,48.0000000000 L 17.6875000000,48.3125000000 L 18.0000000000,48.6250000000 L 18.1875000000,48.8125000000 L 18.3750000000,49.0000000000 " stroke="rgb(107,255,0)" stroke-width="0.0032666667" fill="none" /> 
<path d="M 0.1250000000,36.8750000000 L 0.2500000000,37.0000000000 L 0.6250000000,37.3750000000 L 1.0000000000,37.7500000000 L 1.1250000000,37.8750000000 L 1.2500000000,38.0000000000 L 1.6250000000,38.3750000000 L 2.0000000000,38.7500000000 L 2.1250000000,38.8750000000 L 2.2500000000,39.0000000000 L 2.6250000000,39.3750000000 L 3.0000000000,39.7500000000 L 3.1250000000,39.8750000000 L 3.2500000000,40.0000000000 L 3.6250000000,40.3750000000 L 4.0000000000,40.7500000000 L 4.1250000000,40.8750000000 L 4.2500000000,41.0000000000 L 4.6250000000,41.3750000000 L 5.0000000000,41.7500000000 L 5.1250000000,41.8750000000 L 5.2500000000,42.0000000000 L 5.6250000000,42.3750000000 L 6.0000000000,42.7500000000 L 6.1250000000,42.8750000000 L 6.2500000000,43.0000000000 L 6.6250000000,43.3750000000 L 7.0000000000,43.7500000000 L 7.1250000000,43.8750000000 L 7.2500000000,44.0000000000 L 7.6250000000,44.3750000000 L 8.0000000000,44.7500000000 L 8.1250000000,44.8750000000 L 8.2500000000,45.0000000000 L 8.6250000000,45.3750000000 L 9.0000000000,45.7500000000 L 9.1250000000,45.8750000000 L 9.2500000000,46.0000000000 L 9.6250000000,46.3750000000 L 10.0000000000,46.7500000000 L 10.1250000000,46.8750000000 L 10.2500000000,47.0000000000 L 10.6250000000,47.3750000000 L 11.0000000000,47.7500000000 L 11.1250000000,47.8750000000 L 11.2500000000,48.0000000000 L 11.6250000000,48.3750000000 L 12.0000000000,48.7500000000 L 12.1250000000,48.8750000000 L 12.2500000000,49.0000000000 M 0.1250000000,36.8750000000 L 0.0000000000,36.7500000000 " stroke="rgb(76,255,0)" stroke-width="0.0032666667" fill="none" /> 
<path d="M 0.1249999994,43.0000000000 L 0.5624999997,43.4375000003 L 1.0000000000,43.8750000006 L 1.0624999997,43.9375000003 L 1.1249999994,44.0000000000 L 1.5624999997,44.4375000003 L 2.0000000000,44.8750000006 L 2.0624999997,44.9375000003 L 2.1249999994,45.0000000000 L 2.5624999997,45.4375000003 L 3.0000000000,45.8750000006 L 3.0624999997,45.9375000003 L 3.1249999994,46.0000000000 L 3.5624999997,46.4375000003 L 4.0000000000,46.8750000006 L 4.0624999997,46.9375000003 L 4.1249999994,47.0000000000 L 4.5624999997,47.4375000003 L 5.0000000000,47.8750000006 L 5.0624999997,47.9375000003 L 5.1249999994,48.0000000000 L 5.5624999997,48.4375000003 L 6.0000000000,48.8750000006 L 6.0624999997,48.9375000003 L 6.1249999994,49.0000000000 M 0.1249999994,43.0000000000 L 0.0624999997,42.9375000003 L 0.0000000000,42.8750000006 " stroke="rgb(45,255,0)" stroke-width="0.0032666667" fill="none" /> 
</svg>